<svg width="155" height="28" viewBox="0 0 155 28" fill="none" xmlns="http://www.w3.org/2000/svg">
<path fill-rule="evenodd" clip-rule="evenodd" d="M28.7961 28H0.796143V0H28.7961V28ZM25.9325 2.86364V25.1364H3.65978V2.86364H25.9325ZM42.2437 22.2726V4.86172H48.8873C53.2172 4.86172 55.7372 6.90063 55.7372 10.4286C55.7372 13.9566 53.2172 15.9955 48.8873 15.9955H45.199V22.2726H42.2437ZM45.199 7.40463V13.4755H48.9561C51.3615 13.4755 52.6673 12.4446 52.6673 10.4286C52.6673 8.41263 51.3615 7.40463 48.9561 7.40463H45.199ZM57.4598 9.92463H60.3005V12.9257C60.7816 11.0701 62.0187 9.64972 64.4013 9.64972V12.4675H63.6224C61.4002 12.4675 60.3235 13.2006 60.3235 15.3541V22.2726H57.4598V9.92463ZM71.2697 22.5475C75.0955 22.5475 77.501 19.913 77.501 16.0872C77.501 12.2843 75.0955 9.64972 71.2697 9.64972C67.4668 9.64972 65.0613 12.2843 65.0613 16.0872C65.0613 19.913 67.4668 22.5475 71.2697 22.5475ZM71.2697 20.5315C69.1621 20.5315 67.9708 18.8134 67.9708 16.0872C67.9708 13.3839 69.1621 11.6657 71.2697 11.6657C73.4003 11.6657 74.5686 13.3839 74.5686 16.0872C74.5686 18.8134 73.4003 20.5315 71.2697 20.5315ZM82.4968 4.86172V8.02317H79.4957V4.86172H82.4968ZM82.428 23.189C82.428 25.6174 80.7099 26.7628 78.396 26.7628H77.2964V24.6323H77.892C78.9688 24.6323 79.5644 24.2886 79.5644 23.0515V9.92463H82.428V23.189ZM96.622 16.0184C96.622 12.1697 94.2395 9.64972 90.5969 9.64972C86.8857 9.64972 84.526 12.3072 84.526 16.0872C84.526 19.8443 86.8169 22.5475 90.5969 22.5475C93.4835 22.5475 95.5682 21.2646 96.3471 18.6301H93.4377C93.0024 19.8214 92.2006 20.5315 90.6198 20.5315C88.8787 20.5315 87.6646 19.3174 87.4355 16.9348H96.5533C96.5991 16.6141 96.622 16.2934 96.622 16.0184ZM90.5969 11.6657C92.3609 11.6657 93.5522 12.9715 93.6897 14.9417H87.4584C87.7562 12.7195 88.9246 11.6657 90.5969 11.6657ZM110.102 18.0115C109.484 20.9439 107.124 22.5475 104.169 22.5475C100.435 22.5475 97.9833 19.9359 97.9833 16.0872C97.9833 12.2384 100.458 9.64972 104.169 9.64972C107.33 9.64972 109.461 11.4824 109.988 14.2315H107.078C106.757 12.8112 105.818 11.6657 104.169 11.6657C102.084 11.6657 100.893 13.3839 100.893 16.0872C100.893 18.8363 102.107 20.5315 104.169 20.5315C105.795 20.5315 106.757 19.6152 107.216 18.0115H110.102ZM117.407 20.1421C116.353 20.1421 115.734 19.7984 115.734 18.6072V18.5614V12.0323H118.667V9.92463H115.734V6.99226H112.871V9.92463H110.442V12.0323H112.871V18.6988V18.7446C112.871 21.1501 114.635 22.2726 116.926 22.2726H118.712V20.1421H117.407ZM130.61 18.6759C130.61 21.1272 128.296 22.5475 125.135 22.5475C122.248 22.5475 120.026 21.2188 119.66 18.6072H122.546C122.844 20.0963 124.035 20.5315 125.204 20.5315C126.945 20.5315 127.861 19.913 127.861 18.9508C127.861 18.0115 127.288 17.5534 125.501 17.1868L123.554 16.7515C121.309 16.2704 119.935 15.2395 119.935 13.361C119.935 11.093 122.225 9.64972 125.043 9.64972C127.655 9.64972 129.854 10.7952 130.381 13.0861H127.495C127.174 12.1697 126.166 11.6657 125.066 11.6657C123.829 11.6657 122.707 12.1926 122.707 13.1319C122.707 13.9795 123.463 14.2774 124.952 14.5981L126.899 15.0104C129.488 15.5603 130.61 16.7057 130.61 18.6759Z" fill="#F5F5F7"/>
<path d="M138.077 2.065C138.077 0.501667 136.934 0 135.16 0H132.944V8.05H135.534C137.33 8.05 138.45 7.44333 138.45 5.81C138.45 4.66667 137.785 3.96667 136.572 3.86167V3.85C137.424 3.65167 138.077 3.05667 138.077 2.065ZM135.16 0.595C136.63 0.595 137.342 0.921667 137.342 2.065C137.342 3.22 136.549 3.57 135.114 3.57H133.632V0.595H135.16ZM135.312 4.165C136.829 4.165 137.715 4.55 137.715 5.81C137.715 7.07 136.91 7.455 135.487 7.455H133.632V4.165H135.312Z" fill="#DCFF50"/>
<path d="M144.691 6.20667H144.038C143.909 6.84833 143.466 7.61833 142.323 7.61833C141.039 7.61833 140.304 6.615 140.269 5.32H144.784C144.901 3.535 143.863 2.1 142.206 2.1C140.573 2.1 139.604 3.52333 139.604 5.13333C139.604 6.74333 140.573 8.16667 142.241 8.16667C143.769 8.16667 144.504 7.26833 144.691 6.20667ZM142.206 2.64833C143.349 2.64833 144.073 3.54667 144.131 4.77167H140.269C140.363 3.52333 141.098 2.64833 142.206 2.64833Z" fill="#DCFF50"/>
<path d="M148.742 8.05V7.50167H147.844C147.401 7.50167 147.202 7.30333 147.202 6.825V2.765H148.789V2.21667H147.202V0.886667H146.549V2.21667H145.394V2.765H146.549V6.90667C146.549 7.63 146.899 8.05 147.704 8.05H148.742Z" fill="#DCFF50"/>
<path d="M153.562 6.755H153.574V8.05H154.204V4.38667C154.204 2.765 153.177 2.1 151.929 2.1C150.517 2.1 149.724 2.95167 149.665 4.06H150.33C150.365 3.31333 150.844 2.64833 151.929 2.64833C153.072 2.64833 153.55 3.395 153.55 4.305V4.52667L151.917 4.70167C150.564 4.85333 149.444 5.19167 149.444 6.39333C149.444 7.57167 150.377 8.16667 151.474 8.16667C152.535 8.16667 153.259 7.595 153.562 6.755ZM150.144 6.45167C150.144 5.57667 150.96 5.33167 152.139 5.20333L153.55 5.04V5.41333C153.55 6.755 152.909 7.61833 151.567 7.61833C150.879 7.61833 150.144 7.22167 150.144 6.45167Z" fill="#DCFF50"/>
</svg>
