<svg width="822" height="156" viewBox="0 0 822 156" fill="none" xmlns="http://www.w3.org/2000/svg">
<path d="M227.159 29.519V127H243.705V91.8556H264.356C288.598 91.8556 302.707 80.44 302.707 60.6873C302.707 40.9346 288.598 29.519 264.356 29.519H227.159ZM243.705 77.7465V43.7564H264.741C278.208 43.7564 285.52 49.4 285.52 60.6873C285.52 71.9746 278.208 77.7465 264.741 77.7465H243.705Z" fill="#F4F4F4"/>
<path d="M324.409 57.8655H308.504V127H324.537V88.2642C324.537 76.2073 330.565 72.1028 343.007 72.1028H347.368V56.3263C334.029 56.3263 327.102 64.2787 324.409 74.6681V57.8655Z" fill="#F4F4F4"/>
<path d="M381.975 128.539C403.396 128.539 416.863 113.789 416.863 92.3686C416.863 71.0767 403.396 56.3263 381.975 56.3263C360.684 56.3263 347.216 71.0767 347.216 92.3686C347.216 113.789 360.684 128.539 381.975 128.539ZM381.975 117.252C370.175 117.252 363.505 107.632 363.505 92.3686C363.505 77.2334 370.175 67.6136 381.975 67.6136C393.904 67.6136 400.445 77.2334 400.445 92.3686C400.445 107.632 393.904 117.252 381.975 117.252Z" fill="#F4F4F4"/>
<path d="M440.986 47.2195V29.519H424.183V47.2195H440.986ZM418.027 152.14C430.981 152.14 440.601 145.727 440.601 132.131V57.8655H424.568V131.361C424.568 138.287 421.233 140.211 415.205 140.211H411.87V152.14H418.027Z" fill="#F4F4F4"/>
<path d="M516.223 91.9838C516.223 70.4354 502.884 56.3263 482.49 56.3263C461.711 56.3263 448.5 71.205 448.5 92.3686C448.5 113.404 461.326 128.539 482.49 128.539C498.651 128.539 510.323 121.356 514.684 106.606H498.394C495.957 113.276 491.468 117.252 482.618 117.252C472.87 117.252 466.072 110.454 464.789 97.1144H515.838C516.095 95.3187 516.223 93.523 516.223 91.9838ZM482.49 67.6136C492.366 67.6136 499.036 74.9247 499.805 85.9554H464.917C466.585 73.5138 473.126 67.6136 482.49 67.6136Z" fill="#F4F4F4"/>
<path d="M554.628 128.539C571.175 128.539 584.386 119.561 587.849 103.143H571.688C569.122 112.121 563.735 117.252 554.628 117.252C543.085 117.252 536.287 107.76 536.287 92.3686C536.287 77.2334 542.956 67.6136 554.628 67.6136C563.863 67.6136 569.122 74.0268 570.918 81.9792H587.208C584.258 66.5875 572.329 56.3263 554.628 56.3263C533.85 56.3263 519.997 70.8202 519.997 92.3686C519.997 113.917 533.721 128.539 554.628 128.539Z" fill="#F4F4F4"/>
<path d="M624.897 115.071C618.997 115.071 615.534 113.147 615.534 106.478V106.221V69.6658H631.952V57.8655H615.534V41.4476H599.501V57.8655H585.905V69.6658H599.501V106.991V107.247C599.501 120.715 609.377 127 622.204 127H632.208V115.071H624.897Z" fill="#F4F4F4"/>
<path d="M664.319 128.539C682.019 128.539 694.974 120.587 694.974 106.863C694.974 95.8318 688.689 89.4186 674.195 86.3402L663.292 84.0314C654.955 82.2357 650.723 80.5683 650.723 75.8225C650.723 70.5637 657.008 67.6136 663.934 67.6136C670.09 67.6136 675.734 70.4354 677.53 75.566H693.691C690.741 62.7395 678.428 56.3263 663.806 56.3263C648.029 56.3263 635.203 64.407 635.203 77.1052C635.203 87.6228 642.898 93.3947 655.468 96.0883L666.371 98.5253C676.375 100.578 679.582 103.143 679.582 108.402C679.582 113.789 674.451 117.252 664.703 117.252C658.162 117.252 651.492 114.815 649.825 106.478H633.663C635.716 121.1 648.157 128.539 664.319 128.539Z" fill="#F4F4F4"/>
<path d="M227.159 29.519V127H243.705V91.8556H264.356C288.598 91.8556 302.707 80.44 302.707 60.6873C302.707 40.9346 288.598 29.519 264.356 29.519H227.159ZM243.705 77.7465V43.7564H264.741C278.208 43.7564 285.52 49.4 285.52 60.6873C285.52 71.9746 278.208 77.7465 264.741 77.7465H243.705Z" fill="#F4F4F4"/>
<path d="M324.409 57.8655H308.504V127H324.537V88.2642C324.537 76.2073 330.565 72.1028 343.007 72.1028H347.368V56.3263C334.029 56.3263 327.102 64.2787 324.409 74.6681V57.8655Z" fill="#F4F4F4"/>
<path d="M381.975 128.539C403.396 128.539 416.863 113.789 416.863 92.3686C416.863 71.0767 403.396 56.3263 381.975 56.3263C360.684 56.3263 347.216 71.0767 347.216 92.3686C347.216 113.789 360.684 128.539 381.975 128.539ZM381.975 117.252C370.175 117.252 363.505 107.632 363.505 92.3686C363.505 77.2334 370.175 67.6136 381.975 67.6136C393.904 67.6136 400.445 77.2334 400.445 92.3686C400.445 107.632 393.904 117.252 381.975 117.252Z" fill="#F4F4F4"/>
<path d="M440.986 47.2195V29.519H424.183V47.2195H440.986ZM418.027 152.14C430.981 152.14 440.601 145.727 440.601 132.131V57.8655H424.568V131.361C424.568 138.287 421.233 140.211 415.205 140.211H411.87V152.14H418.027Z" fill="#F4F4F4"/>
<path d="M516.223 91.9838C516.223 70.4354 502.884 56.3263 482.49 56.3263C461.711 56.3263 448.5 71.205 448.5 92.3686C448.5 113.404 461.326 128.539 482.49 128.539C498.651 128.539 510.323 121.356 514.684 106.606H498.394C495.957 113.276 491.468 117.252 482.618 117.252C472.87 117.252 466.072 110.454 464.789 97.1144H515.838C516.095 95.3187 516.223 93.523 516.223 91.9838ZM482.49 67.6136C492.366 67.6136 499.036 74.9247 499.805 85.9554H464.917C466.585 73.5138 473.126 67.6136 482.49 67.6136Z" fill="#F4F4F4"/>
<path d="M554.628 128.539C571.175 128.539 584.386 119.561 587.849 103.143H571.688C569.122 112.121 563.735 117.252 554.628 117.252C543.085 117.252 536.287 107.76 536.287 92.3686C536.287 77.2334 542.956 67.6136 554.628 67.6136C563.863 67.6136 569.122 74.0268 570.918 81.9792H587.208C584.258 66.5875 572.329 56.3263 554.628 56.3263C533.85 56.3263 519.997 70.8202 519.997 92.3686C519.997 113.917 533.721 128.539 554.628 128.539Z" fill="#F4F4F4"/>
<path d="M624.897 115.071C618.997 115.071 615.534 113.147 615.534 106.478V106.221V69.6658H631.952V57.8655H615.534V41.4476H599.501V57.8655H585.905V69.6658H599.501V106.991V107.247C599.501 120.715 609.377 127 622.204 127H632.208V115.071H624.897Z" fill="#F4F4F4"/>
<path d="M664.319 128.539C682.019 128.539 694.974 120.587 694.974 106.863C694.974 95.8318 688.689 89.4186 674.195 86.3402L663.292 84.0314C654.955 82.2357 650.723 80.5683 650.723 75.8225C650.723 70.5637 657.008 67.6136 663.934 67.6136C670.09 67.6136 675.734 70.4354 677.53 75.566H693.691C690.741 62.7395 678.428 56.3263 663.806 56.3263C648.029 56.3263 635.203 64.407 635.203 77.1052C635.203 87.6228 642.898 93.3947 655.468 96.0883L666.371 98.5253C676.375 100.578 679.582 103.143 679.582 108.402C679.582 113.789 674.451 117.252 664.703 117.252C658.162 117.252 651.492 114.815 649.825 106.478H633.663C635.716 121.1 648.157 128.539 664.319 128.539Z" fill="#F4F4F4"/>
<path d="M727.064 21.337C733.269 20.7275 737.535 17.3479 737.535 11.8074C737.535 5.99001 733.601 0.892822 723.351 0.892822H707.506V43H723.351C733.269 43 738.975 38.9001 738.975 31.3097C738.975 24.9382 734.876 21.614 727.064 21.337ZM731.717 12.3615C731.717 16.8492 728.615 18.7884 723.351 18.7884H713.102V5.8792H723.351C728.615 5.8792 731.717 7.92915 731.717 12.3615ZM713.102 38.0136V23.7747H723.518C730 23.7747 733.158 26.2679 733.158 30.9219C733.158 35.5204 730 38.0136 723.518 38.0136H713.102Z" fill="#DCFF50"/>
<path d="M771.521 27.7084C771.521 18.5668 765.869 12.6939 757.559 12.6939C748.75 12.6939 743.486 19.1208 743.486 28.1517C743.486 37.0717 748.639 43.6094 757.614 43.6094C764.318 43.6094 769.138 40.6176 770.856 34.3015H765.315C764.207 37.6258 761.936 39.6203 757.614 39.6203C752.683 39.6203 749.414 36.1853 748.971 29.7584H771.41C771.465 29.0381 771.521 28.2625 771.521 27.7084ZM757.559 16.683C762.434 16.683 765.648 20.3397 765.98 25.6585H749.027C749.691 19.7302 752.849 16.683 757.559 16.683Z" fill="#DCFF50"/>
<path d="M789.442 38.9001C786.727 38.9001 785.12 38.0136 785.12 34.8556V34.7448V17.4033H792.655V13.3034H785.12V6.26703H779.691V13.3034H773.43V17.4033H779.691V34.7448V34.8556C779.691 40.5068 783.735 43 788.888 43H792.766V38.9001H789.442Z" fill="#DCFF50"/>
<path d="M809.509 12.6939C802.528 12.6939 797.763 16.4614 797.098 22.0572H802.639C803.027 19.2316 805.354 16.683 809.509 16.683C814.218 16.683 816.379 19.9519 816.379 23.8301V23.941V24.4396L808.401 25.2707C803.082 25.8247 796.156 27.1544 796.156 34.0799C796.156 39.5649 800.589 43.6094 806.129 43.6094C811.891 43.6094 814.329 41.0608 816.379 36.9055V43H821.809V23.9964V23.8856C821.809 18.3451 818.54 12.6939 809.509 12.6939ZM808.124 40.0082C804.689 40.0082 801.697 37.9028 801.697 34.0799C801.697 29.7584 806.351 29.2044 810.451 28.7611L816.379 28.1517V30.3678C816.379 35.6866 813.609 40.0082 808.124 40.0082Z" fill="#DCFF50"/>
<path fill-rule="evenodd" clip-rule="evenodd" d="M154.259 1L0 1V155.259H154.259V1ZM138.482 139.482V16.7765H15.7765V139.482H138.482Z" fill="#F4F4F4"/>
</svg>
