<svg width="1210" height="105" viewBox="0 0 1210 105" fill="none" xmlns="http://www.w3.org/2000/svg">
<path fill-rule="evenodd" clip-rule="evenodd" d="M104.297 1.31104L0.873535 1.3111V104.735L104.297 104.735V1.31104ZM93.7196 94.1572V11.8885H11.4509V94.1572H93.7196Z" fill="white"/>
<path d="M770.583 104.648V1.39795H771.253V104.648H770.583Z" fill="white"/>
<path d="M211.446 62.1274H200.306C198.687 72.2198 191.927 78.0277 182.597 78.0277C170.219 78.0277 162.126 68.4114 162.126 53.0823C162.126 37.9437 169.933 28.1369 181.93 28.1369C191.642 28.1369 198.021 33.8496 199.83 44.1324H210.97C208.78 29.089 196.688 19.2822 181.549 19.2822C163.364 19.2822 150.796 34.3256 150.796 53.0823C150.796 72.4103 163.649 86.8824 181.835 86.8824C196.973 86.8824 209.161 77.1708 211.446 62.1274Z" fill="white"/>
<path fill-rule="evenodd" clip-rule="evenodd" d="M262.562 62.1274C262.562 49.2739 253.707 37.3724 239.235 37.3724C224.763 37.3724 215.908 49.2739 215.908 62.1274C215.908 74.981 224.763 86.8824 239.235 86.8824C253.707 86.8824 262.562 74.981 262.562 62.1274ZM226.857 62.1274C226.857 51.9398 231.332 45.0846 239.235 45.0846C247.233 45.0846 251.707 51.9398 251.707 62.1274C251.707 72.2198 247.233 79.1703 239.235 79.1703C231.332 79.1703 226.857 72.2198 226.857 62.1274Z" fill="white"/>
<path fill-rule="evenodd" clip-rule="evenodd" d="M303.061 75.9331H302.775C300.49 82.5027 294.968 86.8824 287.732 86.8824C274.783 86.8824 267.737 75.457 267.737 62.1274C267.737 48.7978 275.069 37.3724 287.732 37.3724C294.968 37.3724 300.49 41.6569 302.775 48.2265H303.061V20.2343H313.248V85.9303H303.061V75.9331ZM291.064 45.0846C283.161 45.0846 278.687 51.9398 278.687 62.1274C278.687 72.2198 283.161 79.1703 291.064 79.1703C299.062 79.1703 303.442 72.2198 303.442 62.1274C303.442 51.9398 299.062 45.0846 291.064 45.0846Z" fill="white"/>
<path fill-rule="evenodd" clip-rule="evenodd" d="M364.468 71.1725H354.09C352.948 74.981 350.282 79.1703 344.093 79.1703C336.857 79.1703 331.811 74.1241 331.335 65.4598H365.325C366.754 48.893 357.423 37.3724 343.236 37.3724C329.05 37.3724 320.957 48.9882 320.957 62.1274C320.957 75.2666 329.24 86.8824 343.427 86.8824C355.042 86.8824 362.469 80.5985 364.468 71.1725ZM343.236 45.0846C350.187 45.0846 354.281 50.0356 354.947 57.7477H331.43C332.096 50.0356 336.286 45.0846 343.236 45.0846Z" fill="white"/>
<path d="M405.499 48.1313C417.877 50.9877 424.066 57.4621 424.066 67.8401C424.066 78.7894 413.402 86.8824 398.168 86.8824C380.744 86.8824 371.318 74.6953 370.271 62.7939H381.411C382.077 71.3629 389.028 78.0277 398.263 78.0277C406.642 78.0277 412.831 74.4097 412.831 68.3162C412.831 62.9843 408.832 60.128 400.358 58.1285L390.837 55.9387C377.983 52.8919 371.604 46.8936 371.604 37.7533C371.604 26.7087 382.458 19.2822 395.693 19.2822C412.45 19.2822 421.019 28.4225 422.161 39.7527H411.022C410.165 31.9454 403.595 28.1369 395.883 28.1369C388.361 28.1369 382.934 31.3741 382.934 36.9916C382.934 41.4665 386.267 43.5612 395.978 45.8462L405.499 48.1313Z" fill="white"/>
<path fill-rule="evenodd" clip-rule="evenodd" d="M464.114 75.9331H464.4V85.9303H474.587V38.3245H464.4V48.2265H464.114C461.829 41.6569 456.307 37.3724 449.071 37.3724C436.407 37.3724 429.076 48.7978 429.076 62.1274C429.076 75.457 436.122 86.8824 449.071 86.8824C456.307 86.8824 461.829 82.5027 464.114 75.9331ZM440.025 62.1274C440.025 51.9398 444.596 45.0846 452.308 45.0846C460.02 45.0846 464.78 51.9398 464.78 62.1274C464.78 72.2198 460.02 79.1703 452.308 79.1703C444.691 79.1703 440.025 72.2198 440.025 62.1274Z" fill="white"/>
<path d="M495.34 57.3668V85.9303H484.962V38.3245H495.054V47.6553H495.244C497.244 40.9905 502.195 37.3724 509.145 37.3724C519.619 37.3724 524.76 44.5133 524.76 54.9866V85.9303H514.382V58.0333C514.382 49.1787 511.24 45.1798 504.861 45.1798C498.482 45.1798 495.34 49.5595 495.34 57.3668Z" fill="white"/>
<path fill-rule="evenodd" clip-rule="evenodd" d="M567.21 75.9331H567.496V85.9303H577.683V20.2343H567.496V48.2265H567.21C564.925 41.6569 559.403 37.3724 552.167 37.3724C539.504 37.3724 532.172 48.7978 532.172 62.1274C532.172 75.457 539.218 86.8824 552.167 86.8824C559.403 86.8824 564.925 82.5027 567.21 75.9331ZM543.122 62.1274C543.122 51.9398 547.597 45.0846 555.499 45.0846C563.497 45.0846 567.877 51.9398 567.877 62.1274C567.877 72.2198 563.497 79.1703 555.499 79.1703C547.597 79.1703 543.122 72.2198 543.122 62.1274Z" fill="white"/>
<path fill-rule="evenodd" clip-rule="evenodd" d="M613.575 37.3724C626.238 37.3724 633.569 48.7978 633.569 62.1274C633.569 75.457 626.523 86.8824 613.575 86.8824C606.338 86.8824 600.816 82.5027 598.531 75.9331H598.245V85.9303H588.058V20.2343H598.245V48.2265H598.531C600.816 41.6569 606.338 37.3724 613.575 37.3724ZM610.242 45.0846C602.244 45.0846 597.865 51.9398 597.865 62.1274C597.865 72.2198 602.244 79.1703 610.242 79.1703C618.145 79.1703 622.62 72.2198 622.62 62.1274C622.62 51.9398 618.145 45.0846 610.242 45.0846Z" fill="white"/>
<path fill-rule="evenodd" clip-rule="evenodd" d="M685.453 62.1274C685.453 49.2739 676.599 37.3724 662.126 37.3724C647.654 37.3724 638.8 49.2739 638.8 62.1274C638.8 74.981 647.654 86.8824 662.126 86.8824C676.599 86.8824 685.453 74.981 685.453 62.1274ZM649.749 62.1274C649.749 51.9398 654.224 45.0846 662.126 45.0846C670.124 45.0846 674.599 51.9398 674.599 62.1274C674.599 72.2198 670.124 79.1703 662.126 79.1703C654.224 79.1703 649.749 72.2198 649.749 62.1274Z" fill="white"/>
<path d="M708.689 67.4593L696.025 85.9303H684.314L702.595 60.3184L686.695 38.3245H698.406L708.689 53.1775L718.971 38.3245H730.587L714.782 60.2232L732.968 85.9303H721.352L708.689 67.4593Z" fill="white"/>
<path fill-rule="evenodd" clip-rule="evenodd" d="M811.252 20.3366V85.6932H822.346V62.1304H836.191C852.444 62.1304 861.903 54.4768 861.903 41.2335C861.903 27.9902 852.444 20.3366 836.191 20.3366H811.252ZM822.346 52.6709V29.8821H836.449C845.478 29.8821 850.38 33.6659 850.38 41.2335C850.38 48.8011 845.478 52.6709 836.449 52.6709H822.346Z" fill="white"/>
<path d="M876.453 39.3416H865.79V85.6932H876.539V59.7225C876.539 51.639 880.581 48.8871 888.923 48.8871H891.847V38.3097C882.903 38.3097 878.259 43.6414 876.453 50.607V39.3416Z" fill="white"/>
<path fill-rule="evenodd" clip-rule="evenodd" d="M915.049 86.7251C929.411 86.7251 938.44 76.8356 938.44 62.4744C938.44 48.1991 929.411 38.3097 915.049 38.3097C900.774 38.3097 891.745 48.1991 891.745 62.4744C891.745 76.8356 900.774 86.7251 915.049 86.7251ZM915.049 79.1575C907.138 79.1575 902.666 72.7079 902.666 62.4744C902.666 52.3269 907.138 45.8773 915.049 45.8773C923.047 45.8773 927.433 52.3269 927.433 62.4744C927.433 72.7079 923.047 79.1575 915.049 79.1575Z" fill="white"/>
<path d="M954.613 32.204V20.3366H943.348V32.204H954.613Z" fill="white"/>
<path d="M939.22 102.548C947.906 102.548 954.355 98.2485 954.355 89.133V39.3416H943.606V88.617C943.606 93.2608 941.37 94.5507 937.328 94.5507H935.092V102.548H939.22Z" fill="white"/>
<path fill-rule="evenodd" clip-rule="evenodd" d="M1005.06 62.2164C1005.06 47.7692 996.113 38.3097 982.44 38.3097C968.508 38.3097 959.651 48.2851 959.651 62.4744C959.651 76.5777 968.25 86.7251 982.44 86.7251C993.275 86.7251 1001.1 81.9094 1004.02 72.0199H993.103C991.469 76.4917 988.459 79.1575 982.526 79.1575C975.99 79.1575 971.432 74.5998 970.572 65.6562H1004.8C1004.97 64.4523 1005.06 63.2484 1005.06 62.2164ZM982.44 45.8773C989.061 45.8773 993.533 50.779 994.049 58.1746H970.658C971.776 49.8331 976.162 45.8773 982.44 45.8773Z" fill="white"/>
<path d="M1030.81 86.7251C1041.9 86.7251 1050.76 80.7054 1053.08 69.698H1042.24C1040.52 75.7177 1036.91 79.1575 1030.81 79.1575C1023.07 79.1575 1018.51 72.7939 1018.51 62.4744C1018.51 52.3269 1022.98 45.8773 1030.81 45.8773C1037 45.8773 1040.52 50.177 1041.73 55.5088H1052.65C1050.67 45.1893 1042.67 38.3097 1030.81 38.3097C1016.87 38.3097 1007.59 48.0272 1007.59 62.4744C1007.59 76.9216 1016.79 86.7251 1030.81 86.7251Z" fill="white"/>
<path d="M1077.92 77.6956C1073.96 77.6956 1071.64 76.4057 1071.64 71.9339V47.2532H1082.65V39.3416H1071.64V28.3342H1060.89V39.3416H1051.77V47.2532H1060.89V72.4499C1060.89 81.4794 1067.51 85.6932 1076.11 85.6932H1082.82V77.6956H1077.92Z" fill="white"/>
<path d="M1104.35 86.7251C1116.21 86.7251 1124.9 81.3934 1124.9 72.1919C1124.9 64.7963 1120.69 60.4965 1110.97 58.4326L1103.66 56.8847C1098.07 55.6808 1095.23 54.5628 1095.23 51.381C1095.23 47.8552 1099.45 45.8773 1104.09 45.8773C1108.22 45.8773 1112 47.7692 1113.21 51.209H1124.04C1122.06 42.6094 1113.81 38.3097 1104 38.3097C1093.43 38.3097 1084.83 43.7274 1084.83 52.2409C1084.83 59.2926 1089.99 63.1624 1098.41 64.9683L1105.72 66.6022C1112.43 67.9781 1114.58 69.698 1114.58 73.2238C1114.58 76.8356 1111.14 79.1575 1104.61 79.1575C1100.22 79.1575 1095.75 77.5236 1094.63 71.9339H1083.79C1085.17 81.7374 1093.51 86.7251 1104.35 86.7251Z" fill="white"/>
<path fill-rule="evenodd" clip-rule="evenodd" d="M1153.44 8.0868C1153.44 11.8014 1150.58 14.0673 1146.42 14.4759C1151.65 14.6616 1154.4 16.8904 1154.4 21.1622C1154.4 26.2512 1150.58 29 1143.93 29H1133.3V0.769043H1143.93C1150.8 0.769043 1153.44 4.18647 1153.44 8.0868ZM1143.93 12.7672C1147.46 12.7672 1149.54 11.4671 1149.54 8.45826C1149.54 5.48658 1147.46 4.11218 1143.93 4.11218H1137.05V12.7672H1143.93ZM1137.05 16.1103V25.6569H1144.04C1148.38 25.6569 1150.5 23.9853 1150.5 20.9022C1150.5 17.7819 1148.38 16.1103 1144.04 16.1103H1137.05Z" fill="#DCFF50"/>
<path fill-rule="evenodd" clip-rule="evenodd" d="M1166.86 8.68114C1172.43 8.68114 1176.22 12.6186 1176.22 18.7477C1176.22 19.1192 1176.18 19.6392 1176.15 20.1221H1161.1C1161.4 24.431 1163.59 26.7341 1166.9 26.7341C1169.8 26.7341 1171.32 25.3968 1172.06 23.1681H1175.78C1174.62 27.4027 1171.39 29.4086 1166.9 29.4086C1160.88 29.4086 1157.43 25.0254 1157.43 19.0449C1157.43 12.9901 1160.95 8.68114 1166.86 8.68114ZM1172.51 17.3733C1172.28 13.8073 1170.13 11.3556 1166.86 11.3556C1163.7 11.3556 1161.59 13.3987 1161.14 17.3733H1172.51Z" fill="#DCFF50"/>
<path d="M1185.34 23.5395C1185.34 25.6569 1186.42 26.2512 1188.24 26.2512H1190.47V29H1187.87C1184.41 29 1181.7 27.3284 1181.7 23.5395V11.8385H1177.5V9.08974H1181.7V4.3722H1185.34V9.08974H1190.39V11.8385H1185.34V23.5395Z" fill="#DCFF50"/>
<path fill-rule="evenodd" clip-rule="evenodd" d="M1193.37 14.9588C1193.82 11.2071 1197.01 8.68114 1201.69 8.68114C1207.75 8.68114 1209.94 12.47 1209.94 16.1846V29H1206.3V24.9139C1204.92 27.6999 1203.29 29.4086 1199.43 29.4086C1195.71 29.4086 1192.74 26.6969 1192.74 23.0195C1192.74 18.3762 1197.38 17.4847 1200.95 17.1133L1206.3 16.5561V16.1475C1206.3 13.5473 1204.85 11.3556 1201.69 11.3556C1198.91 11.3556 1197.35 13.0644 1197.09 14.9588H1193.37ZM1196.45 23.0195C1196.45 25.5826 1198.46 26.9941 1200.76 26.9941C1204.44 26.9941 1206.3 24.0967 1206.3 20.5307V19.0449L1202.32 19.4535C1199.57 19.7506 1196.45 20.1221 1196.45 23.0195Z" fill="#DCFF50"/>
</svg>
