<svg width="338" height="29" viewBox="0 0 338 29" fill="none" xmlns="http://www.w3.org/2000/svg">
<path fill-rule="evenodd" clip-rule="evenodd" d="M28.5184 28.9578H0.47522V0.873047H28.5184V28.9578ZM25.6503 3.74535V26.0855H3.34327V3.74535H25.6503Z" fill="#F5F5F7"/>
<path d="M54.5511 17.3877H57.5716C56.952 21.4728 53.6475 24.11 49.5427 24.11C44.6117 24.11 41.1265 20.18 41.1265 14.9315C41.1265 9.83815 44.5343 5.75309 49.4652 5.75309C53.57 5.75309 56.8487 8.41613 57.4425 12.5012H54.422C53.9315 9.70887 52.2018 8.15759 49.5685 8.15759C46.3156 8.15759 44.1987 10.8206 44.1987 14.9315C44.1987 19.0941 46.3931 21.7055 49.7492 21.7055C52.2792 21.7055 54.1122 20.1283 54.5511 17.3877Z" fill="#F5F5F7"/>
<path fill-rule="evenodd" clip-rule="evenodd" d="M71.4316 17.3877C71.4316 13.8973 69.0307 10.6655 65.1066 10.6655C61.1825 10.6655 58.7816 13.8973 58.7816 17.3877C58.7816 20.8781 61.1825 24.11 65.1066 24.11C69.0307 24.11 71.4316 20.8781 71.4316 17.3877ZM61.7504 17.3877C61.7504 14.6213 62.9638 12.7597 65.1066 12.7597C67.2752 12.7597 68.4886 14.6213 68.4886 17.3877C68.4886 20.1283 67.2752 22.0157 65.1066 22.0157C62.9638 22.0157 61.7504 20.1283 61.7504 17.3877Z" fill="#F5F5F7"/>
<path fill-rule="evenodd" clip-rule="evenodd" d="M82.3355 21.1367H82.4129V23.8514H85.1753V6.01164H82.4129V13.6129H82.3355C81.7159 11.829 80.2185 10.6655 78.2565 10.6655C74.8229 10.6655 72.835 13.7681 72.835 17.3877C72.835 21.0074 74.7454 24.11 78.2565 24.11C80.2185 24.11 81.7159 22.9207 82.3355 21.1367ZM75.8039 17.3877C75.8039 14.6213 77.0173 12.7597 79.16 12.7597C81.3286 12.7597 82.5162 14.6213 82.5162 17.3877C82.5162 20.1283 81.3286 22.0157 79.16 22.0157C77.0173 22.0157 75.8039 20.1283 75.8039 17.3877Z" fill="#F5F5F7"/>
<path fill-rule="evenodd" clip-rule="evenodd" d="M99.0636 19.8439H96.2496C95.9398 20.8781 95.2169 22.0157 93.5388 22.0157C91.5768 22.0157 90.2085 20.6454 90.0794 18.2927H99.2959C99.6832 13.7939 97.1531 10.6655 93.3065 10.6655C89.4598 10.6655 87.2654 13.8198 87.2654 17.3877C87.2654 20.9557 89.5115 24.11 93.3581 24.11C96.5077 24.11 98.5214 22.4036 99.0636 19.8439ZM93.3065 12.7597C95.1911 12.7597 96.3012 14.1042 96.4819 16.1984H90.1052C90.2859 14.1042 91.4219 12.7597 93.3065 12.7597Z" fill="#F5F5F7"/>
<path d="M115.223 18.939C115.223 16.1209 113.545 14.3627 110.189 13.5871L107.607 12.9666C104.974 12.3461 104.071 11.7773 104.071 10.5621C104.071 9.03665 105.542 8.15759 107.582 8.15759C109.673 8.15759 111.454 9.19178 111.686 11.3119H114.707C114.397 8.23515 112.074 5.75309 107.53 5.75309C103.941 5.75309 100.998 7.76976 100.998 10.7689C100.998 13.251 102.728 14.8798 106.213 15.7072L108.795 16.3018C111.093 16.8448 112.177 17.6204 112.177 19.0683C112.177 20.723 110.499 21.7055 108.227 21.7055C105.723 21.7055 103.838 19.8956 103.657 17.5687H100.637C100.921 20.8006 103.477 24.11 108.201 24.11C112.332 24.11 115.223 21.9123 115.223 18.939Z" fill="#F5F5F7"/>
<path fill-rule="evenodd" clip-rule="evenodd" d="M126.082 21.1367H126.16V23.8514H128.922V10.924H126.16V13.6129H126.082C125.463 11.829 123.965 10.6655 122.003 10.6655C118.57 10.6655 116.582 13.7681 116.582 17.3877C116.582 21.0074 118.492 24.11 122.003 24.11C123.965 24.11 125.463 22.9207 126.082 21.1367ZM119.551 17.3877C119.551 14.6213 120.79 12.7597 122.881 12.7597C124.972 12.7597 126.263 14.6213 126.263 17.3877C126.263 20.1283 124.972 22.0157 122.881 22.0157C120.816 22.0157 119.551 20.1283 119.551 17.3877Z" fill="#F5F5F7"/>
<path d="M134.549 23.8514V16.095C134.549 13.9749 135.401 12.7856 137.131 12.7856C138.861 12.7856 139.712 13.8715 139.712 16.276V23.8514H142.526V15.4486C142.526 12.6046 141.132 10.6655 138.293 10.6655C136.408 10.6655 135.065 11.648 134.523 13.4578H134.472V10.924H131.735V23.8514H134.549Z" fill="#F5F5F7"/>
<path fill-rule="evenodd" clip-rule="evenodd" d="M154.037 21.1367H154.114V23.8514H156.877V6.01164H154.114V13.6129H154.037C153.417 11.829 151.92 10.6655 149.958 10.6655C146.524 10.6655 144.536 13.7681 144.536 17.3877C144.536 21.0074 146.447 24.11 149.958 24.11C151.92 24.11 153.417 22.9207 154.037 21.1367ZM147.505 17.3877C147.505 14.6213 148.719 12.7597 150.861 12.7597C153.03 12.7597 154.217 14.6213 154.217 17.3877C154.217 20.1283 153.03 22.0157 150.861 22.0157C148.719 22.0157 147.505 20.1283 147.505 17.3877Z" fill="#F5F5F7"/>
<path fill-rule="evenodd" clip-rule="evenodd" d="M172.03 17.3877C172.03 13.7681 170.042 10.6655 166.608 10.6655C164.646 10.6655 163.149 11.829 162.529 13.6129H162.452V6.01164H159.69V23.8514H162.452V21.1367H162.529C163.149 22.9207 164.646 24.11 166.608 24.11C170.119 24.11 172.03 21.0074 172.03 17.3877ZM162.349 17.3877C162.349 14.6213 163.536 12.7597 165.705 12.7597C167.848 12.7597 169.061 14.6213 169.061 17.3877C169.061 20.1283 167.848 22.0157 165.705 22.0157C163.536 22.0157 162.349 20.1283 162.349 17.3877Z" fill="#F5F5F7"/>
<path fill-rule="evenodd" clip-rule="evenodd" d="M186.098 17.3877C186.098 13.8973 183.697 10.6655 179.773 10.6655C175.849 10.6655 173.448 13.8973 173.448 17.3877C173.448 20.8781 175.849 24.11 179.773 24.11C183.697 24.11 186.098 20.8781 186.098 17.3877ZM176.417 17.3877C176.417 14.6213 177.63 12.7597 179.773 12.7597C181.942 12.7597 183.155 14.6213 183.155 17.3877C183.155 20.1283 181.942 22.0157 179.773 22.0157C177.63 22.0157 176.417 20.1283 176.417 17.3877Z" fill="#F5F5F7"/>
<path d="M188.965 23.8514L192.398 18.8356L195.832 23.8514H198.982L194.051 16.8706L198.336 10.924H195.187L192.398 14.9574L189.61 10.924H186.435L190.746 16.8965L185.789 23.8514H188.965Z" fill="#F5F5F7"/>
<path opacity="0.2" d="M210.684 28.9578L210.684 0.873047" stroke="#F5F5F7" stroke-width="1.1702"/>
<path d="M225.295 21.6093V14.7356H228.461C232.915 14.7356 235.695 12.7275 235.695 9.27776C235.695 5.85376 232.915 3.8457 228.461 3.8457H222.386V21.6093H225.295ZM228.744 6.23993C231.242 6.23993 232.658 7.32119 232.658 9.27776C232.658 11.2343 231.242 12.3413 228.744 12.3413H225.295V6.23993H228.744Z" fill="#F5F5F7"/>
<path d="M240.716 21.6093V14.3236C240.716 11.9809 241.72 11.2858 244.114 11.2858H244.551V8.47968C242.569 8.47968 241.23 9.45797 240.69 11.2601H240.638V8.73713H237.909V21.6093H240.716Z" fill="#F5F5F7"/>
<path d="M258.147 15.1732C258.147 11.6977 255.753 8.47968 251.84 8.47968C247.927 8.47968 245.532 11.6977 245.532 15.1732C245.532 18.6487 247.927 21.8667 251.84 21.8667C255.753 21.8667 258.147 18.6487 258.147 15.1732ZM248.493 15.1732C248.493 12.4186 249.703 10.565 251.84 10.565C254.002 10.565 255.212 12.4186 255.212 15.1732C255.212 17.9021 254.002 19.7814 251.84 19.7814C249.703 19.7814 248.493 17.9021 248.493 15.1732Z" fill="#F5F5F7"/>
<path d="M263.666 6.70332V3.8457H260.679V6.70332H263.666ZM260.087 25.9858C262.481 25.9858 263.563 25.1105 263.563 22.6391V8.73713H260.757V22.4074C260.757 23.5144 260.37 23.9005 259.289 23.9005H258.491V25.9858H260.087Z" fill="#F5F5F7"/>
<path d="M277.932 17.6189H275.126C274.817 18.6487 274.096 19.7814 272.423 19.7814C270.466 19.7814 269.102 18.417 268.973 16.0743H278.164C278.55 11.5947 276.027 8.47968 272.191 8.47968C268.355 8.47968 266.167 11.6205 266.167 15.1732C266.167 18.7259 268.407 21.8667 272.243 21.8667C275.384 21.8667 277.392 20.1676 277.932 17.6189ZM272.191 10.565C274.071 10.565 275.178 11.9037 275.358 13.989H268.999C269.179 11.9037 270.312 10.565 272.191 10.565Z" fill="#F5F5F7"/>
<path d="M292.039 17.1298H289.181C288.898 18.7774 287.817 19.7814 286.324 19.7814C284.187 19.7814 283.002 17.8764 283.002 15.1732C283.002 12.4958 284.109 10.565 286.195 10.565C287.714 10.565 288.769 11.5175 289.078 13.1652H291.91C291.421 10.1273 289.155 8.47968 286.143 8.47968C282.385 8.47968 280.042 11.6977 280.042 15.1732C280.042 18.7259 282.462 21.8667 286.246 21.8667C289.258 21.8667 291.55 20.1676 292.039 17.1298Z" fill="#F5F5F7"/>
<path d="M300.978 21.6093V19.524H299.382C298.404 19.524 298.018 19.2151 298.018 18.1338V10.8224H301.081V8.73713H298.018V5.80227H295.212V8.73713H293.075V10.8224H295.212V18.7774C295.212 20.6568 296.242 21.6093 298.25 21.6093H300.978Z" fill="#F5F5F7"/>
<path d="M313.35 17.9021C313.35 15.9713 312.423 14.5811 309.642 13.9632L307.892 13.5771C306.244 13.1909 305.523 12.9077 305.523 12.0581C305.523 11.1056 306.476 10.565 307.712 10.565C308.973 10.565 310.132 11.0541 310.312 12.5473H313.092C312.912 10.2046 310.749 8.47968 307.712 8.47968C304.957 8.47968 302.691 9.94711 302.691 12.2898C302.691 14.3236 304.185 15.5336 306.708 16.0743L308.458 16.4604C309.951 16.7951 310.543 17.3872 310.543 18.1081C310.543 19.2151 309.359 19.7814 308.098 19.7814C306.708 19.7814 305.395 18.8547 305.24 17.207H302.46C302.64 19.5755 304.545 21.8667 308.072 21.8667C311.033 21.8667 313.35 20.3993 313.35 17.9021Z" fill="#F5F5F7"/>
<path d="M320.839 2.9443C320.839 1.37623 319.692 0.873047 317.913 0.873047H315.69V8.94741H318.288C320.09 8.94741 321.213 8.33891 321.213 6.70063C321.213 5.55384 320.546 4.85172 319.329 4.7464V4.7347C320.184 4.53576 320.839 3.93896 320.839 2.9443ZM317.913 1.46985C319.388 1.46985 320.102 1.7975 320.102 2.9443C320.102 4.10279 319.306 4.45385 317.867 4.45385H316.38V1.46985H317.913ZM318.066 5.05065C319.587 5.05065 320.476 5.43682 320.476 6.70063C320.476 7.96444 319.669 8.35061 318.241 8.35061H316.38V5.05065H318.066Z" fill="#DCFF50"/>
<path d="M327.473 7.0985H326.818C326.689 7.74211 326.244 8.51444 325.098 8.51444C323.81 8.51444 323.073 7.50807 323.038 6.20915H327.567C327.684 4.41875 326.642 2.9794 324.981 2.9794C323.342 2.9794 322.371 4.40704 322.371 6.02192C322.371 7.63679 323.342 9.06443 325.016 9.06443C326.549 9.06443 327.286 8.16338 327.473 7.0985ZM324.981 3.5294C326.127 3.5294 326.853 4.43045 326.911 5.65915H323.038C323.132 4.40704 323.869 3.5294 324.981 3.5294Z" fill="#DCFF50"/>
<path d="M331.537 8.94741V8.39742H330.636C330.191 8.39742 329.992 8.19848 329.992 7.7187V3.64641H331.583V3.09642H329.992V1.7624H329.337V3.09642H328.178V3.64641H329.337V7.80061C329.337 8.52614 329.688 8.94741 330.495 8.94741H331.537Z" fill="#DCFF50"/>
<path d="M336.371 7.64849H336.383V8.94741H337.015V5.27299C337.015 3.64641 335.985 2.9794 334.733 2.9794C333.317 2.9794 332.521 3.83365 332.463 4.94533H333.13C333.165 4.19641 333.644 3.5294 334.733 3.5294C335.88 3.5294 336.359 4.27832 336.359 5.19108V5.41341L334.721 5.58894C333.364 5.74107 332.24 6.08043 332.24 7.28573C332.24 8.46763 333.176 9.06443 334.276 9.06443C335.341 9.06443 336.067 8.49103 336.371 7.64849ZM332.942 7.34424C332.942 6.46659 333.761 6.22085 334.943 6.09213L336.359 5.9283V6.30276C336.359 7.64849 335.716 8.51444 334.37 8.51444C333.68 8.51444 332.942 8.11657 332.942 7.34424Z" fill="#DCFF50"/>
</svg>
