<svg width="1440" height="810" viewBox="0 0 1440 810" fill="none" xmlns="http://www.w3.org/2000/svg">
<g id="PRODUCT">
<g id="Command Pallete" filter="url(#filter0_dd_0_198)">
<g clip-path="url(#clip0_0_198)">
<path d="M464 234C464 231.791 465.791 230 468 230H972C974.209 230 976 231.791 976 234V576C976 578.209 974.209 580 972 580H468C465.791 580 464 578.209 464 576V234Z" fill="#373737"/>
<g id="Input">
<line id="Line 58" x1="474" y1="279.5" x2="962" y2="279.5" stroke="#E5E5E5" stroke-opacity="0.1"/>
<g id="Text">
<g id="Group 505">
<path id="Type a command or search..." d="M474.773 251.614H478.432V262H479.841V251.614H483.5V250.364H474.773V251.614ZM485.117 265.273C486.327 265.273 487.179 264.631 487.685 263.273L491.389 253.273H489.935L487.526 260.227H487.435L485.026 253.273H483.571L486.798 262.045L486.548 262.727C486.06 264.057 485.457 264.182 484.48 263.932L484.139 265.114C484.276 265.182 484.662 265.273 485.117 265.273ZM492.919 265.273H494.26V260.659H494.374C494.669 261.136 495.237 262.182 496.919 262.182C499.101 262.182 500.624 260.432 500.624 257.659C500.624 254.909 499.101 253.159 496.896 253.159C495.192 253.159 494.669 254.205 494.374 254.659H494.215V253.273H492.919V265.273ZM494.237 257.636C494.237 255.682 495.101 254.364 496.737 254.364C498.442 254.364 499.283 255.795 499.283 257.636C499.283 259.5 498.419 260.977 496.737 260.977C495.124 260.977 494.237 259.614 494.237 257.636ZM506.088 262.182C507.861 262.182 509.156 261.295 509.566 259.977L508.27 259.614C507.929 260.523 507.139 260.977 506.088 260.977C504.514 260.977 503.429 259.96 503.367 258.091H509.702V257.523C509.702 254.273 507.77 253.159 505.952 253.159C503.588 253.159 502.02 255.023 502.02 257.705C502.02 260.386 503.566 262.182 506.088 262.182ZM503.367 256.932C503.458 255.574 504.418 254.364 505.952 254.364C507.406 254.364 508.338 255.455 508.338 256.932H503.367ZM518.33 262.205C519.853 262.205 520.648 261.386 520.921 260.818H520.989V262H522.33V256.25C522.33 253.477 520.216 253.159 519.103 253.159C517.784 253.159 516.284 253.614 515.603 255.205L516.875 255.659C517.171 255.023 517.87 254.341 519.148 254.341C520.381 254.341 520.989 254.994 520.989 256.114V256.159C520.989 256.807 520.33 256.75 518.739 256.955C517.12 257.165 515.353 257.523 515.353 259.523C515.353 261.227 516.671 262.205 518.33 262.205ZM518.534 261C517.466 261 516.693 260.523 516.693 259.591C516.693 258.568 517.625 258.25 518.671 258.114C519.239 258.045 520.762 257.886 520.989 257.614V258.841C520.989 259.932 520.125 261 518.534 261ZM532.343 262.182C534.275 262.182 535.547 261 535.775 259.455H534.434C534.184 260.409 533.388 260.977 532.343 260.977C530.752 260.977 529.729 259.659 529.729 257.636C529.729 255.659 530.775 254.364 532.343 254.364C533.525 254.364 534.229 255.091 534.434 255.886H535.775C535.547 254.25 534.161 253.159 532.32 253.159C529.956 253.159 528.388 255.023 528.388 257.682C528.388 260.295 529.888 262.182 532.343 262.182ZM541.04 262.182C543.404 262.182 544.995 260.386 544.995 257.682C544.995 254.955 543.404 253.159 541.04 253.159C538.677 253.159 537.086 254.955 537.086 257.682C537.086 260.386 538.677 262.182 541.04 262.182ZM541.04 260.977C539.245 260.977 538.427 259.432 538.427 257.682C538.427 255.932 539.245 254.364 541.04 254.364C542.836 254.364 543.654 255.932 543.654 257.682C543.654 259.432 542.836 260.977 541.04 260.977ZM546.802 262H548.143V256.545C548.143 255.267 549.074 254.364 550.12 254.364C551.137 254.364 551.847 255.028 551.847 256.023V262H553.211V256.318C553.211 255.193 553.915 254.364 555.143 254.364C556.097 254.364 556.915 254.869 556.915 256.159V262H558.256V256.159C558.256 254.108 557.154 253.159 555.597 253.159C554.347 253.159 553.432 253.733 552.983 254.636H552.893C552.461 253.705 551.699 253.159 550.552 253.159C549.415 253.159 548.574 253.705 548.211 254.636H548.097V253.273H546.802V262ZM560.468 262H561.809V256.545C561.809 255.267 562.741 254.364 563.786 254.364C564.803 254.364 565.513 255.028 565.513 256.023V262H566.877V256.318C566.877 255.193 567.582 254.364 568.809 254.364C569.763 254.364 570.582 254.869 570.582 256.159V262H571.922V256.159C571.922 254.108 570.82 253.159 569.263 253.159C568.013 253.159 567.099 253.733 566.65 254.636H566.559C566.127 253.705 565.366 253.159 564.218 253.159C563.082 253.159 562.241 253.705 561.877 254.636H561.763V253.273H560.468V262ZM576.702 262.205C578.225 262.205 579.021 261.386 579.293 260.818H579.361V262H580.702V256.25C580.702 253.477 578.589 253.159 577.475 253.159C576.157 253.159 574.657 253.614 573.975 255.205L575.248 255.659C575.543 255.023 576.242 254.341 577.521 254.341C578.753 254.341 579.361 254.994 579.361 256.114V256.159C579.361 256.807 578.702 256.75 577.111 256.955C575.492 257.165 573.725 257.523 573.725 259.523C573.725 261.227 575.043 262.205 576.702 262.205ZM576.907 261C575.839 261 575.066 260.523 575.066 259.591C575.066 258.568 575.998 258.25 577.043 258.114C577.611 258.045 579.134 257.886 579.361 257.614V258.841C579.361 259.932 578.498 261 576.907 261ZM584.251 256.75C584.251 255.227 585.194 254.364 586.478 254.364C587.722 254.364 588.478 255.176 588.478 256.545V262H589.819V256.455C589.819 254.227 588.631 253.159 586.864 253.159C585.546 253.159 584.728 253.75 584.319 254.636H584.205V253.273H582.91V262H584.251V256.75ZM595.325 262.182C597.006 262.182 597.575 261.136 597.87 260.659H598.029V262H599.325V250.364H597.984V254.659H597.87C597.575 254.205 597.052 253.159 595.347 253.159C593.143 253.159 591.62 254.909 591.62 257.659C591.62 260.432 593.143 262.182 595.325 262.182ZM595.506 260.977C593.825 260.977 592.961 259.5 592.961 257.636C592.961 255.795 593.802 254.364 595.506 254.364C597.143 254.364 598.006 255.682 598.006 257.636C598.006 259.614 597.12 260.977 595.506 260.977ZM609.532 262.182C611.896 262.182 613.487 260.386 613.487 257.682C613.487 254.955 611.896 253.159 609.532 253.159C607.168 253.159 605.578 254.955 605.578 257.682C605.578 260.386 607.168 262.182 609.532 262.182ZM609.532 260.977C607.737 260.977 606.918 259.432 606.918 257.682C606.918 255.932 607.737 254.364 609.532 254.364C611.328 254.364 612.146 255.932 612.146 257.682C612.146 259.432 611.328 260.977 609.532 260.977ZM615.294 262H616.634V256.477C616.634 255.295 617.566 254.432 618.839 254.432C619.197 254.432 619.566 254.5 619.657 254.523V253.159C619.504 253.148 619.151 253.136 618.953 253.136C617.907 253.136 616.998 253.727 616.68 254.591H616.589V253.273H615.294V262ZM631.448 255.227C631.028 253.989 630.085 253.159 628.358 253.159C626.517 253.159 625.153 254.205 625.153 255.682C625.153 256.886 625.869 257.693 627.471 258.068L628.926 258.409C629.806 258.614 630.221 259.034 630.221 259.636C630.221 260.386 629.426 261 628.176 261C627.079 261 626.392 260.528 626.153 259.591L624.88 259.909C625.193 261.392 626.414 262.182 628.198 262.182C630.227 262.182 631.608 261.074 631.608 259.568C631.608 258.352 630.846 257.585 629.289 257.205L627.994 256.886C626.96 256.631 626.494 256.284 626.494 255.614C626.494 254.864 627.289 254.318 628.358 254.318C629.528 254.318 630.011 254.966 630.244 255.568L631.448 255.227ZM637.045 262.182C638.818 262.182 640.113 261.295 640.522 259.977L639.227 259.614C638.886 260.523 638.096 260.977 637.045 260.977C635.471 260.977 634.386 259.96 634.324 258.091H640.659V257.523C640.659 254.273 638.727 253.159 636.909 253.159C634.545 253.159 632.977 255.023 632.977 257.705C632.977 260.386 634.522 262.182 637.045 262.182ZM634.324 256.932C634.414 255.574 635.375 254.364 636.909 254.364C638.363 254.364 639.295 255.455 639.295 256.932H634.324ZM645.027 262.205C646.549 262.205 647.345 261.386 647.618 260.818H647.686V262H649.027V256.25C649.027 253.477 646.913 253.159 645.799 253.159C644.481 253.159 642.981 253.614 642.299 255.205L643.572 255.659C643.868 255.023 644.566 254.341 645.845 254.341C647.078 254.341 647.686 254.994 647.686 256.114V256.159C647.686 256.807 647.027 256.75 645.436 256.955C643.816 257.165 642.049 257.523 642.049 259.523C642.049 261.227 643.368 262.205 645.027 262.205ZM645.231 261C644.163 261 643.39 260.523 643.39 259.591C643.39 258.568 644.322 258.25 645.368 258.114C645.936 258.045 647.459 257.886 647.686 257.614V258.841C647.686 259.932 646.822 261 645.231 261ZM651.234 262H652.575V256.477C652.575 255.295 653.507 254.432 654.78 254.432C655.138 254.432 655.507 254.5 655.598 254.523V253.159C655.444 253.148 655.092 253.136 654.893 253.136C653.848 253.136 652.939 253.727 652.621 254.591H652.53V253.273H651.234V262ZM660.227 262.182C662.159 262.182 663.432 261 663.659 259.455H662.318C662.068 260.409 661.273 260.977 660.227 260.977C658.636 260.977 657.613 259.659 657.613 257.636C657.613 255.659 658.659 254.364 660.227 254.364C661.409 254.364 662.113 255.091 662.318 255.886H663.659C663.432 254.25 662.045 253.159 660.204 253.159C657.841 253.159 656.273 255.023 656.273 257.682C656.273 260.295 657.773 262.182 660.227 262.182ZM666.72 256.75C666.72 255.227 667.692 254.364 669.016 254.364C670.277 254.364 671.038 255.159 671.038 256.545V262H672.379V256.455C672.379 254.21 671.186 253.159 669.402 253.159C668.027 253.159 667.243 253.733 666.834 254.636H666.72V250.364H665.379V262H666.72V256.75ZM675.57 262.091C676.132 262.091 676.592 261.631 676.592 261.068C676.592 260.506 676.132 260.045 675.57 260.045C675.007 260.045 674.547 260.506 674.547 261.068C674.547 261.631 675.007 262.091 675.57 262.091ZM679.736 262.091C680.298 262.091 680.759 261.631 680.759 261.068C680.759 260.506 680.298 260.045 679.736 260.045C679.173 260.045 678.713 260.506 678.713 261.068C678.713 261.631 679.173 262.091 679.736 262.091ZM683.902 262.091C684.465 262.091 684.925 261.631 684.925 261.068C684.925 260.506 684.465 260.045 683.902 260.045C683.34 260.045 682.879 260.506 682.879 261.068C682.879 261.631 683.34 262.091 683.902 262.091Z" fill="#757575"/>
<rect id="Select" x="474.009" y="246" width="1" height="19" fill="white"/>
</g>
</g>
</g>
<g id="Content">
<g id="1st section">
<g id="Title">
<path id="File System" d="M482.969 304H483.938V300.422H487.406V299.562H483.938V296.859H487.766V296H482.969V304ZM489.41 304H490.332V298H489.41V304ZM489.879 297C490.238 297 490.535 296.719 490.535 296.375C490.535 296.031 490.238 295.75 489.879 295.75C489.519 295.75 489.222 296.031 489.222 296.375C489.222 296.719 489.519 297 489.879 297ZM493.052 296H492.13V304H493.052V296ZM497.366 304.125C498.585 304.125 499.476 303.516 499.757 302.609L498.866 302.359C498.632 302.984 498.089 303.297 497.366 303.297C496.284 303.297 495.538 302.598 495.495 301.312H499.851V300.922C499.851 298.687 498.522 297.922 497.272 297.922C495.647 297.922 494.569 299.203 494.569 301.047C494.569 302.891 495.632 304.125 497.366 304.125ZM495.495 300.516C495.558 299.582 496.218 298.75 497.272 298.75C498.272 298.75 498.913 299.5 498.913 300.516H495.495ZM509.067 298H510.004C509.961 296.793 508.848 295.891 507.301 295.891C505.77 295.891 504.567 296.781 504.567 298.125C504.567 299.203 505.348 299.844 506.598 300.203L507.582 300.484C508.426 300.719 509.176 301.016 509.176 301.812C509.176 302.687 508.332 303.266 507.223 303.266C506.27 303.266 505.426 302.844 505.348 301.938H504.348C504.442 303.25 505.504 304.141 507.223 304.141C509.067 304.141 510.113 303.125 510.113 301.828C510.113 300.328 508.692 299.844 507.863 299.625L507.051 299.406C506.457 299.25 505.504 298.937 505.504 298.078C505.504 297.312 506.207 296.75 507.27 296.75C508.238 296.75 508.973 297.211 509.067 298ZM512.285 306.25C513.117 306.25 513.703 305.809 514.051 304.875L516.598 298H515.597L513.941 302.781H513.879L512.222 298H511.222L513.441 304.031L513.269 304.5C512.933 305.414 512.519 305.5 511.847 305.328L511.613 306.141C511.707 306.188 511.972 306.25 512.285 306.25ZM522.174 299.344C521.885 298.492 521.237 297.922 520.049 297.922C518.784 297.922 517.846 298.641 517.846 299.656C517.846 300.484 518.338 301.039 519.44 301.297L520.44 301.531C521.045 301.672 521.331 301.961 521.331 302.375C521.331 302.891 520.784 303.312 519.924 303.312C519.17 303.312 518.698 302.988 518.534 302.344L517.659 302.562C517.874 303.582 518.713 304.125 519.94 304.125C521.334 304.125 522.284 303.363 522.284 302.328C522.284 301.492 521.76 300.965 520.69 300.703L519.799 300.484C519.088 300.309 518.768 300.07 518.768 299.609C518.768 299.094 519.315 298.719 520.049 298.719C520.854 298.719 521.186 299.164 521.346 299.578L522.174 299.344ZM526.391 298H525.109V296.562H524.188V298H523.281V298.781H524.188V302.531C524.188 303.578 525.031 304.078 525.813 304.078C526.156 304.078 526.375 304.016 526.5 303.969L526.313 303.141C526.234 303.156 526.109 303.187 525.906 303.187C525.5 303.187 525.109 303.062 525.109 302.281V298.781H526.391V298ZM530.339 304.125C531.557 304.125 532.448 303.516 532.729 302.609L531.839 302.359C531.604 302.984 531.061 303.297 530.339 303.297C529.257 303.297 528.511 302.598 528.468 301.312H532.823V300.922C532.823 298.687 531.495 297.922 530.245 297.922C528.62 297.922 527.542 299.203 527.542 301.047C527.542 302.891 528.604 304.125 530.339 304.125ZM528.468 300.516C528.53 299.582 529.19 298.75 530.245 298.75C531.245 298.75 531.886 299.5 531.886 300.516H528.468ZM534.335 304H535.257V300.25C535.257 299.371 535.898 298.75 536.617 298.75C537.316 298.75 537.804 299.207 537.804 299.891V304H538.742V300.094C538.742 299.32 539.226 298.75 540.07 298.75C540.726 298.75 541.288 299.098 541.288 299.984V304H542.21V299.984C542.21 298.574 541.453 297.922 540.382 297.922C539.523 297.922 538.894 298.316 538.585 298.937H538.523C538.226 298.297 537.703 297.922 536.913 297.922C536.132 297.922 535.554 298.297 535.304 298.937H535.226V298H534.335V304Z" fill="#808080"/>
</g>
<g id="List">
<g id="Pallete">
<g id="Content_2">
<g id="16x16/search">
<path id="Shape" fill-rule="evenodd" clip-rule="evenodd" d="M492.313 324.605C492.313 322.234 494.234 320.313 496.605 320.313C498.976 320.313 500.897 322.234 500.897 324.605C500.897 325.717 500.475 326.73 499.781 327.493C499.717 327.517 499.658 327.555 499.606 327.606C499.555 327.658 499.517 327.717 499.493 327.781C498.73 328.475 497.717 328.897 496.605 328.897C494.234 328.897 492.313 326.976 492.313 324.605ZM499.977 328.684C499.062 329.442 497.886 329.897 496.605 329.897C493.682 329.897 491.313 327.528 491.313 324.605C491.313 321.682 493.682 319.313 496.605 319.313C499.528 319.313 501.897 321.682 501.897 324.605C501.897 325.886 501.442 327.062 500.684 327.977L504.147 331.44C504.343 331.635 504.343 331.952 504.147 332.147C503.952 332.343 503.635 332.343 503.44 332.147L499.977 328.684Z" fill="#999999"/>
</g>
<path id="Button.js" d="M515.145 331H516.29V326.771H520.389V325.756H516.29V322.561H520.814V321.545H515.145V331ZM522.627 331H523.717V323.909H522.627V331ZM523.181 322.727C523.606 322.727 523.957 322.395 523.957 321.989C523.957 321.582 523.606 321.25 523.181 321.25C522.756 321.25 522.405 321.582 522.405 321.989C522.405 322.395 522.756 322.727 523.181 322.727ZM526.801 321.545H525.712V331H526.801V321.545ZM531.77 331.148C533.21 331.148 534.263 330.428 534.595 329.357L533.543 329.061C533.266 329.8 532.624 330.169 531.77 330.169C530.491 330.169 529.609 329.343 529.559 327.824H534.706V327.362C534.706 324.722 533.136 323.817 531.659 323.817C529.739 323.817 528.465 325.331 528.465 327.51C528.465 329.689 529.72 331.148 531.77 331.148ZM529.559 326.882C529.633 325.779 530.413 324.795 531.659 324.795C532.841 324.795 533.598 325.682 533.598 326.882H529.559ZM545.042 325.497C544.701 324.491 543.934 323.817 542.531 323.817C541.035 323.817 539.927 324.666 539.927 325.866C539.927 326.845 540.509 327.501 541.811 327.805L542.993 328.082C543.708 328.249 544.045 328.59 544.045 329.08C544.045 329.689 543.399 330.188 542.383 330.188C541.492 330.188 540.934 329.804 540.74 329.043L539.706 329.301C539.96 330.506 540.952 331.148 542.402 331.148C544.05 331.148 545.172 330.248 545.172 329.024C545.172 328.036 544.553 327.413 543.288 327.104L542.236 326.845C541.395 326.637 541.017 326.356 541.017 325.811C541.017 325.202 541.663 324.759 542.531 324.759C543.482 324.759 543.874 325.285 544.064 325.774L545.042 325.497ZM549.785 331.148C551.225 331.148 552.278 330.428 552.61 329.357L551.557 329.061C551.28 329.8 550.639 330.169 549.785 330.169C548.506 330.169 547.624 329.343 547.573 327.824H552.721V327.362C552.721 324.722 551.151 323.817 549.674 323.817C547.753 323.817 546.479 325.331 546.479 327.51C546.479 329.689 547.735 331.148 549.785 331.148ZM547.573 326.882C547.647 325.779 548.427 324.795 549.674 324.795C550.856 324.795 551.613 325.682 551.613 326.882H547.573ZM556.465 331.166C557.702 331.166 558.348 330.501 558.57 330.04H558.625V331H559.715V326.328C559.715 324.075 557.997 323.817 557.093 323.817C556.021 323.817 554.803 324.186 554.249 325.479L555.283 325.848C555.523 325.331 556.091 324.777 557.129 324.777C558.131 324.777 558.625 325.308 558.625 326.217V326.254C558.625 326.781 558.09 326.734 556.797 326.901C555.481 327.071 554.046 327.362 554.046 328.987C554.046 330.372 555.117 331.166 556.465 331.166ZM556.631 330.188C555.763 330.188 555.135 329.8 555.135 329.043C555.135 328.212 555.892 327.953 556.742 327.842C557.203 327.787 558.441 327.658 558.625 327.436V328.433C558.625 329.32 557.923 330.188 556.631 330.188ZM561.703 331H562.793V326.513C562.793 325.553 563.55 324.851 564.584 324.851C564.875 324.851 565.175 324.906 565.249 324.925V323.817C565.124 323.808 564.838 323.798 564.676 323.798C563.827 323.798 563.088 324.278 562.83 324.98H562.756V323.909H561.703V331ZM569.205 331.148C570.775 331.148 571.809 330.188 571.993 328.932H570.904C570.701 329.707 570.054 330.169 569.205 330.169C567.912 330.169 567.081 329.098 567.081 327.455C567.081 325.848 567.931 324.795 569.205 324.795C570.165 324.795 570.738 325.386 570.904 326.033H571.993C571.809 324.703 570.682 323.817 569.187 323.817C567.266 323.817 565.992 325.331 565.992 327.491C565.992 329.615 567.211 331.148 569.205 331.148ZM574.676 326.734C574.676 325.497 575.465 324.795 576.541 324.795C577.565 324.795 578.184 325.442 578.184 326.568V331H579.274V326.494C579.274 324.671 578.304 323.817 576.854 323.817C575.737 323.817 575.1 324.283 574.768 325.017H574.676V321.545H573.586V331H574.676V326.734Z" fill="#E5E5E5"/>
</g>
<g id="Frame 500">
<g id="Group 468">
<rect id="Rectangle 2439" x="938" y="318" width="16" height="16" rx="2" fill="#585858"/>
<path id="1" d="M947.648 321.386H946.7L944.356 330.094H945.304L947.648 321.386Z" fill="#C5C5C5"/>
</g>
</g>
</g>
<g id="Pallete_2">
<g id="Content_3">
<g id="16x16/fileJs">
<path id="Shape_2" fill-rule="evenodd" clip-rule="evenodd" d="M497.709 352.984C497.818 352.731 497.701 352.437 497.447 352.328C497.193 352.219 496.899 352.337 496.79 352.591L492.29 363.091C492.182 363.344 492.299 363.638 492.553 363.747C492.807 363.856 493.101 363.738 493.209 363.484L497.709 352.984ZM501.5 354.25C501.5 353.974 501.276 353.75 501 353.75C500.724 353.75 500.5 353.974 500.5 354.25L500.5 356.384L498.652 355.317C498.413 355.179 498.107 355.261 497.969 355.5C497.831 355.739 497.913 356.045 498.152 356.183L500 357.25L498.152 358.317C497.913 358.455 497.831 358.761 497.969 359C498.107 359.239 498.413 359.321 498.652 359.183L500.5 358.116L500.5 360.25C500.5 360.526 500.724 360.75 501 360.75C501.276 360.75 501.5 360.526 501.5 360.25L501.5 358.116L503.348 359.183C503.587 359.321 503.893 359.239 504.031 359C504.169 358.761 504.087 358.455 503.848 358.317L502 357.25L503.848 356.183C504.087 356.045 504.169 355.739 504.031 355.5C503.893 355.261 503.587 355.179 503.348 355.317L501.5 356.384L501.5 354.25Z" fill="#999999"/>
</g>
<path id="Button.js_2" d="M515.533 363L516.484 360.322H520.306L521.257 363H522.457L518.986 353.545H517.804L514.332 363H515.533ZM516.844 359.307L518.358 355.041H518.432L519.946 359.307H516.844ZM523.782 365.659H524.872V361.911H524.964C525.204 362.298 525.666 363.148 527.032 363.148C528.805 363.148 530.042 361.726 530.042 359.473C530.042 357.239 528.805 355.817 527.014 355.817C525.629 355.817 525.204 356.666 524.964 357.036H524.835V355.909H523.782V365.659ZM524.853 359.455C524.853 357.866 525.555 356.795 526.885 356.795C528.27 356.795 528.953 357.959 528.953 359.455C528.953 360.969 528.251 362.169 526.885 362.169C525.574 362.169 524.853 361.061 524.853 359.455ZM531.704 365.659H532.794V361.911H532.886C533.126 362.298 533.588 363.148 534.954 363.148C536.727 363.148 537.964 361.726 537.964 359.473C537.964 357.239 536.727 355.817 534.936 355.817C533.551 355.817 533.126 356.666 532.886 357.036H532.757V355.909H531.704V365.659ZM532.775 359.455C532.775 357.866 533.477 356.795 534.806 356.795C536.191 356.795 536.875 357.959 536.875 359.455C536.875 360.969 536.173 362.169 534.806 362.169C533.495 362.169 532.775 361.061 532.775 359.455ZM540.42 363.074C540.877 363.074 541.251 362.7 541.251 362.243C541.251 361.786 540.877 361.412 540.42 361.412C539.963 361.412 539.589 361.786 539.589 362.243C539.589 362.7 539.963 363.074 540.42 363.074ZM543.206 355.909V363.517C543.206 364.237 542.911 364.643 542.246 364.643H542.043V365.659H542.264C543.631 365.659 544.296 364.828 544.296 363.517V355.909H543.206ZM543.742 354.727C544.166 354.727 544.517 354.395 544.517 353.989C544.517 353.582 544.166 353.25 543.742 353.25C543.317 353.25 542.966 353.582 542.966 353.989C542.966 354.395 543.317 354.727 543.742 354.727ZM551.314 357.497C550.972 356.491 550.206 355.817 548.802 355.817C547.307 355.817 546.199 356.666 546.199 357.866C546.199 358.845 546.78 359.501 548.082 359.805L549.264 360.082C549.98 360.249 550.317 360.59 550.317 361.08C550.317 361.689 549.67 362.188 548.655 362.188C547.764 362.188 547.205 361.804 547.011 361.043L545.977 361.301C546.231 362.506 547.224 363.148 548.673 363.148C550.321 363.148 551.443 362.248 551.443 361.024C551.443 360.036 550.824 359.413 549.56 359.104L548.507 358.845C547.667 358.637 547.288 358.356 547.288 357.811C547.288 357.202 547.935 356.759 548.802 356.759C549.753 356.759 550.146 357.285 550.335 357.774L551.314 357.497Z" fill="#E5E5E5"/>
<path id="website/docs/src" opacity="0.7" d="M563.403 363.5H564.392L565.824 358.472H565.926L567.358 363.5H568.347L570.341 356.955H569.284L567.869 361.949H567.801L566.42 356.955H565.347L563.949 361.966H563.881L562.466 356.955H561.409L563.403 363.5ZM574.252 363.636C575.582 363.636 576.553 362.972 576.86 361.983L575.888 361.71C575.633 362.392 575.04 362.733 574.252 362.733C573.072 362.733 572.258 361.97 572.211 360.568H576.962V360.142C576.962 357.705 575.513 356.869 574.15 356.869C572.377 356.869 571.201 358.267 571.201 360.278C571.201 362.29 572.36 363.636 574.252 363.636ZM572.211 359.699C572.279 358.68 572.999 357.773 574.15 357.773C575.241 357.773 575.94 358.591 575.94 359.699H572.211ZM578.689 363.5H579.66V362.494H579.779C580.001 362.852 580.427 363.636 581.689 363.636C583.325 363.636 584.467 362.324 584.467 360.244C584.467 358.182 583.325 356.869 581.671 356.869C580.393 356.869 580.001 357.653 579.779 357.994H579.694V354.773H578.689V363.5ZM579.677 360.227C579.677 358.761 580.325 357.773 581.552 357.773C582.831 357.773 583.461 358.847 583.461 360.227C583.461 361.625 582.814 362.733 581.552 362.733C580.342 362.733 579.677 361.71 579.677 360.227ZM590.702 358.42C590.386 357.491 589.679 356.869 588.383 356.869C587.003 356.869 585.98 357.653 585.98 358.761C585.98 359.665 586.517 360.27 587.719 360.551L588.81 360.807C589.47 360.96 589.781 361.276 589.781 361.727C589.781 362.29 589.185 362.75 588.247 362.75C587.425 362.75 586.909 362.396 586.73 361.693L585.776 361.932C586.01 363.044 586.926 363.636 588.264 363.636C589.785 363.636 590.821 362.805 590.821 361.676C590.821 360.764 590.25 360.189 589.082 359.903L588.111 359.665C587.335 359.473 586.986 359.213 586.986 358.71C586.986 358.148 587.582 357.739 588.383 357.739C589.261 357.739 589.624 358.224 589.798 358.676L590.702 358.42ZM592.395 363.5H593.401V356.955H592.395V363.5ZM592.906 355.864C593.298 355.864 593.622 355.557 593.622 355.182C593.622 354.807 593.298 354.5 592.906 354.5C592.514 354.5 592.19 354.807 592.19 355.182C592.19 355.557 592.514 355.864 592.906 355.864ZM598.149 356.955H596.751V355.386H595.746V356.955H594.757V357.807H595.746V361.898C595.746 363.04 596.666 363.585 597.518 363.585C597.893 363.585 598.132 363.517 598.268 363.466L598.064 362.562C597.979 362.58 597.842 362.614 597.621 362.614C597.177 362.614 596.751 362.477 596.751 361.625V357.807H598.149V356.955ZM602.396 363.636C603.725 363.636 604.697 362.972 605.004 361.983L604.032 361.71C603.777 362.392 603.184 362.733 602.396 362.733C601.215 362.733 600.402 361.97 600.355 360.568H605.106V360.142C605.106 357.705 603.657 356.869 602.294 356.869C600.521 356.869 599.345 358.267 599.345 360.278C599.345 362.29 600.504 363.636 602.396 363.636ZM600.355 359.699C600.423 358.68 601.143 357.773 602.294 357.773C603.385 357.773 604.083 358.591 604.083 359.699H600.355ZM609.781 354.364H608.861L606.048 364.812H606.969L609.781 354.364ZM613.505 363.636C614.766 363.636 615.192 362.852 615.414 362.494H615.533V363.5H616.505V354.773H615.499V357.994H615.414C615.192 357.653 614.8 356.869 613.522 356.869C611.868 356.869 610.726 358.182 610.726 360.244C610.726 362.324 611.868 363.636 613.505 363.636ZM613.641 362.733C612.38 362.733 611.732 361.625 611.732 360.227C611.732 358.847 612.363 357.773 613.641 357.773C614.868 357.773 615.516 358.761 615.516 360.227C615.516 361.71 614.851 362.733 613.641 362.733ZM621.205 363.636C622.978 363.636 624.171 362.29 624.171 360.261C624.171 358.216 622.978 356.869 621.205 356.869C619.433 356.869 618.24 358.216 618.24 360.261C618.24 362.29 619.433 363.636 621.205 363.636ZM621.205 362.733C619.859 362.733 619.245 361.574 619.245 360.261C619.245 358.949 619.859 357.773 621.205 357.773C622.552 357.773 623.166 358.949 623.166 360.261C623.166 361.574 622.552 362.733 621.205 362.733ZM628.426 363.636C629.875 363.636 630.829 362.75 631 361.591H629.994C629.806 362.307 629.21 362.733 628.426 362.733C627.232 362.733 626.465 361.744 626.465 360.227C626.465 358.744 627.25 357.773 628.426 357.773C629.312 357.773 629.84 358.318 629.994 358.915H631C630.829 357.688 629.789 356.869 628.409 356.869C626.636 356.869 625.46 358.267 625.46 360.261C625.46 362.222 626.585 363.636 628.426 363.636ZM637.166 358.42C636.851 357.491 636.143 356.869 634.848 356.869C633.467 356.869 632.444 357.653 632.444 358.761C632.444 359.665 632.981 360.27 634.183 360.551L635.274 360.807C635.935 360.96 636.246 361.276 636.246 361.727C636.246 362.29 635.649 362.75 634.711 362.75C633.889 362.75 633.373 362.396 633.194 361.693L632.24 361.932C632.474 363.044 633.39 363.636 634.729 363.636C636.25 363.636 637.285 362.805 637.285 361.676C637.285 360.764 636.714 360.189 635.547 359.903L634.575 359.665C633.8 359.473 633.45 359.213 633.45 358.71C633.45 358.148 634.047 357.739 634.848 357.739C635.726 357.739 636.088 358.224 636.263 358.676L637.166 358.42ZM641.944 354.364H641.024L638.211 364.812H639.132L641.944 354.364ZM647.833 358.42C647.518 357.491 646.81 356.869 645.515 356.869C644.134 356.869 643.111 357.653 643.111 358.761C643.111 359.665 643.648 360.27 644.85 360.551L645.941 360.807C646.601 360.96 646.912 361.276 646.912 361.727C646.912 362.29 646.316 362.75 645.378 362.75C644.556 362.75 644.04 362.396 643.861 361.693L642.907 361.932C643.141 363.044 644.057 363.636 645.395 363.636C646.917 363.636 647.952 362.805 647.952 361.676C647.952 360.764 647.381 360.189 646.214 359.903L645.242 359.665C644.466 359.473 644.117 359.213 644.117 358.71C644.117 358.148 644.714 357.739 645.515 357.739C646.393 357.739 646.755 358.224 646.93 358.676L647.833 358.42ZM649.526 363.5H650.532V359.358C650.532 358.472 651.231 357.824 652.185 357.824C652.454 357.824 652.731 357.875 652.799 357.892V356.869C652.684 356.861 652.42 356.852 652.27 356.852C651.486 356.852 650.804 357.295 650.566 357.943H650.498V356.955H649.526V363.5ZM656.511 363.636C657.96 363.636 658.914 362.75 659.085 361.591H658.079C657.891 362.307 657.295 362.733 656.511 362.733C655.318 362.733 654.551 361.744 654.551 360.227C654.551 358.744 655.335 357.773 656.511 357.773C657.397 357.773 657.926 358.318 658.079 358.915H659.085C658.914 357.688 657.874 356.869 656.494 356.869C654.721 356.869 653.545 358.267 653.545 360.261C653.545 362.222 654.67 363.636 656.511 363.636Z" fill="#808080"/>
</g>
</g>
<g id="Pallete_3">
<g id="Content_4">
<g id="16x16/fileJs_2">
<path id="Shape_3" fill-rule="evenodd" clip-rule="evenodd" d="M497.709 384.984C497.818 384.731 497.701 384.437 497.447 384.328C497.193 384.219 496.899 384.337 496.79 384.591L492.29 395.091C492.182 395.344 492.299 395.638 492.553 395.747C492.807 395.856 493.101 395.738 493.209 395.484L497.709 384.984ZM501.5 386.25C501.5 385.974 501.276 385.75 501 385.75C500.724 385.75 500.5 385.974 500.5 386.25L500.5 388.384L498.652 387.317C498.413 387.179 498.107 387.261 497.969 387.5C497.831 387.739 497.913 388.045 498.152 388.183L500 389.25L498.152 390.317C497.913 390.455 497.831 390.761 497.969 391C498.107 391.239 498.413 391.321 498.652 391.183L500.5 390.116L500.5 392.25C500.5 392.526 500.724 392.75 501 392.75C501.276 392.75 501.5 392.526 501.5 392.25L501.5 390.116L503.348 391.183C503.587 391.321 503.893 391.239 504.031 391C504.169 390.761 504.087 390.455 503.848 390.317L502 389.25L503.848 388.183C504.087 388.045 504.169 387.739 504.031 387.5C503.893 387.261 503.587 387.179 503.348 387.317L501.5 388.384L501.5 386.25Z" fill="#999999"/>
</g>
<path id="Button.js_3" d="M514.997 395H516.087V387.909H514.997V395ZM515.551 386.727C515.976 386.727 516.327 386.395 516.327 385.989C516.327 385.582 515.976 385.25 515.551 385.25C515.126 385.25 514.776 385.582 514.776 385.989C514.776 386.395 515.126 386.727 515.551 386.727ZM519.172 390.734C519.172 389.497 519.938 388.795 520.981 388.795C521.992 388.795 522.606 389.456 522.606 390.568V395H523.696V390.494C523.696 388.685 522.731 387.817 521.295 387.817C520.224 387.817 519.559 388.297 519.227 389.017H519.135V387.909H518.082V395H519.172V390.734ZM528.364 395.148C529.731 395.148 530.192 394.298 530.432 393.911H530.562V395H531.614V385.545H530.525V389.036H530.432C530.192 388.666 529.768 387.817 528.383 387.817C526.591 387.817 525.354 389.239 525.354 391.473C525.354 393.726 526.591 395.148 528.364 395.148ZM528.512 394.169C527.145 394.169 526.444 392.969 526.444 391.455C526.444 389.959 527.127 388.795 528.512 388.795C529.841 388.795 530.543 389.866 530.543 391.455C530.543 393.061 529.823 394.169 528.512 394.169ZM536.734 395.148C538.174 395.148 539.227 394.428 539.559 393.357L538.507 393.061C538.23 393.8 537.588 394.169 536.734 394.169C535.455 394.169 534.573 393.343 534.523 391.824H539.67V391.362C539.67 388.722 538.1 387.817 536.623 387.817C534.703 387.817 533.428 389.331 533.428 391.51C533.428 393.689 534.684 395.148 536.734 395.148ZM534.523 390.882C534.596 389.779 535.377 388.795 536.623 388.795C537.805 388.795 538.562 389.682 538.562 390.882H534.523ZM541.949 387.909H540.694L542.946 391.455L540.694 395H541.949L543.648 392.249L545.347 395H546.603L544.313 391.455L546.603 387.909H545.347L543.648 390.808L541.949 387.909ZM548.951 395.074C549.408 395.074 549.782 394.7 549.782 394.243C549.782 393.786 549.408 393.412 548.951 393.412C548.494 393.412 548.12 393.786 548.12 394.243C548.12 394.7 548.494 395.074 548.951 395.074ZM551.737 387.909V395.517C551.737 396.237 551.442 396.643 550.777 396.643H550.574V397.659H550.796C552.162 397.659 552.827 396.828 552.827 395.517V387.909H551.737ZM552.273 386.727C552.698 386.727 553.048 386.395 553.048 385.989C553.048 385.582 552.698 385.25 552.273 385.25C551.848 385.25 551.497 385.582 551.497 385.989C551.497 386.395 551.848 386.727 552.273 386.727ZM559.845 389.497C559.503 388.491 558.737 387.817 557.334 387.817C555.838 387.817 554.73 388.666 554.73 389.866C554.73 390.845 555.312 391.501 556.614 391.805L557.795 392.082C558.511 392.249 558.848 392.59 558.848 393.08C558.848 393.689 558.202 394.188 557.186 394.188C556.295 394.188 555.736 393.804 555.543 393.043L554.508 393.301C554.762 394.506 555.755 395.148 557.204 395.148C558.853 395.148 559.974 394.248 559.974 393.024C559.974 392.036 559.356 391.413 558.091 391.104L557.038 390.845C556.198 390.637 555.82 390.356 555.82 389.811C555.82 389.202 556.466 388.759 557.334 388.759C558.285 388.759 558.677 389.285 558.866 389.774L559.845 389.497Z" fill="#E5E5E5"/>
<path id="website/docs/src_2" opacity="0.7" d="M571.403 395.5H572.392L573.824 390.472H573.926L575.358 395.5H576.347L578.341 388.955H577.284L575.869 393.949H575.801L574.42 388.955H573.347L571.949 393.966H571.881L570.466 388.955H569.409L571.403 395.5ZM582.252 395.636C583.582 395.636 584.553 394.972 584.86 393.983L583.888 393.71C583.633 394.392 583.04 394.733 582.252 394.733C581.072 394.733 580.258 393.97 580.211 392.568H584.962V392.142C584.962 389.705 583.513 388.869 582.15 388.869C580.377 388.869 579.201 390.267 579.201 392.278C579.201 394.29 580.36 395.636 582.252 395.636ZM580.211 391.699C580.279 390.68 580.999 389.773 582.15 389.773C583.241 389.773 583.94 390.591 583.94 391.699H580.211ZM586.689 395.5H587.66V394.494H587.779C588.001 394.852 588.427 395.636 589.689 395.636C591.325 395.636 592.467 394.324 592.467 392.244C592.467 390.182 591.325 388.869 589.671 388.869C588.393 388.869 588.001 389.653 587.779 389.994H587.694V386.773H586.689V395.5ZM587.677 392.227C587.677 390.761 588.325 389.773 589.552 389.773C590.831 389.773 591.461 390.847 591.461 392.227C591.461 393.625 590.814 394.733 589.552 394.733C588.342 394.733 587.677 393.71 587.677 392.227ZM598.702 390.42C598.386 389.491 597.679 388.869 596.383 388.869C595.003 388.869 593.98 389.653 593.98 390.761C593.98 391.665 594.517 392.27 595.719 392.551L596.81 392.807C597.47 392.96 597.781 393.276 597.781 393.727C597.781 394.29 597.185 394.75 596.247 394.75C595.425 394.75 594.909 394.396 594.73 393.693L593.776 393.932C594.01 395.044 594.926 395.636 596.264 395.636C597.785 395.636 598.821 394.805 598.821 393.676C598.821 392.764 598.25 392.189 597.082 391.903L596.111 391.665C595.335 391.473 594.986 391.213 594.986 390.71C594.986 390.148 595.582 389.739 596.383 389.739C597.261 389.739 597.624 390.224 597.798 390.676L598.702 390.42ZM600.395 395.5H601.401V388.955H600.395V395.5ZM600.906 387.864C601.298 387.864 601.622 387.557 601.622 387.182C601.622 386.807 601.298 386.5 600.906 386.5C600.514 386.5 600.19 386.807 600.19 387.182C600.19 387.557 600.514 387.864 600.906 387.864ZM606.149 388.955H604.751V387.386H603.746V388.955H602.757V389.807H603.746V393.898C603.746 395.04 604.666 395.585 605.518 395.585C605.893 395.585 606.132 395.517 606.268 395.466L606.064 394.562C605.979 394.58 605.842 394.614 605.621 394.614C605.177 394.614 604.751 394.477 604.751 393.625V389.807H606.149V388.955ZM610.396 395.636C611.725 395.636 612.697 394.972 613.004 393.983L612.032 393.71C611.777 394.392 611.184 394.733 610.396 394.733C609.215 394.733 608.402 393.97 608.355 392.568H613.106V392.142C613.106 389.705 611.657 388.869 610.294 388.869C608.521 388.869 607.345 390.267 607.345 392.278C607.345 394.29 608.504 395.636 610.396 395.636ZM608.355 391.699C608.423 390.68 609.143 389.773 610.294 389.773C611.385 389.773 612.083 390.591 612.083 391.699H608.355ZM617.781 386.364H616.861L614.048 396.812H614.969L617.781 386.364ZM621.505 395.636C622.766 395.636 623.192 394.852 623.414 394.494H623.533V395.5H624.505V386.773H623.499V389.994H623.414C623.192 389.653 622.8 388.869 621.522 388.869C619.868 388.869 618.726 390.182 618.726 392.244C618.726 394.324 619.868 395.636 621.505 395.636ZM621.641 394.733C620.38 394.733 619.732 393.625 619.732 392.227C619.732 390.847 620.363 389.773 621.641 389.773C622.868 389.773 623.516 390.761 623.516 392.227C623.516 393.71 622.851 394.733 621.641 394.733ZM629.205 395.636C630.978 395.636 632.171 394.29 632.171 392.261C632.171 390.216 630.978 388.869 629.205 388.869C627.433 388.869 626.24 390.216 626.24 392.261C626.24 394.29 627.433 395.636 629.205 395.636ZM629.205 394.733C627.859 394.733 627.245 393.574 627.245 392.261C627.245 390.949 627.859 389.773 629.205 389.773C630.552 389.773 631.166 390.949 631.166 392.261C631.166 393.574 630.552 394.733 629.205 394.733ZM636.426 395.636C637.875 395.636 638.829 394.75 639 393.591H637.994C637.806 394.307 637.21 394.733 636.426 394.733C635.232 394.733 634.465 393.744 634.465 392.227C634.465 390.744 635.25 389.773 636.426 389.773C637.312 389.773 637.84 390.318 637.994 390.915H639C638.829 389.688 637.789 388.869 636.409 388.869C634.636 388.869 633.46 390.267 633.46 392.261C633.46 394.222 634.585 395.636 636.426 395.636ZM645.166 390.42C644.851 389.491 644.143 388.869 642.848 388.869C641.467 388.869 640.444 389.653 640.444 390.761C640.444 391.665 640.981 392.27 642.183 392.551L643.274 392.807C643.935 392.96 644.246 393.276 644.246 393.727C644.246 394.29 643.649 394.75 642.711 394.75C641.889 394.75 641.373 394.396 641.194 393.693L640.24 393.932C640.474 395.044 641.39 395.636 642.729 395.636C644.25 395.636 645.285 394.805 645.285 393.676C645.285 392.764 644.714 392.189 643.547 391.903L642.575 391.665C641.8 391.473 641.45 391.213 641.45 390.71C641.45 390.148 642.047 389.739 642.848 389.739C643.726 389.739 644.088 390.224 644.263 390.676L645.166 390.42ZM649.944 386.364H649.024L646.211 396.812H647.132L649.944 386.364ZM653.856 395.636C655.305 395.636 656.259 394.75 656.43 393.591H655.424C655.236 394.307 654.64 394.733 653.856 394.733C652.662 394.733 651.895 393.744 651.895 392.227C651.895 390.744 652.68 389.773 653.856 389.773C654.742 389.773 655.27 390.318 655.424 390.915H656.43C656.259 389.688 655.219 388.869 653.839 388.869C652.066 388.869 650.89 390.267 650.89 392.261C650.89 394.222 652.015 395.636 653.856 395.636ZM660.619 395.636C662.391 395.636 663.585 394.29 663.585 392.261C663.585 390.216 662.391 388.869 660.619 388.869C658.846 388.869 657.653 390.216 657.653 392.261C657.653 394.29 658.846 395.636 660.619 395.636ZM660.619 394.733C659.272 394.733 658.659 393.574 658.659 392.261C658.659 390.949 659.272 389.773 660.619 389.773C661.965 389.773 662.579 390.949 662.579 392.261C662.579 393.574 661.965 394.733 660.619 394.733ZM665.18 395.5H666.186V391.409C666.186 390.45 666.884 389.773 667.668 389.773C668.431 389.773 668.964 390.271 668.964 391.017V395.5H669.987V391.239C669.987 390.395 670.515 389.773 671.436 389.773C672.151 389.773 672.765 390.152 672.765 391.119V395.5H673.771V391.119C673.771 389.581 672.944 388.869 671.776 388.869C670.839 388.869 670.153 389.3 669.816 389.977H669.748C669.424 389.278 668.853 388.869 667.992 388.869C667.14 388.869 666.509 389.278 666.237 389.977H666.151V388.955H665.18V395.5ZM675.67 397.955H676.675V394.494H676.76C676.982 394.852 677.408 395.636 678.67 395.636C680.306 395.636 681.448 394.324 681.448 392.244C681.448 390.182 680.306 388.869 678.652 388.869C677.374 388.869 676.982 389.653 676.76 389.994H676.641V388.955H675.67V397.955ZM676.658 392.227C676.658 390.761 677.306 389.773 678.533 389.773C679.812 389.773 680.442 390.847 680.442 392.227C680.442 393.625 679.795 394.733 678.533 394.733C677.323 394.733 676.658 393.71 676.658 392.227ZM685.701 395.636C687.474 395.636 688.667 394.29 688.667 392.261C688.667 390.216 687.474 388.869 685.701 388.869C683.928 388.869 682.735 390.216 682.735 392.261C682.735 394.29 683.928 395.636 685.701 395.636ZM685.701 394.733C684.355 394.733 683.741 393.574 683.741 392.261C683.741 390.949 684.355 389.773 685.701 389.773C687.048 389.773 687.661 390.949 687.661 392.261C687.661 393.574 687.048 394.733 685.701 394.733ZM691.268 391.562C691.268 390.42 691.975 389.773 692.938 389.773C693.872 389.773 694.438 390.382 694.438 391.409V395.5H695.444V391.341C695.444 389.67 694.553 388.869 693.228 388.869C692.239 388.869 691.626 389.312 691.319 389.977H691.234V388.955H690.262V395.5H691.268V391.562ZM700.086 395.636C701.416 395.636 702.387 394.972 702.694 393.983L701.722 393.71C701.467 394.392 700.874 394.733 700.086 394.733C698.906 394.733 698.092 393.97 698.045 392.568H702.796V392.142C702.796 389.705 701.347 388.869 699.984 388.869C698.211 388.869 697.035 390.267 697.035 392.278C697.035 394.29 698.194 395.636 700.086 395.636ZM698.045 391.699C698.113 390.68 698.833 389.773 699.984 389.773C701.075 389.773 701.774 390.591 701.774 391.699H698.045ZM705.392 391.562C705.392 390.42 706.099 389.773 707.062 389.773C707.995 389.773 708.562 390.382 708.562 391.409V395.5H709.568V391.341C709.568 389.67 708.677 388.869 707.352 388.869C706.363 388.869 705.75 389.312 705.443 389.977H705.358V388.955H704.386V395.5H705.392V391.562ZM714.312 388.955H712.914V387.386H711.909V388.955H710.92V389.807H711.909V393.898C711.909 395.04 712.829 395.585 713.682 395.585C714.057 395.585 714.295 395.517 714.432 395.466L714.227 394.562C714.142 394.58 714.005 394.614 713.784 394.614C713.341 394.614 712.914 394.477 712.914 393.625V389.807H714.312V388.955ZM718.97 386.364H718.05L715.237 396.812H716.158L718.97 386.364ZM719.881 387.71H722.626V395.5H723.683V387.71H726.427V386.773H719.881V387.71ZM729.691 395.636C731.464 395.636 732.657 394.29 732.657 392.261C732.657 390.216 731.464 388.869 729.691 388.869C727.919 388.869 726.726 390.216 726.726 392.261C726.726 394.29 727.919 395.636 729.691 395.636ZM729.691 394.733C728.345 394.733 727.731 393.574 727.731 392.261C727.731 390.949 728.345 389.773 729.691 389.773C731.038 389.773 731.652 390.949 731.652 392.261C731.652 393.574 731.038 394.733 729.691 394.733ZM736.912 395.636C738.684 395.636 739.877 394.29 739.877 392.261C739.877 390.216 738.684 388.869 736.912 388.869C735.139 388.869 733.946 390.216 733.946 392.261C733.946 394.29 735.139 395.636 736.912 395.636ZM736.912 394.733C735.565 394.733 734.951 393.574 734.951 392.261C734.951 390.949 735.565 389.773 736.912 389.773C738.258 389.773 738.872 390.949 738.872 392.261C738.872 393.574 738.258 394.733 736.912 394.733ZM744.115 398.091C745.683 398.091 746.944 397.375 746.944 395.688V388.955H745.973V389.994H745.87C745.649 389.653 745.24 388.869 743.961 388.869C742.308 388.869 741.166 390.182 741.166 392.193C741.166 394.239 742.359 395.398 743.944 395.398C745.223 395.398 745.632 394.648 745.853 394.29H745.939V395.619C745.939 396.71 745.172 397.205 744.115 397.205C742.926 397.205 742.508 396.578 742.24 396.216L741.439 396.778C741.848 397.464 742.653 398.091 744.115 398.091ZM744.081 394.494C742.819 394.494 742.172 393.54 742.172 392.176C742.172 390.847 742.802 389.773 744.081 389.773C745.308 389.773 745.956 390.761 745.956 392.176C745.956 393.625 745.291 394.494 744.081 394.494ZM749.851 386.773H748.845V395.5H749.851V386.773ZM754.497 395.636C755.827 395.636 756.798 394.972 757.105 393.983L756.133 393.71C755.878 394.392 755.285 394.733 754.497 394.733C753.317 394.733 752.503 393.97 752.456 392.568H757.207V392.142C757.207 389.705 755.758 388.869 754.395 388.869C752.622 388.869 751.446 390.267 751.446 392.278C751.446 394.29 752.605 395.636 754.497 395.636ZM752.456 391.699C752.524 390.68 753.244 389.773 754.395 389.773C755.486 389.773 756.185 390.591 756.185 391.699H752.456Z" fill="#808080"/>
</g>
</g>
</g>
</g>
<g id="1st section_2">
<g id="Title_2">
<path id="Terminals" d="M482.531 422.859H485.047V430H486.016V422.859H488.531V422H482.531V422.859ZM491.657 430.125C492.876 430.125 493.766 429.516 494.048 428.609L493.157 428.359C492.923 428.984 492.38 429.297 491.657 429.297C490.575 429.297 489.829 428.598 489.786 427.312H494.141V426.922C494.141 424.687 492.813 423.922 491.563 423.922C489.938 423.922 488.86 425.203 488.86 427.047C488.86 428.891 489.923 430.125 491.657 430.125ZM489.786 426.516C489.848 425.582 490.508 424.75 491.563 424.75C492.563 424.75 493.204 425.5 493.204 426.516H489.786ZM495.654 430H496.575V426.203C496.575 425.391 497.216 424.797 498.091 424.797C498.337 424.797 498.591 424.844 498.654 424.859V423.922C498.548 423.914 498.306 423.906 498.169 423.906C497.45 423.906 496.825 424.312 496.607 424.906H496.544V424H495.654V430ZM499.856 430H500.778V426.25C500.778 425.371 501.419 424.75 502.138 424.75C502.837 424.75 503.325 425.207 503.325 425.891V430H504.263V426.094C504.263 425.32 504.747 424.75 505.591 424.75C506.247 424.75 506.809 425.098 506.809 425.984V430H507.731V425.984C507.731 424.574 506.974 423.922 505.903 423.922C505.044 423.922 504.415 424.316 504.106 424.937H504.044C503.747 424.297 503.224 423.922 502.434 423.922C501.653 423.922 501.075 424.297 500.825 424.937H500.747V424H499.856V430ZM509.527 430H510.449V424H509.527V430ZM509.996 423C510.355 423 510.652 422.719 510.652 422.375C510.652 422.031 510.355 421.75 509.996 421.75C509.636 421.75 509.339 422.031 509.339 422.375C509.339 422.719 509.636 423 509.996 423ZM513.169 426.391C513.169 425.344 513.818 424.75 514.7 424.75C515.556 424.75 516.075 425.309 516.075 426.25V430H516.997V426.188C516.997 424.656 516.181 423.922 514.966 423.922C514.06 423.922 513.497 424.328 513.216 424.937H513.138V424H512.247V430H513.169V426.391ZM520.557 430.141C521.604 430.141 522.151 429.578 522.339 429.187H522.386V430H523.307V426.047C523.307 424.141 521.854 423.922 521.089 423.922C520.182 423.922 519.151 424.234 518.682 425.328L519.557 425.641C519.761 425.203 520.241 424.734 521.12 424.734C521.968 424.734 522.386 425.184 522.386 425.953V425.984C522.386 426.43 521.932 426.391 520.839 426.531C519.725 426.676 518.511 426.922 518.511 428.297C518.511 429.469 519.417 430.141 520.557 430.141ZM520.698 429.312C519.964 429.312 519.432 428.984 519.432 428.344C519.432 427.641 520.073 427.422 520.792 427.328C521.182 427.281 522.229 427.172 522.386 426.984V427.828C522.386 428.578 521.792 429.312 520.698 429.312ZM526.022 422H525.1V430H526.022V422ZM532.07 425.344C531.781 424.492 531.133 423.922 529.945 423.922C528.68 423.922 527.742 424.641 527.742 425.656C527.742 426.484 528.234 427.039 529.336 427.297L530.336 427.531C530.942 427.672 531.227 427.961 531.227 428.375C531.227 428.891 530.68 429.312 529.82 429.312C529.067 429.312 528.594 428.988 528.43 428.344L527.555 428.562C527.77 429.582 528.609 430.125 529.836 430.125C531.231 430.125 532.18 429.363 532.18 428.328C532.18 427.492 531.656 426.965 530.586 426.703L529.695 426.484C528.984 426.309 528.664 426.07 528.664 425.609C528.664 425.094 529.211 424.719 529.945 424.719C530.75 424.719 531.082 425.164 531.242 425.578L532.07 425.344Z" fill="#808080"/>
</g>
<g id="List_2">
<g id="Pallete_4">
<g id="Content_5">
<g id="16x16/devtoolAdd">
<path id="Shape_4" d="M491 452H505M498 445V459" stroke="#999999" stroke-linecap="round"/>
</g>
<path id="Button.js_4" d="M515.533 457L516.484 454.322H520.306L521.257 457H522.457L518.986 447.545H517.804L514.332 457H515.533ZM516.844 453.307L518.358 449.041H518.432L519.946 453.307H516.844ZM526.46 457.148C527.826 457.148 528.288 456.298 528.528 455.911H528.657V457H529.71V447.545H528.62V451.036H528.528C528.288 450.666 527.863 449.817 526.478 449.817C524.687 449.817 523.45 451.239 523.45 453.473C523.45 455.726 524.687 457.148 526.46 457.148ZM526.608 456.169C525.241 456.169 524.539 454.969 524.539 453.455C524.539 451.959 525.223 450.795 526.608 450.795C527.937 450.795 528.639 451.866 528.639 453.455C528.639 455.061 527.919 456.169 526.608 456.169ZM534.534 457.148C535.901 457.148 536.362 456.298 536.602 455.911H536.732V457H537.784V447.545H536.695V451.036H536.602C536.362 450.666 535.938 449.817 534.553 449.817C532.761 449.817 531.524 451.239 531.524 453.473C531.524 455.726 532.761 457.148 534.534 457.148ZM534.682 456.169C533.315 456.169 532.614 454.969 532.614 453.455C532.614 451.959 533.297 450.795 534.682 450.795C536.011 450.795 536.713 451.866 536.713 453.455C536.713 455.061 535.993 456.169 534.682 456.169ZM551.232 447.545H550.105V454.987H550.013L544.843 447.545H543.735V457H544.88V449.577H544.972L550.124 457H551.232V447.545ZM556.348 457.148C557.788 457.148 558.841 456.428 559.173 455.357L558.121 455.061C557.844 455.8 557.202 456.169 556.348 456.169C555.069 456.169 554.188 455.343 554.137 453.824H559.284V453.362C559.284 450.722 557.715 449.817 556.237 449.817C554.317 449.817 553.043 451.331 553.043 453.51C553.043 455.689 554.298 457.148 556.348 457.148ZM554.137 452.882C554.211 451.779 554.991 450.795 556.237 450.795C557.419 450.795 558.176 451.682 558.176 452.882H554.137ZM562.548 457H563.619L565.17 451.553H565.281L566.832 457H567.903L570.064 449.909H568.919L567.386 455.32H567.312L565.816 449.909H564.653L563.139 455.338H563.065L561.532 449.909H560.388L562.548 457ZM574.791 448.561H577.764V457H578.909V448.561H581.882V447.545H574.791V448.561ZM585.446 457.148C586.886 457.148 587.939 456.428 588.271 455.357L587.218 455.061C586.941 455.8 586.3 456.169 585.446 456.169C584.167 456.169 583.285 455.343 583.234 453.824H588.382V453.362C588.382 450.722 586.812 449.817 585.335 449.817C583.415 449.817 582.14 451.331 582.14 453.51C582.14 455.689 583.396 457.148 585.446 457.148ZM583.234 452.882C583.308 451.779 584.089 450.795 585.335 450.795C586.517 450.795 587.274 451.682 587.274 452.882H583.234ZM590.039 457H591.129V452.513C591.129 451.553 591.886 450.851 592.92 450.851C593.211 450.851 593.511 450.906 593.585 450.925V449.817C593.46 449.808 593.174 449.798 593.012 449.798C592.163 449.798 591.424 450.278 591.166 450.98H591.092V449.909H590.039V457ZM594.876 457H595.966V452.568C595.966 451.529 596.723 450.795 597.572 450.795C598.398 450.795 598.975 451.336 598.975 452.143V457H600.083V452.384C600.083 451.469 600.656 450.795 601.653 450.795C602.429 450.795 603.093 451.206 603.093 452.254V457H604.183V452.254C604.183 450.588 603.287 449.817 602.022 449.817C601.007 449.817 600.263 450.283 599.899 451.017H599.825C599.474 450.26 598.855 449.817 597.923 449.817C597 449.817 596.316 450.26 596.021 451.017H595.929V449.909H594.876V457ZM606.175 457H607.264V449.909H606.175V457ZM606.729 448.727C607.154 448.727 607.504 448.395 607.504 447.989C607.504 447.582 607.154 447.25 606.729 447.25C606.304 447.25 605.953 447.582 605.953 447.989C605.953 448.395 606.304 448.727 606.729 448.727ZM610.349 452.734C610.349 451.497 611.116 450.795 612.159 450.795C613.17 450.795 613.784 451.456 613.784 452.568V457H614.873V452.494C614.873 450.685 613.909 449.817 612.473 449.817C611.402 449.817 610.737 450.297 610.405 451.017H610.312V449.909H609.26V457H610.349V452.734ZM618.951 457.166C620.188 457.166 620.835 456.501 621.056 456.04H621.112V457H622.201V452.328C622.201 450.075 620.484 449.817 619.579 449.817C618.508 449.817 617.289 450.186 616.735 451.479L617.769 451.848C618.009 451.331 618.577 450.777 619.616 450.777C620.618 450.777 621.112 451.308 621.112 452.217V452.254C621.112 452.781 620.576 452.734 619.283 452.901C617.968 453.071 616.532 453.362 616.532 454.987C616.532 456.372 617.603 457.166 618.951 457.166ZM619.117 456.188C618.249 456.188 617.621 455.8 617.621 455.043C617.621 454.212 618.379 453.953 619.228 453.842C619.69 453.787 620.927 453.658 621.112 453.436V454.433C621.112 455.32 620.41 456.188 619.117 456.188ZM625.279 447.545H624.19V457H625.279V447.545Z" fill="#E5E5E5"/>
</g>
</g>
</g>
</g>
<g id="2nd section">
<g id="List_3">
<g id="Pallete_5">
<g id="Content_6">
<g id="16x16/sidebar">
<path id="Shape_5" d="M494.25 508.083C494.25 507.807 494.026 507.583 493.75 507.583C493.473 507.583 493.25 507.807 493.25 508.083L494.25 508.083ZM493.25 519.917C493.25 520.193 493.473 520.417 493.75 520.417C494.026 520.417 494.25 520.193 494.25 519.917H493.25ZM493.417 508.083C493.417 507.807 493.193 507.583 492.917 507.583C492.641 507.583 492.417 507.807 492.417 508.083L493.417 508.083ZM492.417 519.917C492.417 520.193 492.641 520.417 492.917 520.417C493.193 520.417 493.417 520.193 493.417 519.917H492.417ZM493.333 508.583H502.667V507.583H493.333V508.583ZM503.417 509.333V518.667H504.417V509.333H503.417ZM502.667 519.417H493.333V520.417H502.667V519.417ZM492.583 518.667V509.333H491.583V518.667H492.583ZM493.333 519.417C492.919 519.417 492.583 519.081 492.583 518.667H491.583C491.583 519.633 492.367 520.417 493.333 520.417V519.417ZM503.417 518.667C503.417 519.081 503.081 519.417 502.667 519.417V520.417C503.633 520.417 504.417 519.633 504.417 518.667H503.417ZM502.667 508.583C503.081 508.583 503.417 508.919 503.417 509.333H504.417C504.417 508.367 503.633 507.583 502.667 507.583V508.583ZM493.333 507.583C492.367 507.583 491.583 508.367 491.583 509.333H492.583C492.583 508.919 492.919 508.583 493.333 508.583V507.583ZM493.25 508.083L493.25 519.917H494.25L494.25 508.083L493.25 508.083ZM492.417 508.083L492.417 519.917H493.417L493.417 508.083L492.417 508.083Z" fill="#999999"/>
</g>
<path id="Button.js_5" d="M520.315 511.909H521.423C521.373 510.483 520.057 509.416 518.229 509.416C516.419 509.416 514.997 510.469 514.997 512.057C514.997 513.331 515.92 514.088 517.398 514.513L518.561 514.845C519.558 515.122 520.445 515.473 520.445 516.415C520.445 517.449 519.447 518.132 518.136 518.132C517.01 518.132 516.013 517.634 515.92 516.562H514.739C514.849 518.114 516.105 519.166 518.136 519.166C520.315 519.166 521.553 517.966 521.553 516.433C521.553 514.661 519.872 514.088 518.893 513.83L517.933 513.571C517.232 513.386 516.105 513.017 516.105 512.001C516.105 511.097 516.936 510.432 518.192 510.432C519.337 510.432 520.205 510.977 520.315 511.909ZM524.377 514.734C524.377 513.497 525.166 512.795 526.242 512.795C527.267 512.795 527.885 513.442 527.885 514.568V519H528.975V514.494C528.975 512.671 528.005 511.817 526.556 511.817C525.438 511.817 524.801 512.283 524.469 513.017H524.377V509.545H523.287V519H524.377V514.734ZM533.849 519.148C535.769 519.148 537.062 517.689 537.062 515.491C537.062 513.276 535.769 511.817 533.849 511.817C531.928 511.817 530.635 513.276 530.635 515.491C530.635 517.689 531.928 519.148 533.849 519.148ZM533.849 518.169C532.39 518.169 531.725 516.913 531.725 515.491C531.725 514.07 532.39 512.795 533.849 512.795C535.307 512.795 535.972 514.07 535.972 515.491C535.972 516.913 535.307 518.169 533.849 518.169ZM540.09 519H541.161L542.712 513.553H542.823L544.374 519H545.445L547.606 511.909H546.461L544.928 517.32H544.854L543.358 511.909H542.195L540.681 517.338H540.607L539.074 511.909H537.93L540.09 519ZM552.85 519H553.995V514.771H558.094V513.756H553.995V510.561H558.519V509.545H552.85V519ZM560.332 519H561.422V511.909H560.332V519ZM560.886 510.727C561.311 510.727 561.662 510.395 561.662 509.989C561.662 509.582 561.311 509.25 560.886 509.25C560.461 509.25 560.111 509.582 560.111 509.989C560.111 510.395 560.461 510.727 560.886 510.727ZM564.507 509.545H563.417V519H564.507V509.545ZM569.475 519.148C570.915 519.148 571.968 518.428 572.3 517.357L571.248 517.061C570.971 517.8 570.329 518.169 569.475 518.169C568.196 518.169 567.315 517.343 567.264 515.824H572.411V515.362C572.411 512.722 570.842 511.817 569.364 511.817C567.444 511.817 566.17 513.331 566.17 515.51C566.17 517.689 567.425 519.148 569.475 519.148ZM567.264 514.882C567.338 513.779 568.118 512.795 569.364 512.795C570.546 512.795 571.303 513.682 571.303 514.882H567.264ZM579.091 513.497C578.75 512.491 577.983 511.817 576.58 511.817C575.084 511.817 573.976 512.666 573.976 513.866C573.976 514.845 574.558 515.501 575.86 515.805L577.041 516.082C577.757 516.249 578.094 516.59 578.094 517.08C578.094 517.689 577.448 518.188 576.432 518.188C575.541 518.188 574.983 517.804 574.789 517.043L573.755 517.301C574.008 518.506 575.001 519.148 576.451 519.148C578.099 519.148 579.22 518.248 579.22 517.024C579.22 516.036 578.602 515.413 577.337 515.104L576.284 514.845C575.444 514.637 575.066 514.356 575.066 513.811C575.066 513.202 575.712 512.759 576.58 512.759C577.531 512.759 577.923 513.285 578.112 513.774L579.091 513.497Z" fill="#E5E5E5"/>
</g>
</g>
<g id="Pallete_6">
<g id="Content_7">
<g id="16x16/sidebar_2">
<path id="Shape_6" d="M494.25 540.083C494.25 539.807 494.026 539.583 493.75 539.583C493.473 539.583 493.25 539.807 493.25 540.083L494.25 540.083ZM493.25 551.917C493.25 552.193 493.473 552.417 493.75 552.417C494.026 552.417 494.25 552.193 494.25 551.917H493.25ZM493.417 540.083C493.417 539.807 493.193 539.583 492.917 539.583C492.641 539.583 492.417 539.807 492.417 540.083L493.417 540.083ZM492.417 551.917C492.417 552.193 492.641 552.417 492.917 552.417C493.193 552.417 493.417 552.193 493.417 551.917H492.417ZM493.333 540.583H502.667V539.583H493.333V540.583ZM503.417 541.333V550.667H504.417V541.333H503.417ZM502.667 551.417H493.333V552.417H502.667V551.417ZM492.583 550.667V541.333H491.583V550.667H492.583ZM493.333 551.417C492.919 551.417 492.583 551.081 492.583 550.667H491.583C491.583 551.633 492.367 552.417 493.333 552.417V551.417ZM503.417 550.667C503.417 551.081 503.081 551.417 502.667 551.417V552.417C503.633 552.417 504.417 551.633 504.417 550.667H503.417ZM502.667 540.583C503.081 540.583 503.417 540.919 503.417 541.333H504.417C504.417 540.367 503.633 539.583 502.667 539.583V540.583ZM493.333 539.583C492.367 539.583 491.583 540.367 491.583 541.333H492.583C492.583 540.919 492.919 540.583 493.333 540.583V539.583ZM493.25 540.083L493.25 551.917H494.25L494.25 540.083L493.25 540.083ZM492.417 540.083L492.417 551.917H493.417L493.417 540.083L492.417 540.083Z" fill="#999999"/>
</g>
<path id="Button.js_6" d="M520.315 543.909H521.423C521.373 542.483 520.057 541.416 518.229 541.416C516.419 541.416 514.997 542.469 514.997 544.057C514.997 545.331 515.92 546.088 517.398 546.513L518.561 546.845C519.558 547.122 520.445 547.473 520.445 548.415C520.445 549.449 519.447 550.132 518.136 550.132C517.01 550.132 516.013 549.634 515.92 548.562H514.739C514.849 550.114 516.105 551.166 518.136 551.166C520.315 551.166 521.553 549.966 521.553 548.433C521.553 546.661 519.872 546.088 518.893 545.83L517.933 545.571C517.232 545.386 516.105 545.017 516.105 544.001C516.105 543.097 516.936 542.432 518.192 542.432C519.337 542.432 520.205 542.977 520.315 543.909ZM524.377 546.734C524.377 545.497 525.166 544.795 526.242 544.795C527.267 544.795 527.885 545.442 527.885 546.568V551H528.975V546.494C528.975 544.671 528.005 543.817 526.556 543.817C525.438 543.817 524.801 544.283 524.469 545.017H524.377V541.545H523.287V551H524.377V546.734ZM533.849 551.148C535.769 551.148 537.062 549.689 537.062 547.491C537.062 545.276 535.769 543.817 533.849 543.817C531.928 543.817 530.635 545.276 530.635 547.491C530.635 549.689 531.928 551.148 533.849 551.148ZM533.849 550.169C532.39 550.169 531.725 548.913 531.725 547.491C531.725 546.07 532.39 544.795 533.849 544.795C535.307 544.795 535.972 546.07 535.972 547.491C535.972 548.913 535.307 550.169 533.849 550.169ZM540.09 551H541.161L542.712 545.553H542.823L544.374 551H545.445L547.606 543.909H546.461L544.928 549.32H544.854L543.358 543.909H542.195L540.681 549.338H540.607L539.074 543.909H537.93L540.09 551ZM559.313 544.5H560.495C560.144 542.672 558.611 541.416 556.617 541.416C554.193 541.416 552.481 543.281 552.481 546.273C552.481 549.264 554.18 551.129 556.691 551.129C558.944 551.129 560.55 549.629 560.55 547.288V546.273H556.949V547.288H559.442C559.41 548.987 558.293 550.058 556.691 550.058C554.937 550.058 553.589 548.729 553.589 546.273C553.589 543.817 554.937 542.487 556.617 542.487C557.983 542.487 558.911 543.258 559.313 544.5ZM562.808 551H563.897V543.909H562.808V551ZM563.362 542.727C563.786 542.727 564.137 542.395 564.137 541.989C564.137 541.582 563.786 541.25 563.362 541.25C562.937 541.25 562.586 541.582 562.586 541.989C562.586 542.395 562.937 542.727 563.362 542.727ZM568.976 543.909H567.462V542.21H566.373V543.909H565.302V544.832H566.373V549.264C566.373 550.501 567.37 551.092 568.293 551.092C568.699 551.092 568.958 551.018 569.106 550.963L568.884 549.984C568.792 550.003 568.644 550.04 568.404 550.04C567.924 550.04 567.462 549.892 567.462 548.969V544.832H568.976V543.909ZM582.027 544.5C581.676 542.561 580.125 541.416 578.223 541.416C575.804 541.416 574.05 543.281 574.05 546.273C574.05 549.264 575.804 551.129 578.223 551.129C580.125 551.129 581.676 549.984 582.027 548.045H580.882C580.605 549.357 579.479 550.058 578.223 550.058C576.506 550.058 575.158 548.729 575.158 546.273C575.158 543.817 576.506 542.487 578.223 542.487C579.479 542.487 580.605 543.189 580.882 544.5H582.027ZM584.819 546.734C584.819 545.497 585.608 544.795 586.684 544.795C587.709 544.795 588.328 545.442 588.328 546.568V551H589.417V546.494C589.417 544.671 588.448 543.817 586.998 543.817C585.881 543.817 585.244 544.283 584.911 545.017H584.819V541.545H583.73V551H584.819V546.734ZM593.497 551.166C594.734 551.166 595.38 550.501 595.602 550.04H595.657V551H596.747V546.328C596.747 544.075 595.03 543.817 594.125 543.817C593.054 543.817 591.835 544.186 591.281 545.479L592.315 545.848C592.555 545.331 593.123 544.777 594.162 544.777C595.163 544.777 595.657 545.308 595.657 546.217V546.254C595.657 546.781 595.122 546.734 593.829 546.901C592.514 547.071 591.078 547.362 591.078 548.987C591.078 550.372 592.149 551.166 593.497 551.166ZM593.663 550.188C592.795 550.188 592.167 549.8 592.167 549.043C592.167 548.212 592.924 547.953 593.774 547.842C594.236 547.787 595.473 547.658 595.657 547.436V548.433C595.657 549.32 594.956 550.188 593.663 550.188ZM599.825 546.734C599.825 545.497 600.591 544.795 601.635 544.795C602.646 544.795 603.26 545.456 603.26 546.568V551H604.349V546.494C604.349 544.685 603.384 543.817 601.949 543.817C600.877 543.817 600.213 544.297 599.88 545.017H599.788V543.909H598.735V551H599.825V546.734ZM609.202 553.807C610.901 553.807 612.267 553.031 612.267 551.203V543.909H611.215V545.036H611.104C610.864 544.666 610.421 543.817 609.036 543.817C607.245 543.817 606.008 545.239 606.008 547.418C606.008 549.634 607.3 550.889 609.017 550.889C610.402 550.889 610.846 550.077 611.086 549.689H611.178V551.129C611.178 552.311 610.347 552.847 609.202 552.847C607.914 552.847 607.462 552.168 607.171 551.776L606.303 552.385C606.746 553.128 607.619 553.807 609.202 553.807ZM609.165 549.911C607.799 549.911 607.097 548.876 607.097 547.399C607.097 545.959 607.78 544.795 609.165 544.795C610.495 544.795 611.196 545.866 611.196 547.399C611.196 548.969 610.476 549.911 609.165 549.911ZM617.235 551.148C618.675 551.148 619.728 550.428 620.06 549.357L619.008 549.061C618.731 549.8 618.089 550.169 617.235 550.169C615.956 550.169 615.074 549.343 615.024 547.824H620.171V547.362C620.171 544.722 618.601 543.817 617.124 543.817C615.204 543.817 613.929 545.331 613.929 547.51C613.929 549.689 615.185 551.148 617.235 551.148ZM615.024 546.882C615.097 545.779 615.878 544.795 617.124 544.795C618.306 544.795 619.063 545.682 619.063 546.882H615.024ZM626.851 545.497C626.509 544.491 625.743 543.817 624.34 543.817C622.844 543.817 621.736 544.666 621.736 545.866C621.736 546.845 622.318 547.501 623.619 547.805L624.801 548.082C625.517 548.249 625.854 548.59 625.854 549.08C625.854 549.689 625.207 550.188 624.192 550.188C623.301 550.188 622.742 549.804 622.548 549.043L621.514 549.301C621.768 550.506 622.761 551.148 624.21 551.148C625.858 551.148 626.98 550.248 626.98 549.024C626.98 548.036 626.362 547.413 625.097 547.104L624.044 546.845C623.204 546.637 622.825 546.356 622.825 545.811C622.825 545.202 623.472 544.759 624.34 544.759C625.291 544.759 625.683 545.285 625.872 545.774L626.851 545.497Z" fill="#E5E5E5"/>
</g>
</g>
<g id="Pallete_7">
<g id="Content_8">
<g id="16x16/sidebar_3">
<path id="Shape_7" d="M494.25 572.083C494.25 571.807 494.026 571.583 493.75 571.583C493.473 571.583 493.25 571.807 493.25 572.083L494.25 572.083ZM493.25 583.917C493.25 584.193 493.473 584.417 493.75 584.417C494.026 584.417 494.25 584.193 494.25 583.917H493.25ZM493.417 572.083C493.417 571.807 493.193 571.583 492.917 571.583C492.641 571.583 492.417 571.807 492.417 572.083L493.417 572.083ZM492.417 583.917C492.417 584.193 492.641 584.417 492.917 584.417C493.193 584.417 493.417 584.193 493.417 583.917H492.417ZM493.333 572.583H502.667V571.583H493.333V572.583ZM503.417 573.333V582.667H504.417V573.333H503.417ZM502.667 583.417H493.333V584.417H502.667V583.417ZM492.583 582.667V573.333H491.583V582.667H492.583ZM493.333 583.417C492.919 583.417 492.583 583.081 492.583 582.667H491.583C491.583 583.633 492.367 584.417 493.333 584.417V583.417ZM503.417 582.667C503.417 583.081 503.081 583.417 502.667 583.417V584.417C503.633 584.417 504.417 583.633 504.417 582.667H503.417ZM502.667 572.583C503.081 572.583 503.417 572.919 503.417 573.333H504.417C504.417 572.367 503.633 571.583 502.667 571.583V572.583ZM493.333 571.583C492.367 571.583 491.583 572.367 491.583 573.333H492.583C492.583 572.919 492.919 572.583 493.333 572.583V571.583ZM493.25 572.083L493.25 583.917H494.25L494.25 572.083L493.25 572.083ZM492.417 572.083L492.417 583.917H493.417L493.417 572.083L492.417 572.083Z" fill="#999999"/>
</g>
<path id="Button.js_7" d="M520.315 575.909H521.423C521.373 574.483 520.057 573.416 518.229 573.416C516.419 573.416 514.997 574.469 514.997 576.057C514.997 577.331 515.92 578.088 517.398 578.513L518.561 578.845C519.558 579.122 520.445 579.473 520.445 580.415C520.445 581.449 519.447 582.132 518.136 582.132C517.01 582.132 516.013 581.634 515.92 580.562H514.739C514.849 582.114 516.105 583.166 518.136 583.166C520.315 583.166 521.553 581.966 521.553 580.433C521.553 578.661 519.872 578.088 518.893 577.83L517.933 577.571C517.232 577.386 516.105 577.017 516.105 576.001C516.105 575.097 516.936 574.432 518.192 574.432C519.337 574.432 520.205 574.977 520.315 575.909ZM524.377 578.734C524.377 577.497 525.166 576.795 526.242 576.795C527.267 576.795 527.885 577.442 527.885 578.568V583H528.975V578.494C528.975 576.671 528.005 575.817 526.556 575.817C525.438 575.817 524.801 576.283 524.469 577.017H524.377V573.545H523.287V583H524.377V578.734ZM533.849 583.148C535.769 583.148 537.062 581.689 537.062 579.491C537.062 577.276 535.769 575.817 533.849 575.817C531.928 575.817 530.635 577.276 530.635 579.491C530.635 581.689 531.928 583.148 533.849 583.148ZM533.849 582.169C532.39 582.169 531.725 580.913 531.725 579.491C531.725 578.07 532.39 576.795 533.849 576.795C535.307 576.795 535.972 578.07 535.972 579.491C535.972 580.913 535.307 582.169 533.849 582.169ZM540.09 583H541.161L542.712 577.553H542.823L544.374 583H545.445L547.606 575.909H546.461L544.928 581.32H544.854L543.358 575.909H542.195L540.681 581.338H540.607L539.074 575.909H537.93L540.09 583ZM560.458 576.5C560.107 574.561 558.556 573.416 556.654 573.416C554.235 573.416 552.481 575.281 552.481 578.273C552.481 581.264 554.235 583.129 556.654 583.129C558.556 583.129 560.107 581.984 560.458 580.045H559.313C559.036 581.357 557.91 582.058 556.654 582.058C554.937 582.058 553.589 580.729 553.589 578.273C553.589 575.817 554.937 574.487 556.654 574.487C557.91 574.487 559.036 575.189 559.313 576.5H560.458ZM565.041 583.148C566.961 583.148 568.254 581.689 568.254 579.491C568.254 577.276 566.961 575.817 565.041 575.817C563.12 575.817 561.828 577.276 561.828 579.491C561.828 581.689 563.12 583.148 565.041 583.148ZM565.041 582.169C563.582 582.169 562.917 580.913 562.917 579.491C562.917 578.07 563.582 576.795 565.041 576.795C566.5 576.795 567.165 578.07 567.165 579.491C567.165 580.913 566.5 582.169 565.041 582.169ZM572.595 583.148C573.961 583.148 574.423 582.298 574.663 581.911H574.792V583H575.845V573.545H574.755V577.036H574.663C574.423 576.666 573.998 575.817 572.613 575.817C570.822 575.817 569.585 577.239 569.585 579.473C569.585 581.726 570.822 583.148 572.595 583.148ZM572.742 582.169C571.376 582.169 570.674 580.969 570.674 579.455C570.674 577.959 571.357 576.795 572.742 576.795C574.072 576.795 574.774 577.866 574.774 579.455C574.774 581.061 574.053 582.169 572.742 582.169ZM580.964 583.148C582.405 583.148 583.457 582.428 583.79 581.357L582.737 581.061C582.46 581.8 581.818 582.169 580.964 582.169C579.686 582.169 578.804 581.343 578.753 579.824H583.9V579.362C583.9 576.722 582.331 575.817 580.854 575.817C578.933 575.817 577.659 577.331 577.659 579.51C577.659 581.689 578.915 583.148 580.964 583.148ZM578.753 578.882C578.827 577.779 579.607 576.795 580.854 576.795C582.035 576.795 582.792 577.682 582.792 578.882H578.753ZM594.532 575.909H595.64C595.589 574.483 594.274 573.416 592.445 573.416C590.636 573.416 589.214 574.469 589.214 576.057C589.214 577.331 590.137 578.088 591.615 578.513L592.778 578.845C593.775 579.122 594.661 579.473 594.661 580.415C594.661 581.449 593.664 582.132 592.353 582.132C591.227 582.132 590.23 581.634 590.137 580.562H588.955C589.066 582.114 590.322 583.166 592.353 583.166C594.532 583.166 595.769 581.966 595.769 580.433C595.769 578.661 594.089 578.088 593.11 577.83L592.15 577.571C591.448 577.386 590.322 577.017 590.322 576.001C590.322 575.097 591.153 574.432 592.409 574.432C593.553 574.432 594.421 574.977 594.532 575.909ZM600.477 583.148C601.917 583.148 602.97 582.428 603.302 581.357L602.25 581.061C601.973 581.8 601.331 582.169 600.477 582.169C599.198 582.169 598.316 581.343 598.266 579.824H603.413V579.362C603.413 576.722 601.843 575.817 600.366 575.817C598.446 575.817 597.172 577.331 597.172 579.51C597.172 581.689 598.427 583.148 600.477 583.148ZM598.266 578.882C598.34 577.779 599.12 576.795 600.366 576.795C601.548 576.795 602.305 577.682 602.305 578.882H598.266ZM607.157 583.166C608.394 583.166 609.041 582.501 609.262 582.04H609.318V583H610.407V578.328C610.407 576.075 608.69 575.817 607.785 575.817C606.714 575.817 605.495 576.186 604.941 577.479L605.975 577.848C606.215 577.331 606.783 576.777 607.822 576.777C608.824 576.777 609.318 577.308 609.318 578.217V578.254C609.318 578.781 608.782 578.734 607.489 578.901C606.174 579.071 604.738 579.362 604.738 580.987C604.738 582.372 605.809 583.166 607.157 583.166ZM607.323 582.188C606.455 582.188 605.828 581.8 605.828 581.043C605.828 580.212 606.585 579.953 607.434 579.842C607.896 579.787 609.133 579.658 609.318 579.436V580.433C609.318 581.32 608.616 582.188 607.323 582.188ZM612.396 583H613.485V578.513C613.485 577.553 614.242 576.851 615.276 576.851C615.567 576.851 615.867 576.906 615.941 576.925V575.817C615.816 575.808 615.53 575.798 615.369 575.798C614.519 575.798 613.781 576.278 613.522 576.98H613.448V575.909H612.396V583ZM619.897 583.148C621.467 583.148 622.501 582.188 622.686 580.932H621.596C621.393 581.707 620.747 582.169 619.897 582.169C618.605 582.169 617.774 581.098 617.774 579.455C617.774 577.848 618.623 576.795 619.897 576.795C620.858 576.795 621.43 577.386 621.596 578.033H622.686C622.501 576.703 621.375 575.817 619.879 575.817C617.958 575.817 616.684 577.331 616.684 579.491C616.684 581.615 617.903 583.148 619.897 583.148ZM625.368 578.734C625.368 577.497 626.157 576.795 627.233 576.795C628.258 576.795 628.876 577.442 628.876 578.568V583H629.966V578.494C629.966 576.671 628.996 575.817 627.547 575.817C626.43 575.817 625.793 576.283 625.46 577.017H625.368V573.545H624.278V583H625.368V578.734Z" fill="#E5E5E5"/>
</g>
</g>
</g>
<path id="Commands" d="M489.406 486.5C489.109 484.859 487.797 483.891 486.188 483.891C484.141 483.891 482.656 485.469 482.656 488C482.656 490.531 484.141 492.109 486.188 492.109C487.797 492.109 489.109 491.141 489.406 489.5H488.438C488.203 490.609 487.25 491.203 486.188 491.203C484.734 491.203 483.594 490.078 483.594 488C483.594 485.922 484.734 484.797 486.188 484.797C487.25 484.797 488.203 485.391 488.438 486.5H489.406ZM493.394 492.125C495.019 492.125 496.113 490.891 496.113 489.031C496.113 487.156 495.019 485.922 493.394 485.922C491.769 485.922 490.675 487.156 490.675 489.031C490.675 490.891 491.769 492.125 493.394 492.125ZM493.394 491.297C492.16 491.297 491.597 490.234 491.597 489.031C491.597 487.828 492.16 486.75 493.394 486.75C494.629 486.75 495.191 487.828 495.191 489.031C495.191 490.234 494.629 491.297 493.394 491.297ZM497.63 492H498.552V488.25C498.552 487.371 499.193 486.75 499.911 486.75C500.611 486.75 501.099 487.207 501.099 487.891V492H502.036V488.094C502.036 487.32 502.521 486.75 503.365 486.75C504.021 486.75 504.583 487.098 504.583 487.984V492H505.505V487.984C505.505 486.574 504.747 485.922 503.677 485.922C502.818 485.922 502.189 486.316 501.88 486.937H501.818C501.521 486.297 500.997 485.922 500.208 485.922C499.427 485.922 498.849 486.297 498.599 486.937H498.521V486H497.63V492ZM507.301 492H508.223V488.25C508.223 487.371 508.863 486.75 509.582 486.75C510.281 486.75 510.769 487.207 510.769 487.891V492H511.707V488.094C511.707 487.32 512.191 486.75 513.035 486.75C513.691 486.75 514.254 487.098 514.254 487.984V492H515.176V487.984C515.176 486.574 514.418 485.922 513.348 485.922C512.488 485.922 511.859 486.316 511.551 486.937H511.488C511.191 486.297 510.668 485.922 509.879 485.922C509.098 485.922 508.519 486.297 508.269 486.937H508.191V486H507.301V492ZM518.737 492.141C519.784 492.141 520.331 491.578 520.518 491.187H520.565V492H521.487V488.047C521.487 486.141 520.034 485.922 519.268 485.922C518.362 485.922 517.331 486.234 516.862 487.328L517.737 487.641C517.94 487.203 518.42 486.734 519.299 486.734C520.147 486.734 520.565 487.184 520.565 487.953V487.984C520.565 488.43 520.112 488.391 519.018 488.531C517.905 488.676 516.69 488.922 516.69 490.297C516.69 491.469 517.596 492.141 518.737 492.141ZM518.877 491.312C518.143 491.312 517.612 490.984 517.612 490.344C517.612 489.641 518.252 489.422 518.971 489.328C519.362 489.281 520.409 489.172 520.565 488.984V489.828C520.565 490.578 519.971 491.312 518.877 491.312ZM524.201 488.391C524.201 487.344 524.85 486.75 525.733 486.75C526.588 486.75 527.108 487.309 527.108 488.25V492H528.029V488.188C528.029 486.656 527.213 485.922 525.998 485.922C525.092 485.922 524.529 486.328 524.248 486.937H524.17V486H523.279V492H524.201V488.391ZM532.09 492.125C533.246 492.125 533.637 491.406 533.84 491.078H533.949V492H534.84V484H533.918V486.953H533.84C533.637 486.641 533.277 485.922 532.105 485.922C530.59 485.922 529.543 487.125 529.543 489.016C529.543 490.922 530.59 492.125 532.09 492.125ZM532.215 491.297C531.058 491.297 530.465 490.281 530.465 489C530.465 487.734 531.043 486.75 532.215 486.75C533.34 486.75 533.933 487.656 533.933 489C533.933 490.359 533.324 491.297 532.215 491.297ZM541.016 487.344C540.727 486.492 540.079 485.922 538.891 485.922C537.625 485.922 536.688 486.641 536.688 487.656C536.688 488.484 537.18 489.039 538.282 489.297L539.282 489.531C539.887 489.672 540.172 489.961 540.172 490.375C540.172 490.891 539.625 491.312 538.766 491.312C538.012 491.312 537.54 490.988 537.375 490.344L536.5 490.562C536.715 491.582 537.555 492.125 538.782 492.125C540.176 492.125 541.125 491.363 541.125 490.328C541.125 489.492 540.602 488.965 539.532 488.703L538.641 488.484C537.93 488.309 537.61 488.07 537.61 487.609C537.61 487.094 538.157 486.719 538.891 486.719C539.696 486.719 540.028 487.164 540.188 487.578L541.016 487.344Z" fill="#808080"/>
</g>
</g>
</g>
</g>
</g>
<defs>
<filter id="filter0_dd_0_198" x="447" y="218" width="546" height="384" filterUnits="userSpaceOnUse" color-interpolation-filters="sRGB">
<feFlood flood-opacity="0" result="BackgroundImageFix"/>
<feColorMatrix in="SourceAlpha" type="matrix" values="0 0 0 0 0 0 0 0 0 0 0 0 0 0 0 0 0 0 127 0" result="hardAlpha"/>
<feOffset dy="5"/>
<feGaussianBlur stdDeviation="8.5"/>
<feColorMatrix type="matrix" values="0 0 0 0 0 0 0 0 0 0 0 0 0 0 0 0 0 0 0.2 0"/>
<feBlend mode="normal" in2="BackgroundImageFix" result="effect1_dropShadow_0_198"/>
<feColorMatrix in="SourceAlpha" type="matrix" values="0 0 0 0 0 0 0 0 0 0 0 0 0 0 0 0 0 0 127 0" result="hardAlpha"/>
<feOffset dy="2"/>
<feGaussianBlur stdDeviation="3.5"/>
<feColorMatrix type="matrix" values="0 0 0 0 0 0 0 0 0 0 0 0 0 0 0 0 0 0 0.15 0"/>
<feBlend mode="normal" in2="effect1_dropShadow_0_198" result="effect2_dropShadow_0_198"/>
<feBlend mode="normal" in="SourceGraphic" in2="effect2_dropShadow_0_198" result="shape"/>
</filter>
<clipPath id="clip0_0_198">
<path d="M464 234C464 231.791 465.791 230 468 230H972C974.209 230 976 231.791 976 234V576C976 578.209 974.209 580 972 580H468C465.791 580 464 578.209 464 576V234Z" fill="white"/>
</clipPath>
</defs>
</svg>
