<svg width="1440" height="810" viewBox="0 0 1440 810" fill="none" xmlns="http://www.w3.org/2000/svg">
<g id="PRODUCT">
<g id="Devtools">
<g id="Frame 688">
<g id="Frame 688_2" filter="url(#filter0_dd_0_198)">
<rect width="190" height="162" transform="translate(1012 47)" fill="#373737"/>
<g id="Header">
<path id="DevTools" opacity="0.8" d="M1031.15 69C1033.37 69 1034.65 67.6257 1034.65 65.353C1034.65 63.0909 1033.37 61.7273 1031.23 61.7273H1028.8V69H1031.15ZM1029.9 68.0412V62.6861H1031.16C1032.75 62.6861 1033.57 63.6378 1033.57 65.353C1033.57 67.0753 1032.75 68.0412 1031.09 68.0412H1029.9ZM1038.38 69.1101C1039.57 69.1101 1040.41 68.5241 1040.65 67.6364L1039.65 67.4553C1039.46 67.9702 1039 68.233 1038.39 68.233C1037.48 68.233 1036.87 67.6435 1036.84 66.5923H1040.72V66.2159C1040.72 64.245 1039.54 63.4744 1038.31 63.4744C1036.79 63.4744 1035.79 64.6321 1035.79 66.3082C1035.79 68.0021 1036.77 69.1101 1038.38 69.1101ZM1036.85 65.7969C1036.89 65.0227 1037.45 64.3516 1038.31 64.3516C1039.14 64.3516 1039.68 64.9624 1039.68 65.7969H1036.85ZM1046.5 63.5455H1045.36L1043.98 67.7429H1043.93L1042.54 63.5455H1041.4L1043.39 69H1044.52L1046.5 63.5455ZM1046.98 62.6719H1049.25V69H1050.34V62.6719H1052.61V61.7273H1046.98V62.6719ZM1055.38 69.1101C1056.91 69.1101 1057.92 67.9844 1057.92 66.2976C1057.92 64.6001 1056.91 63.4744 1055.38 63.4744C1053.84 63.4744 1052.83 64.6001 1052.83 66.2976C1052.83 67.9844 1053.84 69.1101 1055.38 69.1101ZM1055.38 68.2188C1054.37 68.2188 1053.91 67.3416 1053.91 66.294C1053.91 65.25 1054.37 64.3622 1055.38 64.3622C1056.38 64.3622 1056.85 65.25 1056.85 66.294C1056.85 67.3416 1056.38 68.2188 1055.38 68.2188ZM1061.5 69.1101C1063.04 69.1101 1064.04 67.9844 1064.04 66.2976C1064.04 64.6001 1063.04 63.4744 1061.5 63.4744C1059.96 63.4744 1058.96 64.6001 1058.96 66.2976C1058.96 67.9844 1059.96 69.1101 1061.5 69.1101ZM1061.51 68.2188C1060.5 68.2188 1060.03 67.3416 1060.03 66.294C1060.03 65.25 1060.5 64.3622 1061.51 64.3622C1062.5 64.3622 1062.97 65.25 1062.97 66.294C1062.97 67.3416 1062.5 68.2188 1061.51 68.2188ZM1066.39 61.7273H1065.33V69H1066.39V61.7273ZM1072.01 64.8771C1071.79 64.0284 1071.12 63.4744 1069.94 63.4744C1068.71 63.4744 1067.84 64.1243 1067.84 65.0902C1067.84 65.8643 1068.31 66.3793 1069.33 66.6065L1070.25 66.8089C1070.78 66.9261 1071.02 67.1605 1071.02 67.5014C1071.02 67.924 1070.57 68.2543 1069.88 68.2543C1069.24 68.2543 1068.83 67.9808 1068.7 67.4446L1067.68 67.6009C1067.86 68.5668 1068.66 69.1101 1069.88 69.1101C1071.2 69.1101 1072.11 68.4105 1072.11 67.4233C1072.11 66.6527 1071.62 66.1768 1070.62 65.946L1069.76 65.7472C1069.16 65.6051 1068.9 65.4027 1068.9 65.0334C1068.9 64.6143 1069.35 64.3161 1069.95 64.3161C1070.61 64.3161 1070.92 64.6818 1071.04 65.0476L1072.01 64.8771Z" fill="#999999"/>
</g>
<g id="Frame 688_3">
<g id="List">
<g id="Preview">
<rect id="Rectangle 2426" x="1028" y="89" width="24" height="24" rx="4" fill="white"/>
<path id="Shape" d="M1034 99H1046M1035 106H1045C1045.55 106 1046 105.552 1046 105V97C1046 96.4477 1045.55 96 1045 96H1035C1034.45 96 1034 96.4477 1034 97V105C1034 105.552 1034.45 106 1035 106Z" stroke="#151515"/>
</g>
<g id="Content">
<g id="Title">
<path id="Preview_2" d="M1061.53 106L1062.48 103.322H1066.31L1067.26 106H1068.46L1064.99 96.5455H1063.8L1060.33 106H1061.53ZM1062.84 102.307L1064.36 98.0412H1064.43L1065.95 102.307H1062.84ZM1069.59 108.659H1070.68V104.911H1070.77C1071.01 105.298 1071.47 106.148 1072.84 106.148C1074.61 106.148 1075.85 104.726 1075.85 102.473C1075.85 100.239 1074.61 98.8168 1072.82 98.8168C1071.43 98.8168 1071.01 99.6662 1070.77 100.036H1070.64V98.9091H1069.59V108.659ZM1070.66 102.455C1070.66 100.866 1071.36 99.7955 1072.69 99.7955C1074.07 99.7955 1074.76 100.959 1074.76 102.455C1074.76 103.969 1074.06 105.169 1072.69 105.169C1071.38 105.169 1070.66 104.061 1070.66 102.455ZM1077.31 108.659H1078.4V104.911H1078.5C1078.74 105.298 1079.2 106.148 1080.56 106.148C1082.34 106.148 1083.57 104.726 1083.57 102.473C1083.57 100.239 1082.34 98.8168 1080.55 98.8168C1079.16 98.8168 1078.74 99.6662 1078.5 100.036H1078.37V98.9091H1077.31V108.659ZM1078.39 102.455C1078.39 100.866 1079.09 99.7955 1080.42 99.7955C1081.8 99.7955 1082.48 100.959 1082.48 102.455C1082.48 103.969 1081.78 105.169 1080.42 105.169C1079.11 105.169 1078.39 104.061 1078.39 102.455ZM1086.13 96.5455H1085.04V106H1086.13V96.5455ZM1087.93 106H1089.02V98.9091H1087.93V106ZM1088.49 97.7273C1088.91 97.7273 1089.26 97.3949 1089.26 96.9886C1089.26 96.5824 1088.91 96.25 1088.49 96.25C1088.06 96.25 1087.71 96.5824 1087.71 96.9886C1087.71 97.3949 1088.06 97.7273 1088.49 97.7273ZM1093.7 106.148C1095.27 106.148 1096.31 105.188 1096.49 103.932H1095.4C1095.2 104.707 1094.55 105.169 1093.7 105.169C1092.41 105.169 1091.58 104.098 1091.58 102.455C1091.58 100.848 1092.43 99.7955 1093.7 99.7955C1094.66 99.7955 1095.23 100.386 1095.4 101.033H1096.49C1096.31 99.7031 1095.18 98.8168 1093.68 98.8168C1091.76 98.8168 1090.49 100.331 1090.49 102.491C1090.49 104.615 1091.71 106.148 1093.7 106.148ZM1099.97 106.166C1101.21 106.166 1101.86 105.501 1102.08 105.04H1102.13V106H1103.22V101.328C1103.22 99.0753 1101.51 98.8168 1100.6 98.8168C1099.53 98.8168 1098.31 99.1861 1097.76 100.479L1098.79 100.848C1099.03 100.331 1099.6 99.777 1100.64 99.777C1101.64 99.777 1102.13 100.308 1102.13 101.217V101.254C1102.13 101.781 1101.6 101.734 1100.31 101.901C1098.99 102.071 1097.56 102.362 1097.56 103.987C1097.56 105.372 1098.63 106.166 1099.97 106.166ZM1100.14 105.188C1099.27 105.188 1098.64 104.8 1098.64 104.043C1098.64 103.212 1099.4 102.953 1100.25 102.842C1100.71 102.787 1101.95 102.658 1102.13 102.436V103.433C1102.13 104.32 1101.43 105.188 1100.14 105.188ZM1108.1 98.9091H1106.59V97.2102H1105.5V98.9091H1104.43V99.8324H1105.5V104.264C1105.5 105.501 1106.5 106.092 1107.42 106.092C1107.82 106.092 1108.08 106.018 1108.23 105.963L1108.01 104.984C1107.92 105.003 1107.77 105.04 1107.53 105.04C1107.05 105.04 1106.59 104.892 1106.59 103.969V99.8324H1108.1V98.9091ZM1109.55 106H1110.64V98.9091H1109.55V106ZM1110.1 97.7273C1110.52 97.7273 1110.88 97.3949 1110.88 96.9886C1110.88 96.5824 1110.52 96.25 1110.1 96.25C1109.67 96.25 1109.32 96.5824 1109.32 96.9886C1109.32 97.3949 1109.67 97.7273 1110.1 97.7273ZM1115.32 106.148C1117.24 106.148 1118.53 104.689 1118.53 102.491C1118.53 100.276 1117.24 98.8168 1115.32 98.8168C1113.4 98.8168 1112.1 100.276 1112.1 102.491C1112.1 104.689 1113.4 106.148 1115.32 106.148ZM1115.32 105.169C1113.86 105.169 1113.19 103.913 1113.19 102.491C1113.19 101.07 1113.86 99.7955 1115.32 99.7955C1116.78 99.7955 1117.44 101.07 1117.44 102.491C1117.44 103.913 1116.78 105.169 1115.32 105.169ZM1121.09 101.734C1121.09 100.497 1121.85 99.7955 1122.9 99.7955C1123.91 99.7955 1124.52 100.456 1124.52 101.568V106H1125.61V101.494C1125.61 99.6847 1124.65 98.8168 1123.21 98.8168C1122.14 98.8168 1121.47 99.2969 1121.14 100.017H1121.05V98.9091H1120V106H1121.09V101.734Z" fill="#E5E5E5"/>
</g>
<g id="Carrot">
<path id="Shape_2" d="M1183.05 100.74C1183.25 100.856 1183.25 101.144 1183.05 101.26L1179.45 103.338C1179.25 103.454 1179 103.309 1179 103.078L1179 98.9215C1179 98.6906 1179.25 98.5463 1179.45 98.6617L1183.05 100.74Z" fill="#808080"/>
</g>
</g>
</g>
<g id="List_2">
<rect width="190" height="40" transform="translate(1012 121)" fill="#E5E5E5" fill-opacity="0.1"/>
<g id="Task">
<rect id="Rectangle 2419" x="1028" y="129" width="24" height="24" rx="4" fill="#5C5C5C"/>
<path id="Shape_3" d="M1041.15 140.35H1044.5C1045.05 140.35 1045.5 139.902 1045.5 139.35V136M1045.2 139.5C1044.48 137.461 1042.53 136 1040.25 136C1037.35 136 1035 138.351 1035 141.25C1035 144.149 1037.35 146.5 1040.25 146.5C1042.19 146.5 1043.89 145.444 1044.8 143.875" stroke="white" stroke-linecap="round"/>
</g>
<g id="Content_2">
<g id="Title_2">
<path id="Preview_3" d="M1060.63 137.561H1063.6V146H1064.75V137.561H1067.72V136.545H1060.63V137.561ZM1070.26 146.166C1071.5 146.166 1072.15 145.501 1072.37 145.04H1072.43V146H1073.51V141.328C1073.51 139.075 1071.8 138.817 1070.89 138.817C1069.82 138.817 1068.6 139.186 1068.05 140.479L1069.08 140.848C1069.32 140.331 1069.89 139.777 1070.93 139.777C1071.93 139.777 1072.43 140.308 1072.43 141.217V141.254C1072.43 141.781 1071.89 141.734 1070.6 141.901C1069.28 142.071 1067.85 142.362 1067.85 143.987C1067.85 145.372 1068.92 146.166 1070.26 146.166ZM1070.43 145.188C1069.56 145.188 1068.94 144.8 1068.94 144.043C1068.94 143.212 1069.69 142.953 1070.54 142.842C1071 142.787 1072.24 142.658 1072.43 142.436V143.433C1072.43 144.32 1071.72 145.188 1070.43 145.188ZM1080.33 140.497C1079.99 139.491 1079.22 138.817 1077.82 138.817C1076.32 138.817 1075.22 139.666 1075.22 140.866C1075.22 141.845 1075.8 142.501 1077.1 142.805L1078.28 143.082C1079 143.249 1079.33 143.59 1079.33 144.08C1079.33 144.689 1078.69 145.188 1077.67 145.188C1076.78 145.188 1076.22 144.804 1076.03 144.043L1074.99 144.301C1075.25 145.506 1076.24 146.148 1077.69 146.148C1079.34 146.148 1080.46 145.248 1080.46 144.024C1080.46 143.036 1079.84 142.413 1078.58 142.104L1077.52 141.845C1076.68 141.637 1076.31 141.356 1076.31 140.811C1076.31 140.202 1076.95 139.759 1077.82 139.759C1078.77 139.759 1079.16 140.285 1079.35 140.774L1080.33 140.497ZM1081.91 146H1082.99V143.346L1083.76 142.639L1086.41 146H1087.8L1084.58 141.938L1087.57 138.909H1086.23L1083.12 142.067H1082.99V136.545H1081.91V146ZM1093.8 140.497C1093.46 139.491 1092.7 138.817 1091.29 138.817C1089.8 138.817 1088.69 139.666 1088.69 140.866C1088.69 141.845 1089.27 142.501 1090.57 142.805L1091.75 143.082C1092.47 143.249 1092.81 143.59 1092.81 144.08C1092.81 144.689 1092.16 145.188 1091.15 145.188C1090.25 145.188 1089.7 144.804 1089.5 144.043L1088.47 144.301C1088.72 145.506 1089.71 146.148 1091.16 146.148C1092.81 146.148 1093.93 145.248 1093.93 144.024C1093.93 143.036 1093.31 142.413 1092.05 142.104L1091 141.845C1090.16 141.637 1089.78 141.356 1089.78 140.811C1089.78 140.202 1090.43 139.759 1091.29 139.759C1092.24 139.759 1092.64 140.285 1092.83 140.774L1093.8 140.497Z" fill="#E5E5E5"/>
</g>
<g id="Carrot_2">
<path id="Shape_4" d="M1183.05 140.74C1183.25 140.856 1183.25 141.144 1183.05 141.26L1179.45 143.338C1179.25 143.454 1179 143.309 1179 143.078L1179 138.922C1179 138.691 1179.25 138.546 1179.45 138.662L1183.05 140.74Z" fill="#808080"/>
</g>
</g>
</g>
<g id="List_3">
<g id="Terminal">
<rect id="Rectangle 2419_2" x="1028" y="169" width="24" height="24" rx="4" fill="#131313"/>
<path id="Shape_5" d="M1035 177L1039.08 180.398C1039.56 180.798 1039.56 181.535 1039.08 181.935L1035 185.333M1040 185.333H1045.83" stroke="white" stroke-linecap="round"/>
</g>
<g id="Content_3">
<g id="Title_3">
<path id="Preview_4" d="M1060.63 177.561H1063.6V186H1064.75V177.561H1067.72V176.545H1060.63V177.561ZM1071.09 186.148C1072.53 186.148 1073.58 185.428 1073.91 184.357L1072.86 184.061C1072.58 184.8 1071.94 185.169 1071.09 185.169C1069.81 185.169 1068.93 184.343 1068.88 182.824H1074.02V182.362C1074.02 179.722 1072.45 178.817 1070.98 178.817C1069.06 178.817 1067.78 180.331 1067.78 182.51C1067.78 184.689 1069.04 186.148 1071.09 186.148ZM1068.88 181.882C1068.95 180.779 1069.73 179.795 1070.98 179.795C1072.16 179.795 1072.92 180.682 1072.92 181.882H1068.88ZM1075.49 186H1076.58V181.513C1076.58 180.553 1077.33 179.851 1078.37 179.851C1078.66 179.851 1078.96 179.906 1079.03 179.925V178.817C1078.91 178.808 1078.62 178.798 1078.46 178.798C1077.61 178.798 1076.87 179.278 1076.61 179.98H1076.54V178.909H1075.49V186ZM1080.13 186H1081.22V181.568C1081.22 180.529 1081.97 179.795 1082.82 179.795C1083.65 179.795 1084.23 180.336 1084.23 181.143V186H1085.34V181.384C1085.34 180.469 1085.91 179.795 1086.9 179.795C1087.68 179.795 1088.35 180.206 1088.35 181.254V186H1089.43V181.254C1089.43 179.588 1088.54 178.817 1087.27 178.817C1086.26 178.817 1085.52 179.283 1085.15 180.017H1085.08C1084.73 179.26 1084.11 178.817 1083.17 178.817C1082.25 178.817 1081.57 179.26 1081.27 180.017H1081.18V178.909H1080.13V186ZM1091.23 186H1092.32V178.909H1091.23V186ZM1091.79 177.727C1092.21 177.727 1092.56 177.395 1092.56 176.989C1092.56 176.582 1092.21 176.25 1091.79 176.25C1091.36 176.25 1091.01 176.582 1091.01 176.989C1091.01 177.395 1091.36 177.727 1091.79 177.727ZM1095.21 181.734C1095.21 180.497 1095.98 179.795 1097.02 179.795C1098.03 179.795 1098.65 180.456 1098.65 181.568V186H1099.74V181.494C1099.74 179.685 1098.77 178.817 1097.33 178.817C1096.26 178.817 1095.6 179.297 1095.27 180.017H1095.17V178.909H1094.12V186H1095.21V181.734ZM1103.62 186.166C1104.86 186.166 1105.5 185.501 1105.72 185.04H1105.78V186H1106.87V181.328C1106.87 179.075 1105.15 178.817 1104.25 178.817C1103.17 178.817 1101.96 179.186 1101.4 180.479L1102.44 180.848C1102.68 180.331 1103.24 179.777 1104.28 179.777C1105.28 179.777 1105.78 180.308 1105.78 181.217V181.254C1105.78 181.781 1105.24 181.734 1103.95 181.901C1102.63 182.071 1101.2 182.362 1101.2 183.987C1101.2 185.372 1102.27 186.166 1103.62 186.166ZM1103.78 185.188C1102.92 185.188 1102.29 184.8 1102.29 184.043C1102.29 183.212 1103.05 182.953 1103.89 182.842C1104.36 182.787 1105.59 182.658 1105.78 182.436V183.433C1105.78 184.32 1105.08 185.188 1103.78 185.188ZM1109.75 176.545H1108.66V186H1109.75V176.545ZM1116.57 180.497C1116.23 179.491 1115.47 178.817 1114.06 178.817C1112.57 178.817 1111.46 179.666 1111.46 180.866C1111.46 181.845 1112.04 182.501 1113.34 182.805L1114.52 183.082C1115.24 183.249 1115.58 183.59 1115.58 184.08C1115.58 184.689 1114.93 185.188 1113.92 185.188C1113.02 185.188 1112.47 184.804 1112.27 184.043L1111.24 184.301C1111.49 185.506 1112.48 186.148 1113.93 186.148C1115.58 186.148 1116.7 185.248 1116.7 184.024C1116.7 183.036 1116.08 182.413 1114.82 182.104L1113.77 181.845C1112.93 181.637 1112.55 181.356 1112.55 180.811C1112.55 180.202 1113.19 179.759 1114.06 179.759C1115.01 179.759 1115.41 180.285 1115.6 180.774L1116.57 180.497Z" fill="#E5E5E5"/>
</g>
<g id="Carrot_3">
<path id="Shape_6" d="M1183.05 180.74C1183.25 180.856 1183.25 181.144 1183.05 181.26L1179.45 183.338C1179.25 183.454 1179 183.309 1179 183.078L1179 178.922C1179 178.691 1179.25 178.546 1179.45 178.662L1183.05 180.74Z" fill="#808080"/>
</g>
</g>
</g>
</g>
</g>
<g id="Frame 688_4">
<path id="Top, Right" d="M1182 47L1189.5 40L1197 47H1182Z" fill="#373737"/>
</g>
</g>
<g id="Frame 689" filter="url(#filter1_dd_0_198)">
<rect width="190" height="220" transform="translate(1194 120)" fill="#373737"/>
<g id="List_4">
<g id="Task_2">
<rect id="Rectangle 2419_3" x="1210" y="138" width="24" height="24" rx="4" fill="#5C5C5C"/>
<path id="Shape_7" d="M1223.15 149.35H1226.5C1227.05 149.35 1227.5 148.902 1227.5 148.35V145M1227.2 148.5C1226.48 146.461 1224.53 145 1222.25 145C1219.35 145 1217 147.351 1217 150.25C1217 153.149 1219.35 155.5 1222.25 155.5C1224.19 155.5 1225.89 154.444 1226.8 152.875" stroke="white" stroke-linecap="round"/>
</g>
<g id="Content_4">
<g id="Title_4">
<path id="Preview_5" d="M1243.14 155H1244.29V150.771H1248.39V149.756H1244.29V146.561H1248.81V145.545H1243.14V155ZM1252.79 155.148C1254.71 155.148 1256.01 153.689 1256.01 151.491C1256.01 149.276 1254.71 147.817 1252.79 147.817C1250.87 147.817 1249.58 149.276 1249.58 151.491C1249.58 153.689 1250.87 155.148 1252.79 155.148ZM1252.79 154.169C1251.33 154.169 1250.67 152.913 1250.67 151.491C1250.67 150.07 1251.33 148.795 1252.79 148.795C1254.25 148.795 1254.92 150.07 1254.92 151.491C1254.92 152.913 1254.25 154.169 1252.79 154.169ZM1257.47 155H1258.56V150.513C1258.56 149.553 1259.32 148.851 1260.35 148.851C1260.64 148.851 1260.94 148.906 1261.02 148.925V147.817C1260.89 147.808 1260.61 147.798 1260.45 147.798C1259.6 147.798 1258.86 148.278 1258.6 148.98H1258.53V147.909H1257.47V155ZM1262.12 155H1263.2V150.568C1263.2 149.529 1263.96 148.795 1264.81 148.795C1265.64 148.795 1266.21 149.336 1266.21 150.143V155H1267.32V150.384C1267.32 149.469 1267.9 148.795 1268.89 148.795C1269.67 148.795 1270.33 149.206 1270.33 150.254V155H1271.42V150.254C1271.42 148.588 1270.53 147.817 1269.26 147.817C1268.25 147.817 1267.5 148.283 1267.14 149.017H1267.06C1266.71 148.26 1266.09 147.817 1265.16 147.817C1264.24 147.817 1263.56 148.26 1263.26 149.017H1263.17V147.909H1262.12V155ZM1275.31 155.166C1276.54 155.166 1277.19 154.501 1277.41 154.04H1277.47V155H1278.56V150.328C1278.56 148.075 1276.84 147.817 1275.93 147.817C1274.86 147.817 1273.64 148.186 1273.09 149.479L1274.12 149.848C1274.36 149.331 1274.93 148.777 1275.97 148.777C1276.97 148.777 1277.47 149.308 1277.47 150.217V150.254C1277.47 150.781 1276.93 150.734 1275.64 150.901C1274.32 151.071 1272.89 151.362 1272.89 152.987C1272.89 154.372 1273.96 155.166 1275.31 155.166ZM1275.47 154.188C1274.6 154.188 1273.98 153.8 1273.98 153.043C1273.98 152.212 1274.73 151.953 1275.58 151.842C1276.04 151.787 1277.28 151.658 1277.47 151.436V152.433C1277.47 153.32 1276.76 154.188 1275.47 154.188ZM1283.43 147.909H1281.92V146.21H1280.83V147.909H1279.76V148.832H1280.83V153.264C1280.83 154.501 1281.83 155.092 1282.75 155.092C1283.16 155.092 1283.41 155.018 1283.56 154.963L1283.34 153.984C1283.25 154.003 1283.1 154.04 1282.86 154.04C1282.38 154.04 1281.92 153.892 1281.92 152.969V148.832H1283.43V147.909ZM1289.94 155H1291.02L1292.57 149.553H1292.68L1294.23 155H1295.3L1297.46 147.909H1296.32L1294.78 153.32H1294.71L1293.21 147.909H1292.05L1290.54 153.338H1290.46L1288.93 147.909H1287.78L1289.94 155ZM1301.35 155.148C1303.27 155.148 1304.56 153.689 1304.56 151.491C1304.56 149.276 1303.27 147.817 1301.35 147.817C1299.42 147.817 1298.13 149.276 1298.13 151.491C1298.13 153.689 1299.42 155.148 1301.35 155.148ZM1301.35 154.169C1299.89 154.169 1299.22 152.913 1299.22 151.491C1299.22 150.07 1299.89 148.795 1301.35 148.795C1302.8 148.795 1303.47 150.07 1303.47 151.491C1303.47 152.913 1302.8 154.169 1301.35 154.169ZM1306.03 155H1307.12V150.513C1307.12 149.553 1307.87 148.851 1308.91 148.851C1309.2 148.851 1309.5 148.906 1309.57 148.925V147.817C1309.45 147.808 1309.16 147.798 1309 147.798C1308.15 147.798 1307.41 148.278 1307.15 148.98H1307.08V147.909H1306.03V155ZM1310.67 155H1311.76V152.346L1312.52 151.639L1315.17 155H1316.56L1313.34 150.938L1316.34 147.909H1314.99L1311.89 151.067H1311.76V145.545H1310.67V155ZM1322.57 149.497C1322.23 148.491 1321.46 147.817 1320.06 147.817C1318.56 147.817 1317.45 148.666 1317.45 149.866C1317.45 150.845 1318.03 151.501 1319.34 151.805L1320.52 152.082C1321.23 152.249 1321.57 152.59 1321.57 153.08C1321.57 153.689 1320.92 154.188 1319.91 154.188C1319.02 154.188 1318.46 153.804 1318.26 153.043L1317.23 153.301C1317.48 154.506 1318.48 155.148 1319.93 155.148C1321.57 155.148 1322.7 154.248 1322.7 153.024C1322.7 152.036 1322.08 151.413 1320.81 151.104L1319.76 150.845C1318.92 150.637 1318.54 150.356 1318.54 149.811C1318.54 149.202 1319.19 148.759 1320.06 148.759C1321.01 148.759 1321.4 149.285 1321.59 149.774L1322.57 149.497ZM1324.14 157.659H1325.23V153.911H1325.32C1325.56 154.298 1326.03 155.148 1327.39 155.148C1329.16 155.148 1330.4 153.726 1330.4 151.473C1330.4 149.239 1329.16 147.817 1327.37 147.817C1325.99 147.817 1325.56 148.666 1325.32 149.036H1325.19V147.909H1324.14V157.659ZM1325.21 151.455C1325.21 149.866 1325.91 148.795 1327.24 148.795C1328.63 148.795 1329.31 149.959 1329.31 151.455C1329.31 152.969 1328.61 154.169 1327.24 154.169C1325.93 154.169 1325.21 153.061 1325.21 151.455ZM1333.96 155.166C1335.19 155.166 1335.84 154.501 1336.06 154.04H1336.12V155H1337.21V150.328C1337.21 148.075 1335.49 147.817 1334.58 147.817C1333.51 147.817 1332.29 148.186 1331.74 149.479L1332.77 149.848C1333.01 149.331 1333.58 148.777 1334.62 148.777C1335.62 148.777 1336.12 149.308 1336.12 150.217V150.254C1336.12 150.781 1335.58 150.734 1334.29 150.901C1332.97 151.071 1331.54 151.362 1331.54 152.987C1331.54 154.372 1332.61 155.166 1333.96 155.166ZM1334.12 154.188C1333.25 154.188 1332.63 153.8 1332.63 153.043C1332.63 152.212 1333.38 151.953 1334.23 151.842C1334.69 151.787 1335.93 151.658 1336.12 151.436V152.433C1336.12 153.32 1335.41 154.188 1334.12 154.188ZM1341.88 155.148C1343.45 155.148 1344.48 154.188 1344.67 152.932H1343.58C1343.38 153.707 1342.73 154.169 1341.88 154.169C1340.59 154.169 1339.76 153.098 1339.76 151.455C1339.76 149.848 1340.61 148.795 1341.88 148.795C1342.84 148.795 1343.41 149.386 1343.58 150.033H1344.67C1344.48 148.703 1343.36 147.817 1341.86 147.817C1339.94 147.817 1338.67 149.331 1338.67 151.491C1338.67 153.615 1339.88 155.148 1341.88 155.148ZM1349.04 155.148C1350.48 155.148 1351.53 154.428 1351.86 153.357L1350.81 153.061C1350.53 153.8 1349.89 154.169 1349.04 154.169C1347.76 154.169 1346.88 153.343 1346.83 151.824H1351.97V151.362C1351.97 148.722 1350.4 147.817 1348.93 147.817C1347.01 147.817 1345.73 149.331 1345.73 151.51C1345.73 153.689 1346.99 155.148 1349.04 155.148ZM1346.83 150.882C1346.9 149.779 1347.68 148.795 1348.93 148.795C1350.11 148.795 1350.87 149.682 1350.87 150.882H1346.83Z" fill="#E5E5E5"/>
</g>
</g>
</g>
<g id="List_5">
<g id="Task_3">
<rect id="Rectangle 2419_4" x="1210" y="178" width="24" height="24" rx="4" fill="#5C5C5C"/>
<path id="Shape_8" d="M1223.15 189.35H1226.5C1227.05 189.35 1227.5 188.902 1227.5 188.35V185M1227.2 188.5C1226.48 186.461 1224.53 185 1222.25 185C1219.35 185 1217 187.351 1217 190.25C1217 193.149 1219.35 195.5 1222.25 195.5C1224.19 195.5 1225.89 194.444 1226.8 192.875" stroke="white" stroke-linecap="round"/>
</g>
<g id="Content_5">
<g id="Title_5">
<path id="Preview_6" d="M1243.14 195H1244.29V190.771H1248.39V189.756H1244.29V186.561H1248.81V185.545H1243.14V195ZM1250.43 195H1251.52V187.909H1250.43V195ZM1250.99 186.727C1251.41 186.727 1251.76 186.395 1251.76 185.989C1251.76 185.582 1251.41 185.25 1250.99 185.25C1250.56 185.25 1250.21 185.582 1250.21 185.989C1250.21 186.395 1250.56 186.727 1250.99 186.727ZM1254.13 187.909H1252.88L1255.13 191.455L1252.88 195H1254.13L1255.83 192.249L1257.53 195H1258.79L1256.5 191.455L1258.79 187.909H1257.53L1255.83 190.808L1254.13 187.909ZM1264.7 185.545H1263.61V195H1264.7V185.545ZM1266.5 195H1267.59V187.909H1266.5V195ZM1267.05 186.727C1267.48 186.727 1267.83 186.395 1267.83 185.989C1267.83 185.582 1267.48 185.25 1267.05 185.25C1266.63 185.25 1266.28 185.582 1266.28 185.989C1266.28 186.395 1266.63 186.727 1267.05 186.727ZM1270.48 190.734C1270.48 189.497 1271.24 188.795 1272.29 188.795C1273.3 188.795 1273.91 189.456 1273.91 190.568V195H1275V190.494C1275 188.685 1274.04 187.817 1272.6 187.817C1271.53 187.817 1270.87 188.297 1270.53 189.017H1270.44V187.909H1269.39V195H1270.48V190.734ZM1279.88 187.909H1278.37V186.21H1277.28V187.909H1276.21V188.832H1277.28V193.264C1277.28 194.501 1278.28 195.092 1279.2 195.092C1279.6 195.092 1279.86 195.018 1280.01 194.963L1279.79 193.984C1279.7 194.003 1279.55 194.04 1279.31 194.04C1278.83 194.04 1278.37 193.892 1278.37 192.969V188.832H1279.88V187.909Z" fill="#E5E5E5"/>
</g>
</g>
</g>
<g id="List_6">
<g id="Task_4">
<rect id="Rectangle 2419_5" x="1210" y="218" width="24" height="24" rx="4" fill="#5C5C5C"/>
<path id="Shape_9" d="M1223.15 229.35H1226.5C1227.05 229.35 1227.5 228.902 1227.5 228.35V225M1227.2 228.5C1226.48 226.461 1224.53 225 1222.25 225C1219.35 225 1217 227.351 1217 230.25C1217 233.149 1219.35 235.5 1222.25 235.5C1224.19 235.5 1225.89 234.444 1226.8 232.875" stroke="white" stroke-linecap="round"/>
</g>
<g id="Content_6">
<g id="Title_6">
<path id="Preview_7" d="M1242.63 226.561H1245.6V235H1246.75V226.561H1249.72V225.545H1242.63V226.561ZM1253.09 235.148C1254.53 235.148 1255.58 234.428 1255.91 233.357L1254.86 233.061C1254.58 233.8 1253.94 234.169 1253.09 234.169C1251.81 234.169 1250.93 233.343 1250.88 231.824H1256.02V231.362C1256.02 228.722 1254.45 227.817 1252.98 227.817C1251.06 227.817 1249.78 229.331 1249.78 231.51C1249.78 233.689 1251.04 235.148 1253.09 235.148ZM1250.88 230.882C1250.95 229.779 1251.73 228.795 1252.98 228.795C1254.16 228.795 1254.92 229.682 1254.92 230.882H1250.88ZM1262.51 229.497C1262.17 228.491 1261.4 227.817 1260 227.817C1258.5 227.817 1257.39 228.666 1257.39 229.866C1257.39 230.845 1257.98 231.501 1259.28 231.805L1260.46 232.082C1261.17 232.249 1261.51 232.59 1261.51 233.08C1261.51 233.689 1260.87 234.188 1259.85 234.188C1258.96 234.188 1258.4 233.804 1258.21 233.043L1257.17 233.301C1257.43 234.506 1258.42 235.148 1259.87 235.148C1261.52 235.148 1262.64 234.248 1262.64 233.024C1262.64 232.036 1262.02 231.413 1260.75 231.104L1259.7 230.845C1258.86 230.637 1258.48 230.356 1258.48 229.811C1258.48 229.202 1259.13 228.759 1260 228.759C1260.95 228.759 1261.34 229.285 1261.53 229.774L1262.51 229.497ZM1267.17 227.909H1265.65V226.21H1264.56V227.909H1263.49V228.832H1264.56V233.264C1264.56 234.501 1265.56 235.092 1266.48 235.092C1266.89 235.092 1267.15 235.018 1267.3 234.963L1267.07 233.984C1266.98 234.003 1266.83 234.04 1266.59 234.04C1266.11 234.04 1265.65 233.892 1265.65 232.969V228.832H1267.17V227.909ZM1274.16 235.166C1275.4 235.166 1276.04 234.501 1276.26 234.04H1276.32V235H1277.41V230.328C1277.41 228.075 1275.69 227.817 1274.79 227.817C1273.72 227.817 1272.5 228.186 1271.94 229.479L1272.98 229.848C1273.22 229.331 1273.78 228.777 1274.82 228.777C1275.83 228.777 1276.32 229.308 1276.32 230.217V230.254C1276.32 230.781 1275.78 230.734 1274.49 230.901C1273.18 231.071 1271.74 231.362 1271.74 232.987C1271.74 234.372 1272.81 235.166 1274.16 235.166ZM1274.32 234.188C1273.46 234.188 1272.83 233.8 1272.83 233.043C1272.83 232.212 1273.59 231.953 1274.44 231.842C1274.9 231.787 1276.13 231.658 1276.32 231.436V232.433C1276.32 233.32 1275.62 234.188 1274.32 234.188ZM1280.29 225.545H1279.2V235H1280.29V225.545ZM1283.18 225.545H1282.09V235H1283.18V225.545Z" fill="#E5E5E5"/>
</g>
</g>
</g>
<g id="List_7">
<g id="Task_5">
<rect id="Rectangle 2419_6" x="1210" y="258" width="24" height="24" rx="4" fill="#5C5C5C"/>
<path id="Shape_10" d="M1223.15 269.35H1226.5C1227.05 269.35 1227.5 268.902 1227.5 268.35V265M1227.2 268.5C1226.48 266.461 1224.53 265 1222.25 265C1219.35 265 1217 267.351 1217 270.25C1217 273.149 1219.35 275.5 1222.25 275.5C1224.19 275.5 1225.89 274.444 1226.8 272.875" stroke="white" stroke-linecap="round"/>
</g>
<g id="Content_7">
<g id="Title_7">
<path id="Preview_8" d="M1242.63 266.561H1245.6V275H1246.75V266.561H1249.72V265.545H1242.63V266.561ZM1253.09 275.148C1254.53 275.148 1255.58 274.428 1255.91 273.357L1254.86 273.061C1254.58 273.8 1253.94 274.169 1253.09 274.169C1251.81 274.169 1250.93 273.343 1250.88 271.824H1256.02V271.362C1256.02 268.722 1254.45 267.817 1252.98 267.817C1251.06 267.817 1249.78 269.331 1249.78 271.51C1249.78 273.689 1251.04 275.148 1253.09 275.148ZM1250.88 270.882C1250.95 269.779 1251.73 268.795 1252.98 268.795C1254.16 268.795 1254.92 269.682 1254.92 270.882H1250.88ZM1262.51 269.497C1262.17 268.491 1261.4 267.817 1260 267.817C1258.5 267.817 1257.39 268.666 1257.39 269.866C1257.39 270.845 1257.98 271.501 1259.28 271.805L1260.46 272.082C1261.17 272.249 1261.51 272.59 1261.51 273.08C1261.51 273.689 1260.87 274.188 1259.85 274.188C1258.96 274.188 1258.4 273.804 1258.21 273.043L1257.17 273.301C1257.43 274.506 1258.42 275.148 1259.87 275.148C1261.52 275.148 1262.64 274.248 1262.64 273.024C1262.64 272.036 1262.02 271.413 1260.75 271.104L1259.7 270.845C1258.86 270.637 1258.48 270.356 1258.48 269.811C1258.48 269.202 1259.13 268.759 1260 268.759C1260.95 268.759 1261.34 269.285 1261.53 269.774L1262.51 269.497ZM1267.17 267.909H1265.65V266.21H1264.56V267.909H1263.49V268.832H1264.56V273.264C1264.56 274.501 1265.56 275.092 1266.48 275.092C1266.89 275.092 1267.15 275.018 1267.3 274.963L1267.07 273.984C1266.98 274.003 1266.83 274.04 1266.59 274.04C1266.11 274.04 1265.65 273.892 1265.65 272.969V268.832H1267.17V267.909ZM1274.16 275.166C1275.4 275.166 1276.04 274.501 1276.26 274.04H1276.32V275H1277.41V270.328C1277.41 268.075 1275.69 267.817 1274.79 267.817C1273.72 267.817 1272.5 268.186 1271.94 269.479L1272.98 269.848C1273.22 269.331 1273.78 268.777 1274.82 268.777C1275.83 268.777 1276.32 269.308 1276.32 270.217V270.254C1276.32 270.781 1275.78 270.734 1274.49 270.901C1273.18 271.071 1271.74 271.362 1271.74 272.987C1271.74 274.372 1272.81 275.166 1274.16 275.166ZM1274.32 274.188C1273.46 274.188 1272.83 273.8 1272.83 273.043C1272.83 272.212 1273.59 271.953 1274.44 271.842C1274.9 271.787 1276.13 271.658 1276.32 271.436V272.433C1276.32 273.32 1275.62 274.188 1274.32 274.188ZM1279.2 277.659H1280.29V273.911H1280.38C1280.62 274.298 1281.09 275.148 1282.45 275.148C1284.22 275.148 1285.46 273.726 1285.46 271.473C1285.46 269.239 1284.22 267.817 1282.43 267.817C1281.05 267.817 1280.62 268.666 1280.38 269.036H1280.25V267.909H1279.2V277.659ZM1280.27 271.455C1280.27 269.866 1280.97 268.795 1282.3 268.795C1283.69 268.795 1284.37 269.959 1284.37 271.455C1284.37 272.969 1283.67 274.169 1282.3 274.169C1280.99 274.169 1280.27 273.061 1280.27 271.455ZM1286.93 277.659H1288.02V273.911H1288.11C1288.35 274.298 1288.81 275.148 1290.18 275.148C1291.95 275.148 1293.19 273.726 1293.19 271.473C1293.19 269.239 1291.95 267.817 1290.16 267.817C1288.78 267.817 1288.35 268.666 1288.11 269.036H1287.98V267.909H1286.93V277.659ZM1288 271.455C1288 269.866 1288.7 268.795 1290.03 268.795C1291.42 268.795 1292.1 269.959 1292.1 271.455C1292.1 272.969 1291.4 274.169 1290.03 274.169C1288.72 274.169 1288 273.061 1288 271.455Z" fill="#E5E5E5"/>
</g>
</g>
</g>
<g id="List_8">
<g id="Task_6">
<rect id="Rectangle 2419_7" x="1210" y="298" width="24" height="24" rx="4" fill="#5C5C5C"/>
<path id="Shape_11" d="M1223.15 309.35H1226.5C1227.05 309.35 1227.5 308.902 1227.5 308.35V305M1227.2 308.5C1226.48 306.461 1224.53 305 1222.25 305C1219.35 305 1217 307.351 1217 310.25C1217 313.149 1219.35 315.5 1222.25 315.5C1224.19 315.5 1225.89 314.444 1226.8 312.875" stroke="white" stroke-linecap="round"/>
</g>
<g id="Content_8">
<g id="Title_8">
<path id="Preview_9" d="M1243.14 315H1244.29V311.307H1246.36C1246.44 311.307 1246.52 311.307 1246.6 311.302L1248.59 315H1249.92L1247.78 311.094C1248.99 310.684 1249.55 309.7 1249.55 308.445C1249.55 306.773 1248.56 305.545 1246.34 305.545H1243.14V315ZM1244.29 310.273V306.561H1246.3C1247.84 306.561 1248.43 307.309 1248.43 308.445C1248.43 309.58 1247.84 310.273 1246.32 310.273H1244.29ZM1254.01 315.148C1255.45 315.148 1256.51 314.428 1256.84 313.357L1255.79 313.061C1255.51 313.8 1254.87 314.169 1254.01 314.169C1252.74 314.169 1251.85 313.343 1251.8 311.824H1256.95V311.362C1256.95 308.722 1255.38 307.817 1253.9 307.817C1251.98 307.817 1250.71 309.331 1250.71 311.51C1250.71 313.689 1251.96 315.148 1254.01 315.148ZM1251.8 310.882C1251.88 309.779 1252.66 308.795 1253.9 308.795C1255.09 308.795 1255.84 309.682 1255.84 310.882H1251.8ZM1259.5 305.545H1258.41V315H1259.5V305.545ZM1264.28 315.148C1265.72 315.148 1266.77 314.428 1267.1 313.357L1266.05 313.061C1265.77 313.8 1265.13 314.169 1264.28 314.169C1263 314.169 1262.12 313.343 1262.06 311.824H1267.21V311.362C1267.21 308.722 1265.64 307.817 1264.17 307.817C1262.24 307.817 1260.97 309.331 1260.97 311.51C1260.97 313.689 1262.23 315.148 1264.28 315.148ZM1262.06 310.882C1262.14 309.779 1262.92 308.795 1264.17 308.795C1265.35 308.795 1266.1 309.682 1266.1 310.882H1262.06ZM1270.76 315.166C1272 315.166 1272.64 314.501 1272.87 314.04H1272.92V315H1274.01V310.328C1274.01 308.075 1272.29 307.817 1271.39 307.817C1270.32 307.817 1269.1 308.186 1268.54 309.479L1269.58 309.848C1269.82 309.331 1270.39 308.777 1271.43 308.777C1272.43 308.777 1272.92 309.308 1272.92 310.217V310.254C1272.92 310.781 1272.39 310.734 1271.09 310.901C1269.78 311.071 1268.34 311.362 1268.34 312.987C1268.34 314.372 1269.41 315.166 1270.76 315.166ZM1270.93 314.188C1270.06 314.188 1269.43 313.8 1269.43 313.043C1269.43 312.212 1270.19 311.953 1271.04 311.842C1271.5 311.787 1272.74 311.658 1272.92 311.436V312.433C1272.92 313.32 1272.22 314.188 1270.93 314.188ZM1280.83 309.497C1280.49 308.491 1279.72 307.817 1278.32 307.817C1276.82 307.817 1275.71 308.666 1275.71 309.866C1275.71 310.845 1276.29 311.501 1277.6 311.805L1278.78 312.082C1279.49 312.249 1279.83 312.59 1279.83 313.08C1279.83 313.689 1279.18 314.188 1278.17 314.188C1277.28 314.188 1276.72 313.804 1276.52 313.043L1275.49 313.301C1275.74 314.506 1276.74 315.148 1278.19 315.148C1279.83 315.148 1280.96 314.248 1280.96 313.024C1280.96 312.036 1280.34 311.413 1279.07 311.104L1278.02 310.845C1277.18 310.637 1276.8 310.356 1276.8 309.811C1276.8 309.202 1277.45 308.759 1278.32 308.759C1279.27 308.759 1279.66 309.285 1279.85 309.774L1280.83 309.497ZM1285.37 315.148C1286.81 315.148 1287.87 314.428 1288.2 313.357L1287.15 313.061C1286.87 313.8 1286.23 314.169 1285.37 314.169C1284.1 314.169 1283.21 313.343 1283.16 311.824H1288.31V311.362C1288.31 308.722 1286.74 307.817 1285.26 307.817C1283.34 307.817 1282.07 309.331 1282.07 311.51C1282.07 313.689 1283.32 315.148 1285.37 315.148ZM1283.16 310.882C1283.24 309.779 1284.02 308.795 1285.26 308.795C1286.45 308.795 1287.2 309.682 1287.2 310.882H1283.16Z" fill="#E5E5E5"/>
</g>
</g>
</g>
</g>
</g>
</g>
<defs>
<filter id="filter0_dd_0_198" x="995" y="35" width="224" height="196" filterUnits="userSpaceOnUse" color-interpolation-filters="sRGB">
<feFlood flood-opacity="0" result="BackgroundImageFix"/>
<feColorMatrix in="SourceAlpha" type="matrix" values="0 0 0 0 0 0 0 0 0 0 0 0 0 0 0 0 0 0 127 0" result="hardAlpha"/>
<feOffset dy="5"/>
<feGaussianBlur stdDeviation="8.5"/>
<feColorMatrix type="matrix" values="0 0 0 0 0 0 0 0 0 0 0 0 0 0 0 0 0 0 0.2 0"/>
<feBlend mode="normal" in2="BackgroundImageFix" result="effect1_dropShadow_0_198"/>
<feColorMatrix in="SourceAlpha" type="matrix" values="0 0 0 0 0 0 0 0 0 0 0 0 0 0 0 0 0 0 127 0" result="hardAlpha"/>
<feOffset dy="2"/>
<feGaussianBlur stdDeviation="3.5"/>
<feColorMatrix type="matrix" values="0 0 0 0 0 0 0 0 0 0 0 0 0 0 0 0 0 0 0.15 0"/>
<feBlend mode="normal" in2="effect1_dropShadow_0_198" result="effect2_dropShadow_0_198"/>
<feBlend mode="normal" in="SourceGraphic" in2="effect2_dropShadow_0_198" result="shape"/>
</filter>
<filter id="filter1_dd_0_198" x="1177" y="108" width="224" height="254" filterUnits="userSpaceOnUse" color-interpolation-filters="sRGB">
<feFlood flood-opacity="0" result="BackgroundImageFix"/>
<feColorMatrix in="SourceAlpha" type="matrix" values="0 0 0 0 0 0 0 0 0 0 0 0 0 0 0 0 0 0 127 0" result="hardAlpha"/>
<feOffset dy="5"/>
<feGaussianBlur stdDeviation="8.5"/>
<feColorMatrix type="matrix" values="0 0 0 0 0 0 0 0 0 0 0 0 0 0 0 0 0 0 0.2 0"/>
<feBlend mode="normal" in2="BackgroundImageFix" result="effect1_dropShadow_0_198"/>
<feColorMatrix in="SourceAlpha" type="matrix" values="0 0 0 0 0 0 0 0 0 0 0 0 0 0 0 0 0 0 127 0" result="hardAlpha"/>
<feOffset dy="2"/>
<feGaussianBlur stdDeviation="3.5"/>
<feColorMatrix type="matrix" values="0 0 0 0 0 0 0 0 0 0 0 0 0 0 0 0 0 0 0.15 0"/>
<feBlend mode="normal" in2="effect1_dropShadow_0_198" result="effect2_dropShadow_0_198"/>
<feBlend mode="normal" in="SourceGraphic" in2="effect2_dropShadow_0_198" result="shape"/>
</filter>
</defs>
</svg>
