<svg width="1440" height="810" viewBox="0 0 1440 810" fill="none" xmlns="http://www.w3.org/2000/svg">
<g id="PRODUCT">
<g id="LOADING">
<rect id="Rectangle 2479" y="48" width="1440" height="762" rx="6" fill="#151515"/>
<rect id="Rectangle 2768" x="835" width="605" height="810" rx="6" fill="#151515"/>
<g id="Frame 666">
<g id="Frame 666_2">
<rect x="848" y="60" width="580" height="365" rx="4" fill="#1F1F1F"/>
<g id="Header">
<g id="Frame 666_3">
<rect x="860" y="72" width="117" height="16" rx="2" fill="url(#paint0_linear_0_198)"/>
</g>
<g id="Frame 666_4">
<g id="16x16/more">
<path d="M1400 74C1400 72.8954 1400.9 72 1402 72H1414C1415.1 72 1416 72.8954 1416 74V86C1416 87.1046 1415.1 88 1414 88H1402C1400.9 88 1400 87.1046 1400 86V74Z" fill="url(#paint1_linear_0_198)"/>
</g>
</g>
</g>
</g>
<g id="Frame 720">
<rect x="848" y="433" width="580" height="365" rx="4" fill="#1F1F1F"/>
<g id="Header_2">
<g id="Frame 666_5">
<rect x="860" y="445" width="117" height="16" rx="2" fill="url(#paint2_linear_0_198)"/>
</g>
<g id="Frame 666_6">
<g id="16x16/more_2">
<path d="M1400 447C1400 445.895 1400.9 445 1402 445H1414C1415.1 445 1416 445.895 1416 447V459C1416 460.105 1415.1 461 1414 461H1402C1400.9 461 1400 460.105 1400 459V447Z" fill="url(#paint3_linear_0_198)"/>
</g>
</g>
</g>
</g>
</g>
<rect id="Rectangle 2756" x="12" y="60" width="112" height="16" rx="2" fill="url(#paint4_linear_0_198)"/>
<rect id="Rectangle 2757" x="12" y="110" width="126" height="16" rx="2" fill="url(#paint5_linear_0_198)"/>
<rect id="Rectangle 2759" x="12" y="162" width="112" height="16" rx="2" fill="url(#paint6_linear_0_198)"/>
<rect id="Rectangle 2765" x="12" y="318" width="112" height="16" rx="2" fill="url(#paint7_linear_0_198)"/>
<rect id="Rectangle 2761" x="12" y="214" width="101" height="16" rx="2" fill="url(#paint8_linear_0_198)"/>
<rect id="Rectangle 2766" x="12" y="370" width="101" height="16" rx="2" fill="url(#paint9_linear_0_198)"/>
<rect id="Rectangle 2763" x="12" y="266" width="95" height="16" rx="2" fill="url(#paint10_linear_0_198)"/>
<rect id="Rectangle 2758" x="12" y="136" width="101" height="16" rx="2" fill="url(#paint11_linear_0_198)"/>
<rect id="Rectangle 2760" x="12" y="188" width="89" height="16" rx="2" fill="url(#paint12_linear_0_198)"/>
<rect id="Rectangle 2767" x="12" y="344" width="89" height="16" rx="2" fill="url(#paint13_linear_0_198)"/>
<rect id="Rectangle 2762" x="12" y="240" width="89" height="16" rx="2" fill="url(#paint14_linear_0_198)"/>
<rect id="Rectangle 2764" x="12" y="292" width="107" height="16" rx="2" fill="url(#paint15_linear_0_198)"/>
</g>
</g>
<defs>
<linearGradient id="paint0_linear_0_198" x1="860" y1="80" x2="977" y2="80" gradientUnits="userSpaceOnUse">
<stop stop-color="#2F2F2F"/>
<stop offset="1" stop-color="#3C3C3C"/>
</linearGradient>
<linearGradient id="paint1_linear_0_198" x1="1400" y1="80" x2="1416" y2="80" gradientUnits="userSpaceOnUse">
<stop stop-color="#2F2F2F"/>
<stop offset="1" stop-color="#3C3C3C"/>
</linearGradient>
<linearGradient id="paint2_linear_0_198" x1="860" y1="453" x2="977" y2="453" gradientUnits="userSpaceOnUse">
<stop stop-color="#2F2F2F"/>
<stop offset="1" stop-color="#3C3C3C"/>
</linearGradient>
<linearGradient id="paint3_linear_0_198" x1="1400" y1="453" x2="1416" y2="453" gradientUnits="userSpaceOnUse">
<stop stop-color="#2F2F2F"/>
<stop offset="1" stop-color="#3C3C3C"/>
</linearGradient>
<linearGradient id="paint4_linear_0_198" x1="12" y1="68" x2="124" y2="68" gradientUnits="userSpaceOnUse">
<stop stop-color="#2F2F2F"/>
<stop offset="1" stop-color="#3C3C3C"/>
</linearGradient>
<linearGradient id="paint5_linear_0_198" x1="12" y1="118" x2="138" y2="118" gradientUnits="userSpaceOnUse">
<stop stop-color="#2F2F2F"/>
<stop offset="1" stop-color="#3C3C3C"/>
</linearGradient>
<linearGradient id="paint6_linear_0_198" x1="12" y1="170" x2="124" y2="170" gradientUnits="userSpaceOnUse">
<stop stop-color="#2F2F2F"/>
<stop offset="1" stop-color="#3C3C3C"/>
</linearGradient>
<linearGradient id="paint7_linear_0_198" x1="12" y1="326" x2="124" y2="326" gradientUnits="userSpaceOnUse">
<stop stop-color="#2F2F2F"/>
<stop offset="1" stop-color="#3C3C3C"/>
</linearGradient>
<linearGradient id="paint8_linear_0_198" x1="12" y1="222" x2="113" y2="222" gradientUnits="userSpaceOnUse">
<stop stop-color="#2F2F2F"/>
<stop offset="1" stop-color="#3C3C3C"/>
</linearGradient>
<linearGradient id="paint9_linear_0_198" x1="12" y1="378" x2="113" y2="378" gradientUnits="userSpaceOnUse">
<stop stop-color="#2F2F2F"/>
<stop offset="1" stop-color="#3C3C3C"/>
</linearGradient>
<linearGradient id="paint10_linear_0_198" x1="12" y1="274" x2="107" y2="274" gradientUnits="userSpaceOnUse">
<stop stop-color="#2F2F2F"/>
<stop offset="1" stop-color="#3C3C3C"/>
</linearGradient>
<linearGradient id="paint11_linear_0_198" x1="12" y1="144" x2="113" y2="144" gradientUnits="userSpaceOnUse">
<stop stop-color="#2F2F2F"/>
<stop offset="1" stop-color="#3C3C3C"/>
</linearGradient>
<linearGradient id="paint12_linear_0_198" x1="12" y1="196" x2="101" y2="196" gradientUnits="userSpaceOnUse">
<stop stop-color="#2F2F2F"/>
<stop offset="1" stop-color="#3C3C3C"/>
</linearGradient>
<linearGradient id="paint13_linear_0_198" x1="12" y1="352" x2="101" y2="352" gradientUnits="userSpaceOnUse">
<stop stop-color="#2F2F2F"/>
<stop offset="1" stop-color="#3C3C3C"/>
</linearGradient>
<linearGradient id="paint14_linear_0_198" x1="12" y1="248" x2="101" y2="248" gradientUnits="userSpaceOnUse">
<stop stop-color="#2F2F2F"/>
<stop offset="1" stop-color="#3C3C3C"/>
</linearGradient>
<linearGradient id="paint15_linear_0_198" x1="12" y1="300" x2="119" y2="300" gradientUnits="userSpaceOnUse">
<stop stop-color="#2F2F2F"/>
<stop offset="1" stop-color="#3C3C3C"/>
</linearGradient>
</defs>
</svg>
