<svg xmlns="http://www.w3.org/2000/svg" xmlns:xlink="http://www.w3.org/1999/xlink" width="1440" height="810" fill="none" xmlns:v="https://vecta.io/nano"><g filter="url(#A)"><g clip-path="url(#B)"><path d="M464 234a4 4 0 0 1 4-4h504a4 4 0 0 1 4 4v342a4 4 0 0 1-4 4H468a4 4 0 0 1-4-4V234z" fill="#373737"/><path stroke="#e5e5e5" stroke-opacity=".1" d="M474 279.5h488"/><path d="M474.773 251.614h3.659V262h1.409v-10.386h3.659v-1.25h-8.727v1.25zm10.344 13.659c1.21 0 2.062-.642 2.568-2l3.704-10h-1.454l-2.409 6.954h-.091l-2.409-6.954h-1.455l3.227 8.772-.25.682c-.488 1.33-1.091 1.455-2.068 1.205l-.341 1.182c.137.068.523.159.978.159zm7.802 0h1.341v-4.614h.114c.295.477.863 1.523 2.545 1.523 2.182 0 3.705-1.75 3.705-4.523 0-2.75-1.523-4.5-3.728-4.5-1.704 0-2.227 1.046-2.522 1.5h-.159v-1.386h-1.296v12zm1.318-7.637c0-1.954.864-3.272 2.5-3.272 1.705 0 2.546 1.431 2.546 3.272 0 1.864-.864 3.341-2.546 3.341-1.613 0-2.5-1.363-2.5-3.341zm11.851 4.546c1.773 0 3.068-.887 3.478-2.205l-1.296-.363c-.341.909-1.131 1.363-2.182 1.363-1.574 0-2.659-1.017-2.721-2.886h6.335v-.568c0-3.25-1.932-4.364-3.75-4.364-2.364 0-3.932 1.864-3.932 4.546s1.546 4.477 4.068 4.477zm-2.721-5.25c.091-1.358 1.051-2.568 2.585-2.568 1.454 0 2.386 1.091 2.386 2.568h-4.971zm14.963 5.273c1.523 0 2.318-.819 2.591-1.387h.068V262h1.341v-5.75c0-2.773-2.114-3.091-3.227-3.091-1.319 0-2.819.455-3.5 2.046l1.272.454c.296-.636.995-1.318 2.273-1.318 1.233 0 1.841.653 1.841 1.773v.045c0 .648-.659.591-2.25.796-1.619.21-3.386.568-3.386 2.568 0 1.704 1.318 2.682 2.977 2.682zm.204-1.205c-1.068 0-1.841-.477-1.841-1.409 0-1.023.932-1.341 1.978-1.477.568-.069 2.091-.228 2.318-.5v1.227c0 1.091-.864 2.159-2.455 2.159zm13.809 1.182c1.932 0 3.204-1.182 3.432-2.727h-1.341c-.25.954-1.046 1.522-2.091 1.522-1.591 0-2.614-1.318-2.614-3.341 0-1.977 1.046-3.272 2.614-3.272 1.182 0 1.886.727 2.091 1.522h1.341c-.228-1.636-1.614-2.727-3.455-2.727-2.364 0-3.932 1.864-3.932 4.523 0 2.613 1.5 4.5 3.955 4.5zm8.697 0c2.364 0 3.955-1.796 3.955-4.5 0-2.727-1.591-4.523-3.955-4.523s-3.954 1.796-3.954 4.523c0 2.704 1.591 4.5 3.954 4.5zm0-1.205c-1.795 0-2.613-1.545-2.613-3.295s.818-3.318 2.613-3.318 2.614 1.568 2.614 3.318-.818 3.295-2.614 3.295zm5.762 1.023h1.341v-5.455c0-1.278.931-2.181 1.977-2.181 1.017 0 1.727.664 1.727 1.659V262h1.364v-5.682c0-1.125.704-1.954 1.932-1.954.954 0 1.772.505 1.772 1.795V262h1.341v-5.841c0-2.051-1.102-3-2.659-3-1.25 0-2.165.574-2.614 1.477h-.09c-.432-.931-1.194-1.477-2.341-1.477-1.137 0-1.978.546-2.341 1.477h-.114v-1.363h-1.295V262zm13.666 0h1.341v-5.455c0-1.278.932-2.181 1.977-2.181 1.017 0 1.727.664 1.727 1.659V262h1.364v-5.682c0-1.125.705-1.954 1.932-1.954.954 0 1.773.505 1.773 1.795V262h1.34v-5.841c0-2.051-1.102-3-2.659-3-1.25 0-2.164.574-2.613 1.477h-.091c-.432-.931-1.193-1.477-2.341-1.477-1.136 0-1.977.546-2.341 1.477h-.114v-1.363h-1.295V262zm16.234.205c1.523 0 2.319-.819 2.591-1.387h.068V262h1.341v-5.75c0-2.773-2.113-3.091-3.227-3.091-1.318 0-2.818.455-3.5 2.046l1.273.454c.295-.636.994-1.318 2.273-1.318 1.232 0 1.84.653 1.84 1.773v.045c0 .648-.659.591-2.25.796-1.619.21-3.386.568-3.386 2.568 0 1.704 1.318 2.682 2.977 2.682zm.205-1.205c-1.068 0-1.841-.477-1.841-1.409 0-1.023.932-1.341 1.977-1.477.568-.069 2.091-.228 2.318-.5v1.227c0 1.091-.863 2.159-2.454 2.159zm7.344-4.25c0-1.523.943-2.386 2.227-2.386 1.244 0 2 .812 2 2.181V262h1.341v-5.545c0-2.228-1.188-3.296-2.955-3.296-1.318 0-2.136.591-2.545 1.477h-.114v-1.363h-1.295V262h1.341v-5.25zm11.074 5.432c1.681 0 2.25-1.046 2.545-1.523h.159V262h1.296v-11.636h-1.341v4.295h-.114c-.295-.454-.818-1.5-2.523-1.5-2.204 0-3.727 1.75-3.727 4.5 0 2.773 1.523 4.523 3.705 4.523zm.181-1.205c-1.681 0-2.545-1.477-2.545-3.341 0-1.841.841-3.272 2.545-3.272 1.637 0 2.5 1.318 2.5 3.272 0 1.978-.886 3.341-2.5 3.341zm14.026 1.205c2.364 0 3.955-1.796 3.955-4.5 0-2.727-1.591-4.523-3.955-4.523s-3.954 1.796-3.954 4.523c0 2.704 1.59 4.5 3.954 4.5zm0-1.205c-1.795 0-2.614-1.545-2.614-3.295s.819-3.318 2.614-3.318 2.614 1.568 2.614 3.318-.818 3.295-2.614 3.295zm5.762 1.023h1.34v-5.523c0-1.182.932-2.045 2.205-2.045.358 0 .727.068.818.091v-1.364l-.704-.023c-1.046 0-1.955.591-2.273 1.455h-.091v-1.318h-1.295V262zm16.154-6.773c-.42-1.238-1.363-2.068-3.09-2.068-1.841 0-3.205 1.046-3.205 2.523 0 1.204.716 2.011 2.318 2.386l1.455.341c.88.205 1.295.625 1.295 1.227 0 .75-.795 1.364-2.045 1.364-1.097 0-1.784-.472-2.023-1.409l-1.273.318c.313 1.483 1.534 2.273 3.318 2.273 2.029 0 3.41-1.108 3.41-2.614 0-1.216-.762-1.983-2.319-2.363l-1.295-.319c-1.034-.255-1.5-.602-1.5-1.272 0-.75.795-1.296 1.864-1.296 1.17 0 1.653.648 1.886 1.25l1.204-.341zm5.597 6.955c1.773 0 3.068-.887 3.477-2.205l-1.295-.363c-.341.909-1.131 1.363-2.182 1.363-1.574 0-2.659-1.017-2.721-2.886h6.335v-.568c0-3.25-1.932-4.364-3.75-4.364-2.364 0-3.932 1.864-3.932 4.546s1.545 4.477 4.068 4.477zm-2.721-5.25c.09-1.358 1.051-2.568 2.585-2.568 1.454 0 2.386 1.091 2.386 2.568h-4.971zm10.703 5.273c1.522 0 2.318-.819 2.591-1.387h.068V262h1.341v-5.75c0-2.773-2.114-3.091-3.228-3.091-1.318 0-2.818.455-3.5 2.046l1.273.454c.296-.636.994-1.318 2.273-1.318 1.233 0 1.841.653 1.841 1.773v.045c0 .648-.659.591-2.25.796-1.62.21-3.387.568-3.387 2.568 0 1.704 1.319 2.682 2.978 2.682zm.204-1.205c-1.068 0-1.841-.477-1.841-1.409 0-1.023.932-1.341 1.978-1.477.568-.069 2.091-.228 2.318-.5v1.227c0 1.091-.864 2.159-2.455 2.159zm6.003 1h1.341v-5.523c0-1.182.932-2.045 2.205-2.045.358 0 .727.068.818.091v-1.364l-.705-.023c-1.045 0-1.954.591-2.272 1.455h-.091v-1.318h-1.296V262zm8.993.182c1.932 0 3.205-1.182 3.432-2.727h-1.341c-.25.954-1.045 1.522-2.091 1.522-1.591 0-2.614-1.318-2.614-3.341 0-1.977 1.046-3.272 2.614-3.272 1.182 0 1.886.727 2.091 1.522h1.341c-.227-1.636-1.614-2.727-3.455-2.727-2.363 0-3.931 1.864-3.931 4.523 0 2.613 1.5 4.5 3.954 4.5zm6.493-5.432c0-1.523.972-2.386 2.296-2.386 1.261 0 2.022.795 2.022 2.181V262h1.341v-5.545c0-2.245-1.193-3.296-2.977-3.296-1.375 0-2.159.574-2.568 1.477h-.114v-4.272h-1.341V262h1.341v-5.25zm8.85 5.341c.562 0 1.022-.46 1.022-1.023s-.46-1.023-1.022-1.023-1.023.461-1.023 1.023.46 1.023 1.023 1.023zm4.166 0c.562 0 1.023-.46 1.023-1.023s-.461-1.023-1.023-1.023-1.023.461-1.023 1.023.46 1.023 1.023 1.023zm4.166 0c.563 0 1.023-.46 1.023-1.023s-.46-1.023-1.023-1.023-1.023.461-1.023 1.023.461 1.023 1.023 1.023z" fill="#757575"/><path fill="#fff" d="M474.009 246h1v19h-1z"/><path d="M482.969 304h.969v-3.578h3.468v-.86h-3.468v-2.703h3.828V296h-4.797v8zm6.441 0h.922v-6h-.922v6zm.469-7c.359 0 .656-.281.656-.625s-.297-.625-.656-.625-.657.281-.657.625.297.625.657.625zm3.173-1h-.922v8h.922v-8zm4.314 8.125c1.219 0 2.11-.609 2.391-1.516l-.891-.25c-.234.625-.777.938-1.5.938-1.082 0-1.828-.699-1.871-1.985h4.356v-.39c0-2.235-1.329-3-2.579-3-1.625 0-2.703 1.281-2.703 3.125s1.063 3.078 2.797 3.078zm-1.871-3.609c.063-.934.723-1.766 1.777-1.766 1 0 1.641.75 1.641 1.766h-3.418zM509.067 298h.937c-.043-1.207-1.156-2.109-2.703-2.109-1.531 0-2.734.89-2.734 2.234 0 1.078.781 1.719 2.031 2.078l.984.281c.844.235 1.594.532 1.594 1.328 0 .875-.844 1.454-1.953 1.454-.953 0-1.797-.422-1.875-1.328h-1c.094 1.312 1.156 2.203 2.875 2.203 1.844 0 2.89-1.016 2.89-2.313 0-1.5-1.421-1.984-2.25-2.203l-.812-.219c-.594-.156-1.547-.469-1.547-1.328 0-.766.703-1.328 1.766-1.328.968 0 1.703.461 1.797 1.25zm3.218 8.25c.832 0 1.418-.441 1.766-1.375l2.547-6.875h-1.001l-1.656 4.781h-.062L512.222 298h-1l2.219 6.031-.172.469c-.336.914-.75 1-1.422.828l-.234.813c.094.047.359.109.672.109zm9.889-6.906c-.289-.852-.937-1.422-2.125-1.422-1.265 0-2.203.719-2.203 1.734 0 .828.492 1.383 1.594 1.641l1 .234c.605.141.891.43.891.844 0 .516-.547.937-1.407.937-.754 0-1.226-.324-1.39-.968l-.875.218c.215 1.02 1.054 1.563 2.281 1.563 1.394 0 2.344-.762 2.344-1.797 0-.836-.524-1.363-1.594-1.625l-.891-.219c-.711-.175-1.031-.414-1.031-.875 0-.515.547-.89 1.281-.89.805 0 1.137.445 1.297.859l.828-.234zm4.217-1.344h-1.282v-1.438h-.921V298h-.907v.781h.907v3.75c0 1.047.843 1.547 1.625 1.547.343 0 .562-.062.687-.109l-.187-.828c-.079.015-.204.046-.407.046-.406 0-.797-.125-.797-.906v-3.5h1.282V298zm3.948 6.125c1.218 0 2.109-.609 2.39-1.516l-.89-.25c-.235.625-.778.938-1.5.938-1.082 0-1.828-.699-1.871-1.985h4.355v-.39c0-2.235-1.328-3-2.578-3-1.625 0-2.703 1.281-2.703 3.125s1.062 3.078 2.797 3.078zm-1.871-3.609c.062-.934.722-1.766 1.777-1.766 1 0 1.641.75 1.641 1.766h-3.418zm5.867 3.484h.922v-3.75c0-.879.641-1.5 1.36-1.5.699 0 1.187.457 1.187 1.141V304h.938v-3.906c0-.774.484-1.344 1.328-1.344.656 0 1.218.348 1.218 1.234V304h.922v-4.016c0-1.41-.757-2.062-1.828-2.062-.859 0-1.488.394-1.797 1.015h-.062c-.297-.64-.82-1.015-1.61-1.015-.781 0-1.359.375-1.609 1.015h-.078V298h-.891v6z" fill="gray"/><path fill-rule="evenodd" d="M492.313 324.605c0-2.371 1.922-4.292 4.292-4.292s4.293 1.921 4.293 4.292c0 1.112-.423 2.125-1.117 2.888a.5.5 0 0 0-.288.288c-.763.694-1.776 1.116-2.888 1.116-2.37 0-4.292-1.921-4.292-4.292zm7.664 4.079c-.915.758-2.09 1.213-3.372 1.213-2.923 0-5.292-2.369-5.292-5.292s2.369-5.292 5.292-5.292 5.293 2.369 5.293 5.292a5.27 5.27 0 0 1-1.214 3.372l3.463 3.463a.5.5 0 0 1-.707.707l-3.463-3.463z" fill="#999"/><path d="M515.145 331h1.145v-4.229h4.099v-1.015h-4.099v-3.195h4.524v-1.016h-5.669V331zm7.482 0h1.09v-7.091h-1.09V331zm.554-8.273c.425 0 .776-.332.776-.738s-.351-.739-.776-.739-.776.332-.776.739.351.738.776.738zm3.62-1.182h-1.089V331h1.089v-9.455zm4.969 9.603c1.44 0 2.493-.72 2.825-1.791l-1.052-.296c-.277.739-.919 1.108-1.773 1.108-1.279 0-2.161-.826-2.211-2.345h5.147v-.462c0-2.64-1.57-3.545-3.047-3.545-1.92 0-3.194 1.514-3.194 3.693s1.255 3.638 3.305 3.638zm-2.211-4.266c.074-1.103.854-2.087 2.1-2.087 1.182 0 1.939.887 1.939 2.087h-4.039zm15.483-1.385c-.341-1.006-1.108-1.68-2.511-1.68-1.496 0-2.604.849-2.604 2.049 0 .979.582 1.635 1.884 1.939l1.182.277c.715.167 1.052.508 1.052.998 0 .609-.646 1.108-1.662 1.108-.891 0-1.449-.384-1.643-1.145l-1.034.258c.254 1.205 1.246 1.847 2.696 1.847 1.648 0 2.77-.9 2.77-2.124 0-.988-.619-1.611-1.884-1.92l-1.052-.259c-.841-.208-1.219-.489-1.219-1.034 0-.609.646-1.052 1.514-1.052.951 0 1.343.526 1.533 1.015l.978-.277zm4.743 5.651c1.44 0 2.493-.72 2.825-1.791l-1.053-.296c-.277.739-.918 1.108-1.772 1.108-1.279 0-2.161-.826-2.212-2.345h5.148v-.462c0-2.64-1.57-3.545-3.047-3.545-1.921 0-3.195 1.514-3.195 3.693s1.256 3.638 3.306 3.638zm-2.212-4.266c.074-1.103.854-2.087 2.101-2.087 1.182 0 1.939.887 1.939 2.087h-4.04zm8.892 4.284c1.237 0 1.883-.665 2.105-1.126h.055v.96h1.09v-4.672c0-2.253-1.718-2.511-2.622-2.511-1.072 0-2.29.369-2.844 1.662l1.034.369c.24-.517.808-1.071 1.846-1.071 1.002 0 1.496.531 1.496 1.44v.037c0 .527-.535.48-1.828.647-1.316.17-2.751.461-2.751 2.086 0 1.385 1.071 2.179 2.419 2.179zm.166-.978c-.868 0-1.496-.388-1.496-1.145 0-.831.757-1.09 1.607-1.201.461-.055 1.699-.184 1.883-.406v.997c0 .887-.702 1.755-1.994 1.755zm5.072.812h1.09v-4.487c0-.96.757-1.662 1.791-1.662a3.29 3.29 0 0 1 .665.074v-1.108l-.573-.019c-.849 0-1.588.48-1.846 1.182h-.074v-1.071h-1.053V331zm7.502.148c1.57 0 2.604-.96 2.788-2.216h-1.089c-.203.775-.85 1.237-1.699 1.237-1.293 0-2.124-1.071-2.124-2.714 0-1.607.85-2.66 2.124-2.66.96 0 1.533.591 1.699 1.238h1.089c-.184-1.33-1.311-2.216-2.806-2.216-1.921 0-3.195 1.514-3.195 3.674 0 2.124 1.219 3.657 3.213 3.657zm5.471-4.414c0-1.237.789-1.939 1.865-1.939 1.024 0 1.643.647 1.643 1.773V331h1.09v-4.506c0-1.823-.97-2.677-2.42-2.677-1.117 0-1.754.466-2.086 1.2h-.092v-3.472h-1.09V331h1.09v-4.266z" fill="#e5e5e5"/><rect x="938" y="318" width="16" height="16" rx="2" fill="#585858"/><path d="M947.648 321.386h-.948l-2.344 8.708h.948l2.344-8.708z" fill="#c5c5c5"/><path fill-rule="evenodd" d="M497.709 352.985a.5.5 0 1 0-.919-.394l-4.5 10.5a.5.5 0 0 0 .919.394l4.5-10.5zm3.791 1.265a.5.5 0 1 0-1 0v2.134l-1.848-1.067a.5.5 0 1 0-.5.866L500 357.25l-1.848 1.067a.5.5 0 1 0 .5.866l1.848-1.067v2.134a.5.5 0 1 0 1 0v-2.134l1.848 1.067a.5.5 0 1 0 .5-.866L502 357.25l1.848-1.067a.5.5 0 1 0-.5-.866l-1.848 1.067v-2.134z" fill="#999"/><path d="M515.533 363l.951-2.678h3.822l.951 2.678h1.2l-3.471-9.455h-1.182L514.332 363h1.201zm1.311-3.693l1.514-4.266h.074l1.514 4.266h-3.102zm6.938 6.352h1.09v-3.748h.092c.24.387.702 1.237 2.068 1.237 1.773 0 3.01-1.422 3.01-3.675 0-2.234-1.237-3.656-3.028-3.656-1.385 0-1.81.849-2.05 1.219h-.129v-1.127h-1.053v9.75zm1.071-6.204c0-1.589.702-2.66 2.032-2.66 1.385 0 2.068 1.164 2.068 2.66 0 1.514-.702 2.714-2.068 2.714-1.311 0-2.032-1.108-2.032-2.714zm6.851 6.204h1.09v-3.748h.092c.24.387.702 1.237 2.068 1.237 1.773 0 3.01-1.422 3.01-3.675 0-2.234-1.237-3.656-3.028-3.656-1.385 0-1.81.849-2.05 1.219h-.129v-1.127h-1.053v9.75zm1.071-6.204c0-1.589.702-2.66 2.031-2.66 1.385 0 2.069 1.164 2.069 2.66 0 1.514-.702 2.714-2.069 2.714-1.311 0-2.031-1.108-2.031-2.714zm7.645 3.619c.457 0 .831-.374.831-.831s-.374-.831-.831-.831-.831.374-.831.831.374.831.831.831zm2.786-7.165v7.608c0 .72-.295 1.126-.96 1.126h-.203v1.016h.221c1.367 0 2.032-.831 2.032-2.142v-7.608h-1.09zm.536-1.182c.424 0 .775-.332.775-.738s-.351-.739-.775-.739-.776.332-.776.739.351.738.776.738zm7.572 2.77c-.342-1.006-1.108-1.68-2.512-1.68-1.495 0-2.603.849-2.603 2.049 0 .979.581 1.635 1.883 1.939l1.182.277c.716.167 1.053.508 1.053.998 0 .609-.647 1.108-1.662 1.108-.891 0-1.45-.384-1.644-1.145l-1.034.258c.254 1.205 1.247 1.847 2.696 1.847 1.648 0 2.77-.9 2.77-2.124 0-.988-.619-1.611-1.883-1.92l-1.053-.259c-.84-.208-1.219-.489-1.219-1.034 0-.609.647-1.052 1.514-1.052.951 0 1.344.526 1.533 1.015l.979-.277z" fill="#e5e5e5"/><path opacity=".7" d="M563.403 363.5h.989l1.432-5.028h.102l1.432 5.028h.989l1.994-6.545h-1.057l-1.415 4.994h-.068l-1.381-4.994h-1.073l-1.398 5.011h-.068l-1.415-5.011h-1.057l1.994 6.545zm10.849.136c1.33 0 2.301-.664 2.608-1.653l-.972-.273c-.255.682-.848 1.023-1.636 1.023-1.18 0-1.994-.763-2.041-2.165h4.751v-.426c0-2.437-1.449-3.273-2.812-3.273-1.773 0-2.949 1.398-2.949 3.409s1.159 3.358 3.051 3.358zm-2.041-3.937c.068-1.019.788-1.926 1.939-1.926 1.091 0 1.79.818 1.79 1.926h-3.729zm6.478 3.801h.971v-1.006h.119c.222.358.648 1.142 1.91 1.142 1.636 0 2.778-1.312 2.778-3.392 0-2.062-1.142-3.375-2.796-3.375-1.278 0-1.67.784-1.892 1.125h-.085v-3.221h-1.005v8.727zm.988-3.273c0-1.466.648-2.454 1.875-2.454 1.279 0 1.909 1.074 1.909 2.454 0 1.398-.647 2.506-1.909 2.506-1.21 0-1.875-1.023-1.875-2.506zm11.025-1.807c-.316-.929-1.023-1.551-2.319-1.551-1.38 0-2.403.784-2.403 1.892 0 .904.537 1.509 1.739 1.79l1.091.256c.66.153.971.469.971.92 0 .563-.596 1.023-1.534 1.023-.822 0-1.338-.354-1.517-1.057l-.954.239c.234 1.112 1.15 1.704 2.488 1.704 1.521 0 2.557-.831 2.557-1.96 0-.912-.571-1.487-1.739-1.773l-.971-.238c-.776-.192-1.125-.452-1.125-.955 0-.562.596-.971 1.397-.971.878 0 1.241.485 1.415.937l.904-.256zm1.693 5.08h1.006v-6.545h-1.006v6.545zm.511-7.636c.392 0 .716-.307.716-.682s-.324-.682-.716-.682-.716.307-.716.682.324.682.716.682zm5.243 1.091h-1.398v-1.569h-1.005v1.569h-.989v.852h.989v4.091c0 1.142.92 1.687 1.772 1.687.375 0 .614-.068.75-.119l-.204-.904c-.085.018-.222.052-.443.052-.444 0-.87-.137-.87-.989v-3.818h1.398v-.852zm4.247 6.681c1.329 0 2.301-.664 2.608-1.653l-.972-.273c-.255.682-.848 1.023-1.636 1.023-1.181 0-1.994-.763-2.041-2.165h4.751v-.426c0-2.437-1.449-3.273-2.812-3.273-1.773 0-2.949 1.398-2.949 3.409s1.159 3.358 3.051 3.358zm-2.041-3.937c.068-1.019.788-1.926 1.939-1.926 1.091 0 1.789.818 1.789 1.926h-3.728zm9.426-5.335h-.92l-2.813 10.448h.921l2.812-10.448zm3.724 9.272c1.261 0 1.687-.784 1.909-1.142h.119v1.006h.972v-8.727h-1.006v3.221h-.085c-.222-.341-.614-1.125-1.892-1.125-1.654 0-2.796 1.313-2.796 3.375 0 2.08 1.142 3.392 2.779 3.392zm.136-.903c-1.261 0-1.909-1.108-1.909-2.506 0-1.38.631-2.454 1.909-2.454 1.227 0 1.875.988 1.875 2.454 0 1.483-.665 2.506-1.875 2.506zm7.564.903c1.773 0 2.966-1.346 2.966-3.375 0-2.045-1.193-3.392-2.966-3.392s-2.965 1.347-2.965 3.392c0 2.029 1.193 3.375 2.965 3.375zm0-.903c-1.346 0-1.96-1.159-1.96-2.472s.614-2.488 1.96-2.488 1.961 1.176 1.961 2.488-.614 2.472-1.961 2.472zm7.221.903c1.449 0 2.403-.886 2.574-2.045h-1.006c-.188.716-.784 1.142-1.568 1.142-1.194 0-1.961-.989-1.961-2.506 0-1.483.785-2.454 1.961-2.454.886 0 1.414.545 1.568 1.142H631c-.171-1.227-1.211-2.046-2.591-2.046-1.773 0-2.949 1.398-2.949 3.392 0 1.961 1.125 3.375 2.966 3.375zm8.74-5.216c-.315-.929-1.023-1.551-2.318-1.551-1.381 0-2.404.784-2.404 1.892 0 .904.537 1.509 1.739 1.79l1.091.256c.661.153.972.469.972.92 0 .563-.597 1.023-1.535 1.023-.822 0-1.338-.354-1.517-1.057l-.954.239c.234 1.112 1.15 1.704 2.489 1.704 1.521 0 2.556-.831 2.556-1.96 0-.912-.571-1.487-1.738-1.773l-.972-.238c-.775-.192-1.125-.452-1.125-.955 0-.562.597-.971 1.398-.971.878 0 1.24.485 1.415.937l.903-.256zm4.778-4.056h-.92l-2.813 10.448h.921l2.812-10.448zm5.889 4.056c-.315-.929-1.023-1.551-2.318-1.551-1.381 0-2.404.784-2.404 1.892 0 .904.537 1.509 1.739 1.79l1.091.256c.66.153.971.469.971.92 0 .563-.596 1.023-1.534 1.023-.822 0-1.338-.354-1.517-1.057l-.954.239c.234 1.112 1.15 1.704 2.488 1.704 1.522 0 2.557-.831 2.557-1.96 0-.912-.571-1.487-1.738-1.773l-.972-.238c-.776-.192-1.125-.452-1.125-.955 0-.562.597-.971 1.398-.971.878 0 1.24.485 1.415.937l.903-.256zm1.693 5.08h1.006v-4.142c0-.886.699-1.534 1.653-1.534a3.08 3.08 0 0 1 .614.068v-1.023l-.529-.017c-.784 0-1.466.443-1.704 1.091h-.068v-.988h-.972v6.545zm6.985.136c1.449 0 2.403-.886 2.574-2.045h-1.006c-.188.716-.784 1.142-1.568 1.142-1.193 0-1.96-.989-1.96-2.506 0-1.483.784-2.454 1.96-2.454.886 0 1.415.545 1.568 1.142h1.006c-.171-1.227-1.211-2.046-2.591-2.046-1.773 0-2.949 1.398-2.949 3.392 0 1.961 1.125 3.375 2.966 3.375z" fill="gray"/><path fill-rule="evenodd" d="M497.709 384.985a.5.5 0 1 0-.919-.394l-4.5 10.5a.5.5 0 0 0 .919.394l4.5-10.5zm3.791 1.265a.5.5 0 1 0-1 0v2.134l-1.848-1.067a.5.5 0 1 0-.5.866L500 389.25l-1.848 1.067a.5.5 0 1 0 .5.866l1.848-1.067v2.134a.5.5 0 1 0 1 0v-2.134l1.848 1.067a.5.5 0 1 0 .5-.866L502 389.25l1.848-1.067a.5.5 0 1 0-.5-.866l-1.848 1.067v-2.134z" fill="#999"/><path d="M514.997 395h1.09v-7.091h-1.09V395zm.554-8.273c.425 0 .776-.332.776-.738s-.351-.739-.776-.739-.775.332-.775.739.35.738.775.738zm3.621 4.007c0-1.237.766-1.939 1.809-1.939 1.011 0 1.625.661 1.625 1.773V395h1.09v-4.506c0-1.809-.965-2.677-2.401-2.677-1.071 0-1.736.48-2.068 1.2h-.092v-1.108h-1.053V395h1.09v-4.266zm9.192 4.414c1.367 0 1.828-.85 2.068-1.237h.13V395h1.052v-9.455h-1.089v3.491h-.093c-.24-.37-.664-1.219-2.049-1.219-1.792 0-3.029 1.422-3.029 3.656 0 2.253 1.237 3.675 3.01 3.675zm.148-.979c-1.367 0-2.068-1.2-2.068-2.714 0-1.496.683-2.66 2.068-2.66 1.329 0 2.031 1.071 2.031 2.66 0 1.606-.72 2.714-2.031 2.714zm8.222.979c1.44 0 2.493-.72 2.825-1.791l-1.052-.296c-.277.739-.919 1.108-1.773 1.108-1.279 0-2.161-.826-2.211-2.345h5.147v-.462c0-2.64-1.57-3.545-3.047-3.545-1.92 0-3.195 1.514-3.195 3.693s1.256 3.638 3.306 3.638zm-2.211-4.266c.073-1.103.854-2.087 2.1-2.087 1.182 0 1.939.887 1.939 2.087h-4.039zm7.426-2.973h-1.255l2.252 3.546-2.252 3.545h1.255l1.699-2.751 1.699 2.751h1.256l-2.29-3.545 2.29-3.546h-1.256l-1.699 2.899-1.699-2.899zm7.002 7.165c.457 0 .831-.374.831-.831s-.374-.831-.831-.831-.831.374-.831.831.374.831.831.831zm2.786-7.165v7.608c0 .72-.295 1.126-.96 1.126h-.203v1.016h.222c1.366 0 2.031-.831 2.031-2.142v-7.608h-1.09zm.536-1.182c.425 0 .775-.332.775-.738s-.35-.739-.775-.739-.776.332-.776.739.351.738.776.738zm7.572 2.77c-.342-1.006-1.108-1.68-2.511-1.68-1.496 0-2.604.849-2.604 2.049 0 .979.582 1.635 1.884 1.939l1.181.277c.716.167 1.053.508 1.053.998 0 .609-.646 1.108-1.662 1.108-.891 0-1.45-.384-1.643-1.145l-1.035.258c.254 1.205 1.247 1.847 2.696 1.847 1.649 0 2.77-.9 2.77-2.124 0-.988-.618-1.611-1.883-1.92l-1.053-.259c-.84-.208-1.218-.489-1.218-1.034 0-.609.646-1.052 1.514-1.052.951 0 1.343.526 1.532 1.015l.979-.277z" fill="#e5e5e5"/><path opacity=".7" d="M571.403 395.5h.989l1.432-5.028h.102l1.432 5.028h.989l1.994-6.545h-1.057l-1.415 4.994h-.068l-1.381-4.994h-1.073l-1.398 5.011h-.068l-1.415-5.011h-1.057l1.994 6.545zm10.849.136c1.33 0 2.301-.664 2.608-1.653l-.972-.273c-.255.682-.848 1.023-1.636 1.023-1.18 0-1.994-.763-2.041-2.165h4.751v-.426c0-2.437-1.449-3.273-2.812-3.273-1.773 0-2.949 1.398-2.949 3.409s1.159 3.358 3.051 3.358zm-2.041-3.937c.068-1.019.788-1.926 1.939-1.926 1.091 0 1.79.818 1.79 1.926h-3.729zm6.478 3.801h.971v-1.006h.119c.222.358.648 1.142 1.91 1.142 1.636 0 2.778-1.312 2.778-3.392 0-2.062-1.142-3.375-2.796-3.375-1.278 0-1.67.784-1.892 1.125h-.085v-3.221h-1.005v8.727zm.988-3.273c0-1.466.648-2.454 1.875-2.454 1.279 0 1.909 1.074 1.909 2.454 0 1.398-.647 2.506-1.909 2.506-1.21 0-1.875-1.023-1.875-2.506zm11.025-1.807c-.316-.929-1.023-1.551-2.319-1.551-1.38 0-2.403.784-2.403 1.892 0 .904.537 1.509 1.739 1.79l1.091.256c.66.153.971.469.971.92 0 .563-.596 1.023-1.534 1.023-.822 0-1.338-.354-1.517-1.057l-.954.239c.234 1.112 1.15 1.704 2.488 1.704 1.521 0 2.557-.831 2.557-1.96 0-.912-.571-1.487-1.739-1.773l-.971-.238c-.776-.192-1.125-.452-1.125-.955 0-.562.596-.971 1.397-.971.878 0 1.241.485 1.415.937l.904-.256zm1.693 5.08h1.006v-6.545h-1.006v6.545zm.511-7.636c.392 0 .716-.307.716-.682s-.324-.682-.716-.682-.716.307-.716.682.324.682.716.682zm5.243 1.091h-1.398v-1.569h-1.005v1.569h-.989v.852h.989v4.091c0 1.142.92 1.687 1.772 1.687.375 0 .614-.068.75-.119l-.204-.904c-.085.018-.222.052-.443.052-.444 0-.87-.137-.87-.989v-3.818h1.398v-.852zm4.247 6.681c1.329 0 2.301-.664 2.608-1.653l-.972-.273c-.255.682-.848 1.023-1.636 1.023-1.181 0-1.994-.763-2.041-2.165h4.751v-.426c0-2.437-1.449-3.273-2.812-3.273-1.773 0-2.949 1.398-2.949 3.409s1.159 3.358 3.051 3.358zm-2.041-3.937c.068-1.019.788-1.926 1.939-1.926 1.091 0 1.789.818 1.789 1.926h-3.728zm9.426-5.335h-.92l-2.813 10.448h.921l2.812-10.448zm3.724 9.272c1.261 0 1.687-.784 1.909-1.142h.119v1.006h.972v-8.727h-1.006v3.221h-.085c-.222-.341-.614-1.125-1.892-1.125-1.654 0-2.796 1.313-2.796 3.375 0 2.08 1.142 3.392 2.779 3.392zm.136-.903c-1.261 0-1.909-1.108-1.909-2.506 0-1.38.631-2.454 1.909-2.454 1.227 0 1.875.988 1.875 2.454 0 1.483-.665 2.506-1.875 2.506zm7.564.903c1.773 0 2.966-1.346 2.966-3.375 0-2.045-1.193-3.392-2.966-3.392s-2.965 1.347-2.965 3.392c0 2.029 1.193 3.375 2.965 3.375zm0-.903c-1.346 0-1.96-1.159-1.96-2.472s.614-2.488 1.96-2.488 1.961 1.176 1.961 2.488-.614 2.472-1.961 2.472zm7.221.903c1.449 0 2.403-.886 2.574-2.045h-1.006c-.188.716-.784 1.142-1.568 1.142-1.194 0-1.961-.989-1.961-2.506 0-1.483.785-2.454 1.961-2.454.886 0 1.414.545 1.568 1.142H639c-.171-1.227-1.211-2.046-2.591-2.046-1.773 0-2.949 1.398-2.949 3.392 0 1.961 1.125 3.375 2.966 3.375zm8.74-5.216c-.315-.929-1.023-1.551-2.318-1.551-1.381 0-2.404.784-2.404 1.892 0 .904.537 1.509 1.739 1.79l1.091.256c.661.153.972.469.972.92 0 .563-.597 1.023-1.535 1.023-.822 0-1.338-.354-1.517-1.057l-.954.239c.234 1.112 1.15 1.704 2.489 1.704 1.521 0 2.556-.831 2.556-1.96 0-.912-.571-1.487-1.738-1.773l-.972-.238c-.775-.192-1.125-.452-1.125-.955 0-.562.597-.971 1.398-.971.878 0 1.24.485 1.415.937l.903-.256zm4.778-4.056h-.92l-2.813 10.448h.921l2.812-10.448zm3.912 9.272c1.449 0 2.403-.886 2.574-2.045h-1.006c-.188.716-.784 1.142-1.568 1.142-1.194 0-1.961-.989-1.961-2.506 0-1.483.785-2.454 1.961-2.454.886 0 1.414.545 1.568 1.142h1.006c-.171-1.227-1.211-2.046-2.591-2.046-1.773 0-2.949 1.398-2.949 3.392 0 1.961 1.125 3.375 2.966 3.375zm6.763 0c1.772 0 2.966-1.346 2.966-3.375 0-2.045-1.194-3.392-2.966-3.392s-2.966 1.347-2.966 3.392c0 2.029 1.193 3.375 2.966 3.375zm0-.903c-1.347 0-1.96-1.159-1.96-2.472s.613-2.488 1.96-2.488 1.96 1.176 1.96 2.488-.614 2.472-1.96 2.472zm4.561.767h1.006v-4.091c0-.959.698-1.636 1.482-1.636.763 0 1.296.498 1.296 1.244v4.483h1.023v-4.261c0-.844.528-1.466 1.449-1.466.715 0 1.329.379 1.329 1.346v4.381h1.006v-4.381c0-1.538-.827-2.25-1.995-2.25-.937 0-1.623.431-1.96 1.108h-.068c-.324-.699-.895-1.108-1.756-1.108-.852 0-1.483.409-1.755 1.108h-.086v-1.022h-.971v6.545zm10.49 2.455h1.005v-3.461h.085c.222.358.648 1.142 1.91 1.142 1.636 0 2.778-1.312 2.778-3.392 0-2.062-1.142-3.375-2.796-3.375-1.278 0-1.67.784-1.892 1.125h-.119v-1.039h-.971v9zm.988-5.728c0-1.466.648-2.454 1.875-2.454 1.279 0 1.909 1.074 1.909 2.454 0 1.398-.647 2.506-1.909 2.506-1.21 0-1.875-1.023-1.875-2.506zm9.043 3.409c1.773 0 2.966-1.346 2.966-3.375 0-2.045-1.193-3.392-2.966-3.392s-2.966 1.347-2.966 3.392c0 2.029 1.193 3.375 2.966 3.375zm0-.903c-1.346 0-1.96-1.159-1.96-2.472s.614-2.488 1.96-2.488 1.96 1.176 1.96 2.488-.613 2.472-1.96 2.472zm5.567-3.171c0-1.142.707-1.789 1.67-1.789.934 0 1.5.609 1.5 1.636v4.091h1.006v-4.159c0-1.671-.891-2.472-2.216-2.472-.989 0-1.602.443-1.909 1.108h-.085v-1.022h-.972v6.545h1.006v-3.938zm8.818 4.074c1.33 0 2.301-.664 2.608-1.653l-.972-.273c-.255.682-.848 1.023-1.636 1.023-1.18 0-1.994-.763-2.041-2.165h4.751v-.426c0-2.437-1.449-3.273-2.812-3.273-1.773 0-2.949 1.398-2.949 3.409s1.159 3.358 3.051 3.358zm-2.041-3.937c.068-1.019.788-1.926 1.939-1.926 1.091 0 1.79.818 1.79 1.926h-3.729zm7.347-.137c0-1.142.707-1.789 1.67-1.789.933 0 1.5.609 1.5 1.636v4.091h1.006v-4.159c0-1.671-.891-2.472-2.216-2.472-.989 0-1.602.443-1.909 1.108h-.085v-1.022h-.972v6.545h1.006v-3.938zm8.92-2.607h-1.398v-1.569h-1.005v1.569h-.989v.852h.989v4.091c0 1.142.92 1.687 1.773 1.687a2.1 2.1 0 0 0 .75-.119l-.205-.904c-.085.018-.222.052-.443.052-.443 0-.87-.137-.87-.989v-3.818h1.398v-.852zm4.658-2.591h-.92l-2.813 10.448h.921l2.812-10.448zm.911 1.346h2.745v7.79h1.057v-7.79h2.744v-.937h-6.546v.937zm9.81 7.926c1.773 0 2.966-1.346 2.966-3.375 0-2.045-1.193-3.392-2.966-3.392s-2.965 1.347-2.965 3.392c0 2.029 1.193 3.375 2.965 3.375zm0-.903c-1.346 0-1.96-1.159-1.96-2.472s.614-2.488 1.96-2.488 1.961 1.176 1.961 2.488-.614 2.472-1.961 2.472zm7.221.903c1.772 0 2.965-1.346 2.965-3.375 0-2.045-1.193-3.392-2.965-3.392s-2.966 1.347-2.966 3.392c0 2.029 1.193 3.375 2.966 3.375zm0-.903c-1.347 0-1.961-1.159-1.961-2.472s.614-2.488 1.961-2.488 1.96 1.176 1.96 2.488-.614 2.472-1.96 2.472zm7.203 3.358c1.568 0 2.829-.716 2.829-2.403v-6.733h-.971v1.039h-.103c-.221-.341-.63-1.125-1.909-1.125-1.653 0-2.795 1.313-2.795 3.324 0 2.046 1.193 3.205 2.778 3.205 1.279 0 1.688-.75 1.909-1.108h.086v1.329c0 1.091-.767 1.586-1.824 1.586-1.189 0-1.607-.627-1.875-.989l-.801.562c.409.686 1.214 1.313 2.676 1.313zm-.034-3.597c-1.262 0-1.909-.954-1.909-2.318 0-1.329.63-2.403 1.909-2.403 1.227 0 1.875.988 1.875 2.403 0 1.449-.665 2.318-1.875 2.318zm5.77-7.721h-1.006v8.727h1.006v-8.727zm4.646 8.863c1.33 0 2.301-.664 2.608-1.653l-.972-.273c-.255.682-.848 1.023-1.636 1.023-1.18 0-1.994-.763-2.041-2.165h4.751v-.426c0-2.437-1.449-3.273-2.812-3.273-1.773 0-2.949 1.398-2.949 3.409s1.159 3.358 3.051 3.358zm-2.041-3.937c.068-1.019.788-1.926 1.939-1.926 1.091 0 1.79.818 1.79 1.926h-3.729z" fill="gray"/><path d="M482.531 422.859h2.516V430h.969v-7.141h2.515V422h-6v.859zm9.126 7.266c1.219 0 2.109-.609 2.391-1.516l-.891-.25c-.234.625-.777.938-1.5.938-1.082 0-1.828-.699-1.871-1.985h4.355v-.39c0-2.235-1.328-3-2.578-3-1.625 0-2.703 1.281-2.703 3.125s1.063 3.078 2.797 3.078zm-1.871-3.609c.062-.934.722-1.766 1.777-1.766 1 0 1.641.75 1.641 1.766h-3.418zm5.868 3.484h.921v-3.797c0-.812.641-1.406 1.516-1.406.246 0 .5.047.563.062v-.937l-.485-.016c-.719 0-1.344.406-1.562 1h-.063V424h-.89v6zm4.202 0h.922v-3.75c0-.879.641-1.5 1.36-1.5.699 0 1.187.457 1.187 1.141V430h.938v-3.906c0-.774.484-1.344 1.328-1.344.656 0 1.218.348 1.218 1.234V430h.922v-4.016c0-1.41-.757-2.062-1.828-2.062-.859 0-1.488.394-1.797 1.015h-.062c-.297-.64-.82-1.015-1.61-1.015-.781 0-1.359.375-1.609 1.015h-.078V424h-.891v6zm9.671 0h.922v-6h-.922v6zm.469-7c.359 0 .656-.281.656-.625s-.297-.625-.656-.625-.657.281-.657.625.297.625.657.625zm3.173 3.391c0-1.047.649-1.641 1.531-1.641.856 0 1.375.559 1.375 1.5V430h.922v-3.812c0-1.532-.816-2.266-2.031-2.266-.906 0-1.469.406-1.75 1.015h-.078V424h-.891v6h.922v-3.609zm7.388 3.75c1.047 0 1.594-.563 1.782-.954h.047V430h.921v-3.953c0-1.906-1.453-2.125-2.218-2.125-.907 0-1.938.312-2.407 1.406l.875.313c.204-.438.684-.907 1.563-.907.848 0 1.266.45 1.266 1.219v.031c0 .446-.454.407-1.547.547-1.114.145-2.328.391-2.328 1.766 0 1.172.906 1.844 2.046 1.844zm.141-.829c-.734 0-1.266-.328-1.266-.968 0-.703.641-.922 1.36-1.016.39-.047 1.437-.156 1.594-.344v.844c0 .75-.594 1.484-1.688 1.484zm5.324-7.312h-.922v8h.922v-8zm6.048 3.344c-.289-.852-.937-1.422-2.125-1.422-1.265 0-2.203.719-2.203 1.734 0 .828.492 1.383 1.594 1.641l1 .234c.606.141.891.43.891.844 0 .516-.547.937-1.407.937-.753 0-1.226-.324-1.39-.968l-.875.218c.215 1.02 1.054 1.563 2.281 1.563 1.395 0 2.344-.762 2.344-1.797 0-.836-.524-1.363-1.594-1.625l-.891-.219c-.711-.175-1.031-.414-1.031-.875 0-.515.547-.89 1.281-.89.805 0 1.137.445 1.297.859l.828-.234z" fill="gray"/><path d="M491 452h14m-7-7v14" stroke="#999" stroke-linecap="round"/><path d="M515.533 457l.951-2.678h3.822l.951 2.678h1.2l-3.471-9.455h-1.182L514.332 457h1.201zm1.311-3.693l1.514-4.266h.074l1.514 4.266h-3.102zm9.616 3.841c1.366 0 1.828-.85 2.068-1.237h.129V457h1.053v-9.455h-1.09v3.491h-.092c-.24-.37-.665-1.219-2.05-1.219-1.791 0-3.028 1.422-3.028 3.656 0 2.253 1.237 3.675 3.01 3.675zm.148-.979c-1.367 0-2.069-1.2-2.069-2.714 0-1.496.684-2.66 2.069-2.66 1.329 0 2.031 1.071 2.031 2.66 0 1.606-.72 2.714-2.031 2.714zm7.926.979c1.367 0 1.828-.85 2.068-1.237h.13V457h1.052v-9.455h-1.089v3.491h-.093c-.24-.37-.664-1.219-2.049-1.219-1.792 0-3.029 1.422-3.029 3.656 0 2.253 1.237 3.675 3.01 3.675zm.148-.979c-1.367 0-2.068-1.2-2.068-2.714 0-1.496.683-2.66 2.068-2.66 1.329 0 2.031 1.071 2.031 2.66 0 1.606-.72 2.714-2.031 2.714zm16.55-8.624h-1.127v7.442h-.092l-5.17-7.442h-1.108V457h1.145v-7.423h.092l5.152 7.423h1.108v-9.455zm5.116 9.603c1.44 0 2.493-.72 2.825-1.791l-1.052-.296c-.277.739-.919 1.108-1.773 1.108-1.279 0-2.16-.826-2.211-2.345h5.147v-.462c0-2.64-1.569-3.545-3.047-3.545-1.92 0-3.194 1.514-3.194 3.693s1.255 3.638 3.305 3.638zm-2.211-4.266c.074-1.103.854-2.087 2.1-2.087 1.182 0 1.939.887 1.939 2.087h-4.039zm8.411 4.118h1.071l1.551-5.447h.111l1.551 5.447h1.071l2.161-7.091h-1.145l-1.533 5.411h-.074l-1.496-5.411h-1.163l-1.514 5.429h-.074l-1.533-5.429h-1.144l2.16 7.091zm12.243-8.439h2.973V457h1.145v-8.439h2.973v-1.016h-7.091v1.016zm10.655 8.587c1.44 0 2.493-.72 2.825-1.791l-1.053-.296c-.277.739-.918 1.108-1.772 1.108-1.279 0-2.161-.826-2.212-2.345h5.148v-.462c0-2.64-1.57-3.545-3.047-3.545-1.92 0-3.195 1.514-3.195 3.693s1.256 3.638 3.306 3.638zm-2.212-4.266c.074-1.103.855-2.087 2.101-2.087 1.182 0 1.939.887 1.939 2.087h-4.04zm6.805 4.118h1.09v-4.487c0-.96.757-1.662 1.791-1.662a3.29 3.29 0 0 1 .665.074v-1.108l-.573-.019c-.849 0-1.588.48-1.846 1.182h-.074v-1.071h-1.053V457zm4.837 0h1.09v-4.432c0-1.039.757-1.773 1.606-1.773.826 0 1.403.541 1.403 1.348V457h1.108v-4.616c0-.915.573-1.589 1.57-1.589.776 0 1.44.411 1.44 1.459V457h1.09v-4.746c0-1.666-.896-2.437-2.161-2.437-1.015 0-1.759.466-2.123 1.2h-.074c-.351-.757-.97-1.2-1.902-1.2-.923 0-1.607.443-1.902 1.2h-.092v-1.108h-1.053V457zm11.299 0h1.089v-7.091h-1.089V457zm.554-8.273c.425 0 .775-.332.775-.738s-.35-.739-.775-.739-.776.332-.776.739.351.738.776.738zm3.62 4.007c0-1.237.767-1.939 1.81-1.939 1.011 0 1.625.661 1.625 1.773V457h1.089v-4.506c0-1.809-.964-2.677-2.4-2.677-1.071 0-1.736.48-2.068 1.2h-.093v-1.108h-1.052V457h1.089v-4.266zm8.602 4.432c1.237 0 1.884-.665 2.105-1.126h.056v.96h1.089v-4.672c0-2.253-1.717-2.511-2.622-2.511-1.071 0-2.29.369-2.844 1.662l1.034.369c.24-.517.808-1.071 1.847-1.071 1.002 0 1.496.531 1.496 1.44v.037c0 .527-.536.48-1.829.647-1.315.17-2.751.461-2.751 2.086 0 1.385 1.071 2.179 2.419 2.179zm.166-.978c-.868 0-1.496-.388-1.496-1.145 0-.831.758-1.09 1.607-1.201.462-.055 1.699-.184 1.884-.406v.997c0 .887-.702 1.755-1.995 1.755zm6.162-8.643h-1.089V457h1.089v-9.455z" fill="#e5e5e5"/><use xlink:href="#C" fill="#999"/><path d="M520.315 511.909h1.108c-.05-1.426-1.366-2.493-3.194-2.493-1.81 0-3.232 1.053-3.232 2.641 0 1.274.923 2.031 2.401 2.456l1.163.332c.997.277 1.884.628 1.884 1.57 0 1.034-.998 1.717-2.309 1.717-1.126 0-2.123-.498-2.216-1.57h-1.181c.11 1.552 1.366 2.604 3.397 2.604 2.179 0 3.417-1.2 3.417-2.733 0-1.772-1.681-2.345-2.66-2.603l-.96-.259c-.701-.185-1.828-.554-1.828-1.57 0-.904.831-1.569 2.087-1.569 1.145 0 2.013.545 2.123 1.477zm4.062 2.825c0-1.237.789-1.939 1.865-1.939 1.025 0 1.643.647 1.643 1.773V519h1.09v-4.506c0-1.823-.97-2.677-2.419-2.677-1.118 0-1.755.466-2.087 1.2h-.092v-3.472h-1.09V519h1.09v-4.266zm9.472 4.414c1.92 0 3.213-1.459 3.213-3.657 0-2.215-1.293-3.674-3.213-3.674s-3.214 1.459-3.214 3.674c0 2.198 1.293 3.657 3.214 3.657zm0-.979c-1.459 0-2.124-1.256-2.124-2.678s.665-2.696 2.124-2.696 2.123 1.275 2.123 2.696-.665 2.678-2.123 2.678zm6.241.831h1.071l1.551-5.447h.111l1.551 5.447h1.071l2.161-7.091h-1.145l-1.533 5.411h-.074l-1.496-5.411h-1.163l-1.514 5.429h-.074l-1.533-5.429h-1.144l2.16 7.091zm12.76 0h1.145v-4.229h4.099v-1.015h-4.099v-3.195h4.524v-1.016h-5.669V519zm7.482 0h1.09v-7.091h-1.09V519zm.554-8.273c.425 0 .776-.332.776-.738s-.351-.739-.776-.739-.775.332-.775.739.35.738.775.738zm3.621-1.182h-1.09V519h1.09v-9.455zm4.968 9.603c1.44 0 2.493-.72 2.825-1.791l-1.052-.296c-.277.739-.919 1.108-1.773 1.108-1.279 0-2.16-.826-2.211-2.345h5.147v-.462c0-2.64-1.569-3.545-3.047-3.545-1.92 0-3.194 1.514-3.194 3.693s1.255 3.638 3.305 3.638zm-2.211-4.266c.074-1.103.854-2.087 2.1-2.087 1.182 0 1.939.887 1.939 2.087h-4.039zm11.827-1.385c-.341-1.006-1.108-1.68-2.511-1.68-1.496 0-2.604.849-2.604 2.049 0 .979.582 1.635 1.884 1.939l1.181.277c.716.167 1.053.508 1.053.998 0 .609-.646 1.108-1.662 1.108-.891 0-1.449-.384-1.643-1.145l-1.034.258c.253 1.205 1.246 1.847 2.696 1.847 1.648 0 2.769-.9 2.769-2.124 0-.988-.618-1.611-1.883-1.92l-1.053-.259c-.84-.208-1.218-.489-1.218-1.034 0-.609.646-1.052 1.514-1.052.951 0 1.343.526 1.532 1.015l.979-.277z" fill="#e5e5e5"/><path d="M494.25 540.083a.5.5 0 1 0-1 0h1zm-1 11.834a.5.5 0 1 0 1 0h-1zm.167-11.834a.5.5 0 1 0-1 0h1zm-1 11.834a.5.5 0 1 0 1 0h-1zm.916-11.334h9.334v-1h-9.334v1zm10.084.75v9.334h1v-9.334h-1zm-.75 10.084h-9.334v1h9.334v-1zm-10.084-.75v-9.334h-1v9.334h1zm.75.75a.75.75 0 0 1-.75-.75h-1a1.75 1.75 0 0 0 1.75 1.75v-1zm10.084-.75a.75.75 0 0 1-.75.75v1a1.75 1.75 0 0 0 1.75-1.75h-1zm-.75-10.084a.75.75 0 0 1 .75.75h1a1.75 1.75 0 0 0-1.75-1.75v1zm-9.334-1a1.75 1.75 0 0 0-1.75 1.75h1a.75.75 0 0 1 .75-.75v-1zm-.083.5v11.834h1v-11.834h-1zm-.833 0v11.834h1v-11.834h-1z" fill="#999"/><path d="M520.315 543.909h1.108c-.05-1.426-1.366-2.493-3.194-2.493-1.81 0-3.232 1.053-3.232 2.641 0 1.274.923 2.031 2.401 2.456l1.163.332c.997.277 1.884.628 1.884 1.57 0 1.034-.998 1.717-2.309 1.717-1.126 0-2.123-.498-2.216-1.57h-1.181c.11 1.552 1.366 2.604 3.397 2.604 2.179 0 3.417-1.2 3.417-2.733 0-1.772-1.681-2.345-2.66-2.603l-.96-.259c-.701-.185-1.828-.554-1.828-1.57 0-.904.831-1.569 2.087-1.569 1.145 0 2.013.545 2.123 1.477zm4.062 2.825c0-1.237.789-1.939 1.865-1.939 1.025 0 1.643.647 1.643 1.773V551h1.09v-4.506c0-1.823-.97-2.677-2.419-2.677-1.118 0-1.755.466-2.087 1.2h-.092v-3.472h-1.09V551h1.09v-4.266zm9.472 4.414c1.92 0 3.213-1.459 3.213-3.657 0-2.215-1.293-3.674-3.213-3.674s-3.214 1.459-3.214 3.674c0 2.198 1.293 3.657 3.214 3.657zm0-.979c-1.459 0-2.124-1.256-2.124-2.678s.665-2.696 2.124-2.696 2.123 1.275 2.123 2.696-.665 2.678-2.123 2.678zm6.241.831h1.071l1.551-5.447h.111l1.551 5.447h1.071l2.161-7.091h-1.145l-1.533 5.411h-.074l-1.496-5.411h-1.163l-1.514 5.429h-.074l-1.533-5.429h-1.144l2.16 7.091zm19.223-6.5h1.182c-.351-1.828-1.884-3.084-3.878-3.084-2.424 0-4.136 1.865-4.136 4.857s1.699 4.856 4.21 4.856c2.253 0 3.859-1.5 3.859-3.841v-1.015h-3.601v1.015h2.493c-.032 1.699-1.149 2.77-2.751 2.77-1.754 0-3.102-1.329-3.102-3.785s1.348-3.786 3.028-3.786c1.366 0 2.294.771 2.696 2.013zm3.495 6.5h1.089v-7.091h-1.089V551zm.554-8.273c.424 0 .775-.332.775-.738s-.351-.739-.775-.739-.776.332-.776.739.351.738.776.738zm5.614 1.182h-1.514v-1.699h-1.089v1.699h-1.071v.923h1.071v4.432c0 1.237.997 1.828 1.92 1.828.406 0 .665-.074.813-.129l-.222-.979c-.092.019-.24.056-.48.056-.48 0-.942-.148-.942-1.071v-4.137h1.514v-.923zm13.051.591c-.351-1.939-1.902-3.084-3.804-3.084-2.419 0-4.173 1.865-4.173 4.857s1.754 4.856 4.173 4.856c1.902 0 3.453-1.145 3.804-3.084h-1.145c-.277 1.312-1.403 2.013-2.659 2.013-1.717 0-3.065-1.329-3.065-3.785s1.348-3.786 3.065-3.786c1.256 0 2.382.702 2.659 2.013h1.145zm2.792 2.234c0-1.237.789-1.939 1.865-1.939 1.025 0 1.644.647 1.644 1.773V551h1.089v-4.506c0-1.823-.969-2.677-2.419-2.677-1.117 0-1.754.466-2.087 1.2h-.092v-3.472h-1.089V551h1.089v-4.266zm8.678 4.432c1.237 0 1.883-.665 2.105-1.126h.055v.96h1.09v-4.672c0-2.253-1.717-2.511-2.622-2.511-1.071 0-2.29.369-2.844 1.662l1.034.369c.24-.517.808-1.071 1.847-1.071 1.001 0 1.495.531 1.495 1.44v.037c0 .527-.535.48-1.828.647-1.315.17-2.751.461-2.751 2.086 0 1.385 1.071 2.179 2.419 2.179zm.166-.978c-.868 0-1.496-.388-1.496-1.145 0-.831.757-1.09 1.607-1.201.462-.055 1.699-.184 1.883-.406v.997c0 .887-.701 1.755-1.994 1.755zm6.162-3.454c0-1.237.766-1.939 1.81-1.939 1.011 0 1.625.661 1.625 1.773V551h1.089v-4.506c0-1.809-.965-2.677-2.4-2.677-1.072 0-1.736.48-2.069 1.2h-.092v-1.108h-1.053V551h1.09v-4.266zm9.377 7.073c1.699 0 3.065-.776 3.065-2.604v-7.294h-1.052v1.127h-.111c-.24-.37-.683-1.219-2.068-1.219-1.791 0-3.028 1.422-3.028 3.601 0 2.216 1.292 3.471 3.009 3.471 1.385 0 1.829-.812 2.069-1.2h.092v1.44c0 1.182-.831 1.718-1.976 1.718-1.288 0-1.74-.679-2.031-1.071l-.868.609c.443.743 1.316 1.422 2.899 1.422zm-.037-3.896c-1.366 0-2.068-1.035-2.068-2.512 0-1.44.683-2.604 2.068-2.604 1.33 0 2.031 1.071 2.031 2.604 0 1.57-.72 2.512-2.031 2.512zm8.07 1.237c1.44 0 2.493-.72 2.825-1.791l-1.052-.296c-.277.739-.919 1.108-1.773 1.108-1.279 0-2.161-.826-2.211-2.345h5.147v-.462c0-2.64-1.57-3.545-3.047-3.545-1.92 0-3.195 1.514-3.195 3.693s1.256 3.638 3.306 3.638zm-2.211-4.266c.073-1.103.854-2.087 2.1-2.087 1.182 0 1.939.887 1.939 2.087h-4.039zm11.827-1.385c-.342-1.006-1.108-1.68-2.511-1.68-1.496 0-2.604.849-2.604 2.049 0 .979.582 1.635 1.883 1.939l1.182.277c.716.167 1.053.508 1.053.998 0 .609-.647 1.108-1.662 1.108-.891 0-1.45-.384-1.644-1.145l-1.034.258c.254 1.205 1.247 1.847 2.696 1.847 1.648 0 2.77-.9 2.77-2.124 0-.988-.618-1.611-1.883-1.92l-1.053-.259c-.84-.208-1.219-.489-1.219-1.034 0-.609.647-1.052 1.515-1.052.951 0 1.343.526 1.532 1.015l.979-.277z" fill="#e5e5e5"/><path d="M494.25 572.083a.5.5 0 1 0-1 0h1zm-1 11.834a.5.5 0 1 0 1 0h-1zm.167-11.834a.5.5 0 1 0-1 0h1zm-1 11.834a.5.5 0 1 0 1 0h-1zm.916-11.334h9.334v-1h-9.334v1zm10.084.75v9.334h1v-9.334h-1zm-.75 10.084h-9.334v1h9.334v-1zm-10.084-.75v-9.334h-1v9.334h1zm.75.75a.75.75 0 0 1-.75-.75h-1a1.75 1.75 0 0 0 1.75 1.75v-1zm10.084-.75a.75.75 0 0 1-.75.75v1a1.75 1.75 0 0 0 1.75-1.75h-1zm-.75-10.084a.75.75 0 0 1 .75.75h1a1.75 1.75 0 0 0-1.75-1.75v1zm-9.334-1a1.75 1.75 0 0 0-1.75 1.75h1a.75.75 0 0 1 .75-.75v-1zm-.083.5v11.834h1v-11.834h-1zm-.833 0v11.834h1v-11.834h-1z" fill="#999"/><path d="M520.315 575.909h1.108c-.05-1.426-1.366-2.493-3.194-2.493-1.81 0-3.232 1.053-3.232 2.641 0 1.274.923 2.031 2.401 2.456l1.163.332c.997.277 1.884.628 1.884 1.57 0 1.034-.998 1.717-2.309 1.717-1.126 0-2.123-.498-2.216-1.57h-1.181c.11 1.552 1.366 2.604 3.397 2.604 2.179 0 3.417-1.2 3.417-2.733 0-1.772-1.681-2.345-2.66-2.603l-.96-.259c-.701-.185-1.828-.554-1.828-1.57 0-.904.831-1.569 2.087-1.569 1.145 0 2.013.545 2.123 1.477zm4.062 2.825c0-1.237.789-1.939 1.865-1.939 1.025 0 1.643.647 1.643 1.773V583h1.09v-4.506c0-1.823-.97-2.677-2.419-2.677-1.118 0-1.755.466-2.087 1.2h-.092v-3.472h-1.09V583h1.09v-4.266zm9.472 4.414c1.92 0 3.213-1.459 3.213-3.657 0-2.215-1.293-3.674-3.213-3.674s-3.214 1.459-3.214 3.674c0 2.198 1.293 3.657 3.214 3.657zm0-.979c-1.459 0-2.124-1.256-2.124-2.678s.665-2.696 2.124-2.696 2.123 1.275 2.123 2.696-.665 2.678-2.123 2.678zm6.241.831h1.071l1.551-5.447h.111l1.551 5.447h1.071l2.161-7.091h-1.145l-1.533 5.411h-.074l-1.496-5.411h-1.163l-1.514 5.429h-.074l-1.533-5.429h-1.144l2.16 7.091zm20.368-6.5c-.351-1.939-1.902-3.084-3.804-3.084-2.419 0-4.173 1.865-4.173 4.857s1.754 4.856 4.173 4.856c1.902 0 3.453-1.145 3.804-3.084h-1.145c-.277 1.312-1.403 2.013-2.659 2.013-1.717 0-3.065-1.329-3.065-3.785s1.348-3.786 3.065-3.786c1.256 0 2.382.702 2.659 2.013h1.145zm4.583 6.648c1.92 0 3.213-1.459 3.213-3.657 0-2.215-1.293-3.674-3.213-3.674s-3.213 1.459-3.213 3.674c0 2.198 1.292 3.657 3.213 3.657zm0-.979c-1.459 0-2.124-1.256-2.124-2.678s.665-2.696 2.124-2.696 2.124 1.275 2.124 2.696-.665 2.678-2.124 2.678zm7.554.979c1.366 0 1.828-.85 2.068-1.237h.129V583h1.053v-9.455h-1.09v3.491h-.092c-.24-.37-.665-1.219-2.05-1.219-1.791 0-3.028 1.422-3.028 3.656 0 2.253 1.237 3.675 3.01 3.675zm.147-.979c-1.366 0-2.068-1.2-2.068-2.714 0-1.496.683-2.66 2.068-2.66 1.33 0 2.032 1.071 2.032 2.66 0 1.606-.721 2.714-2.032 2.714zm8.222.979c1.441 0 2.493-.72 2.826-1.791l-1.053-.296c-.277.739-.919 1.108-1.773 1.108-1.278 0-2.16-.826-2.211-2.345h5.147v-.462c0-2.64-1.569-3.545-3.046-3.545-1.921 0-3.195 1.514-3.195 3.693s1.256 3.638 3.305 3.638zm-2.211-4.266c.074-1.103.854-2.087 2.101-2.087 1.181 0 1.938.887 1.938 2.087h-4.039zm15.779-2.973h1.108c-.051-1.426-1.366-2.493-3.195-2.493-1.809 0-3.231 1.053-3.231 2.641 0 1.274.923 2.031 2.401 2.456l1.163.332c.997.277 1.883.628 1.883 1.57 0 1.034-.997 1.717-2.308 1.717-1.126 0-2.123-.498-2.216-1.57h-1.182c.111 1.552 1.367 2.604 3.398 2.604 2.179 0 3.416-1.2 3.416-2.733 0-1.772-1.68-2.345-2.659-2.603l-.96-.259c-.702-.185-1.828-.554-1.828-1.57 0-.904.831-1.569 2.087-1.569 1.144 0 2.012.545 2.123 1.477zm5.945 7.239c1.44 0 2.493-.72 2.825-1.791l-1.052-.296c-.277.739-.919 1.108-1.773 1.108-1.279 0-2.161-.826-2.211-2.345h5.147v-.462c0-2.64-1.57-3.545-3.047-3.545-1.92 0-3.194 1.514-3.194 3.693s1.255 3.638 3.305 3.638zm-2.211-4.266c.074-1.103.854-2.087 2.1-2.087 1.182 0 1.939.887 1.939 2.087h-4.039zm8.891 4.284c1.237 0 1.884-.665 2.105-1.126h.056v.96h1.089v-4.672c0-2.253-1.717-2.511-2.622-2.511-1.071 0-2.29.369-2.844 1.662l1.034.369c.24-.517.808-1.071 1.847-1.071 1.002 0 1.496.531 1.496 1.44v.037c0 .527-.536.48-1.829.647-1.315.17-2.751.461-2.751 2.086 0 1.385 1.071 2.179 2.419 2.179zm.166-.978c-.868 0-1.495-.388-1.495-1.145 0-.831.757-1.09 1.606-1.201.462-.055 1.699-.184 1.884-.406v.997c0 .887-.702 1.755-1.995 1.755zm5.073.812h1.089v-4.487c0-.96.757-1.662 1.791-1.662a3.29 3.29 0 0 1 .665.074v-1.108l-.572-.019c-.85 0-1.588.48-1.847 1.182h-.074v-1.071h-1.052V583zm7.501.148c1.57 0 2.604-.96 2.789-2.216h-1.09c-.203.775-.849 1.237-1.699 1.237-1.292 0-2.123-1.071-2.123-2.714 0-1.607.849-2.66 2.123-2.66.961 0 1.533.591 1.699 1.238h1.09c-.185-1.33-1.311-2.216-2.807-2.216-1.921 0-3.195 1.514-3.195 3.674 0 2.124 1.219 3.657 3.213 3.657zm5.471-4.414c0-1.237.789-1.939 1.865-1.939 1.025 0 1.643.647 1.643 1.773V583h1.09v-4.506c0-1.823-.97-2.677-2.419-2.677-1.117 0-1.754.466-2.087 1.2h-.092v-3.472h-1.09V583h1.09v-4.266z" fill="#e5e5e5"/><path d="M489.406 486.5c-.297-1.641-1.609-2.609-3.218-2.609-2.047 0-3.532 1.578-3.532 4.109s1.485 4.109 3.532 4.109c1.609 0 2.921-.968 3.218-2.609h-.968c-.235 1.109-1.188 1.703-2.25 1.703-1.454 0-2.594-1.125-2.594-3.203s1.14-3.203 2.594-3.203c1.062 0 2.015.594 2.25 1.703h.968zm3.988 5.625c1.625 0 2.719-1.234 2.719-3.094 0-1.875-1.094-3.109-2.719-3.109s-2.719 1.234-2.719 3.109c0 1.86 1.094 3.094 2.719 3.094zm0-.828c-1.234 0-1.797-1.063-1.797-2.266s.563-2.281 1.797-2.281 1.797 1.078 1.797 2.281-.562 2.266-1.797 2.266zm4.236.703h.922v-3.75c0-.879.641-1.5 1.359-1.5.7 0 1.188.457 1.188 1.141V492h.937v-3.906c0-.774.485-1.344 1.329-1.344.656 0 1.218.348 1.218 1.234V492h.922v-4.016c0-1.41-.758-2.062-1.828-2.062-.859 0-1.488.394-1.797 1.015h-.062c-.297-.64-.821-1.015-1.61-1.015-.781 0-1.359.375-1.609 1.015h-.078V486h-.891v6zm9.671 0h.922v-3.75c0-.879.64-1.5 1.359-1.5.699 0 1.187.457 1.187 1.141V492h.938v-3.906c0-.774.484-1.344 1.328-1.344.656 0 1.219.348 1.219 1.234V492h.922v-4.016c0-1.41-.758-2.062-1.828-2.062-.86 0-1.489.394-1.797 1.015h-.063c-.297-.64-.82-1.015-1.609-1.015-.781 0-1.36.375-1.61 1.015h-.078V486h-.89v6zm11.436.141c1.047 0 1.594-.563 1.781-.954h.047V492h.922v-3.953c0-1.906-1.453-2.125-2.219-2.125-.906 0-1.937.312-2.406 1.406l.875.313c.203-.438.683-.907 1.562-.907.848 0 1.266.45 1.266 1.219v.031c0 .446-.453.407-1.547.547-1.113.145-2.328.391-2.328 1.766 0 1.172.906 1.844 2.047 1.844zm.14-.829c-.734 0-1.265-.328-1.265-.968 0-.703.64-.922 1.359-1.016.391-.047 1.438-.156 1.594-.344v.844c0 .75-.594 1.484-1.688 1.484zm5.324-2.921c0-1.047.649-1.641 1.532-1.641.855 0 1.375.559 1.375 1.5V492h.921v-3.812c0-1.532-.816-2.266-2.031-2.266-.906 0-1.469.406-1.75 1.015h-.078V486h-.891v6h.922v-3.609zm7.889 3.734c1.156 0 1.547-.719 1.75-1.047h.109V492h.891v-8h-.922v2.953h-.078c-.203-.312-.563-1.031-1.735-1.031-1.515 0-2.562 1.203-2.562 3.094 0 1.906 1.047 3.109 2.547 3.109zm.125-.828c-1.157 0-1.75-1.016-1.75-2.297 0-1.266.578-2.25 1.75-2.25 1.125 0 1.718.906 1.718 2.25 0 1.359-.609 2.297-1.718 2.297zm8.801-3.953c-.289-.852-.937-1.422-2.125-1.422-1.266 0-2.203.719-2.203 1.734 0 .828.492 1.383 1.594 1.641l1 .234c.605.141.89.43.89.844 0 .516-.547.937-1.406.937-.754 0-1.226-.324-1.391-.968l-.875.218c.215 1.02 1.055 1.563 2.282 1.563 1.394 0 2.343-.762 2.343-1.797 0-.836-.523-1.363-1.593-1.625l-.891-.219c-.711-.175-1.031-.414-1.031-.875 0-.515.547-.89 1.281-.89.805 0 1.137.445 1.297.859l.828-.234z" fill="gray"/></g></g><defs><filter id="A" x="447" y="218" width="546" height="384" filterUnits="userSpaceOnUse" color-interpolation-filters="sRGB"><feFlood flood-opacity="0" result="A"/><feColorMatrix in="SourceAlpha" values="0 0 0 0 0 0 0 0 0 0 0 0 0 0 0 0 0 0 127 0"/><feOffset dy="5"/><feGaussianBlur stdDeviation="8.5"/><feColorMatrix values="0 0 0 0 0 0 0 0 0 0 0 0 0 0 0 0 0 0 0.2 0"/><feBlend in2="A" result="C"/><feColorMatrix in="SourceAlpha" values="0 0 0 0 0 0 0 0 0 0 0 0 0 0 0 0 0 0 127 0"/><feOffset dy="2"/><feGaussianBlur stdDeviation="3.5"/><feColorMatrix values="0 0 0 0 0 0 0 0 0 0 0 0 0 0 0 0 0 0 0.15 0"/><feBlend in2="C"/><feBlend in="SourceGraphic"/></filter><clipPath id="B"><path d="M464 234a4 4 0 0 1 4-4h504a4 4 0 0 1 4 4v342a4 4 0 0 1-4 4H468a4 4 0 0 1-4-4V234z" fill="#fff"/></clipPath><path id="C" d="M494.25 508.083a.5.5 0 1 0-1 0h1zm-1 11.834a.5.5 0 1 0 1 0h-1zm.167-11.834a.5.5 0 1 0-1 0h1zm-1 11.834a.5.5 0 1 0 1 0h-1zm.916-11.334h9.334v-1h-9.334v1zm10.084.75v9.334h1v-9.334h-1zm-.75 10.084h-9.334v1h9.334v-1zm-10.084-.75v-9.334h-1v9.334h1zm.75.75a.75.75 0 0 1-.75-.75h-1a1.75 1.75 0 0 0 1.75 1.75v-1zm10.084-.75a.75.75 0 0 1-.75.75v1a1.75 1.75 0 0 0 1.75-1.75h-1zm-.75-10.084a.75.75 0 0 1 .75.75h1a1.75 1.75 0 0 0-1.75-1.75v1zm-9.334-1a1.75 1.75 0 0 0-1.75 1.75h1a.75.75 0 0 1 .75-.75v-1zm-.083.5v11.834h1v-11.834h-1zm-.833 0v11.834h1v-11.834h-1z"/></defs></svg>