<svg width="1440" height="810" viewBox="0 0 1440 810" fill="none" xmlns="http://www.w3.org/2000/svg">
<g filter="url(#filter0_dd_67_4832)">
<g clip-path="url(#clip0_67_4832)">
<path d="M464 234C464 231.791 465.791 230 468 230H972C974.209 230 976 231.791 976 234V576C976 578.209 974.209 580 972 580H468C465.791 580 464 578.209 464 576V234Z" fill="#373737"/>
<line x1="474" y1="279.5" x2="962" y2="279.5" stroke="#E5E5E5" stroke-opacity="0.1"/>
<text fill="#757575" xml:space="preserve" style="white-space: pre" font-family="Inter" font-size="16" letter-spacing="-0.015em"><tspan x="474" y="261.818">Type a command or search...</tspan></text>
<rect x="474.009" y="246" width="1" height="19" fill="white"/>
<text fill="#808080" xml:space="preserve" style="white-space: pre" font-family="Inter" font-size="11" letter-spacing="0.01em"><tspan x="482" y="304">File System</tspan></text>
<path fill-rule="evenodd" clip-rule="evenodd" d="M492.313 324.605C492.313 322.234 494.235 320.313 496.605 320.313C498.976 320.313 500.898 322.234 500.898 324.605C500.898 325.717 500.475 326.73 499.781 327.493C499.717 327.517 499.658 327.555 499.606 327.606C499.555 327.658 499.517 327.717 499.493 327.781C498.73 328.475 497.717 328.897 496.605 328.897C494.235 328.897 492.313 326.976 492.313 324.605ZM499.977 328.684C499.062 329.442 497.887 329.897 496.605 329.897C493.682 329.897 491.313 327.528 491.313 324.605C491.313 321.682 493.682 319.313 496.605 319.313C499.528 319.313 501.898 321.682 501.898 324.605C501.898 325.886 501.442 327.062 500.684 327.977L504.147 331.44C504.343 331.635 504.343 331.952 504.147 332.147C503.952 332.343 503.636 332.343 503.44 332.147L499.977 328.684Z" fill="#999999"/>
<text fill="#E5E5E5" xml:space="preserve" style="white-space: pre" font-family="Inter" font-size="13" letter-spacing="0em"><tspan x="514" y="330.727">File search</tspan></text>
<rect x="938" y="318" width="16" height="16" rx="2" fill="#585858"/>
<text fill="#C5C5C5" xml:space="preserve" style="white-space: pre" font-family="Inter" font-size="10" font-weight="500" letter-spacing="-0.01em"><tspan x="944.164" y="329.136">/</tspan></text>
<path fill-rule="evenodd" clip-rule="evenodd" d="M497.709 352.985C497.818 352.731 497.701 352.437 497.447 352.328C497.193 352.219 496.899 352.337 496.79 352.591L492.29 363.091C492.182 363.344 492.299 363.638 492.553 363.747C492.807 363.856 493.101 363.738 493.209 363.485L497.709 352.985ZM501.5 354.25C501.5 353.974 501.276 353.75 501 353.75C500.724 353.75 500.5 353.974 500.5 354.25L500.5 356.384L498.652 355.317C498.413 355.179 498.107 355.261 497.969 355.5C497.831 355.739 497.913 356.045 498.152 356.183L500 357.25L498.152 358.317C497.913 358.455 497.831 358.761 497.969 359C498.107 359.239 498.413 359.321 498.652 359.183L500.5 358.116L500.5 360.25C500.5 360.526 500.724 360.75 501 360.75C501.276 360.75 501.5 360.526 501.5 360.25L501.5 358.116L503.348 359.183C503.587 359.321 503.893 359.239 504.031 359C504.169 358.761 504.087 358.455 503.848 358.317L502 357.25L503.848 356.183C504.087 356.045 504.169 355.739 504.031 355.5C503.893 355.261 503.587 355.179 503.348 355.317L501.5 356.384L501.5 354.25Z" fill="#999999"/>
<text fill="#E5E5E5" xml:space="preserve" style="white-space: pre" font-family="Inter" font-size="13" letter-spacing="0em"><tspan x="514" y="362.727">App.js</tspan></text>
<text opacity="0.7" fill="#808080" xml:space="preserve" style="white-space: pre" font-family="Inter" font-size="12" letter-spacing="0.005em"><tspan x="561" y="363.864">website/docs/src</tspan></text>
<path fill-rule="evenodd" clip-rule="evenodd" d="M497.709 384.985C497.818 384.731 497.701 384.437 497.447 384.328C497.193 384.219 496.899 384.337 496.79 384.591L492.29 395.091C492.182 395.344 492.299 395.638 492.553 395.747C492.807 395.856 493.101 395.738 493.209 395.485L497.709 384.985ZM501.5 386.25C501.5 385.974 501.276 385.75 501 385.75C500.724 385.75 500.5 385.974 500.5 386.25L500.5 388.384L498.652 387.317C498.413 387.179 498.107 387.261 497.969 387.5C497.831 387.739 497.913 388.045 498.152 388.183L500 389.25L498.152 390.317C497.913 390.455 497.831 390.761 497.969 391C498.107 391.239 498.413 391.321 498.652 391.183L500.5 390.116L500.5 392.25C500.5 392.526 500.724 392.75 501 392.75C501.276 392.75 501.5 392.526 501.5 392.25L501.5 390.116L503.348 391.183C503.587 391.321 503.893 391.239 504.031 391C504.169 390.761 504.087 390.455 503.848 390.317L502 389.25L503.848 388.183C504.087 388.045 504.169 387.739 504.031 387.5C503.893 387.261 503.587 387.179 503.348 387.317L501.5 388.384L501.5 386.25Z" fill="#999999"/>
<text fill="#E5E5E5" xml:space="preserve" style="white-space: pre" font-family="Inter" font-size="13" letter-spacing="0em"><tspan x="514" y="394.727">index.js</tspan></text>
<text opacity="0.7" fill="#808080" xml:space="preserve" style="white-space: pre" font-family="Inter" font-size="12" letter-spacing="0.005em"><tspan x="569" y="395.864">website/docs/component/Toogle</tspan></text>
<text fill="#808080" xml:space="preserve" style="white-space: pre" font-family="Inter" font-size="11" letter-spacing="0.01em"><tspan x="482" y="430">Terminals</tspan></text>
<path d="M491 452H505M498 445V459" stroke="#999999" stroke-linecap="round"/>
<text fill="#E5E5E5" xml:space="preserve" style="white-space: pre" font-family="Inter" font-size="13" letter-spacing="0em"><tspan x="514" y="456.727">Add New Terminal</tspan></text>
<path d="M494.25 508.083C494.25 507.807 494.026 507.583 493.75 507.583C493.473 507.583 493.25 507.807 493.25 508.083L494.25 508.083ZM493.25 519.917C493.25 520.193 493.473 520.417 493.75 520.417C494.026 520.417 494.25 520.193 494.25 519.917H493.25ZM493.417 508.083C493.417 507.807 493.193 507.583 492.917 507.583C492.641 507.583 492.417 507.807 492.417 508.083L493.417 508.083ZM492.417 519.917C492.417 520.193 492.641 520.417 492.917 520.417C493.193 520.417 493.417 520.193 493.417 519.917H492.417ZM493.333 508.583H502.667V507.583H493.333V508.583ZM503.417 509.333V518.667H504.417V509.333H503.417ZM502.667 519.417H493.333V520.417H502.667V519.417ZM492.583 518.667V509.333H491.583V518.667H492.583ZM493.333 519.417C492.919 519.417 492.583 519.081 492.583 518.667H491.583C491.583 519.633 492.367 520.417 493.333 520.417V519.417ZM503.417 518.667C503.417 519.081 503.081 519.417 502.667 519.417V520.417C503.633 520.417 504.417 519.633 504.417 518.667H503.417ZM502.667 508.583C503.081 508.583 503.417 508.919 503.417 509.333H504.417C504.417 508.367 503.633 507.583 502.667 507.583V508.583ZM493.333 507.583C492.367 507.583 491.583 508.367 491.583 509.333H492.583C492.583 508.919 492.919 508.583 493.333 508.583V507.583ZM493.25 508.083L493.25 519.917H494.25L494.25 508.083L493.25 508.083ZM492.417 508.083L492.417 519.917H493.417L493.417 508.083L492.417 508.083Z" fill="#999999"/>
<text fill="#E5E5E5" xml:space="preserve" style="white-space: pre" font-family="Inter" font-size="13" letter-spacing="0em"><tspan x="514" y="518.727">Show Files</tspan></text>
<path d="M494.25 540.083C494.25 539.807 494.026 539.583 493.75 539.583C493.473 539.583 493.25 539.807 493.25 540.083L494.25 540.083ZM493.25 551.917C493.25 552.193 493.473 552.417 493.75 552.417C494.026 552.417 494.25 552.193 494.25 551.917H493.25ZM493.417 540.083C493.417 539.807 493.193 539.583 492.917 539.583C492.641 539.583 492.417 539.807 492.417 540.083L493.417 540.083ZM492.417 551.917C492.417 552.193 492.641 552.417 492.917 552.417C493.193 552.417 493.417 552.193 493.417 551.917H492.417ZM493.333 540.583H502.667V539.583H493.333V540.583ZM503.417 541.333V550.667H504.417V541.333H503.417ZM502.667 551.417H493.333V552.417H502.667V551.417ZM492.583 550.667V541.333H491.583V550.667H492.583ZM493.333 551.417C492.919 551.417 492.583 551.081 492.583 550.667H491.583C491.583 551.633 492.367 552.417 493.333 552.417V551.417ZM503.417 550.667C503.417 551.081 503.081 551.417 502.667 551.417V552.417C503.633 552.417 504.417 551.633 504.417 550.667H503.417ZM502.667 540.583C503.081 540.583 503.417 540.919 503.417 541.333H504.417C504.417 540.367 503.633 539.583 502.667 539.583V540.583ZM493.333 539.583C492.367 539.583 491.583 540.367 491.583 541.333H492.583C492.583 540.919 492.919 540.583 493.333 540.583V539.583ZM493.25 540.083L493.25 551.917H494.25L494.25 540.083L493.25 540.083ZM492.417 540.083L492.417 551.917H493.417L493.417 540.083L492.417 540.083Z" fill="#999999"/>
<text fill="#E5E5E5" xml:space="preserve" style="white-space: pre" font-family="Inter" font-size="13" letter-spacing="0em"><tspan x="514" y="550.727">Show Git Changes</tspan></text>
<path d="M494.25 572.083C494.25 571.807 494.026 571.583 493.75 571.583C493.473 571.583 493.25 571.807 493.25 572.083L494.25 572.083ZM493.25 583.917C493.25 584.193 493.473 584.417 493.75 584.417C494.026 584.417 494.25 584.193 494.25 583.917H493.25ZM493.417 572.083C493.417 571.807 493.193 571.583 492.917 571.583C492.641 571.583 492.417 571.807 492.417 572.083L493.417 572.083ZM492.417 583.917C492.417 584.193 492.641 584.417 492.917 584.417C493.193 584.417 493.417 584.193 493.417 583.917H492.417ZM493.333 572.583H502.667V571.583H493.333V572.583ZM503.417 573.333V582.667H504.417V573.333H503.417ZM502.667 583.417H493.333V584.417H502.667V583.417ZM492.583 582.667V573.333H491.583V582.667H492.583ZM493.333 583.417C492.919 583.417 492.583 583.081 492.583 582.667H491.583C491.583 583.633 492.367 584.417 493.333 584.417V583.417ZM503.417 582.667C503.417 583.081 503.081 583.417 502.667 583.417V584.417C503.633 584.417 504.417 583.633 504.417 582.667H503.417ZM502.667 572.583C503.081 572.583 503.417 572.919 503.417 573.333H504.417C504.417 572.367 503.633 571.583 502.667 571.583V572.583ZM493.333 571.583C492.367 571.583 491.583 572.367 491.583 573.333H492.583C492.583 572.919 492.919 572.583 493.333 572.583V571.583ZM493.25 572.083L493.25 583.917H494.25L494.25 572.083L493.25 572.083ZM492.417 572.083L492.417 583.917H493.417L493.417 572.083L492.417 572.083Z" fill="#999999"/>
<text fill="#E5E5E5" xml:space="preserve" style="white-space: pre" font-family="Inter" font-size="13" letter-spacing="0em"><tspan x="514" y="582.727">Show Code Search</tspan></text>
<text fill="#808080" xml:space="preserve" style="white-space: pre" font-family="Inter" font-size="11" letter-spacing="0.01em"><tspan x="482" y="492">Commands</tspan></text>
</g>
</g>
<defs>
<filter id="filter0_dd_67_4832" x="447" y="218" width="546" height="384" filterUnits="userSpaceOnUse" color-interpolation-filters="sRGB">
<feFlood flood-opacity="0" result="BackgroundImageFix"/>
<feColorMatrix in="SourceAlpha" type="matrix" values="0 0 0 0 0 0 0 0 0 0 0 0 0 0 0 0 0 0 127 0" result="hardAlpha"/>
<feOffset dy="5"/>
<feGaussianBlur stdDeviation="8.5"/>
<feColorMatrix type="matrix" values="0 0 0 0 0 0 0 0 0 0 0 0 0 0 0 0 0 0 0.2 0"/>
<feBlend mode="normal" in2="BackgroundImageFix" result="effect1_dropShadow_67_4832"/>
<feColorMatrix in="SourceAlpha" type="matrix" values="0 0 0 0 0 0 0 0 0 0 0 0 0 0 0 0 0 0 127 0" result="hardAlpha"/>
<feOffset dy="2"/>
<feGaussianBlur stdDeviation="3.5"/>
<feColorMatrix type="matrix" values="0 0 0 0 0 0 0 0 0 0 0 0 0 0 0 0 0 0 0.15 0"/>
<feBlend mode="normal" in2="effect1_dropShadow_67_4832" result="effect2_dropShadow_67_4832"/>
<feBlend mode="normal" in="SourceGraphic" in2="effect2_dropShadow_67_4832" result="shape"/>
</filter>
<clipPath id="clip0_67_4832">
<path d="M464 234C464 231.791 465.791 230 468 230H972C974.209 230 976 231.791 976 234V576C976 578.209 974.209 580 972 580H468C465.791 580 464 578.209 464 576V234Z" fill="white"/>
</clipPath>
</defs>
</svg>
