<svg width="1440" height="810" viewBox="0 0 1440 810" fill="none" xmlns="http://www.w3.org/2000/svg">
<path d="M343 62C343 60.8954 343.895 60 345 60H466C467.105 60 468 60.8954 468 62V83C468 84.1046 467.105 85 466 85H345C343.895 85 343 84.1046 343 83V62Z" fill="#151515"/>
<text fill="#999999" xml:space="preserve" style="white-space: pre" font-family="Inter" font-size="13" letter-spacing="0em"><tspan x="351" y="76.7273">renderScene.js</tspan></text>
<text fill="#E5E5E5" xml:space="preserve" style="white-space: pre" font-family="Inter" font-size="13" letter-spacing="0em"><tspan x="476" y="76.7273">project.json</tspan></text>
<g clip-path="url(#clip0_8_915)">
<rect width="603" height="713" transform="translate(240 97)" fill="#151515"/>
<text fill="#636363" xml:space="preserve" style="white-space: pre" font-family="Fira Code" font-size="11" font-weight="300" letter-spacing="0em"><tspan x="247.232" y="112.385">1&#10;</tspan><tspan x="247.232" y="136.385">2&#10;</tspan><tspan x="247.232" y="160.385">3&#10;</tspan><tspan x="247.232" y="184.385">4&#10;</tspan><tspan x="247.232" y="208.385">5&#10;</tspan><tspan x="247.232" y="232.385">6&#10;</tspan><tspan x="247.232" y="256.385">7&#10;</tspan><tspan x="247.232" y="280.385">8&#10;</tspan><tspan x="247.232" y="304.385">9&#10;</tspan><tspan x="240.465" y="328.385">10&#10;</tspan><tspan x="240.465" y="352.385">11&#10;</tspan><tspan x="240.465" y="376.385">12&#10;</tspan><tspan x="240.465" y="400.385">13&#10;</tspan><tspan x="240.465" y="424.385">14&#10;</tspan><tspan x="240.465" y="448.385">15&#10;</tspan><tspan x="240.465" y="472.385">16&#10;</tspan><tspan x="240.465" y="496.385">17&#10;</tspan><tspan x="240.465" y="520.385">18&#10;</tspan><tspan x="240.465" y="544.385">19&#10;</tspan><tspan x="240.465" y="568.385">20&#10;</tspan><tspan x="240.465" y="592.385">21&#10;</tspan><tspan x="240.465" y="616.385">22&#10;</tspan><tspan x="240.465" y="640.385">23&#10;</tspan><tspan x="240.465" y="664.385">24&#10;</tspan><tspan x="240.465" y="688.385">25&#10;</tspan><tspan x="240.465" y="712.385">26&#10;</tspan><tspan x="240.465" y="736.385">27&#10;</tspan><tspan x="240.465" y="760.385">28&#10;</tspan><tspan x="240.465" y="784.385">29&#10;</tspan><tspan x="240.465" y="808.385">30</tspan></text>
<text fill="#E5E5E5" xml:space="preserve" style="white-space: pre" font-family="Fira Code" font-size="14" letter-spacing="0em"><tspan x="276" y="113.308">{&#10;</tspan><tspan x="276" y="137.308">    &#34;previews&#34;: {&#10;</tspan><tspan x="276" y="161.308">        &#34;3000&#34;: {&#10;</tspan><tspan x="276" y="185.308">            &#34;name&#34;: </tspan><tspan x="560.238" y="185.308">,&#10;</tspan><tspan x="276" y="209.308">            &#34;command&#34;: </tspan><tspan x="276" y="233.308">        }&#10;</tspan><tspan x="276" y="257.308">    },&#10;</tspan><tspan x="276" y="281.308">    &#34;tasks&#34;: {&#10;</tspan><tspan x="276" y="305.308">        &#34;format&#34;: {&#10;</tspan><tspan x="276" y="329.308">            &#34;name&#34;: </tspan><tspan x="603.305" y="329.308">,&#10;</tspan><tspan x="276" y="353.308">            &#34;command&#34;: </tspan><tspan x="276" y="377.308">        },&#10;</tspan><tspan x="276" y="401.308">        &#34;fix&#34;: {&#10;</tspan><tspan x="276" y="425.308">            &#34;name&#34;: </tspan><tspan x="534.398" y="425.308">,&#10;</tspan><tspan x="276" y="449.308">            &#34;command&#34;: </tspan><tspan x="276" y="473.308">        },&#10;</tspan><tspan x="276" y="497.308">        &#34;testall&#34;: {&#10;</tspan><tspan x="276" y="521.308">            &#34;name&#34;: </tspan><tspan x="534.398" y="521.308">,&#10;</tspan><tspan x="276" y="545.308">            &#34;command&#34;: </tspan><tspan x="276" y="569.308">        },&#10;</tspan><tspan x="276" y="593.308">        &#34;testapp&#34;: {&#10;</tspan><tspan x="276" y="617.308">            &#34;name&#34;: </tspan><tspan x="534.398" y="617.308">,&#10;</tspan><tspan x="276" y="641.308">            &#34;command&#34;: </tspan><tspan x="276" y="665.308">        },&#10;</tspan><tspan x="276" y="689.308">        &#34;release&#34;: {&#10;</tspan><tspan x="276" y="713.308">            &#34;name&#34;: </tspan><tspan x="525.785" y="713.308">,&#10;</tspan><tspan x="276" y="737.308">            &#34;command&#34;: </tspan><tspan x="276" y="761.308">        }&#10;</tspan><tspan x="276" y="785.308">    },&#10;</tspan><tspan x="276" y="809.308">    &#34;setupTasks&#34;: [&#10;</tspan><tspan x="276" y="833.308">        {&#10;</tspan><tspan x="276" y="857.308">            &#34;name&#34;: </tspan><tspan x="663.598" y="857.308">,&#10;</tspan><tspan x="276" y="881.308">            &#34;command&#34;: </tspan><tspan x="276" y="905.308">        }&#10;</tspan><tspan x="276" y="929.308">    ]&#10;</tspan><tspan x="276" y="953.308">}&#10;</tspan></text>
<text fill="#BFD084" xml:space="preserve" style="white-space: pre" font-family="Fira Code" font-size="14" letter-spacing="0em"><tspan x="448.266" y="185.308">&#34;Application&#34;</tspan><tspan x="474.105" y="209.308">&#34;yarn run start&#34;&#10;</tspan><tspan x="448.266" y="329.308">&#34;Format workspace&#34;</tspan><tspan x="474.105" y="353.308">&#34;yarn prettier&#34;&#10;</tspan><tspan x="448.266" y="425.308">&#34;Fix lint&#34;</tspan><tspan x="474.105" y="449.308">&#34;yarn fix:code&#34;&#10;</tspan><tspan x="448.266" y="521.308">&#34;Test all&#34;</tspan><tspan x="474.105" y="545.308">&#34;yarn test:all&#34;&#10;</tspan><tspan x="448.266" y="617.308">&#34;Test app&#34;</tspan><tspan x="474.105" y="641.308">&#34;yarn run test:app&#34;&#10;</tspan><tspan x="448.266" y="713.308">&#34;Release&#34;</tspan><tspan x="474.105" y="737.308">&#34;yarn run autorelease&#34;&#10;</tspan><tspan x="448.266" y="857.308">&#34;Installing Dependencies&#34;</tspan><tspan x="474.105" y="881.308">&#34;yarn install&#34;&#10;</tspan></text>
</g>
<path d="M26 138C26 135.791 27.7909 134 30 134H217C219.209 134 221 135.791 221 138V154C221 156.209 219.209 158 217 158H30C27.7909 158 26 156.209 26 154V138Z" fill="#151515"/>
<path fill-rule="evenodd" clip-rule="evenodd" d="M38 142.25C38 141.698 38.4477 141.25 39 141.25H42.2501V144.4C42.2501 144.731 42.5187 145 42.8501 145H46V150.5C46 151.052 45.5523 151.5 45 151.5H39C38.4477 151.5 38 151.052 38 150.5V142.25ZM47 144.51C47.0001 144.506 47.0001 144.503 47.0001 144.5C47.0001 144.497 47.0001 144.493 47 144.49V144.371C47 143.841 46.7893 143.332 46.4142 142.957L44.2929 140.836C43.9178 140.461 43.4091 140.25 42.8787 140.25H42.7501H39C37.8954 140.25 37 141.145 37 142.25V150.5C37 151.604 37.8954 152.5 39 152.5H45C46.1046 152.5 47 151.604 47 150.5V144.51ZM43.2501 141.321C43.3746 141.371 43.4891 141.446 43.5858 141.543L45.7071 143.664C45.8038 143.761 45.8787 143.875 45.9285 144H43.2501V141.321Z" fill="#E5E5E5"/>
<text fill="#E5E5E5" xml:space="preserve" style="white-space: pre" font-family="Inter" font-size="13" letter-spacing="0em"><tspan x="58" y="150.727">project.json</tspan></text>
<path d="M48 584C48 581.791 49.7909 580 52 580H188C190.209 580 192 581.791 192 584V600C192 602.209 190.209 604 188 604H52C49.7909 604 48 602.209 48 600V584Z" fill="#151515"/>
<path fill-rule="evenodd" clip-rule="evenodd" d="M63.7095 586.985C63.8182 586.731 63.7007 586.437 63.4468 586.328C63.193 586.219 62.8991 586.337 62.7903 586.591L58.2903 597.091C58.1815 597.344 58.2991 597.638 58.5529 597.747C58.8067 597.856 59.1007 597.738 59.2095 597.485L63.7095 586.985ZM67.5001 588.25C67.5001 587.974 67.2762 587.75 67.0001 587.75C66.7239 587.75 66.5001 587.974 66.5001 588.25L66.5001 590.384L64.6518 589.317C64.4127 589.179 64.1069 589.261 63.9688 589.5C63.8307 589.739 63.9127 590.045 64.1518 590.183L65.9999 591.25L64.1519 592.317C63.9128 592.455 63.8308 592.761 63.9689 593C64.107 593.239 64.4128 593.321 64.6519 593.183L66.5001 592.116L66.5001 594.25C66.5001 594.526 66.7239 594.75 67.0001 594.75C67.2762 594.75 67.5001 594.526 67.5001 594.25L67.5001 592.116L69.348 593.183C69.5871 593.321 69.8929 593.239 70.031 593C70.169 592.761 70.0871 592.455 69.848 592.317L67.9999 591.25L69.8481 590.183C70.0872 590.045 70.1691 589.739 70.0311 589.5C69.893 589.261 69.5872 589.179 69.3481 589.317L67.5001 590.384L67.5001 588.25Z" fill="#999999"/>
<text fill="#999999" xml:space="preserve" style="white-space: pre" font-family="Inter" font-size="13" letter-spacing="0em"><tspan x="80" y="596.727">renderScene.ts</tspan></text>
<rect x="211" y="288" width="24" height="24" rx="12" fill="#151515"/>
<rect x="211" y="456" width="24" height="24" rx="12" fill="#151515"/>
<defs>
<clipPath id="clip0_8_915">
<rect width="603" height="713" fill="white" transform="translate(240 97)"/>
</clipPath>
</defs>
</svg>
