<svg width="1440" height="810" viewBox="0 0 1440 810" fill="none" xmlns="http://www.w3.org/2000/svg" xmlns:xlink="http://www.w3.org/1999/xlink">
<g clip-path="url(#clip0_8_921)">
<rect width="1440" height="810" rx="6" fill="#151515"/>
<path d="M13.437 19.7502C13.1609 19.7502 12.937 19.9741 12.937 20.2502C12.937 20.5264 13.1609 20.7502 13.437 20.7502V19.7502ZM26.562 20.7502C26.8382 20.7502 27.062 20.5264 27.062 20.2502C27.062 19.9741 26.8382 19.7502 26.562 19.7502V20.7502ZM13.437 23.5C13.1609 23.5 12.937 23.7239 12.937 24C12.937 24.2762 13.1609 24.5 13.437 24.5V23.5ZM26.562 24.5C26.8382 24.5 27.062 24.2762 27.062 24C27.062 23.7239 26.8382 23.5 26.562 23.5V24.5ZM13.437 27.2498C13.1609 27.2498 12.937 27.4736 12.937 27.7498C12.937 28.0259 13.1609 28.2498 13.437 28.2498V27.2498ZM19.562 28.2498C19.8382 28.2498 20.062 28.0259 20.062 27.7498C20.062 27.4736 19.8382 27.2498 19.562 27.2498V28.2498ZM13.437 20.7502H26.562V19.7502H13.437V20.7502ZM13.437 24.5H26.562V23.5H13.437V24.5ZM13.437 28.2498H19.562V27.2498H13.437V28.2498Z" fill="#999999"/>
<text fill="#999999" xml:space="preserve" style="white-space: pre" font-family="Inter" font-size="13" letter-spacing="0em"><tspan x="640.5" y="28.7273">excalidraw</tspan></text>
<path d="M717 21C716.724 21 716.5 21.2239 716.5 21.5C716.5 21.7761 716.724 22 717 22V21ZM721.764 22.134L721.298 22.317L721.764 22.134ZM723.466 26.4622L723.001 26.6452H723.001L723.466 26.4622ZM729.312 27.5962C729.588 27.5962 729.812 27.3723 729.812 27.0962C729.812 26.82 729.588 26.5962 729.312 26.5962V27.5962ZM728.098 24.467C727.903 24.2717 727.586 24.2717 727.391 24.467C727.196 24.6623 727.196 24.9788 727.391 25.1741L728.098 24.467ZM729.95 27.0256L730.303 26.6721L729.95 27.0256ZM729.95 27.167L729.596 26.8135L729.596 26.8135L729.95 27.167ZM727.428 28.9812C727.233 29.1765 727.233 29.4931 727.428 29.6884C727.624 29.8836 727.94 29.8836 728.135 29.6884L727.428 28.9812ZM725.581 21C725.305 21 725.081 21.2239 725.081 21.5C725.081 21.7761 725.305 22 725.581 22V21ZM730.058 22C730.334 22 730.558 21.7761 730.558 21.5C730.558 21.2239 730.334 21 730.058 21V22ZM717 22H720.833V21H717V22ZM721.298 22.317L723.001 26.6452L723.931 26.2792L722.229 21.9509L721.298 22.317ZM724.397 27.5962H729.312V26.5962H724.397V27.5962ZM723.001 26.6452C723.226 27.219 723.78 27.5962 724.397 27.5962V26.5962C724.191 26.5962 724.007 26.4704 723.931 26.2792L723.001 26.6452ZM720.833 22C721.039 22 721.223 22.1257 721.298 22.317L722.229 21.9509C722.003 21.3772 721.45 21 720.833 21V22ZM727.391 25.1741L729.596 27.3792L730.303 26.6721L728.098 24.467L727.391 25.1741ZM729.596 26.8135L727.428 28.9812L728.135 29.6884L730.303 27.5206L729.596 26.8135ZM729.596 27.3792C729.44 27.223 729.44 26.9697 729.596 26.8135L730.303 27.5206C730.537 27.2863 730.537 26.9064 730.303 26.6721L729.596 27.3792ZM725.581 22L730.058 22V21L725.581 21V22Z" fill="#999999"/>
<text fill="#999999" xml:space="preserve" style="white-space: pre" font-family="Inter" font-size="13" letter-spacing="0em"><tspan x="739.5" y="28.7273">feature</tspan></text>
<path d="M793.5 24L791.571 25.9293C791.532 25.9683 791.468 25.9683 791.429 25.9293L789.5 24" stroke="#999999" stroke-linecap="round"/>
<text fill="#999999" xml:space="preserve" style="white-space: pre" font-family="Inter" font-size="13" font-weight="500" letter-spacing="0em"><tspan x="1312.05" y="28.7273">Share</tspan></text>
<text fill="#999999" xml:space="preserve" style="white-space: pre" font-family="Inter" font-size="13" font-weight="500" letter-spacing="0em"><tspan x="1374.84" y="28.7273">Fork</tspan></text>
<path d="M1422 24L1420.07 25.9293C1420.03 25.9683 1419.97 25.9683 1419.93 25.9293L1418 24" stroke="#999999" stroke-linecap="round"/>
<g clip-path="url(#clip1_8_921)">
<path fill-rule="evenodd" clip-rule="evenodd" d="M15.5 115C14.3954 115 13.5 115.895 13.5 117V123.75C13.5 124.855 14.3954 125.75 15.5 125.75H24.8288C25.7466 125.75 26.5465 125.125 26.7691 124.235L27.5191 121.235C27.7534 120.298 27.2877 119.383 26.5 118.973V118.5C26.5 117.395 25.6046 116.5 24.5 116.5H20.4542C20.2567 116.5 20.0637 116.442 19.8995 116.332L18.4052 115.336C18.0767 115.117 17.6907 115 17.2958 115H15.5ZM25.5 118.5V118.75H16.6712C15.7534 118.75 14.9535 119.375 14.7309 120.265L14.5 121.188V117C14.5 116.448 14.9477 116 15.5 116H17.2958C17.4933 116 17.6863 116.058 17.8505 116.168L19.3448 117.164C19.6733 117.383 20.0593 117.5 20.4542 117.5H24.5C25.0523 117.5 25.5 117.948 25.5 118.5Z" fill="#999999"/>
<text fill="#999999" xml:space="preserve" style="white-space: pre" font-family="Inter" font-size="13" letter-spacing="0em"><tspan x="36" y="124.727">.codesandbox</tspan></text>
<path fill-rule="evenodd" clip-rule="evenodd" d="M38 142.25C38 141.698 38.4477 141.25 39 141.25H42.2501V144.4C42.2501 144.731 42.5187 145 42.8501 145H46V150.5C46 151.052 45.5523 151.5 45 151.5H39C38.4477 151.5 38 151.052 38 150.5V142.25ZM47 144.51C47.0001 144.506 47.0001 144.503 47.0001 144.5C47.0001 144.497 47.0001 144.493 47 144.49V144.371C47 143.841 46.7893 143.332 46.4142 142.957L44.2929 140.836C43.9178 140.461 43.4091 140.25 42.8787 140.25H42.7501H39C37.8954 140.25 37 141.145 37 142.25V150.5C37 151.604 37.8954 152.5 39 152.5H45C46.1046 152.5 47 151.604 47 150.5V144.51ZM43.2501 141.321C43.3746 141.371 43.4891 141.446 43.5858 141.543L45.7071 143.664C45.8038 143.761 45.8787 143.875 45.9285 144H43.2501V141.321Z" fill="#999999"/>
<text fill="#999999" xml:space="preserve" style="white-space: pre" font-family="Inter" font-size="13" letter-spacing="0em"><tspan x="58" y="150.727">project.json</tspan></text>
<path fill-rule="evenodd" clip-rule="evenodd" d="M38 168.25C38 167.698 38.4477 167.25 39 167.25H42.2501V170.4C42.2501 170.731 42.5187 171 42.8501 171H46V176.5C46 177.052 45.5523 177.5 45 177.5H39C38.4477 177.5 38 177.052 38 176.5V168.25ZM47 170.51C47.0001 170.506 47.0001 170.503 47.0001 170.5C47.0001 170.497 47.0001 170.493 47 170.49V170.371C47 169.841 46.7893 169.332 46.4142 168.957L44.2929 166.836C43.9178 166.461 43.4091 166.25 42.8787 166.25H42.7501H39C37.8954 166.25 37 167.145 37 168.25V176.5C37 177.604 37.8954 178.5 39 178.5H45C46.1046 178.5 47 177.604 47 176.5V170.51ZM43.2501 167.321C43.3746 167.371 43.4891 167.446 43.5858 167.543L45.7071 169.664C45.8038 169.761 45.8787 169.875 45.9285 170H43.2501V167.321Z" fill="#999999"/>
<text fill="#999999" xml:space="preserve" style="white-space: pre" font-family="Inter" font-size="13" letter-spacing="0em"><tspan x="58" y="176.727">workspace.json</tspan></text>
<path d="M24.5001 203.25H15.5001C14.6717 203.25 14.0001 202.578 14.0001 201.75V195C14.0001 194.172 14.6717 193.5 15.5001 193.5H17.296C17.5921 193.5 17.8816 193.588 18.128 193.752L19.6222 194.748C19.8686 194.912 20.1581 195 20.4543 195H24.5001C25.3285 195 26.0001 195.672 26.0001 196.5V201.75C26.0001 202.578 25.3285 203.25 24.5001 203.25Z" fill="#999999" stroke="#999999" stroke-linecap="round"/>
<text fill="#999999" xml:space="preserve" style="white-space: pre" font-family="Inter" font-size="13" letter-spacing="0em"><tspan x="36" y="202.727">public</tspan></text>
<path d="M24.5001 229.25H15.5001C14.6717 229.25 14.0001 228.578 14.0001 227.75V221C14.0001 220.172 14.6717 219.5 15.5001 219.5H17.296C17.5921 219.5 17.8816 219.588 18.128 219.752L19.6222 220.748C19.8686 220.912 20.1581 221 20.4543 221H24.5001C25.3285 221 26.0001 221.672 26.0001 222.5V227.75C26.0001 228.578 25.3285 229.25 24.5001 229.25Z" fill="#999999" stroke="#999999" stroke-linecap="round"/>
<text fill="#999999" xml:space="preserve" style="white-space: pre" font-family="Inter" font-size="13" letter-spacing="0em"><tspan x="36" y="228.727">scripts</tspan></text>
<path fill-rule="evenodd" clip-rule="evenodd" d="M15.5 245C14.3954 245 13.5 245.895 13.5 247V253.75C13.5 254.855 14.3954 255.75 15.5 255.75H24.8288C25.7466 255.75 26.5465 255.125 26.7691 254.235L27.5191 251.235C27.7534 250.298 27.2877 249.383 26.5 248.973V248.5C26.5 247.395 25.6046 246.5 24.5 246.5H20.4542C20.2567 246.5 20.0637 246.442 19.8995 246.332L18.4052 245.336C18.0767 245.117 17.6907 245 17.2958 245H15.5ZM25.5 248.5V248.75H16.6712C15.7534 248.75 14.9535 249.375 14.7309 250.265L14.5 251.188V247C14.5 246.448 14.9477 246 15.5 246H17.2958C17.4933 246 17.6863 246.058 17.8505 246.168L19.3448 247.164C19.6733 247.383 20.0593 247.5 20.4542 247.5H24.5C25.0523 247.5 25.5 247.948 25.5 248.5Z" fill="#999999"/>
<text fill="#999999" xml:space="preserve" style="white-space: pre" font-family="Inter" font-size="13" letter-spacing="0em"><tspan x="36" y="254.727">src</tspan></text>
<path d="M46.5001 281.25H37.5001C36.6717 281.25 36.0001 280.578 36.0001 279.75V273C36.0001 272.172 36.6717 271.5 37.5001 271.5H39.296C39.5921 271.5 39.8816 271.588 40.128 271.752L41.6222 272.748C41.8686 272.912 42.1581 273 42.4543 273H46.5001C47.3285 273 48.0001 273.672 48.0001 274.5V279.75C48.0001 280.578 47.3285 281.25 46.5001 281.25Z" fill="#999999" stroke="#999999" stroke-linecap="round"/>
<text fill="#999999" xml:space="preserve" style="white-space: pre" font-family="Inter" font-size="13" letter-spacing="0em"><tspan x="58" y="280.727">actions</tspan></text>
<path d="M46.5001 307.25H37.5001C36.6717 307.25 36.0001 306.578 36.0001 305.75V299C36.0001 298.172 36.6717 297.5 37.5001 297.5H39.296C39.5921 297.5 39.8816 297.588 40.128 297.752L41.6222 298.748C41.8686 298.912 42.1581 299 42.4543 299H46.5001C47.3285 299 48.0001 299.672 48.0001 300.5V305.75C48.0001 306.578 47.3285 307.25 46.5001 307.25Z" fill="#999999" stroke="#999999" stroke-linecap="round"/>
<text fill="#999999" xml:space="preserve" style="white-space: pre" font-family="Inter" font-size="13" letter-spacing="0em"><tspan x="58" y="306.727">components</tspan></text>
<path d="M46.5001 333.25H37.5001C36.6717 333.25 36.0001 332.578 36.0001 331.75V325C36.0001 324.172 36.6717 323.5 37.5001 323.5H39.296C39.5921 323.5 39.8816 323.588 40.128 323.752L41.6222 324.748C41.8686 324.912 42.1581 325 42.4543 325H46.5001C47.3285 325 48.0001 325.672 48.0001 326.5V331.75C48.0001 332.578 47.3285 333.25 46.5001 333.25Z" fill="#999999" stroke="#999999" stroke-linecap="round"/>
<text fill="#999999" xml:space="preserve" style="white-space: pre" font-family="Inter" font-size="13" letter-spacing="0em"><tspan x="58" y="332.727">css</tspan></text>
<path d="M46.5001 359.25H37.5001C36.6717 359.25 36.0001 358.578 36.0001 357.75V351C36.0001 350.172 36.6717 349.5 37.5001 349.5H39.296C39.5921 349.5 39.8816 349.588 40.128 349.752L41.6222 350.748C41.8686 350.912 42.1581 351 42.4543 351H46.5001C47.3285 351 48.0001 351.672 48.0001 352.5V357.75C48.0001 358.578 47.3285 359.25 46.5001 359.25Z" fill="#999999" stroke="#999999" stroke-linecap="round"/>
<text fill="#999999" xml:space="preserve" style="white-space: pre" font-family="Inter" font-size="13" letter-spacing="0em"><tspan x="58" y="358.727">data</tspan></text>
<path d="M46.5001 385.25H37.5001C36.6717 385.25 36.0001 384.578 36.0001 383.75V377C36.0001 376.172 36.6717 375.5 37.5001 375.5H39.296C39.5921 375.5 39.8816 375.588 40.128 375.752L41.6222 376.748C41.8686 376.912 42.1581 377 42.4543 377H46.5001C47.3285 377 48.0001 377.672 48.0001 378.5V383.75C48.0001 384.578 47.3285 385.25 46.5001 385.25Z" fill="#999999" stroke="#999999" stroke-linecap="round"/>
<text fill="#999999" xml:space="preserve" style="white-space: pre" font-family="Inter" font-size="13" letter-spacing="0em"><tspan x="58" y="384.727">element</tspan></text>
<path d="M46.5001 411.25H37.5001C36.6717 411.25 36.0001 410.578 36.0001 409.75V403C36.0001 402.172 36.6717 401.5 37.5001 401.5H39.296C39.5921 401.5 39.8816 401.588 40.128 401.752L41.6222 402.748C41.8686 402.912 42.1581 403 42.4543 403H46.5001C47.3285 403 48.0001 403.672 48.0001 404.5V409.75C48.0001 410.578 47.3285 411.25 46.5001 411.25Z" fill="#999999" stroke="#999999" stroke-linecap="round"/>
<text fill="#999999" xml:space="preserve" style="white-space: pre" font-family="Inter" font-size="13" letter-spacing="0em"><tspan x="58" y="410.727">excalidraw-app</tspan></text>
<path d="M46.5001 437.25H37.5001C36.6717 437.25 36.0001 436.578 36.0001 435.75V429C36.0001 428.172 36.6717 427.5 37.5001 427.5H39.296C39.5921 427.5 39.8816 427.588 40.128 427.752L41.6222 428.748C41.8686 428.912 42.1581 429 42.4543 429H46.5001C47.3285 429 48.0001 429.672 48.0001 430.5V435.75C48.0001 436.578 47.3285 437.25 46.5001 437.25Z" fill="#999999" stroke="#999999" stroke-linecap="round"/>
<text fill="#999999" xml:space="preserve" style="white-space: pre" font-family="Inter" font-size="13" letter-spacing="0em"><tspan x="58" y="436.727">hooks</tspan></text>
<path d="M46.5001 463.25H37.5001C36.6717 463.25 36.0001 462.578 36.0001 461.75V455C36.0001 454.172 36.6717 453.5 37.5001 453.5H39.296C39.5921 453.5 39.8816 453.588 40.128 453.752L41.6222 454.748C41.8686 454.912 42.1581 455 42.4543 455H46.5001C47.3285 455 48.0001 455.672 48.0001 456.5V461.75C48.0001 462.578 47.3285 463.25 46.5001 463.25Z" fill="#999999" stroke="#999999" stroke-linecap="round"/>
<text fill="#999999" xml:space="preserve" style="white-space: pre" font-family="Inter" font-size="13" letter-spacing="0em"><tspan x="58" y="462.727">locales</tspan></text>
<path d="M46.5001 489.25H37.5001C36.6717 489.25 36.0001 488.578 36.0001 487.75V481C36.0001 480.172 36.6717 479.5 37.5001 479.5H39.296C39.5921 479.5 39.8816 479.588 40.128 479.752L41.6222 480.748C41.8686 480.912 42.1581 481 42.4543 481H46.5001C47.3285 481 48.0001 481.672 48.0001 482.5V487.75C48.0001 488.578 47.3285 489.25 46.5001 489.25Z" fill="#999999" stroke="#999999" stroke-linecap="round"/>
<text fill="#999999" xml:space="preserve" style="white-space: pre" font-family="Inter" font-size="13" letter-spacing="0em"><tspan x="58" y="488.727">packages</tspan></text>
<path fill-rule="evenodd" clip-rule="evenodd" d="M37.5 505C36.3954 505 35.5 505.895 35.5 507V513.75C35.5 514.855 36.3954 515.75 37.5 515.75H46.8288C47.7466 515.75 48.5465 515.125 48.7691 514.235L49.5191 511.235C49.7534 510.298 49.2877 509.383 48.5 508.973V508.5C48.5 507.395 47.6046 506.5 46.5 506.5H42.4542C42.2567 506.5 42.0637 506.442 41.8995 506.332L40.4052 505.336C40.0767 505.117 39.6907 505 39.2958 505H37.5ZM47.5 508.5V508.75H38.6712C37.7534 508.75 36.9535 509.375 36.7309 510.265L36.5 511.188V507C36.5 506.448 36.9477 506 37.5 506H39.2958C39.4933 506 39.6863 506.058 39.8505 506.168L41.3448 507.164C41.6733 507.383 42.0593 507.5 42.4542 507.5H46.5C47.0523 507.5 47.5 507.948 47.5 508.5Z" fill="#999999"/>
<text fill="#999999" xml:space="preserve" style="white-space: pre" font-family="Inter" font-size="13" letter-spacing="0em"><tspan x="58" y="514.727">renderer</tspan></text>
<path fill-rule="evenodd" clip-rule="evenodd" d="M63.7095 530.985C63.8182 530.731 63.7007 530.437 63.4468 530.328C63.193 530.219 62.8991 530.337 62.7903 530.591L58.2903 541.091C58.1815 541.344 58.2991 541.638 58.5529 541.747C58.8067 541.856 59.1007 541.738 59.2095 541.485L63.7095 530.985ZM67.5001 532.25C67.5001 531.974 67.2762 531.75 67.0001 531.75C66.7239 531.75 66.5001 531.974 66.5001 532.25L66.5001 534.384L64.6518 533.317C64.4127 533.179 64.1069 533.261 63.9688 533.5C63.8307 533.739 63.9127 534.045 64.1518 534.183L65.9999 535.25L64.1519 536.317C63.9128 536.455 63.8308 536.761 63.9689 537C64.107 537.239 64.4128 537.321 64.6519 537.183L66.5001 536.116L66.5001 538.25C66.5001 538.526 66.7239 538.75 67.0001 538.75C67.2762 538.75 67.5001 538.526 67.5001 538.25L67.5001 536.116L69.348 537.183C69.5871 537.321 69.8929 537.239 70.031 537C70.169 536.761 70.0871 536.455 69.848 536.317L67.9999 535.25L69.8481 534.183C70.0872 534.045 70.1691 533.739 70.0311 533.5C69.893 533.261 69.5872 533.179 69.3481 533.317L67.5001 534.384L67.5001 532.25Z" fill="#999999"/>
<text fill="#999999" xml:space="preserve" style="white-space: pre" font-family="Inter" font-size="13" letter-spacing="0em"><tspan x="80" y="540.727">index.js</tspan></text>
<path fill-rule="evenodd" clip-rule="evenodd" d="M63.7095 558.985C63.8182 558.731 63.7007 558.437 63.4468 558.328C63.193 558.219 62.8991 558.337 62.7903 558.591L58.2903 569.091C58.1815 569.344 58.2991 569.638 58.5529 569.747C58.8067 569.856 59.1007 569.738 59.2095 569.485L63.7095 558.985ZM67.5001 560.25C67.5001 559.974 67.2762 559.75 67.0001 559.75C66.7239 559.75 66.5001 559.974 66.5001 560.25L66.5001 562.384L64.6518 561.317C64.4127 561.179 64.1069 561.261 63.9688 561.5C63.8307 561.739 63.9127 562.045 64.1518 562.183L65.9999 563.25L64.1519 564.317C63.9128 564.455 63.8308 564.761 63.9689 565C64.107 565.239 64.4128 565.321 64.6519 565.183L66.5001 564.116L66.5001 566.25C66.5001 566.526 66.7239 566.75 67.0001 566.75C67.2762 566.75 67.5001 566.526 67.5001 566.25L67.5001 564.116L69.348 565.183C69.5871 565.321 69.8929 565.239 70.031 565C70.169 564.761 70.0871 564.455 69.848 564.317L67.9999 563.25L69.8481 562.183C70.0872 562.045 70.1691 561.739 70.0311 561.5C69.893 561.261 69.5872 561.179 69.3481 561.317L67.5001 562.384L67.5001 560.25Z" fill="#999999"/>
<text fill="#999999" xml:space="preserve" style="white-space: pre" font-family="Inter" font-size="13" letter-spacing="0em"><tspan x="80" y="568.727">renderElement.ts</tspan></text>
<path fill-rule="evenodd" clip-rule="evenodd" d="M63.7095 586.985C63.8182 586.731 63.7007 586.437 63.4468 586.328C63.193 586.219 62.8991 586.337 62.7903 586.591L58.2903 597.091C58.1815 597.344 58.2991 597.638 58.5529 597.747C58.8067 597.856 59.1007 597.738 59.2095 597.485L63.7095 586.985ZM67.5001 588.25C67.5001 587.974 67.2762 587.75 67.0001 587.75C66.7239 587.75 66.5001 587.974 66.5001 588.25L66.5001 590.384L64.6518 589.317C64.4127 589.179 64.1069 589.261 63.9688 589.5C63.8307 589.739 63.9127 590.045 64.1518 590.183L65.9999 591.25L64.1519 592.317C63.9128 592.455 63.8308 592.761 63.9689 593C64.107 593.239 64.4128 593.321 64.6519 593.183L66.5001 592.116L66.5001 594.25C66.5001 594.526 66.7239 594.75 67.0001 594.75C67.2762 594.75 67.5001 594.526 67.5001 594.25L67.5001 592.116L69.348 593.183C69.5871 593.321 69.8929 593.239 70.031 593C70.169 592.761 70.0871 592.455 69.848 592.317L67.9999 591.25L69.8481 590.183C70.0872 590.045 70.1691 589.739 70.0311 589.5C69.893 589.261 69.5872 589.179 69.3481 589.317L67.5001 590.384L67.5001 588.25Z" fill="#E5E5E5"/>
<text fill="#E5E5E5" xml:space="preserve" style="white-space: pre" font-family="Inter" font-size="13" letter-spacing="0em"><tspan x="80" y="596.727">renderScene.ts</tspan></text>
<path fill-rule="evenodd" clip-rule="evenodd" d="M63.7095 614.985C63.8182 614.731 63.7007 614.437 63.4468 614.328C63.193 614.219 62.8991 614.337 62.7903 614.591L58.2903 625.091C58.1815 625.344 58.2991 625.638 58.5529 625.747C58.8067 625.856 59.1007 625.738 59.2095 625.485L63.7095 614.985ZM67.5001 616.25C67.5001 615.974 67.2762 615.75 67.0001 615.75C66.7239 615.75 66.5001 615.974 66.5001 616.25L66.5001 618.384L64.6518 617.317C64.4127 617.179 64.1069 617.261 63.9688 617.5C63.8307 617.739 63.9127 618.045 64.1518 618.183L65.9999 619.25L64.1519 620.317C63.9128 620.455 63.8308 620.761 63.9689 621C64.107 621.239 64.4128 621.321 64.6519 621.183L66.5001 620.116L66.5001 622.25C66.5001 622.526 66.7239 622.75 67.0001 622.75C67.2762 622.75 67.5001 622.526 67.5001 622.25L67.5001 620.116L69.348 621.183C69.5871 621.321 69.8929 621.239 70.031 621C70.169 620.761 70.0871 620.455 69.848 620.317L67.9999 619.25L69.8481 618.183C70.0872 618.045 70.1691 617.739 70.0311 617.5C69.893 617.261 69.5872 617.179 69.3481 617.317L67.5001 618.384L67.5001 616.25Z" fill="#999999"/>
<text fill="#999999" xml:space="preserve" style="white-space: pre" font-family="Inter" font-size="13" letter-spacing="0em"><tspan x="80" y="624.727">roundReact.ts</tspan></text>
<path d="M46.5001 651.25H37.5001C36.6717 651.25 36.0001 650.578 36.0001 649.75V643C36.0001 642.172 36.6717 641.5 37.5001 641.5H39.296C39.5921 641.5 39.8816 641.588 40.128 641.752L41.6222 642.748C41.8686 642.912 42.1581 643 42.4543 643H46.5001C47.3285 643 48.0001 643.672 48.0001 644.5V649.75C48.0001 650.578 47.3285 651.25 46.5001 651.25Z" fill="#999999" stroke="#999999" stroke-linecap="round"/>
<text fill="#999999" xml:space="preserve" style="white-space: pre" font-family="Inter" font-size="13" letter-spacing="0em"><tspan x="58" y="650.727">scene</tspan></text>
<path fill-rule="evenodd" clip-rule="evenodd" d="M41.7095 666.985C41.8182 666.731 41.7007 666.437 41.4468 666.328C41.193 666.219 40.8991 666.337 40.7903 666.591L36.2903 677.091C36.1815 677.344 36.2991 677.638 36.5529 677.747C36.8067 677.856 37.1007 677.738 37.2095 677.485L41.7095 666.985ZM45.5001 668.25C45.5001 667.974 45.2762 667.75 45.0001 667.75C44.7239 667.75 44.5001 667.974 44.5001 668.25L44.5001 670.384L42.6518 669.317C42.4127 669.179 42.1069 669.261 41.9688 669.5C41.8307 669.739 41.9127 670.045 42.1518 670.183L43.9999 671.25L42.1519 672.317C41.9128 672.455 41.8308 672.761 41.9689 673C42.107 673.239 42.4128 673.321 42.6519 673.183L44.5001 672.116L44.5001 674.25C44.5001 674.526 44.7239 674.75 45.0001 674.75C45.2762 674.75 45.5001 674.526 45.5001 674.25L45.5001 672.116L47.348 673.183C47.5871 673.321 47.8929 673.239 48.031 673C48.169 672.761 48.0871 672.455 47.848 672.317L45.9999 671.25L47.8481 670.183C48.0872 670.045 48.1691 669.739 48.0311 669.5C47.893 669.261 47.5872 669.179 47.3481 669.317L45.5001 670.384L45.5001 668.25Z" fill="#999999"/>
<text fill="#999999" xml:space="preserve" style="white-space: pre" font-family="Inter" font-size="13" letter-spacing="0em"><tspan x="58" y="676.727">align.ts</tspan></text>
<path fill-rule="evenodd" clip-rule="evenodd" d="M41.7095 692.985C41.8182 692.731 41.7007 692.437 41.4468 692.328C41.193 692.219 40.8991 692.337 40.7903 692.591L36.2903 703.091C36.1815 703.344 36.2991 703.638 36.5529 703.747C36.8067 703.856 37.1007 703.738 37.2095 703.485L41.7095 692.985ZM45.5001 694.25C45.5001 693.974 45.2762 693.75 45.0001 693.75C44.7239 693.75 44.5001 693.974 44.5001 694.25L44.5001 696.384L42.6518 695.317C42.4127 695.179 42.1069 695.261 41.9688 695.5C41.8307 695.739 41.9127 696.045 42.1518 696.183L43.9999 697.25L42.1519 698.317C41.9128 698.455 41.8308 698.761 41.9689 699C42.107 699.239 42.4128 699.321 42.6519 699.183L44.5001 698.116L44.5001 700.25C44.5001 700.526 44.7239 700.75 45.0001 700.75C45.2762 700.75 45.5001 700.526 45.5001 700.25L45.5001 698.116L47.348 699.183C47.5871 699.321 47.8929 699.239 48.031 699C48.169 698.761 48.0871 698.455 47.848 698.317L45.9999 697.25L47.8481 696.183C48.0872 696.045 48.1691 695.739 48.0311 695.5C47.893 695.261 47.5872 695.179 47.3481 695.317L45.5001 696.384L45.5001 694.25Z" fill="#999999"/>
<text fill="#999999" xml:space="preserve" style="white-space: pre" font-family="Inter" font-size="13" letter-spacing="0em"><tspan x="58" y="702.727">analytics.ts</tspan></text>
<path fill-rule="evenodd" clip-rule="evenodd" d="M41.7095 718.985C41.8182 718.731 41.7007 718.437 41.4468 718.328C41.193 718.219 40.8991 718.337 40.7903 718.591L36.2903 729.091C36.1815 729.344 36.2991 729.638 36.5529 729.747C36.8067 729.856 37.1007 729.738 37.2095 729.485L41.7095 718.985ZM45.5001 720.25C45.5001 719.974 45.2762 719.75 45.0001 719.75C44.7239 719.75 44.5001 719.974 44.5001 720.25L44.5001 722.384L42.6518 721.317C42.4127 721.179 42.1069 721.261 41.9688 721.5C41.8307 721.739 41.9127 722.045 42.1518 722.183L43.9999 723.25L42.1519 724.317C41.9128 724.455 41.8308 724.761 41.9689 725C42.107 725.239 42.4128 725.321 42.6519 725.183L44.5001 724.116L44.5001 726.25C44.5001 726.526 44.7239 726.75 45.0001 726.75C45.2762 726.75 45.5001 726.526 45.5001 726.25L45.5001 724.116L47.348 725.183C47.5871 725.321 47.8929 725.239 48.031 725C48.169 724.761 48.0871 724.455 47.848 724.317L45.9999 723.25L47.8481 722.183C48.0872 722.045 48.1691 721.739 48.0311 721.5C47.893 721.261 47.5872 721.179 47.3481 721.317L45.5001 722.384L45.5001 720.25Z" fill="#999999"/>
<text fill="#999999" xml:space="preserve" style="white-space: pre" font-family="Inter" font-size="13" letter-spacing="0em"><tspan x="58" y="728.727">appState.ts</tspan></text>
<path fill-rule="evenodd" clip-rule="evenodd" d="M41.7095 744.985C41.8182 744.731 41.7007 744.437 41.4468 744.328C41.193 744.219 40.8991 744.337 40.7903 744.591L36.2903 755.091C36.1815 755.344 36.2991 755.638 36.5529 755.747C36.8067 755.856 37.1007 755.738 37.2095 755.485L41.7095 744.985ZM45.5001 746.25C45.5001 745.974 45.2762 745.75 45.0001 745.75C44.7239 745.75 44.5001 745.974 44.5001 746.25L44.5001 748.384L42.6518 747.317C42.4127 747.179 42.1069 747.261 41.9688 747.5C41.8307 747.739 41.9127 748.045 42.1518 748.183L43.9999 749.25L42.1519 750.317C41.9128 750.455 41.8308 750.761 41.9689 751C42.107 751.239 42.4128 751.321 42.6519 751.183L44.5001 750.116L44.5001 752.25C44.5001 752.526 44.7239 752.75 45.0001 752.75C45.2762 752.75 45.5001 752.526 45.5001 752.25L45.5001 750.116L47.348 751.183C47.5871 751.321 47.8929 751.239 48.031 751C48.169 750.761 48.0871 750.455 47.848 750.317L45.9999 749.25L47.8481 748.183C48.0872 748.045 48.1691 747.739 48.0311 747.5C47.893 747.261 47.5872 747.179 47.3481 747.317L45.5001 748.384L45.5001 746.25Z" fill="#999999"/>
<text fill="#999999" xml:space="preserve" style="white-space: pre" font-family="Inter" font-size="13" letter-spacing="0em"><tspan x="58" y="754.727">bug-issue-template.ts</tspan></text>
</g>
<path d="M12 774C12 771.791 13.7909 770 16 770H218C220.209 770 222 771.791 222 774V794C222 796.209 220.209 798 218 798H16C13.7909 798 12 796.209 12 794V774Z" fill="#2A2A2A"/>
<text fill="#C5C5C5" xml:space="preserve" style="white-space: pre" font-family="Inter" font-size="12" font-weight="500" letter-spacing="-0.02em"><tspan x="58" y="788.364">Open in VS Code</tspan></text>
<path d="M166.454 779.5C166.73 779.5 166.954 779.276 166.954 779C166.954 778.724 166.73 778.5 166.454 778.5V779.5ZM173.17 785.216C173.17 784.94 172.946 784.716 172.67 784.716C172.394 784.716 172.17 784.94 172.17 785.216H173.17ZM169.907 778.5C169.631 778.5 169.407 778.724 169.407 779C169.407 779.276 169.631 779.5 169.907 779.5V778.5ZM172.17 781.763C172.17 782.039 172.394 782.263 172.67 782.263C172.946 782.263 173.17 782.039 173.17 781.763H172.17ZM172.885 779.492C173.081 779.296 173.081 778.98 172.885 778.785C172.69 778.589 172.374 778.589 172.178 778.785L172.885 779.492ZM166.791 784.172C166.596 784.367 166.596 784.684 166.791 784.879C166.986 785.074 167.303 785.074 167.498 784.879L166.791 784.172ZM171.634 788.17H164.036V789.17H171.634V788.17ZM163.5 787.634V780.036H162.5V787.634H163.5ZM164.036 779.5H166.454V778.5H164.036V779.5ZM172.17 785.216V787.634H173.17V785.216H172.17ZM164.036 788.17C163.74 788.17 163.5 787.93 163.5 787.634H162.5C162.5 788.482 163.188 789.17 164.036 789.17V788.17ZM171.634 789.17C172.482 789.17 173.17 788.482 173.17 787.634H172.17C172.17 787.93 171.93 788.17 171.634 788.17V789.17ZM163.5 780.036C163.5 779.74 163.74 779.5 164.036 779.5V778.5C163.188 778.5 162.5 779.188 162.5 780.036H163.5ZM169.907 779.5H172.567V778.5H169.907V779.5ZM172.17 779.104V781.763H173.17V779.104H172.17ZM172.567 779.5C172.348 779.5 172.17 779.322 172.17 779.104H173.17C173.17 778.77 172.9 778.5 172.567 778.5V779.5ZM172.178 778.785L166.791 784.172L167.498 784.879L172.885 779.492L172.178 778.785Z" fill="#999999"/>
<path d="M16 771H218V769H16V771ZM221 774V794H223V774H221ZM218 797H16V799H218V797ZM13 794V774H11V794H13ZM16 797C14.3431 797 13 795.657 13 794H11C11 796.761 13.2386 799 16 799V797ZM221 794C221 795.657 219.657 797 218 797V799C220.761 799 223 796.761 223 794H221ZM218 771C219.657 771 221 772.343 221 774H223C223 771.239 220.761 769 218 769V771ZM16 769C13.2386 769 11 771.239 11 774H13C13 772.343 14.3431 771 16 771V769Z" fill="#373737"/>
<path d="M15 70.3749C15 69.2703 15.8954 68.3749 17 68.3749H20.4716C21.002 68.3749 21.5107 68.5856 21.8858 68.9607L23.8642 70.9391C24.2393 71.3142 24.45 71.8229 24.45 72.3533V78.1874C24.45 79.2919 23.5546 80.1874 22.45 80.1874H17C15.8954 80.1874 15 79.2919 15 78.1874V70.3749Z" stroke="#E5E5E5" stroke-linecap="round"/>
<path fill-rule="evenodd" clip-rule="evenodd" d="M46.3126 72.6051C46.3126 70.2344 48.2344 68.3126 50.6051 68.3126C52.9757 68.3126 54.8975 70.2344 54.8975 72.6051C54.8975 73.717 54.4747 74.7302 53.781 75.4927C53.7173 75.517 53.6576 75.5549 53.6062 75.6062C53.5549 75.6576 53.517 75.7173 53.4927 75.781C52.7302 76.4747 51.717 76.8975 50.6051 76.8975C48.2344 76.8975 46.3126 74.9757 46.3126 72.6051ZM53.9772 76.6843C53.0615 77.4421 51.8865 77.8975 50.6051 77.8975C47.6821 77.8975 45.3126 75.528 45.3126 72.6051C45.3126 69.6821 47.6821 67.3126 50.6051 67.3126C53.528 67.3126 55.8975 69.6821 55.8975 72.6051C55.8975 73.8865 55.4421 75.0615 54.6843 75.9772L58.1473 79.4402C58.3425 79.6354 58.3425 79.952 58.1473 80.1473C57.952 80.3425 57.6354 80.3425 57.4402 80.1473L53.9772 76.6843Z" fill="#999999"/>
<path d="M80.7153 79.5667C80.7153 79.8428 80.9391 80.0667 81.2153 80.0667C81.4914 80.0667 81.7153 79.8428 81.7153 79.5667L80.7153 79.5667ZM86.5306 71.2153V71.7153V71.2153ZM85.0122 70.7153C84.736 70.7153 84.5122 70.9391 84.5122 71.2153C84.5122 71.4914 84.736 71.7153 85.0122 71.7153V70.7153ZM87.2898 71.9745L87.7898 71.9745V71.9745H87.2898ZM82.9929 71.2153C82.9929 72.1971 82.1971 72.9929 81.2153 72.9929V73.9929C82.7493 73.9929 83.9929 72.7493 83.9929 71.2153H82.9929ZM81.2153 72.9929C80.2335 72.9929 79.4376 72.1971 79.4376 71.2153H78.4376C78.4376 72.7493 79.6812 73.9929 81.2153 73.9929V72.9929ZM79.4376 71.2153C79.4376 70.2335 80.2335 69.4376 81.2153 69.4376V68.4376C79.6812 68.4376 78.4376 69.6812 78.4376 71.2153H79.4376ZM81.2153 69.4376C82.1971 69.4376 82.9929 70.2335 82.9929 71.2153H83.9929C83.9929 69.6812 82.7493 68.4376 81.2153 68.4376V69.4376ZM89.0675 77.2886C89.0675 78.2703 88.2716 79.0662 87.2898 79.0662V80.0662C88.8239 80.0662 90.0675 78.8226 90.0675 77.2886H89.0675ZM87.2898 79.0662C86.308 79.0662 85.5122 78.2703 85.5122 77.2886H84.5122C84.5122 78.8226 85.7558 80.0662 87.2898 80.0662V79.0662ZM85.5122 77.2886C85.5122 76.3068 86.308 75.5109 87.2898 75.5109V74.5109C85.7558 74.5109 84.5122 75.7545 84.5122 77.2886H85.5122ZM87.2898 75.5109C88.2716 75.5109 89.0675 76.3068 89.0675 77.2886H90.0675C90.0675 75.7545 88.8239 74.5109 87.2898 74.5109V75.5109ZM80.7153 73.4929L80.7153 79.5667L81.7153 79.5667L81.7153 73.493L80.7153 73.4929ZM86.5306 70.7153H85.0122V71.7153H86.5306V70.7153ZM86.7898 71.9745L86.7898 75.0109H87.7898L87.7898 71.9745L86.7898 71.9745ZM86.5306 71.7153C86.6738 71.7153 86.7898 71.8313 86.7898 71.9745H87.7898C87.7898 71.279 87.2261 70.7153 86.5306 70.7153V71.7153Z" fill="#999999"/>
<circle cx="89" cy="69" r="2.5" fill="#AC9CFF" stroke="#151515"/>
<rect x="848" y="60" width="580" height="365" rx="4" fill="#2A2A2A"/>
<path d="M870.396 85.8536C870.592 86.0488 870.908 86.0488 871.104 85.8536C871.299 85.6583 871.299 85.3417 871.104 85.1464L870.396 85.8536ZM865.604 80.3536L865.25 80.7071L865.25 80.7071L865.604 80.3536ZM865.604 79.6464L865.957 80H865.957L865.604 79.6464ZM871.104 74.8536C871.299 74.6583 871.299 74.3417 871.104 74.1464C870.908 73.9512 870.592 73.9512 870.396 74.1464L871.104 74.8536ZM871.104 85.1464L865.957 80L865.25 80.7071L870.396 85.8536L871.104 85.1464ZM865.957 80L871.104 74.8536L870.396 74.1464L865.25 79.2929L865.957 80ZM865.957 80L865.957 80L865.25 79.2929C864.859 79.6834 864.859 80.3166 865.25 80.7071L865.957 80Z" fill="#999999"/>
<path d="M889.604 74.1464C889.408 73.9512 889.092 73.9512 888.896 74.1464C888.701 74.3417 888.701 74.6583 888.896 74.8536L889.604 74.1464ZM888.896 85.1464C888.701 85.3417 888.701 85.6583 888.896 85.8536C889.092 86.0488 889.408 86.0488 889.604 85.8536L888.896 85.1464ZM888.896 74.8536L894.043 80L894.75 79.2929L889.604 74.1464L888.896 74.8536ZM894.043 80L888.896 85.1464L889.604 85.8536L894.75 80.7071L894.043 80ZM894.043 80L894.75 80.7071C895.141 80.3166 895.141 79.6834 894.75 79.2929L894.043 80Z" fill="#999999"/>
<path fill-rule="evenodd" clip-rule="evenodd" d="M910.667 79.9998C910.667 77.0543 913.054 74.6665 915.999 74.6665C918.32 74.6665 920.296 76.1498 921.028 78.222C921.073 78.3471 921.162 78.4435 921.271 78.4998H917C916.724 78.4998 916.5 78.7237 916.5 78.9998C916.5 79.276 916.724 79.4998 917 79.4998H921.733C922.065 79.4998 922.333 79.2312 922.333 78.8998V74.1665C922.333 73.8904 922.11 73.6665 921.833 73.6665C921.557 73.6665 921.333 73.8904 921.333 74.1665V76.5853C920.208 74.8302 918.24 73.6665 915.999 73.6665C912.502 73.6665 909.667 76.5021 909.667 79.9998C909.667 83.4976 912.502 86.3332 915.999 86.3332C918.344 86.3332 920.39 85.0586 921.484 83.1668C921.623 82.9278 921.541 82.6219 921.302 82.4837C921.063 82.3454 920.757 82.4271 920.619 82.6662C919.696 84.2616 917.972 85.3332 915.999 85.3332C913.054 85.3332 910.667 82.9454 910.667 79.9998Z" fill="#999999"/>
<text fill="#999999" xml:space="preserve" style="white-space: pre" font-family="Inter" font-size="11" letter-spacing="0.01em"><tspan x="940" y="84">https://kkcpd.csb.app/</tspan></text>
<path fill-rule="evenodd" clip-rule="evenodd" d="M1376.5 73.5833C1375.67 73.5833 1375 74.2548 1375 75.0833V78.6666H1372.25C1371.42 78.6666 1370.75 79.3381 1370.75 80.1666V84.8332C1370.75 85.6617 1371.42 86.3332 1372.25 86.3332H1379.5C1380.33 86.3332 1381 85.6617 1381 84.8332V81.3333H1383.75C1384.58 81.3333 1385.25 80.6617 1385.25 79.8333V75.0833C1385.25 74.2548 1384.58 73.5833 1383.75 73.5833H1376.5ZM1380.7 80.3333C1380.64 80.3064 1380.57 80.2916 1380.5 80.2916C1380.43 80.2916 1380.36 80.3064 1380.3 80.3333H1376.5C1376.22 80.3333 1376 80.1094 1376 79.8333V79.367C1376.03 79.3056 1376.04 79.2378 1376.04 79.1666C1376.04 79.0953 1376.03 79.0275 1376 78.9661V75.0833C1376 74.8071 1376.22 74.5833 1376.5 74.5833H1383.75C1384.03 74.5833 1384.25 74.8071 1384.25 75.0833V79.8333C1384.25 80.1094 1384.03 80.3333 1383.75 80.3333H1380.7ZM1375 79.6666V79.8333C1375 80.6617 1375.67 81.3333 1376.5 81.3333H1380V84.8332C1380 85.1094 1379.78 85.3332 1379.5 85.3332H1372.25C1371.97 85.3332 1371.75 85.1094 1371.75 84.8332V80.1666C1371.75 79.8904 1371.97 79.6666 1372.25 79.6666H1375Z" fill="#999999"/>
<path fill-rule="evenodd" clip-rule="evenodd" d="M1404.08 81.0222C1404.22 80.8085 1404.3 80.5571 1404.3 80.3C1404.3 79.9552 1404.16 79.6246 1403.92 79.3808C1403.68 79.137 1403.34 79 1403 79C1402.74 79 1402.49 79.0762 1402.28 79.2191C1402.06 79.3619 1401.9 79.565 1401.8 79.8025C1401.7 80.0401 1401.67 80.3014 1401.72 80.5536C1401.78 80.8058 1401.9 81.0374 1402.08 81.2192C1402.26 81.401 1402.49 81.5249 1402.75 81.575C1403 81.6252 1403.26 81.5994 1403.5 81.501C1403.74 81.4026 1403.94 81.236 1404.08 81.0222ZM1408 79C1407.74 79 1407.49 79.0762 1407.28 79.2191C1407.06 79.3619 1406.9 79.565 1406.8 79.8025C1406.7 80.0401 1406.67 80.3014 1406.72 80.5536C1406.78 80.8058 1406.9 81.0374 1407.08 81.2192C1407.26 81.401 1407.49 81.5249 1407.75 81.575C1408 81.6252 1408.26 81.5994 1408.5 81.501C1408.74 81.4026 1408.94 81.236 1409.08 81.0222C1409.22 80.8085 1409.3 80.5571 1409.3 80.3C1409.3 79.9552 1409.16 79.6246 1408.92 79.3808C1408.68 79.137 1408.34 79 1408 79ZM1413 79C1412.74 79 1412.49 79.0762 1412.28 79.2191C1412.06 79.3619 1411.9 79.565 1411.8 79.8025C1411.7 80.0401 1411.67 80.3014 1411.72 80.5536C1411.78 80.8058 1411.9 81.0374 1412.08 81.2192C1412.26 81.401 1412.49 81.5249 1412.75 81.575C1413 81.6252 1413.26 81.5994 1413.5 81.501C1413.74 81.4026 1413.94 81.236 1414.08 81.0222C1414.22 80.8085 1414.3 80.5571 1414.3 80.3C1414.3 79.9552 1414.16 79.6246 1413.92 79.3808C1413.68 79.137 1413.34 79 1413 79Z" fill="#999999"/>
<path d="M848 100H1428" stroke="#E5E5E5" stroke-opacity="0.1"/>
<path d="M848 100H1428V421C1428 423.209 1426.21 425 1424 425H852C849.791 425 848 423.209 848 421V100Z" fill="white"/>
<g clip-path="url(#clip2_8_921)">
<rect width="579.208" height="325" transform="translate(848.396 100)" fill="white"/>
<rect x="848.396" y="100" width="580.72" height="325.804" fill="url(#pattern0)"/>
<path d="M923.543 318.296C930.964 327.292 960.492 362.476 967.963 371.466M924.019 317.579C931.362 326.574 960.163 362.678 967.509 371.574L924.019 317.579Z" stroke="black" stroke-width="1.3896" stroke-linecap="round"/>
<path d="M962.461 358.588C964.572 363.529 967.127 367.977 967.577 371.565M963.097 359.029C963.836 361.019 965.009 365.429 968.212 372.207L963.097 359.029Z" stroke="black" stroke-width="1.3896" stroke-linecap="round"/>
<path d="M956.922 365.603C961.031 367.944 965.649 369.782 967.577 371.566M957.558 366.044C959.792 366.044 962.501 368.513 968.212 372.208L957.558 366.044Z" stroke="black" stroke-width="1.3896" stroke-linecap="round"/>
<path d="M927.095 299.539C932.77 306.057 955.354 331.551 961.068 338.065M927.459 299.02C933.075 305.538 955.103 331.697 960.721 338.143L927.459 299.02Z" stroke="black" stroke-width="1.3896" stroke-linecap="round"/>
<path d="M956.864 328.736C958.477 332.315 960.431 335.537 960.774 338.137M957.35 329.056C957.915 330.497 958.81 333.692 961.259 338.602L957.35 329.056Z" stroke="black" stroke-width="1.3896" stroke-linecap="round"/>
<path d="M952.622 333.814C955.765 335.511 959.298 336.844 960.773 338.137M953.108 334.133C954.818 334.135 956.89 335.923 961.259 338.602L953.108 334.133Z" stroke="black" stroke-width="1.3896" stroke-linecap="round"/>
<path d="M931.465 280.295C937.14 286.813 959.725 312.307 965.439 318.821M931.829 279.776C937.445 286.294 959.473 312.453 965.091 318.899L931.829 279.776Z" stroke="black" stroke-width="1.3896" stroke-linecap="round"/>
<path d="M961.233 309.492C962.846 313.071 964.8 316.293 965.143 318.892M961.719 309.812C962.285 311.253 963.18 314.448 965.629 319.358L961.719 309.812Z" stroke="black" stroke-width="1.3896" stroke-linecap="round"/>
<path d="M956.991 314.57C960.135 316.267 963.668 317.6 965.143 318.893M957.477 314.889C959.188 314.891 961.26 316.679 965.629 319.358L957.477 314.889Z" stroke="black" stroke-width="1.3896" stroke-linecap="round"/>
<path d="M1281.51 408.649C1281.54 396.988 1281.3 351.056 1281.29 339.367M1280.68 408.897C1280.78 397.286 1281.68 351.111 1281.71 339.573L1280.68 408.897Z" stroke="black" stroke-width="1.3896" stroke-linecap="round"/>
<path d="M1277.3 352.789C1278.83 347.64 1279.7 342.585 1281.65 339.537M1277.09 352.044C1277.79 350.041 1279.71 345.899 1281.57 338.637L1277.09 352.044Z" stroke="black" stroke-width="1.3896" stroke-linecap="round"/>
<path d="M1286.04 350.93C1284.37 346.505 1281.99 342.141 1281.65 339.536M1285.83 350.185C1284.11 348.757 1283.61 345.127 1281.57 338.637L1285.83 350.185Z" stroke="black" stroke-width="1.3896" stroke-linecap="round"/>
<path d="M1094.16 350.647C1106.57 350.942 1118.96 351.145 1150.01 350.836L1094.16 350.647ZM1094.3 350.843C1105.88 350.953 1117.48 350.79 1149.88 350.79L1094.3 350.843ZM1149.96 350.868C1149.77 323.845 1149.77 296.503 1149.91 238.405L1149.96 350.868ZM1149.96 350.898C1150.1 309.116 1150.1 267.359 1149.96 238.361L1149.96 350.898ZM1149.84 238.122C1133.69 237.953 1117.33 237.808 1094.16 238.311L1149.84 238.122ZM1149.89 238.35C1130.47 238.154 1111.07 238.156 1094.26 238.26L1149.89 238.35ZM1094.35 238.341C1094.52 278.107 1094.48 318.11 1094.27 350.711L1094.35 238.341ZM1094.21 238.278C1094.3 272.829 1094.34 307.46 1094.23 350.734Z" fill="white"/>
<path d="M1094.21 238.278C1094.3 272.829 1094.34 307.46 1094.23 350.734M1094.16 350.647C1106.57 350.942 1118.96 351.145 1150.01 350.836L1094.16 350.647ZM1094.3 350.843C1105.88 350.953 1117.48 350.79 1149.88 350.79L1094.3 350.843ZM1149.96 350.868C1149.77 323.845 1149.77 296.503 1149.91 238.405L1149.96 350.868ZM1149.96 350.898C1150.1 309.116 1150.1 267.359 1149.96 238.361L1149.96 350.898ZM1149.84 238.122C1133.69 237.953 1117.33 237.808 1094.16 238.311L1149.84 238.122ZM1149.89 238.35C1130.47 238.154 1111.07 238.156 1094.26 238.26L1149.89 238.35ZM1094.35 238.341C1094.52 278.107 1094.48 318.11 1094.27 350.711L1094.35 238.341Z" stroke="black" stroke-width="1.3896" stroke-linecap="round"/>
<path d="M885.098 261.984C884.239 262.065 883.476 262.093 882.809 262.069C882.713 262.061 882.557 262.053 882.34 262.045C882.131 262.037 881.982 262.029 881.894 262.021C881.806 262.012 881.689 261.992 881.545 261.96C881.4 261.928 881.268 261.884 881.148 261.828C880.899 261.715 880.698 261.543 880.545 261.31C880.401 261.077 880.345 260.828 880.377 260.563C880.353 260.138 880.429 259.752 880.606 259.407C881.039 258.436 881.344 257.649 881.521 257.047C881.553 256.774 881.657 256.449 881.834 256.071C882.011 255.686 882.111 255.377 882.135 255.144C882.135 255.08 882.135 255.035 882.135 255.011C882.135 254.987 882.123 254.943 882.099 254.879C882.075 254.815 882.059 254.775 882.051 254.758C882.171 254.421 882.272 254.221 882.352 254.156C882.633 254.044 882.817 253.988 882.906 253.988C883.058 253.988 883.179 254.068 883.267 254.229C883.155 254.831 883.054 255.288 882.966 255.602C882.846 256.091 882.605 256.83 882.243 257.817C881.89 258.797 881.701 259.327 881.677 259.407C881.629 259.52 881.601 259.636 881.593 259.756C881.585 259.869 881.585 259.997 881.593 260.142C881.601 260.286 881.601 260.399 881.593 260.479C881.641 260.559 881.822 260.66 882.135 260.78C882.504 260.868 882.894 260.913 883.303 260.913C883.584 260.913 883.905 260.892 884.267 260.852C885.359 260.764 885.941 260.716 886.013 260.708C886.101 260.716 886.157 260.716 886.182 260.708C886.206 260.692 886.266 260.708 886.362 260.756C886.467 260.804 886.531 260.836 886.555 260.852C886.579 260.86 886.639 260.892 886.736 260.949C886.832 261.005 886.884 261.037 886.892 261.045C886.908 261.061 886.952 261.093 887.025 261.141C887.097 261.19 887.145 261.23 887.169 261.262C887.201 261.286 887.233 261.33 887.265 261.394C887.298 261.45 887.314 261.515 887.314 261.587V261.623C887.257 261.848 887.153 262.021 887 262.141H886.976C886.904 262.141 886.595 262.109 886.049 262.045C885.511 261.988 885.194 261.968 885.098 261.984Z" fill="black"/>
<path d="M887.55 255.228C887.598 255.108 887.683 255.011 887.803 254.939C887.931 254.859 888.064 254.827 888.2 254.843C888.249 254.835 888.293 254.835 888.333 254.843C888.373 254.851 888.413 254.867 888.453 254.891C888.501 254.915 888.538 254.935 888.562 254.951C888.586 254.967 888.618 255.003 888.658 255.06C888.706 255.116 888.738 255.152 888.754 255.168C888.77 255.176 888.803 255.216 888.851 255.288L888.923 255.385C888.955 255.465 889.108 255.642 889.381 255.915C889.437 255.995 889.465 256.091 889.465 256.204C889.473 256.308 889.445 256.392 889.381 256.457H889.116C888.979 256.481 888.839 256.473 888.694 256.432C888.558 256.392 888.373 256.312 888.14 256.192C887.915 256.071 887.795 256.007 887.779 255.999C887.642 255.919 887.55 255.806 887.502 255.662C887.462 255.509 887.478 255.365 887.55 255.228ZM888.321 261.334C888.305 261.238 888.281 261.029 888.249 260.708C888.216 260.379 888.184 260.037 888.152 259.684C888.12 259.323 888.1 259.11 888.092 259.046C888.076 258.829 888.076 258.6 888.092 258.359C888.212 258.151 888.413 258.074 888.694 258.131C888.799 258.179 888.903 258.331 889.007 258.588C889.007 258.757 889.019 258.933 889.043 259.118C889.076 259.303 889.104 259.459 889.128 259.588C889.16 259.716 889.204 259.885 889.26 260.094C889.316 260.302 889.357 260.463 889.381 260.575C889.381 260.64 889.373 260.744 889.357 260.888C889.348 261.025 889.336 261.157 889.32 261.286C889.312 261.414 889.308 261.483 889.308 261.491C889.3 261.515 889.288 261.559 889.272 261.623C889.264 261.687 889.252 261.74 889.236 261.78C889.228 261.82 889.208 261.864 889.176 261.912C889.152 261.952 889.12 261.984 889.08 262.008C888.863 262.049 888.686 262 888.55 261.864C888.413 261.623 888.337 261.446 888.321 261.334Z" fill="black"/>
<path d="M890.943 264.598C891.128 264.453 891.313 264.381 891.497 264.381C891.642 264.381 891.762 264.429 891.858 264.526C891.899 264.566 892.003 264.686 892.172 264.887C892.34 265.096 892.489 265.248 892.617 265.344C892.746 265.441 892.886 265.501 893.039 265.525C893.063 265.525 893.079 265.521 893.087 265.513C893.256 265.433 893.376 265.292 893.448 265.092C893.52 264.891 893.569 264.638 893.593 264.333C893.625 264.028 893.657 263.815 893.689 263.695C893.721 263.486 893.765 263.145 893.822 262.671C893.886 262.197 893.938 261.856 893.978 261.647H893.846C893.428 261.744 893.019 261.792 892.617 261.792C892.232 261.792 891.826 261.744 891.401 261.647C891.072 261.454 890.787 261.214 890.546 260.925C890.313 260.628 890.193 260.306 890.184 259.961C890.217 259.608 890.401 259.259 890.738 258.913C891.076 258.56 891.425 258.303 891.786 258.143C892.083 257.894 892.453 257.769 892.894 257.769C893.464 257.769 893.882 257.966 894.147 258.359C894.147 258.408 894.147 258.484 894.147 258.588C894.155 258.685 894.155 258.761 894.147 258.817C894.147 258.865 894.123 258.913 894.074 258.962C894.026 259.01 893.95 259.038 893.846 259.046C893.749 258.99 893.488 258.937 893.063 258.889C892.557 258.857 892.055 259.138 891.557 259.732C891.517 259.772 891.489 259.817 891.473 259.865C891.457 259.913 891.457 259.961 891.473 260.009C891.489 260.057 891.505 260.102 891.521 260.142C891.545 260.182 891.577 260.226 891.618 260.274C891.666 260.314 891.702 260.351 891.726 260.383C891.758 260.407 891.798 260.443 891.846 260.491C891.895 260.531 891.927 260.559 891.943 260.575C892.184 260.672 892.449 260.72 892.738 260.72C892.995 260.72 893.256 260.68 893.52 260.599C893.793 260.511 894.038 260.371 894.255 260.178C894.472 259.985 894.588 259.76 894.604 259.503C894.677 259.15 894.881 258.921 895.219 258.817H895.255C895.271 258.825 895.307 258.837 895.363 258.853C895.427 258.869 895.467 258.881 895.483 258.889C895.5 258.889 895.532 258.897 895.58 258.913C895.628 258.929 895.66 258.941 895.676 258.95C895.7 258.958 895.728 258.974 895.76 258.998C895.801 259.014 895.825 259.034 895.833 259.058C895.849 259.074 895.865 259.098 895.881 259.13C895.905 259.154 895.917 259.182 895.917 259.214C895.917 259.239 895.917 259.271 895.917 259.311C895.917 259.351 895.913 259.391 895.905 259.431C895.921 259.672 895.813 260.005 895.58 260.431C895.355 260.848 895.223 261.145 895.182 261.322C894.829 262.462 894.584 263.582 894.448 264.682C894.392 265.373 894.267 265.878 894.074 266.2C893.834 266.561 893.637 266.794 893.484 266.898C893.356 266.97 893.223 267.018 893.087 267.043C892.685 266.882 892.2 266.577 891.63 266.127C891.453 266.039 891.317 265.967 891.22 265.91C891.132 265.854 891.036 265.77 890.931 265.658C890.827 265.545 890.755 265.421 890.714 265.284C890.698 264.947 890.775 264.718 890.943 264.598Z" fill="black"/>
<path d="M899.843 259.07C899.618 259.166 899.401 259.299 899.193 259.467C898.992 259.636 898.843 259.776 898.747 259.889C898.659 260.001 898.506 260.206 898.289 260.503C898.081 260.8 897.948 260.985 897.892 261.057C897.755 261.426 897.555 261.727 897.29 261.96C897.177 262.017 897.077 262.045 896.989 262.045C896.812 262.045 896.684 261.968 896.603 261.816C896.587 261.792 896.559 261.756 896.519 261.707C896.479 261.659 896.443 261.615 896.411 261.575L896.374 261.515C896.374 261.491 896.37 261.438 896.362 261.358C896.362 261.27 896.362 261.202 896.362 261.153C896.362 261.097 896.366 261.037 896.374 260.973C896.39 260.909 896.415 260.86 896.447 260.828C896.479 260.563 896.499 260.278 896.507 259.973C896.523 259.668 896.527 259.415 896.519 259.214C896.511 259.006 896.499 258.717 896.483 258.347C896.467 257.978 896.455 257.717 896.447 257.565C896.463 257.356 896.451 257.023 896.411 256.565C896.37 256.107 896.358 255.778 896.374 255.577V254.891C896.366 254.795 896.411 254.738 896.507 254.722C896.611 254.706 896.696 254.71 896.76 254.734C896.768 254.742 896.804 254.779 896.868 254.843C896.932 254.907 896.989 254.971 897.037 255.035C897.093 255.092 897.125 255.144 897.133 255.192C897.35 256.228 897.454 256.914 897.446 257.251C897.446 257.332 897.458 257.701 897.482 258.359C897.506 259.018 897.519 259.383 897.519 259.455V259.684H897.591C897.655 259.628 897.924 259.359 898.398 258.877C898.871 258.387 899.265 258.05 899.578 257.866C899.722 257.809 899.883 257.781 900.06 257.781C900.325 257.781 900.541 257.882 900.71 258.082C900.983 258.379 901.184 258.709 901.312 259.07C901.441 259.423 901.545 259.857 901.625 260.371C901.858 261.085 901.962 261.615 901.938 261.96L901.902 262.033C901.886 262.073 901.87 262.101 901.854 262.117C901.806 262.173 901.738 262.201 901.649 262.201C901.585 262.201 901.477 262.173 901.324 262.117C901.083 261.82 900.879 261.442 900.71 260.985C900.517 260.415 900.417 260.086 900.409 259.997C900.28 259.451 900.092 259.142 899.843 259.07Z" fill="black"/>
<path d="M903.939 259.022V258.034C903.939 257.97 903.927 257.789 903.903 257.492C903.879 257.187 903.867 257.011 903.867 256.962C903.819 256.786 903.767 256.685 903.71 256.661C903.213 256.685 902.815 256.774 902.518 256.926C902.454 256.934 902.35 256.966 902.205 257.023C902.06 257.079 901.94 257.099 901.844 257.083C901.771 257.059 901.675 256.99 901.555 256.878C901.434 256.758 901.366 256.689 901.35 256.673C901.31 256.593 901.294 256.481 901.302 256.336C901.31 256.184 901.338 256.075 901.386 256.011L901.771 255.638C902.245 255.622 902.867 255.533 903.638 255.373L903.71 255.288V253.386C903.879 253.185 904.108 253.109 904.397 253.157C904.622 253.317 904.746 253.522 904.77 253.771C904.794 253.827 904.81 254.032 904.818 254.385C904.834 254.73 904.871 254.931 904.927 254.987C905.071 255.035 905.148 255.06 905.156 255.06C905.308 255.044 905.533 255.011 905.83 254.963C906.135 254.907 906.412 254.867 906.661 254.843C906.91 254.811 907.139 254.807 907.347 254.831H907.901C908.239 254.879 908.367 255.084 908.287 255.445C908.158 255.573 908.054 255.65 907.974 255.674C907.524 255.714 906.773 255.854 905.722 256.095L905.698 256.107C905.489 256.131 905.256 256.188 904.999 256.276L904.927 256.36C904.935 256.481 904.935 256.641 904.927 256.842C904.919 257.043 904.919 257.227 904.927 257.396C904.935 257.557 904.959 257.717 904.999 257.878C904.999 257.894 904.999 257.994 904.999 258.179C905.007 258.355 905.015 258.54 905.023 258.733C905.031 258.925 905.043 259.138 905.059 259.371C905.075 259.596 905.099 259.809 905.131 260.009C905.172 260.21 905.216 260.371 905.264 260.491C905.417 260.644 905.565 260.72 905.71 260.72C905.798 260.72 905.89 260.704 905.987 260.672C906.324 260.527 906.781 260.061 907.359 259.275C907.359 259.09 907.388 258.897 907.444 258.697C907.564 258.416 907.725 258.303 907.925 258.359C908.022 258.319 908.094 258.327 908.142 258.383C908.198 258.44 908.247 258.528 908.287 258.648C908.335 258.769 908.375 258.845 908.407 258.877C908.399 258.925 908.395 259.006 908.395 259.118C908.403 259.222 908.399 259.315 908.383 259.395C908.367 259.467 908.339 259.54 908.299 259.612C908.058 260.142 907.773 260.599 907.444 260.985C907.115 261.362 906.653 261.655 906.059 261.864C905.802 261.928 905.593 261.96 905.433 261.96C905.063 261.96 904.79 261.84 904.614 261.599C904.598 261.567 904.521 261.446 904.385 261.238C904.256 261.029 904.168 260.848 904.12 260.696C904.072 260.543 904.06 260.379 904.084 260.202C904.076 260.082 904.052 259.893 904.011 259.636C903.979 259.371 903.959 259.174 903.951 259.046C903.943 259.038 903.939 259.03 903.939 259.022Z" fill="black"/>
<path d="M909.605 261.093C909.621 261.061 909.657 261.001 909.713 260.913C909.769 260.824 909.809 260.756 909.833 260.708C910.251 260.78 910.604 260.957 910.893 261.238C911.046 261.35 911.226 261.438 911.435 261.503C911.652 261.567 911.813 261.607 911.917 261.623C912.029 261.631 912.246 261.635 912.567 261.635C912.888 261.627 913.069 261.623 913.109 261.623C913.286 261.623 913.515 261.571 913.796 261.467C913.876 261.434 913.924 261.378 913.94 261.298C913.956 261.218 913.932 261.149 913.868 261.093C913.715 260.981 913.318 260.768 912.676 260.455C912.041 260.142 911.704 259.973 911.664 259.949C910.845 259.7 910.131 259.343 909.52 258.877C909.48 258.821 909.412 258.757 909.316 258.685C909.227 258.604 909.155 258.528 909.099 258.456C909.043 258.375 909.007 258.287 908.99 258.191C908.982 257.878 909.135 257.601 909.448 257.36C909.488 257.344 909.645 257.296 909.918 257.215C910.191 257.135 910.391 257.055 910.52 256.974C911.267 256.677 911.977 256.505 912.652 256.457C912.668 256.457 912.712 256.461 912.784 256.469C912.864 256.477 912.909 256.481 912.917 256.481C912.933 256.481 912.973 256.485 913.037 256.493C913.101 256.501 913.141 256.509 913.157 256.517C913.173 256.525 913.206 256.537 913.254 256.553C913.302 256.569 913.334 256.589 913.35 256.613C913.374 256.629 913.402 256.653 913.434 256.685C913.467 256.709 913.491 256.742 913.507 256.782C913.531 256.814 913.551 256.854 913.567 256.902C913.615 257.183 913.539 257.412 913.338 257.589C913.298 257.589 913.169 257.593 912.953 257.601C912.736 257.609 912.595 257.617 912.531 257.625C912.467 257.625 912.347 257.637 912.17 257.661C911.993 257.677 911.857 257.697 911.76 257.721C911.664 257.745 911.552 257.781 911.423 257.829C911.295 257.878 911.174 257.934 911.062 257.998C910.949 258.038 910.873 258.102 910.833 258.191C910.801 258.279 910.849 258.355 910.978 258.42C911.347 258.677 911.893 258.97 912.615 259.299C913.338 259.628 913.832 259.869 914.097 260.021C914.362 260.19 914.591 260.395 914.783 260.636C914.984 260.868 915.108 261.133 915.157 261.43C915.213 261.727 915.088 261.992 914.783 262.225C914.591 262.378 914.338 262.494 914.025 262.575C913.719 262.655 913.475 262.703 913.29 262.719C913.105 262.735 912.82 262.747 912.435 262.755C912.033 262.771 911.604 262.711 911.146 262.575C910.689 262.438 910.299 262.245 909.978 261.996C909.657 261.876 909.532 261.575 909.605 261.093Z" fill="black"/>
<path d="M869.898 242.083C895.017 242 920.077 241.943 982.905 242.03L869.898 242.083ZM870.18 242.028C893.615 241.997 917.088 242.043 982.642 242.043L870.18 242.028ZM982.796 242.021C982.414 249.66 982.414 257.389 982.708 273.811L982.796 242.021ZM982.798 242.012C983.088 253.823 983.092 265.627 982.794 273.824L982.798 242.012ZM982.552 273.891C949.878 273.939 916.78 273.98 869.912 273.838L982.552 273.891ZM982.661 273.827C943.376 273.882 904.123 273.882 870.104 273.852L982.661 273.827ZM870.287 273.829C870.624 262.589 870.56 251.281 870.133 242.065L870.287 273.829ZM870.002 273.847C870.183 264.081 870.275 254.291 870.052 242.059Z" fill="white"/>
<path d="M870.002 273.847C870.183 264.081 870.275 254.291 870.052 242.059M869.898 242.083C895.017 242 920.077 241.943 982.905 242.03L869.898 242.083ZM870.18 242.028C893.615 241.997 917.088 242.043 982.642 242.043L870.18 242.028ZM982.796 242.021C982.414 249.66 982.414 257.389 982.708 273.811L982.796 242.021ZM982.798 242.012C983.088 253.823 983.092 265.627 982.794 273.824L982.798 242.012ZM982.552 273.891C949.878 273.939 916.78 273.98 869.912 273.838L982.552 273.891ZM982.661 273.827C943.376 273.882 904.123 273.882 870.104 273.852L982.661 273.827ZM870.287 273.829C870.624 262.589 870.56 251.281 870.133 242.065L870.287 273.829Z" stroke="black" stroke-width="1.3896" stroke-linecap="round"/>
<path d="M1245.03 256.083C1248.86 255.619 1255.05 255.48 1257.87 256.755C1260.69 258.053 1261.92 261.09 1262 263.825C1262.07 266.561 1260.26 271.336 1258.33 273.167C1256.37 275.021 1253.99 273.862 1250.33 274.882C1246.68 275.902 1239.45 280.237 1236.44 279.287C1233.43 278.359 1232.84 271.475 1232.27 269.273C1231.68 267.047 1232.39 267.859 1232.99 265.981C1233.6 264.103 1233.98 260.418 1235.87 257.961C1237.76 255.503 1242.95 251.308 1244.39 251.238C1245.81 251.169 1244.35 256.894 1244.45 257.543M1239.54 254.901C1242.55 253.974 1248.18 255.434 1251.34 256.5C1254.5 257.567 1256.91 259.143 1258.53 261.322C1260.16 263.501 1261.83 266.885 1261.11 269.574C1260.37 272.263 1256.81 275.694 1254.18 277.502C1251.57 279.31 1248.67 281.141 1245.36 280.446C1242.04 279.727 1236.63 275.67 1234.3 273.283C1231.95 270.895 1231.63 268.461 1231.33 266.12C1231.02 263.779 1230.15 260.881 1232.5 259.212C1234.83 257.52 1243.18 257.196 1245.37 256.037C1247.59 254.878 1245.83 252.606 1245.73 252.235L1239.54 254.901Z" stroke="black" stroke-width="0.926398" stroke-linecap="round"/>
<path d="M962.287 177.645C966.444 177.143 973.174 176.993 976.24 178.373C979.306 179.778 980.644 183.064 980.726 186.025C980.809 188.985 978.833 194.154 976.734 196.136C974.614 198.143 972.021 196.888 968.05 197.992C964.078 199.096 956.216 203.788 952.944 202.759C949.672 201.756 949.034 194.304 948.417 191.921C947.779 189.512 948.54 190.39 949.199 188.358C949.857 186.326 950.269 182.337 952.327 179.677C954.385 177.018 960.024 172.477 961.588 172.402C963.131 172.326 961.547 178.523 961.649 179.226M956.319 176.366C959.591 175.362 965.704 176.943 969.14 178.097C972.577 179.251 975.191 180.957 976.96 183.315C978.73 185.674 980.541 189.337 979.759 192.247C978.957 195.157 975.088 198.87 972.227 200.827C969.387 202.784 966.239 204.766 962.637 204.014C959.036 203.236 953.15 198.845 950.619 196.261C948.067 193.677 947.717 191.043 947.388 188.509C947.059 185.975 946.112 182.839 948.664 181.032C951.195 179.201 960.271 178.85 962.658 177.595C965.066 176.341 963.152 173.882 963.049 173.48L956.319 176.366Z" stroke="black" stroke-width="0.926398" stroke-linecap="round"/>
<path d="M1078.95 180.417C1081.72 177.222 1083.76 174.821 1085.25 173.47M1073.31 175.223C1076.1 172.758 1078.53 169.671 1080.16 167.905L1073.31 175.223ZM1074.21 175.59C1076.18 172.758 1079.4 169.869 1080.5 168.224L1074.21 175.59ZM1074.52 175.914C1076.94 174.321 1078.72 172.468 1082.04 170.202L1074.52 175.914ZM1075.63 176.289C1077.21 174.45 1079.79 171.847 1081.37 169.584L1075.63 176.289ZM1075.91 178.362C1078.39 175.914 1079.05 173.682 1083.5 170.357L1075.91 178.362ZM1076.75 177.908C1079.19 174.355 1081.58 171.695 1082.54 170.508L1076.75 177.908ZM1078.1 179.92C1079.96 176.048 1082.49 173.807 1084.32 172.192L1078.1 179.92ZM1077.91 178.945C1079.22 177.343 1080.59 175.08 1083.9 171.786L1077.91 178.945ZM1079.36 180.054C1079.84 178.793 1082.35 176.535 1085.75 173.086L1079.36 180.054Z" stroke="#D0F733" stroke-width="0.231599" stroke-linecap="round"/>
<path d="M1072.85 174.493C1074.65 172.339 1075.79 171 1079.26 167.447M1080.49 167.197C1082.26 170.003 1084.19 171.165 1086.18 175.076L1080.49 167.197ZM1079.87 167.43C1082 169.507 1083.59 171.916 1085.84 174.416L1079.87 167.43ZM1086.23 174.014C1083.87 175.884 1082.55 179.139 1080.22 181.017L1086.23 174.014ZM1086.44 174.221C1084.13 175.784 1082.65 177.852 1079.9 180.365L1086.44 174.221ZM1079.04 181.341C1077.36 178.129 1074.97 175.452 1073.11 173.721L1079.04 181.341ZM1079.27 180.339C1077.81 178.914 1076.37 177.818 1072.75 174.653L1079.27 180.339ZM1072.11 173.971C1074.67 172.24 1075.92 171.592 1079.93 167.97L1072.11 173.971Z" stroke="black" stroke-width="0.926398" stroke-linecap="round"/>
<path d="M1269.9 184.239C1274.47 178.973 1277.83 175.016 1280.29 172.788M1260.6 175.678C1265.2 171.614 1269.2 166.525 1271.89 163.615L1260.6 175.678ZM1262.09 176.283C1265.34 171.614 1270.64 166.853 1272.46 164.141L1262.09 176.283ZM1262.6 176.816C1266.59 174.19 1269.52 171.137 1275 167.401L1262.6 176.816ZM1264.43 177.435C1267.04 174.404 1271.29 170.112 1273.89 166.383L1264.43 177.435ZM1264.89 180.851C1268.98 176.816 1270.07 173.137 1277.4 167.657L1264.89 180.851ZM1266.27 180.104C1270.29 174.247 1274.24 169.863 1275.81 167.906L1266.27 180.104ZM1268.49 183.421C1271.57 177.037 1275.74 173.343 1278.75 170.682L1268.49 183.421ZM1268.19 181.812C1270.34 179.172 1272.6 175.443 1278.06 170.013L1268.19 181.812ZM1270.58 183.641C1271.37 181.563 1275.51 177.841 1281.1 172.155L1270.58 183.641Z" stroke="#2F380B" stroke-width="0.231599" stroke-linecap="round"/>
<path d="M1259.85 174.475C1262.81 170.924 1264.69 168.717 1270.41 162.86M1272.44 162.447C1275.36 167.073 1278.54 168.988 1281.81 175.436L1272.44 162.447ZM1271.41 162.832C1274.92 166.255 1277.55 170.226 1281.25 174.347L1271.41 162.832ZM1281.89 173.685C1278.01 176.766 1275.84 182.132 1271.99 185.228L1281.89 173.685ZM1282.25 174.026C1278.44 176.603 1276.01 180.012 1271.47 184.154L1282.25 174.026ZM1270.05 185.762C1267.27 180.467 1263.34 176.055 1260.27 173.201L1270.05 185.762ZM1270.42 184.111C1268.01 181.762 1265.65 179.955 1259.68 174.738L1270.42 184.111ZM1258.63 173.614C1262.85 170.76 1264.9 169.692 1271.51 163.721L1258.63 173.614Z" stroke="black" stroke-width="0.926398" stroke-linecap="round"/>
<path d="M1352.55 186.58C1352.58 186.548 1352.69 186.355 1352.89 186.002C1352.91 185.962 1352.94 185.894 1352.98 185.797C1353.02 185.701 1353.05 185.641 1353.06 185.617C1353.08 185.585 1353.1 185.524 1353.13 185.436C1353.17 185.34 1353.19 185.279 1353.19 185.255C1353.2 185.223 1353.21 185.163 1353.23 185.075C1353.25 184.978 1353.26 184.914 1353.24 184.882C1353.23 184.85 1353.23 184.782 1353.24 184.677C1353.23 184.525 1353.19 184.416 1353.11 184.352C1353.03 184.288 1352.89 184.24 1352.69 184.208C1352.49 184.176 1352.37 184.151 1352.32 184.135C1352.26 184.103 1352.19 184.083 1352.11 184.075C1352.03 184.059 1351.96 184.051 1351.89 184.051C1351.84 184.051 1351.75 184.055 1351.64 184.063C1351.53 184.063 1351.46 184.063 1351.42 184.063C1351.55 184.384 1351.56 184.75 1351.45 185.159C1351.33 185.569 1351.12 185.862 1350.81 186.038C1350.04 186.568 1349.15 186.825 1348.13 186.809C1347.68 186.857 1347.24 186.773 1346.8 186.556C1346.36 186.331 1346 186.034 1345.7 185.665C1345.14 184.87 1345.09 184.031 1345.54 183.148C1345.87 182.409 1346.55 181.675 1347.6 180.944C1347.69 180.856 1347.79 180.767 1347.91 180.679C1348.02 180.583 1348.11 180.502 1348.19 180.438C1348.27 180.374 1348.39 180.294 1348.56 180.197C1348.72 180.093 1348.82 180.025 1348.88 179.993C1348.94 179.952 1349.07 179.876 1349.25 179.764C1349.45 179.651 1349.56 179.587 1349.59 179.571L1350.05 179.342L1350.19 179.186C1350.35 179.081 1350.56 178.981 1350.81 178.885C1350.98 178.852 1351.15 178.885 1351.33 178.981C1351.5 179.069 1351.63 179.19 1351.72 179.342C1351.77 179.832 1351.59 180.185 1351.19 180.402C1350.85 180.683 1350.47 180.836 1350.05 180.86H1349.82C1349.63 180.916 1349.45 180.98 1349.29 181.052C1349.13 181.125 1348.95 181.233 1348.75 181.377C1348.56 181.522 1348.42 181.622 1348.35 181.679C1348.29 181.727 1348.13 181.863 1347.87 182.088C1347.62 182.313 1347.48 182.437 1347.46 182.461C1347.12 182.783 1346.87 183.084 1346.69 183.365C1346.51 183.638 1346.44 183.947 1346.46 184.292C1346.5 184.685 1346.69 185.023 1347.03 185.304C1347.36 185.577 1347.73 185.721 1348.13 185.737C1348.54 185.801 1349.15 185.677 1349.96 185.364C1350.14 185.283 1350.27 185.167 1350.35 185.015C1350.43 184.854 1350.43 184.689 1350.34 184.521C1350.11 184.296 1349.96 184.119 1349.89 183.991C1349.74 183.919 1349.51 183.858 1349.22 183.81C1348.92 183.762 1348.71 183.718 1348.59 183.678C1348.5 183.581 1348.43 183.509 1348.39 183.461C1348.35 183.413 1348.31 183.345 1348.29 183.256C1348.27 183.168 1348.26 183.068 1348.28 182.955C1348.26 182.578 1348.37 182.337 1348.59 182.233C1348.66 182.241 1348.75 182.241 1348.88 182.233C1349.02 182.225 1349.13 182.225 1349.21 182.233C1349.29 182.233 1349.37 182.253 1349.47 182.293C1349.58 182.325 1349.66 182.381 1349.74 182.461C1349.78 182.51 1349.84 182.534 1349.89 182.534C1349.94 182.55 1350.13 182.594 1350.47 182.666C1350.82 182.738 1351.03 182.799 1351.11 182.847C1351.25 182.871 1351.47 182.899 1351.76 182.931C1352.06 182.963 1352.29 182.991 1352.47 183.015C1352.65 183.039 1352.86 183.084 1353.1 183.148C1353.33 183.212 1353.53 183.288 1353.7 183.377C1353.91 183.505 1354.1 183.686 1354.24 183.919C1354.38 184.151 1354.46 184.392 1354.47 184.641C1354.32 185.492 1354.1 186.215 1353.78 186.809C1353.74 186.897 1353.69 187.054 1353.61 187.279C1353.55 187.511 1353.48 187.708 1353.4 187.869C1353.32 188.037 1353.22 188.162 1353.1 188.242L1353.02 188.254C1352.98 188.254 1352.96 188.254 1352.94 188.254C1352.88 188.27 1352.83 188.262 1352.77 188.23C1352.72 188.198 1352.67 188.146 1352.6 188.073C1352.54 188.001 1352.5 187.957 1352.48 187.941C1352.47 187.395 1352.49 186.941 1352.55 186.58Z" fill="black"/>
<path d="M1355.08 183.654C1355.14 183.3 1355.26 182.995 1355.44 182.738C1355.63 182.481 1355.89 182.2 1356.23 181.895C1356.52 181.751 1356.89 181.679 1357.35 181.679C1357.91 181.679 1358.37 181.775 1358.73 181.968C1359.42 182.393 1359.9 182.75 1360.19 183.039C1360.19 183.064 1360.19 183.124 1360.2 183.22C1360.21 183.316 1360.21 183.397 1360.19 183.461C1360.18 183.525 1360.15 183.561 1360.11 183.569C1359.85 183.609 1359.59 183.569 1359.32 183.449C1359.26 183.409 1359.15 183.349 1359.01 183.268C1358.87 183.18 1358.76 183.116 1358.68 183.076C1358.61 183.035 1358.52 182.995 1358.4 182.955C1358.28 182.915 1358.16 182.891 1358.05 182.883C1357.98 182.883 1357.88 182.883 1357.73 182.883C1357.59 182.875 1357.47 182.875 1357.38 182.883C1357.3 182.883 1357.2 182.895 1357.08 182.919C1356.96 182.943 1356.85 182.983 1356.76 183.039L1356.69 183.112C1356.4 183.497 1356.22 183.794 1356.14 184.003C1356.16 184.244 1356.16 184.461 1356.14 184.653C1356.13 184.838 1356.12 185.051 1356.13 185.292C1356.15 185.532 1356.18 185.745 1356.23 185.93C1356.28 186.026 1356.32 186.122 1356.32 186.219C1356.33 186.307 1356.31 186.412 1356.26 186.532C1356.22 186.652 1356.18 186.737 1356.16 186.785C1356.14 186.825 1356.09 186.917 1356 187.062C1355.93 187.158 1355.84 187.206 1355.73 187.206C1355.62 187.206 1355.51 187.158 1355.38 187.062C1355.19 186.941 1355.04 186.717 1354.93 186.387C1354.93 185.119 1354.98 184.208 1355.08 183.654Z" fill="black"/>
<path d="M1360.17 185.279V183.979C1360.12 183.89 1360.09 183.762 1360.09 183.593C1360.09 183.425 1360.12 183.3 1360.17 183.22C1360.29 183.132 1360.44 183.039 1360.6 182.943C1360.76 182.847 1360.93 182.742 1361.13 182.63C1361.32 182.518 1361.46 182.433 1361.55 182.377C1361.88 182.176 1362.31 182.076 1362.81 182.076C1363.41 182.076 1363.98 182.204 1364.52 182.461C1365.08 182.718 1365.53 183.072 1365.89 183.521C1366.31 184.091 1366.41 184.625 1366.2 185.123C1365.68 186.006 1364.92 186.564 1363.91 186.797C1363.78 186.845 1363.63 186.881 1363.47 186.905C1363.32 186.929 1363.2 186.941 1363.1 186.941C1363 186.949 1362.85 186.949 1362.64 186.941C1362.43 186.941 1362.3 186.941 1362.23 186.941C1361.82 186.853 1361.54 186.789 1361.38 186.749C1361.23 186.709 1361.06 186.628 1360.88 186.508C1360.71 186.379 1360.58 186.231 1360.49 186.062C1360.41 185.894 1360.3 185.633 1360.17 185.279ZM1361.32 185.279C1361.37 185.392 1361.47 185.516 1361.6 185.653C1361.72 185.781 1361.84 185.858 1361.93 185.882C1362.12 185.978 1362.38 186.026 1362.73 186.026C1363.05 186.026 1363.38 185.982 1363.73 185.894C1364.08 185.797 1364.41 185.637 1364.7 185.412C1365 185.179 1365.17 184.906 1365.21 184.593C1365.22 184.497 1365.22 184.42 1365.22 184.364C1365.22 184.308 1365.19 184.244 1365.14 184.171C1365.09 184.091 1365.04 184.031 1365 183.991C1364.96 183.951 1364.91 183.899 1364.83 183.834C1364.76 183.77 1364.71 183.718 1364.68 183.678C1364 183.3 1363.48 183.112 1363.12 183.112C1362.95 183.112 1362.78 183.148 1362.62 183.22C1362.55 183.244 1362.47 183.296 1362.39 183.377C1362.16 183.593 1362 183.718 1361.93 183.75C1361.91 183.774 1361.86 183.818 1361.79 183.882C1361.72 183.947 1361.67 184.003 1361.62 184.051C1361.57 184.091 1361.52 184.143 1361.47 184.208C1361.43 184.264 1361.41 184.316 1361.4 184.364C1361.35 184.453 1361.33 184.553 1361.32 184.665C1361.31 184.778 1361.31 184.882 1361.32 184.978C1361.33 185.067 1361.33 185.167 1361.32 185.279Z" fill="black"/>
<path d="M1366.77 183.413C1366.78 183.357 1366.78 183.272 1366.78 183.16C1366.79 183.039 1366.8 182.947 1366.81 182.883C1366.81 182.811 1366.83 182.738 1366.84 182.666C1366.87 182.594 1366.89 182.542 1366.93 182.51C1367.1 182.365 1367.34 182.261 1367.65 182.196C1367.71 182.188 1367.76 182.2 1367.82 182.233C1367.87 182.257 1367.92 182.285 1367.95 182.317C1367.99 182.349 1368.04 182.397 1368.1 182.461C1368.15 182.518 1368.19 182.558 1368.22 182.582C1368.22 182.654 1368.23 182.774 1368.25 182.943C1368.28 183.112 1368.29 183.24 1368.29 183.328C1368.3 183.417 1368.27 183.521 1368.22 183.642C1368.08 183.834 1367.98 184.192 1367.91 184.713C1367.9 184.994 1367.9 185.3 1367.91 185.629C1367.93 185.685 1367.97 185.713 1368.02 185.713C1368.14 185.649 1368.29 185.484 1368.49 185.219C1368.69 184.954 1368.81 184.81 1368.83 184.786L1368.9 184.641C1368.91 184.617 1368.93 184.545 1368.95 184.424C1368.98 184.304 1369.02 184.224 1369.06 184.184C1369.2 184.031 1369.48 183.927 1369.9 183.87C1369.97 183.87 1370.03 183.89 1370.08 183.931C1370.14 183.971 1370.18 184.011 1370.2 184.051C1370.23 184.091 1370.27 184.155 1370.32 184.244C1370.38 184.332 1370.42 184.388 1370.43 184.412C1370.53 184.75 1370.58 185.002 1370.58 185.171L1370.73 185.328H1370.96C1371.18 185.143 1371.38 184.946 1371.56 184.738C1371.76 184.521 1371.98 184.236 1372.25 183.882C1372.52 183.521 1372.7 183.288 1372.79 183.184C1372.83 183.112 1373.01 182.859 1373.32 182.425L1373.92 181.823C1373.98 181.775 1374.04 181.747 1374.1 181.739C1374.18 181.731 1374.26 181.731 1374.35 181.739C1374.43 181.747 1374.5 181.747 1374.54 181.739C1374.72 181.875 1374.75 182.132 1374.61 182.51C1373.9 183.441 1373.29 184.2 1372.79 184.786C1372.41 185.34 1371.94 185.894 1371.37 186.448C1371.09 186.713 1370.75 186.845 1370.35 186.845C1369.99 186.717 1369.71 186.436 1369.52 186.002L1369.43 185.93C1369.29 186.01 1369.07 186.199 1368.79 186.496C1368.52 186.785 1368.28 186.974 1368.07 187.062C1368.05 187.062 1367.99 187.062 1367.91 187.062C1367.84 187.07 1367.78 187.074 1367.73 187.074C1367.69 187.074 1367.65 187.066 1367.59 187.05C1367.53 187.034 1367.49 187.014 1367.46 186.99C1367.24 186.853 1367.06 186.552 1366.93 186.086C1366.88 185.894 1366.85 185.677 1366.83 185.436C1366.82 185.195 1366.83 184.982 1366.84 184.798C1366.86 184.605 1366.86 184.384 1366.84 184.135V183.798C1366.84 183.79 1366.83 183.73 1366.81 183.618C1366.78 183.497 1366.77 183.429 1366.77 183.413Z" fill="black"/>
<path d="M1374 180.173C1374.05 180.053 1374.13 179.956 1374.25 179.884C1374.38 179.804 1374.51 179.772 1374.65 179.788C1374.7 179.78 1374.74 179.78 1374.78 179.788C1374.82 179.796 1374.86 179.812 1374.9 179.836C1374.95 179.86 1374.99 179.88 1375.01 179.896C1375.04 179.912 1375.07 179.948 1375.11 180.005C1375.16 180.061 1375.19 180.097 1375.21 180.113C1375.22 180.121 1375.25 180.161 1375.3 180.233L1375.37 180.33C1375.41 180.41 1375.56 180.587 1375.83 180.86C1375.89 180.94 1375.92 181.036 1375.92 181.149C1375.92 181.253 1375.9 181.337 1375.83 181.402H1375.57C1375.43 181.426 1375.29 181.418 1375.14 181.377C1375.01 181.337 1374.82 181.257 1374.59 181.137C1374.37 181.016 1374.25 180.952 1374.23 180.944C1374.09 180.864 1374 180.751 1373.95 180.607C1373.91 180.454 1373.93 180.31 1374 180.173ZM1374.77 186.279C1374.76 186.183 1374.73 185.974 1374.7 185.653C1374.67 185.324 1374.63 184.982 1374.6 184.629C1374.57 184.268 1374.55 184.055 1374.54 183.991C1374.53 183.774 1374.53 183.545 1374.54 183.304C1374.66 183.096 1374.86 183.019 1375.14 183.076C1375.25 183.124 1375.35 183.276 1375.46 183.533C1375.46 183.702 1375.47 183.878 1375.49 184.063C1375.53 184.248 1375.55 184.404 1375.58 184.533C1375.61 184.661 1375.65 184.83 1375.71 185.039C1375.77 185.247 1375.81 185.408 1375.83 185.52C1375.83 185.585 1375.82 185.689 1375.81 185.833C1375.8 185.97 1375.79 186.102 1375.77 186.231C1375.76 186.359 1375.76 186.428 1375.76 186.436C1375.75 186.46 1375.74 186.504 1375.72 186.568C1375.71 186.632 1375.7 186.685 1375.69 186.725C1375.68 186.765 1375.66 186.809 1375.63 186.857C1375.6 186.897 1375.57 186.929 1375.53 186.953C1375.31 186.994 1375.14 186.945 1375 186.809C1374.86 186.568 1374.79 186.391 1374.77 186.279Z" fill="black"/>
<path d="M1379.79 183.605C1379.26 184.055 1378.78 184.613 1378.35 185.279C1378.33 185.312 1378.22 185.488 1378.03 185.809C1377.85 186.122 1377.72 186.351 1377.66 186.496C1377.57 186.64 1377.44 186.693 1377.27 186.652L1376.74 186.11V185.737C1376.78 185.528 1376.83 185.123 1376.88 184.521C1376.92 183.919 1376.96 183.561 1376.97 183.449C1376.97 183.409 1376.97 183.373 1376.96 183.341L1376.91 183.027C1376.9 182.995 1376.9 182.959 1376.9 182.919V182.871C1376.9 182.742 1376.94 182.638 1377.02 182.558C1377.11 182.477 1377.22 182.441 1377.35 182.449C1377.6 182.449 1377.78 182.53 1377.89 182.69C1377.94 182.907 1377.97 183.188 1377.97 183.533C1377.97 183.605 1377.97 183.698 1377.96 183.81C1377.96 183.915 1377.96 183.971 1377.96 183.979C1378.02 183.931 1378.15 183.81 1378.35 183.618C1378.55 183.417 1378.67 183.284 1378.72 183.22C1378.77 183.148 1378.84 183.051 1378.92 182.931C1379.01 182.803 1379.1 182.694 1379.18 182.606C1379.26 182.51 1379.35 182.417 1379.47 182.329C1379.51 182.273 1379.55 182.233 1379.61 182.208C1379.67 182.176 1379.72 182.16 1379.77 182.16C1379.82 182.152 1379.88 182.148 1379.95 182.148C1380.01 182.148 1380.08 182.148 1380.14 182.148C1380.23 182.116 1380.32 182.124 1380.4 182.172C1380.5 182.212 1380.6 182.301 1380.71 182.437C1380.81 182.566 1380.87 182.654 1380.9 182.702C1380.93 182.75 1380.99 182.851 1381.09 183.003C1381.34 183.581 1381.46 184.212 1381.46 184.894L1381.69 185.882C1381.69 185.906 1381.72 185.986 1381.77 186.122C1381.82 186.259 1381.85 186.331 1381.85 186.339C1381.87 186.556 1381.81 186.709 1381.69 186.797C1381.67 186.805 1381.61 186.829 1381.51 186.869C1381.42 186.901 1381.36 186.917 1381.31 186.917C1381.23 186.917 1381.18 186.877 1381.16 186.797C1381.15 186.773 1381.09 186.685 1380.99 186.532C1380.91 186.371 1380.83 186.259 1380.78 186.195C1380.63 185.665 1380.53 185.155 1380.48 184.665C1380.45 184.609 1380.42 184.489 1380.37 184.304C1380.33 184.111 1380.29 183.979 1380.25 183.907C1380.08 183.714 1379.97 183.609 1379.91 183.593C1379.85 183.593 1379.81 183.597 1379.79 183.605Z" fill="black"/>
<path d="M1383.02 189.543C1383.2 189.398 1383.38 189.326 1383.57 189.326C1383.71 189.326 1383.83 189.374 1383.93 189.47C1383.97 189.511 1384.08 189.631 1384.24 189.832C1384.41 190.041 1384.56 190.193 1384.69 190.289C1384.82 190.386 1384.96 190.446 1385.11 190.47C1385.14 190.47 1385.15 190.466 1385.16 190.458C1385.33 190.378 1385.45 190.237 1385.52 190.037C1385.59 189.836 1385.64 189.583 1385.67 189.278C1385.7 188.973 1385.73 188.76 1385.76 188.64C1385.79 188.431 1385.84 188.09 1385.89 187.616C1385.96 187.142 1386.01 186.801 1386.05 186.592H1385.92C1385.5 186.689 1385.09 186.737 1384.69 186.737C1384.3 186.737 1383.9 186.689 1383.47 186.592C1383.14 186.399 1382.86 186.159 1382.62 185.87C1382.39 185.573 1382.26 185.251 1382.26 184.906C1382.29 184.553 1382.47 184.204 1382.81 183.858C1383.15 183.505 1383.5 183.248 1383.86 183.088C1384.16 182.839 1384.53 182.714 1384.97 182.714C1385.54 182.714 1385.95 182.911 1386.22 183.304C1386.22 183.353 1386.22 183.429 1386.22 183.533C1386.23 183.63 1386.23 183.706 1386.22 183.762C1386.22 183.81 1386.19 183.858 1386.15 183.907C1386.1 183.955 1386.02 183.983 1385.92 183.991C1385.82 183.935 1385.56 183.882 1385.14 183.834C1384.63 183.802 1384.13 184.083 1383.63 184.677C1383.59 184.717 1383.56 184.762 1383.55 184.81C1383.53 184.858 1383.53 184.906 1383.55 184.954C1383.56 185.002 1383.58 185.047 1383.59 185.087C1383.62 185.127 1383.65 185.171 1383.69 185.219C1383.74 185.259 1383.77 185.296 1383.8 185.328C1383.83 185.352 1383.87 185.388 1383.92 185.436C1383.97 185.476 1384 185.504 1384.02 185.52C1384.26 185.617 1384.52 185.665 1384.81 185.665C1385.07 185.665 1385.33 185.625 1385.59 185.544C1385.87 185.456 1386.11 185.316 1386.33 185.123C1386.54 184.93 1386.66 184.705 1386.68 184.448C1386.75 184.095 1386.95 183.866 1387.29 183.762H1387.33C1387.34 183.77 1387.38 183.782 1387.44 183.798C1387.5 183.814 1387.54 183.826 1387.56 183.834C1387.57 183.834 1387.6 183.842 1387.65 183.858C1387.7 183.874 1387.73 183.886 1387.75 183.895C1387.77 183.903 1387.8 183.919 1387.83 183.943C1387.87 183.959 1387.9 183.979 1387.91 184.003C1387.92 184.019 1387.94 184.043 1387.95 184.075C1387.98 184.099 1387.99 184.127 1387.99 184.159C1387.99 184.184 1387.99 184.216 1387.99 184.256C1387.99 184.296 1387.99 184.336 1387.98 184.376C1387.99 184.617 1387.89 184.95 1387.65 185.376C1387.43 185.793 1387.29 186.09 1387.25 186.267C1386.9 187.407 1386.66 188.527 1386.52 189.627C1386.46 190.318 1386.34 190.823 1386.15 191.144C1385.91 191.506 1385.71 191.739 1385.56 191.843C1385.43 191.915 1385.3 191.963 1385.16 191.988C1384.76 191.827 1384.27 191.522 1383.7 191.072C1383.53 190.984 1383.39 190.912 1383.29 190.855C1383.2 190.799 1383.11 190.715 1383 190.603C1382.9 190.49 1382.83 190.366 1382.79 190.229C1382.77 189.892 1382.85 189.663 1383.02 189.543Z" fill="black"/>
<path d="M1334.98 167.971C1360.09 167.895 1385.15 167.843 1447.98 167.922L1334.98 167.971ZM1335.26 167.92C1358.69 167.892 1382.17 167.934 1447.72 167.934L1335.26 167.92ZM1447.87 167.914C1447.49 174.83 1447.49 181.828 1447.79 196.697L1447.87 167.914ZM1447.88 167.906C1448.17 178.6 1448.17 189.287 1447.87 196.708L1447.88 167.906ZM1447.63 196.77C1414.96 196.813 1381.86 196.85 1334.99 196.721L1447.63 196.77ZM1447.74 196.711C1408.45 196.761 1369.2 196.761 1335.18 196.734L1447.74 196.711ZM1335.36 196.714C1335.7 186.536 1335.64 176.298 1335.21 167.954L1335.36 196.714ZM1335.08 196.73C1335.26 187.887 1335.35 179.024 1335.13 167.948Z" fill="white"/>
<path d="M1335.08 196.73C1335.26 187.887 1335.35 179.024 1335.13 167.948M1334.98 167.971C1360.09 167.895 1385.15 167.843 1447.98 167.922L1334.98 167.971ZM1335.26 167.92C1358.69 167.892 1382.17 167.934 1447.72 167.934L1335.26 167.92ZM1447.87 167.914C1447.49 174.83 1447.49 181.828 1447.79 196.697L1447.87 167.914ZM1447.88 167.906C1448.17 178.6 1448.17 189.287 1447.87 196.708L1447.88 167.906ZM1447.63 196.77C1414.96 196.813 1381.86 196.85 1334.99 196.721L1447.63 196.77ZM1447.74 196.711C1408.45 196.761 1369.2 196.761 1335.18 196.734L1447.74 196.711ZM1335.36 196.714C1335.7 186.536 1335.64 176.298 1335.21 167.954L1335.36 196.714Z" stroke="black" stroke-width="1.3896" stroke-linecap="round"/>
<g clip-path="url(#clip3_8_921)">
<path d="M1336.7 409.715H1331.07V408.911H1336.7V409.715Z" fill="black"/>
</g>
<g clip-path="url(#clip4_8_921)">
<path d="M1354.4 409.715H1351.99V412.129H1351.18V409.715H1348.77V408.911H1351.18V406.498H1351.99V408.911H1354.4V409.715Z" fill="black"/>
</g>
<text fill="black" xml:space="preserve" style="white-space: pre" font-family="Inter" font-size="7.2401" letter-spacing="0em"><tspan x="1364.45" y="411.946">100%</tspan></text>
<g clip-path="url(#clip5_8_921)">
<path d="M1395.72 406.85V405.442L1393.96 407.201L1395.72 408.961V407.553C1396.89 407.553 1397.83 408.5 1397.83 409.665C1397.83 410.83 1396.89 411.777 1395.72 411.777C1394.56 411.777 1393.61 410.83 1393.61 409.665H1392.91C1392.91 411.221 1394.17 412.481 1395.72 412.481C1397.28 412.481 1398.54 411.221 1398.54 409.665C1398.54 408.109 1397.28 406.85 1395.72 406.85Z" fill="black"/>
</g>
<g clip-path="url(#clip6_8_921)">
<path d="M1414.2 407.325C1413.69 406.814 1412.99 406.498 1412.21 406.498C1410.66 406.498 1409.4 407.758 1409.4 409.313C1409.4 410.869 1410.66 412.129 1412.21 412.129C1413.53 412.129 1414.62 411.231 1414.93 410.017H1414.2C1413.91 410.837 1413.13 411.425 1412.21 411.425C1411.05 411.425 1410.1 410.478 1410.1 409.313C1410.1 408.148 1411.05 407.201 1412.21 407.201C1412.8 407.201 1413.32 407.444 1413.7 407.828L1412.57 408.961H1415.03V406.498L1414.2 407.325Z" fill="black"/>
</g>
<rect x="851.614" y="103.218" width="20.9158" height="20.9158" rx="10.4579" fill="#F3F3F3"/>
<g clip-path="url(#clip7_8_921)">
<path d="M858.049 115.285V116.089H866.094V115.285H858.049ZM858.049 113.273V114.078H866.094V113.273H858.049ZM858.049 111.262V112.067H866.094V111.262H858.049Z" fill="black"/>
</g>
<rect x="1064.19" y="106.436" width="17.698" height="17.698" rx="3.21782" fill="#6965DB"/>
<g clip-path="url(#clip8_8_921)">
<path d="M1071.24 111.469C1071.16 111.393 1071.03 111.447 1071.03 111.554V117.419C1071.03 117.525 1071.16 117.579 1071.23 117.505L1072.2 116.567C1072.26 116.508 1072.36 116.529 1072.39 116.607L1073.19 118.481C1073.21 118.543 1073.28 118.571 1073.34 118.545L1074.57 118.022C1074.63 117.996 1074.66 117.926 1074.64 117.865L1073.91 116.103C1073.87 116.023 1073.93 115.936 1074.02 115.936H1075.4C1075.51 115.936 1075.56 115.806 1075.49 115.73L1071.24 111.469Z" fill="white"/>
</g>
<g clip-path="url(#clip9_8_921)">
<path d="M1098.92 112.335H1093.02V118.234H1098.92V112.335Z" fill="black"/>
</g>
<g clip-path="url(#clip10_8_921)">
<path d="M1114.87 111.262L1111.65 115.285L1114.87 119.307L1118.09 115.285L1114.87 111.262Z" fill="black"/>
</g>
<g clip-path="url(#clip11_8_921)">
<path d="M1133.78 111.966C1131.94 111.966 1130.46 113.45 1130.46 115.285C1130.46 117.12 1131.94 118.603 1133.78 118.603C1135.61 118.603 1137.09 117.12 1137.09 115.285C1137.09 113.45 1135.61 111.966 1133.78 111.966Z" fill="black"/>
</g>
<g clip-path="url(#clip12_8_921)">
<path d="M1158.18 115.285L1156.3 113.408V114.815H1149.26V115.754H1156.3V117.162L1158.18 115.285Z" fill="black"/>
</g>
<g clip-path="url(#clip13_8_921)">
<path d="M1170.18 114.815H1178.62V115.754H1170.18V114.815Z" fill="black"/>
</g>
<g clip-path="url(#clip14_8_921)">
<path d="M1190.74 117.132V118.452H1192.06L1195.95 114.56L1194.63 113.24L1190.74 117.132ZM1196.98 113.539C1197.11 113.402 1197.11 113.18 1196.98 113.043L1196.15 112.219C1196.01 112.082 1195.79 112.082 1195.66 112.219L1195.01 112.863L1196.33 114.183L1196.98 113.539V113.539Z" fill="black"/>
</g>
<g clip-path="url(#clip15_8_921)">
<path d="M1211.32 116.786H1213.91L1214.37 117.966H1215.46L1213 112.067H1212.23L1209.77 117.966H1210.85L1211.32 116.786ZM1212.61 113.129L1213.58 115.821H1211.65L1212.61 113.129Z" fill="black"/>
</g>
<g clip-path="url(#clip16_8_921)">
<path d="M1234.1 112.704V117.866H1228.94V112.704H1234.1ZM1234.1 111.966H1228.94C1228.53 111.966 1228.2 112.298 1228.2 112.704V117.866C1228.2 118.271 1228.53 118.603 1228.94 118.603H1234.1C1234.5 118.603 1234.84 118.271 1234.84 117.866V112.704C1234.84 112.298 1234.5 111.966 1234.1 111.966ZM1232.31 115.233L1231.2 116.66L1230.41 115.705L1229.31 117.128H1233.73L1232.31 115.233Z" fill="black"/>
</g>
</g>
<rect x="848" y="433" width="580" height="365" rx="4" fill="#2A2A2A"/>
<path d="M861.583 446.698C861.373 446.519 861.058 446.543 860.878 446.753C860.698 446.962 860.723 447.278 860.932 447.458L861.583 446.698ZM866.455 451.533L866.78 451.153L866.455 451.533ZM866.455 452.467L866.78 452.847V452.847L866.455 452.467ZM860.932 456.542C860.723 456.722 860.698 457.038 860.878 457.247C861.058 457.457 861.373 457.481 861.583 457.302L860.932 456.542ZM867 456.422C866.724 456.422 866.5 456.646 866.5 456.922C866.5 457.198 866.724 457.422 867 457.422V456.422ZM872.742 457.422C873.018 457.422 873.242 457.198 873.242 456.922C873.242 456.646 873.018 456.422 872.742 456.422V457.422ZM860.932 447.458L866.13 451.913L866.78 451.153L861.583 446.698L860.932 447.458ZM866.13 452.087L860.932 456.542L861.583 457.302L866.78 452.847L866.13 452.087ZM866.13 451.913C866.183 451.958 866.183 452.042 866.13 452.087L866.78 452.847C867.3 452.402 867.3 451.598 866.78 451.153L866.13 451.913ZM867 457.422H872.742V456.422H867V457.422Z" fill="#999999"/>
<text fill="#999999" xml:space="preserve" style="white-space: pre" font-family="Inter" font-size="11" letter-spacing="0.01em"><tspan x="886" y="457">Log - Application</tspan></text>
<path fill-rule="evenodd" clip-rule="evenodd" d="M1342.67 453C1342.67 450.054 1345.05 447.667 1348 447.667C1350.32 447.667 1352.3 449.15 1353.03 451.222C1353.07 451.347 1353.16 451.444 1353.27 451.5H1349C1348.72 451.5 1348.5 451.724 1348.5 452C1348.5 452.276 1348.72 452.5 1349 452.5H1353.73C1354.06 452.5 1354.33 452.231 1354.33 451.9V447.167C1354.33 446.89 1354.11 446.667 1353.83 446.667C1353.56 446.667 1353.33 446.89 1353.33 447.167V449.585C1352.21 447.83 1350.24 446.667 1348 446.667C1344.5 446.667 1341.67 449.502 1341.67 453C1341.67 456.498 1344.5 459.333 1348 459.333C1350.34 459.333 1352.39 458.059 1353.48 456.167C1353.62 455.928 1353.54 455.622 1353.3 455.484C1353.06 455.345 1352.76 455.427 1352.62 455.666C1351.7 457.262 1349.97 458.333 1348 458.333C1345.05 458.333 1342.67 455.945 1342.67 453Z" fill="#999999"/>
<path fill-rule="evenodd" clip-rule="evenodd" d="M1376.5 446.583C1375.67 446.583 1375 447.255 1375 448.083V451.667H1372.25C1371.42 451.667 1370.75 452.338 1370.75 453.167V457.833C1370.75 458.662 1371.42 459.333 1372.25 459.333H1379.5C1380.33 459.333 1381 458.662 1381 457.833V454.333H1383.75C1384.58 454.333 1385.25 453.662 1385.25 452.833V448.083C1385.25 447.255 1384.58 446.583 1383.75 446.583H1376.5ZM1380.7 453.333C1380.64 453.306 1380.57 453.292 1380.5 453.292C1380.43 453.292 1380.36 453.306 1380.3 453.333H1376.5C1376.22 453.333 1376 453.109 1376 452.833V452.367C1376.03 452.306 1376.04 452.238 1376.04 452.167C1376.04 452.095 1376.03 452.028 1376 451.966V448.083C1376 447.807 1376.22 447.583 1376.5 447.583H1383.75C1384.03 447.583 1384.25 447.807 1384.25 448.083V452.833C1384.25 453.109 1384.03 453.333 1383.75 453.333H1380.7ZM1375 452.667V452.833C1375 453.662 1375.67 454.333 1376.5 454.333H1380V457.833C1380 458.109 1379.78 458.333 1379.5 458.333H1372.25C1371.97 458.333 1371.75 458.109 1371.75 457.833V453.167C1371.75 452.89 1371.97 452.667 1372.25 452.667H1375Z" fill="#999999"/>
<path fill-rule="evenodd" clip-rule="evenodd" d="M1404.08 454.022C1404.22 453.808 1404.3 453.557 1404.3 453.3C1404.3 452.955 1404.16 452.625 1403.92 452.381C1403.68 452.137 1403.34 452 1403 452C1402.74 452 1402.49 452.076 1402.28 452.219C1402.06 452.362 1401.9 452.565 1401.8 452.803C1401.7 453.04 1401.67 453.301 1401.72 453.554C1401.78 453.806 1401.9 454.037 1402.08 454.219C1402.26 454.401 1402.49 454.525 1402.75 454.575C1403 454.625 1403.26 454.599 1403.5 454.501C1403.74 454.403 1403.94 454.236 1404.08 454.022ZM1408 452C1407.74 452 1407.49 452.076 1407.28 452.219C1407.06 452.362 1406.9 452.565 1406.8 452.803C1406.7 453.04 1406.67 453.301 1406.72 453.554C1406.78 453.806 1406.9 454.037 1407.08 454.219C1407.26 454.401 1407.49 454.525 1407.75 454.575C1408 454.625 1408.26 454.599 1408.5 454.501C1408.74 454.403 1408.94 454.236 1409.08 454.022C1409.22 453.808 1409.3 453.557 1409.3 453.3C1409.3 452.955 1409.16 452.625 1408.92 452.381C1408.68 452.137 1408.34 452 1408 452ZM1413 452C1412.74 452 1412.49 452.076 1412.28 452.219C1412.06 452.362 1411.9 452.565 1411.8 452.803C1411.7 453.04 1411.67 453.301 1411.72 453.554C1411.78 453.806 1411.9 454.037 1412.08 454.219C1412.26 454.401 1412.49 454.525 1412.75 454.575C1413 454.625 1413.26 454.599 1413.5 454.501C1413.74 454.403 1413.94 454.236 1414.08 454.022C1414.22 453.808 1414.3 453.557 1414.3 453.3C1414.3 452.955 1414.16 452.625 1413.92 452.381C1413.68 452.137 1413.34 452 1413 452Z" fill="#999999"/>
<path d="M848 473H1428" stroke="#E5E5E5" stroke-opacity="0.1"/>
<text fill="#449699" xml:space="preserve" style="white-space: pre" font-family="Fira Code" font-size="13" letter-spacing="0em"><tspan x="1131.93" y="676">yarn build</tspan></text>
<text fill="#E5E5E5" xml:space="preserve" style="white-space: pre" font-family="Fira Code" font-size="13" letter-spacing="0em"><tspan x="860" y="522">&#10;</tspan><tspan x="860" y="544">You can now view excalidraw in the browser.&#10;</tspan><tspan x="860" y="566">&#10;</tspan><tspan x="860" y="588">  Local:            http://localhost:3000&#10;</tspan><tspan x="860" y="610">  On Your Network:  http://192.168.43.1:3000&#10;</tspan><tspan x="860" y="632">&#10;</tspan><tspan x="860" y="654">Note that the development build is not optimized.&#10;</tspan><tspan x="860" y="676">To create a production build, use </tspan><tspan x="1211.91" y="676">.</tspan></text>
<text fill="#4F9183" xml:space="preserve" style="white-space: pre" font-family="Fira Code" font-size="13" letter-spacing="0em"><tspan x="860" y="500">Compiled successfully!&#10;</tspan></text>
<g clip-path="url(#clip17_8_921)">
<text fill="#999999" xml:space="preserve" style="white-space: pre" font-family="Inter" font-size="13" letter-spacing="0em"><tspan x="273" y="76.7273">index.ts</tspan></text>
<text fill="#E5E5E5" xml:space="preserve" style="white-space: pre" font-family="Inter" font-size="13" letter-spacing="0em"><tspan x="351" y="76.7273">renderScene.js</tspan></text>
<text fill="#636363" xml:space="preserve" style="white-space: pre" font-family="Fira Code" font-size="11" font-weight="300" letter-spacing="0em"><tspan x="240.465" y="112.385">56&#10;</tspan><tspan x="240.465" y="136.385">57&#10;</tspan><tspan x="240.465" y="160.385">58&#10;</tspan><tspan x="240.465" y="184.385">59&#10;</tspan><tspan x="240.465" y="208.385">60&#10;</tspan><tspan x="240.465" y="232.385">61&#10;</tspan><tspan x="240.465" y="256.385">62&#10;</tspan><tspan x="240.465" y="280.385">63&#10;</tspan><tspan x="240.465" y="304.385">64&#10;</tspan><tspan x="240.465" y="328.385">65&#10;</tspan><tspan x="240.465" y="352.385">66&#10;</tspan><tspan x="240.465" y="376.385">67&#10;</tspan><tspan x="240.465" y="400.385">68&#10;</tspan><tspan x="240.465" y="424.385">69&#10;</tspan><tspan x="240.465" y="448.385">70&#10;</tspan><tspan x="240.465" y="472.385">71&#10;</tspan><tspan x="240.465" y="496.385">72&#10;</tspan><tspan x="240.465" y="520.385">73&#10;</tspan><tspan x="240.465" y="544.385">74&#10;</tspan><tspan x="240.465" y="568.385">75&#10;</tspan><tspan x="240.465" y="592.385">76&#10;</tspan><tspan x="240.465" y="616.385">77&#10;</tspan><tspan x="240.465" y="640.385">78&#10;</tspan><tspan x="240.465" y="664.385">79&#10;</tspan><tspan x="240.465" y="688.385">80&#10;</tspan><tspan x="240.465" y="712.385">81&#10;</tspan><tspan x="240.465" y="736.385">82&#10;</tspan><tspan x="240.465" y="760.385">83&#10;</tspan><tspan x="240.465" y="784.385">84&#10;</tspan><tspan x="240.465" y="808.385">85&#10;</tspan><tspan x="240.465" y="832.385">86</tspan></text>
<text fill="#7AD9FB" xml:space="preserve" style="white-space: pre" font-family="Fira Code" font-size="13" letter-spacing="0em"><tspan x="411.967" y="905">0</tspan><tspan x="507.943" y="905">2</tspan><tspan x="475.951" y="929">2</tspan><tspan x="499.945" y="929">0</tspan><tspan x="411.967" y="953">0</tspan><tspan x="515.941" y="953">2</tspan><tspan x="483.949" y="977">2</tspan><tspan x="507.943" y="977">0</tspan></text>
<text fill="#86897A" xml:space="preserve" style="white-space: pre" font-family="Fira Code" font-size="13" letter-spacing="0em"><tspan x="555.932" y="137">,&#10;</tspan><tspan x="363.979" y="161">,&#10;</tspan><tspan x="363.979" y="185">,&#10;</tspan><tspan x="395.971" y="209">,&#10;</tspan><tspan x="403.969" y="233">,&#10;</tspan><tspan x="371.977" y="257">,&#10;</tspan><tspan x="371.977" y="281">,&#10;</tspan><tspan x="395.971" y="305">,&#10;</tspan><tspan x="459.955" y="329">,&#10;</tspan><tspan x="315.99" y="353">{&#10;</tspan><tspan x="451.957" y="401">,</tspan><tspan x="371.977" y="449">{&#10;</tspan><tspan x="491.947" y="473">,</tspan><tspan x="555.932" y="473">,</tspan><tspan x="611.918" y="473">,</tspan><tspan x="291.996" y="497">}&#10;</tspan><tspan x="491.947" y="521">,</tspan><tspan x="555.932" y="521">,</tspan><tspan x="611.918" y="521">,</tspan><tspan x="276" y="569">}</tspan><tspan x="555.932" y="641">,&#10;</tspan><tspan x="395.971" y="665">,&#10;</tspan><tspan x="403.969" y="689">,&#10;</tspan><tspan x="371.977" y="713">,&#10;</tspan><tspan x="371.977" y="737">,&#10;</tspan><tspan x="395.971" y="761">,&#10;</tspan><tspan x="315.99" y="785">{&#10;</tspan><tspan x="276" y="1073">}</tspan></text>
<text fill="white" xml:space="preserve" style="white-space: pre" font-family="Fira Code" font-size="13" letter-spacing="0em"><tspan x="291.996" y="137">context</tspan><tspan x="291.996" y="161">x</tspan><tspan x="291.996" y="185">y</tspan><tspan x="291.996" y="209">width</tspan><tspan x="291.996" y="233">height</tspan><tspan x="291.996" y="257">cx</tspan><tspan x="291.996" y="281">cy</tspan><tspan x="291.996" y="305">angle</tspan><tspan x="291.996" y="329">fill</tspan><tspan x="291.996" y="641">context</tspan><tspan x="291.996" y="665">width</tspan><tspan x="291.996" y="689">height</tspan><tspan x="291.996" y="713">cx</tspan><tspan x="291.996" y="737">cy</tspan><tspan x="291.996" y="761">angle</tspan><tspan x="283.998" y="1073">;</tspan></text>
<text fill="#E5E5E5" xml:space="preserve" style="white-space: pre" font-family="Fira Code" font-size="13" letter-spacing="0em"><tspan x="523.939" y="113">(&#10;</tspan><tspan x="276" y="353">)</tspan><tspan x="387.973" y="377">();&#10;</tspan><tspan x="427.963" y="401">(cx</tspan><tspan x="459.955" y="401"> cy);&#10;</tspan><tspan x="403.969" y="425">(angle);&#10;</tspan><tspan x="315.99" y="449">(fill)</tspan><tspan x="435.961" y="473">(x - cx</tspan><tspan x="499.945" y="473"> y - cy</tspan><tspan x="563.93" y="473"> width</tspan><tspan x="619.916" y="473"> height);&#10;</tspan><tspan x="435.961" y="521">(x - cx</tspan><tspan x="499.945" y="521"> y - cy</tspan><tspan x="563.93" y="521"> width</tspan><tspan x="619.916" y="521"> height);&#10;</tspan><tspan x="411.967" y="545">();&#10;</tspan><tspan x="283.998" y="569">;&#10;</tspan><tspan x="547.934" y="617">(&#10;</tspan><tspan x="276" y="785">)</tspan><tspan x="387.973" y="809">();&#10;</tspan><tspan x="427.963" y="833">(cx, cy);&#10;</tspan><tspan x="403.969" y="857">(angle);&#10;</tspan><tspan x="427.963" y="881">();&#10;</tspan><tspan x="403.969" y="905">(</tspan><tspan x="419.965" y="905">, height / </tspan><tspan x="515.941" y="905">);&#10;</tspan><tspan x="403.969" y="929">(width / </tspan><tspan x="483.949" y="929">, </tspan><tspan x="507.943" y="929">);&#10;</tspan><tspan x="403.969" y="953">(</tspan><tspan x="419.965" y="953">, -height / </tspan><tspan x="523.939" y="953">);&#10;</tspan><tspan x="403.969" y="977">(-width / </tspan><tspan x="491.947" y="977">, </tspan><tspan x="515.941" y="977">);&#10;</tspan><tspan x="427.963" y="1001">();&#10;</tspan><tspan x="403.969" y="1025">();&#10;</tspan><tspan x="411.967" y="1049">();&#10;</tspan></text>
<text fill="#B3E8B4" xml:space="preserve" style="white-space: pre" font-family="Fira Code" font-size="13" letter-spacing="0em"><tspan x="507.943" y="113">=</tspan><tspan x="347.982" y="137">:</tspan><tspan x="299.994" y="161">:</tspan><tspan x="299.994" y="185">:</tspan><tspan x="331.986" y="209">:</tspan><tspan x="339.984" y="233">:</tspan><tspan x="307.992" y="257">:</tspan><tspan x="307.992" y="281">:</tspan><tspan x="331.986" y="305">:</tspan><tspan x="323.988" y="329">:</tspan><tspan x="403.969" y="329">=</tspan><tspan x="531.938" y="617">=</tspan><tspan x="347.982" y="641">:</tspan><tspan x="331.986" y="665">:</tspan><tspan x="339.984" y="689">:</tspan><tspan x="307.992" y="713">:</tspan><tspan x="307.992" y="737">:</tspan><tspan x="331.986" y="761">:</tspan></text>
<text fill="#CDF861" xml:space="preserve" style="white-space: pre" font-family="Fira Code" font-size="13" letter-spacing="0em"><tspan x="315.99" y="113"> strokeRectWithRotation </tspan><tspan x="515.941" y="113"> </tspan><tspan x="276" y="137">  </tspan><tspan x="355.98" y="137"> </tspan><tspan x="276" y="161">  </tspan><tspan x="307.992" y="161"> </tspan><tspan x="276" y="185">  </tspan><tspan x="307.992" y="185"> </tspan><tspan x="276" y="209">  </tspan><tspan x="339.984" y="209"> </tspan><tspan x="276" y="233">  </tspan><tspan x="347.982" y="233"> </tspan><tspan x="276" y="257">  </tspan><tspan x="315.99" y="257"> </tspan><tspan x="276" y="281">  </tspan><tspan x="315.99" y="281"> </tspan><tspan x="276" y="305">  </tspan><tspan x="339.984" y="305"> </tspan><tspan x="276" y="329">  </tspan><tspan x="331.986" y="329"> </tspan><tspan x="395.971" y="329"> </tspan><tspan x="411.967" y="329"> </tspan><tspan x="283.998" y="353"> </tspan><tspan x="307.992" y="353"> </tspan><tspan x="276" y="377">  context.save</tspan><tspan x="276" y="401">  context.translate</tspan><tspan x="276" y="425">  context.rotate</tspan><tspan x="276" y="449">  </tspan><tspan x="307.992" y="449"> </tspan><tspan x="363.979" y="449"> </tspan><tspan x="276" y="473">    context.fillRect</tspan><tspan x="276" y="497">  </tspan><tspan x="276" y="521">  context.strokeRect</tspan><tspan x="276" y="545">  context.restore</tspan><tspan x="276" y="593">&#10;</tspan><tspan x="315.99" y="617"> strokeDiamondWithRotation </tspan><tspan x="539.936" y="617"> </tspan><tspan x="276" y="641">  </tspan><tspan x="355.98" y="641"> </tspan><tspan x="276" y="665">  </tspan><tspan x="339.984" y="665"> </tspan><tspan x="276" y="689">  </tspan><tspan x="347.982" y="689"> </tspan><tspan x="276" y="713">  </tspan><tspan x="315.99" y="713"> </tspan><tspan x="276" y="737">  </tspan><tspan x="315.99" y="737"> </tspan><tspan x="276" y="761">  </tspan><tspan x="339.984" y="761"> </tspan><tspan x="283.998" y="785"> </tspan><tspan x="307.992" y="785"> </tspan><tspan x="276" y="809">  context.save</tspan><tspan x="276" y="833">  context.translate</tspan><tspan x="276" y="857">  context.rotate</tspan><tspan x="276" y="881">  context.beginPath</tspan><tspan x="276" y="905">  context.moveTo</tspan><tspan x="276" y="929">  context.lineTo</tspan><tspan x="276" y="953">  context.lineTo</tspan><tspan x="276" y="977">  context.lineTo</tspan><tspan x="276" y="1001">  context.closePath</tspan><tspan x="276" y="1025">  context.stroke</tspan><tspan x="276" y="1049">  context.restore</tspan></text>
<text fill="#A390FF" xml:space="preserve" style="white-space: pre" font-family="Fira Code" font-size="13" letter-spacing="0em"><tspan x="276" y="113">const</tspan><tspan x="363.979" y="137">CanvasRenderingContext2D</tspan><tspan x="315.99" y="161">number</tspan><tspan x="315.99" y="185">number</tspan><tspan x="347.982" y="209">number</tspan><tspan x="355.98" y="233">number</tspan><tspan x="323.988" y="257">number</tspan><tspan x="323.988" y="281">number</tspan><tspan x="347.982" y="305">number</tspan><tspan x="339.984" y="329">boolean</tspan><tspan x="419.965" y="329">false</tspan><tspan x="291.996" y="353">=&#62;</tspan><tspan x="291.996" y="449">if</tspan><tspan x="276" y="617">const</tspan><tspan x="363.979" y="641">CanvasRenderingContext2D</tspan><tspan x="347.982" y="665">number</tspan><tspan x="355.98" y="689">number</tspan><tspan x="323.988" y="713">number</tspan><tspan x="323.988" y="737">number</tspan><tspan x="347.982" y="761">number</tspan><tspan x="291.996" y="785">=&#62;</tspan></text>
</g>
<rect x="44" y="15" width="148" height="18" rx="9" fill="#2A2A2A"/>
<text fill="#E5E5E5" xml:space="preserve" style="white-space: pre" font-family="Inter" font-size="12" letter-spacing="0em"><tspan x="52.123" y="27.8636">3 commits behind main</tspan></text>
</g>
<defs>
<pattern id="pattern0" patternContentUnits="objectBoundingBox" width="1" height="1">
<use xlink:href="#image0_8_921" transform="scale(0.000244141 0.000435161)"/>
</pattern>
<clipPath id="clip0_8_921">
<rect width="1440" height="810" fill="white"/>
</clipPath>
<clipPath id="clip1_8_921">
<rect width="239" height="660" fill="white" transform="translate(4 108)"/>
</clipPath>
<clipPath id="clip2_8_921">
<rect width="579.208" height="325" fill="white" transform="translate(848.396 100)"/>
</clipPath>
<clipPath id="clip3_8_921">
<rect width="9.65347" height="9.65347" fill="white" transform="translate(1329.06 404.486)"/>
</clipPath>
<clipPath id="clip4_8_921">
<rect width="9.65347" height="9.65347" fill="white" transform="translate(1346.76 404.486)"/>
</clipPath>
<clipPath id="clip5_8_921">
<rect width="8.44678" height="8.44678" fill="white" transform="translate(1391.5 405.09)"/>
</clipPath>
<clipPath id="clip6_8_921">
<rect width="8.44678" height="8.44678" fill="white" transform="translate(1407.99 405.09)"/>
</clipPath>
<clipPath id="clip7_8_921">
<rect width="9.65347" height="9.65347" fill="white" transform="translate(857.245 108.849)"/>
</clipPath>
<clipPath id="clip8_8_921">
<rect width="9.65347" height="9.65347" fill="white" transform="translate(1068.21 110.458)"/>
</clipPath>
<clipPath id="clip9_8_921">
<rect width="8.84901" height="8.84901" fill="white" transform="translate(1091.54 110.86)"/>
</clipPath>
<clipPath id="clip10_8_921">
<rect width="9.65347" height="9.65347" fill="white" transform="translate(1110.05 110.458)"/>
</clipPath>
<clipPath id="clip11_8_921">
<rect width="8.84901" height="8.84901" fill="white" transform="translate(1129.35 110.86)"/>
</clipPath>
<clipPath id="clip12_8_921">
<rect width="11.2624" height="11.2624" fill="white" transform="translate(1147.85 109.653)"/>
</clipPath>
<clipPath id="clip13_8_921">
<rect width="11.2624" height="11.2624" fill="white" transform="translate(1168.77 109.653)"/>
</clipPath>
<clipPath id="clip14_8_921">
<rect width="8.44678" height="8.44678" fill="white" transform="translate(1189.69 111.061)"/>
</clipPath>
<clipPath id="clip15_8_921">
<rect width="9.65347" height="9.65347" fill="white" transform="translate(1207.79 110.458)"/>
</clipPath>
<clipPath id="clip16_8_921">
<rect width="8.84901" height="8.84901" fill="white" transform="translate(1227.09 110.86)"/>
</clipPath>
<clipPath id="clip17_8_921">
<rect width="608" height="1021" fill="white" transform="translate(218 60)"/>
</clipPath>
<image id="image0_8_921"  xlinkHref="https://projects-page-wine.vercel.app/images/screenshots/product/preview.png" />
</defs>
</svg>
