<svg width="1440" height="810" viewBox="0 0 1440 810" fill="none" xmlns="http://www.w3.org/2000/svg"><g filter="url(#filter0_dd_65_10704)"><rect width="165" height="160" transform="translate(1038 50)" fill="#373737"/><path opacity="0.8" d="M1053.15 74C1055.37 74 1056.65 72.6257 1056.65 70.353C1056.65 68.0909 1055.37 66.7273 1053.23 66.7273H1050.8V74H1053.15ZM1051.9 73.0412V67.6861H1053.16C1054.75 67.6861 1055.57 68.6378 1055.57 70.353C1055.57 72.0753 1054.75 73.0412 1053.09 73.0412H1051.9ZM1060.38 74.1101C1061.57 74.1101 1062.41 73.5241 1062.65 72.6364L1061.65 72.4553C1061.46 72.9702 1061 73.233 1060.39 73.233C1059.48 73.233 1058.87 72.6435 1058.84 71.5923H1062.72V71.2159C1062.72 69.245 1061.54 68.4744 1060.31 68.4744C1058.79 68.4744 1057.79 69.6321 1057.79 71.3082C1057.79 73.0021 1058.77 74.1101 1060.38 74.1101ZM1058.85 70.7969C1058.89 70.0227 1059.45 69.3516 1060.31 69.3516C1061.14 69.3516 1061.68 69.9624 1061.68 70.7969H1058.85ZM1068.5 68.5455H1067.36L1065.98 72.7429H1065.93L1064.54 68.5455H1063.4L1065.39 74H1066.52L1068.5 68.5455ZM1068.98 67.6719H1071.25V74H1072.34V67.6719H1074.61V66.7273H1068.98V67.6719ZM1077.38 74.1101C1078.91 74.1101 1079.92 72.9844 1079.92 71.2976C1079.92 69.6001 1078.91 68.4744 1077.38 68.4744C1075.84 68.4744 1074.83 69.6001 1074.83 71.2976C1074.83 72.9844 1075.84 74.1101 1077.38 74.1101ZM1077.38 73.2188C1076.37 73.2188 1075.91 72.3416 1075.91 71.294C1075.91 70.25 1076.37 69.3622 1077.38 69.3622C1078.38 69.3622 1078.85 70.25 1078.85 71.294C1078.85 72.3416 1078.38 73.2188 1077.38 73.2188ZM1083.5 74.1101C1085.04 74.1101 1086.04 72.9844 1086.04 71.2976C1086.04 69.6001 1085.04 68.4744 1083.5 68.4744C1081.96 68.4744 1080.96 69.6001 1080.96 71.2976C1080.96 72.9844 1081.96 74.1101 1083.5 74.1101ZM1083.51 73.2188C1082.5 73.2188 1082.03 72.3416 1082.03 71.294C1082.03 70.25 1082.5 69.3622 1083.51 69.3622C1084.5 69.3622 1084.97 70.25 1084.97 71.294C1084.97 72.3416 1084.5 73.2188 1083.51 73.2188ZM1088.39 66.7273H1087.33V74H1088.39V66.7273ZM1094.01 69.8771C1093.79 69.0284 1093.12 68.4744 1091.94 68.4744C1090.71 68.4744 1089.84 69.1243 1089.84 70.0902C1089.84 70.8643 1090.31 71.3793 1091.33 71.6065L1092.25 71.8089C1092.78 71.9261 1093.02 72.1605 1093.02 72.5014C1093.02 72.924 1092.57 73.2543 1091.88 73.2543C1091.24 73.2543 1090.83 72.9808 1090.7 72.4446L1089.68 72.6009C1089.86 73.5668 1090.66 74.1101 1091.88 74.1101C1093.2 74.1101 1094.11 73.4105 1094.11 72.4233C1094.11 71.6527 1093.62 71.1768 1092.62 70.946L1091.76 70.7472C1091.16 70.6051 1090.9 70.4027 1090.9 70.0334C1090.9 69.6143 1091.35 69.3161 1091.95 69.3161C1092.61 69.3161 1092.92 69.6818 1093.04 70.0476L1094.01 69.8771Z" fill="#999999"/><g><rect class="menu1" width="165" height="40" transform="translate(1038 86)" fill="#E5E5E5" fill-opacity="0.1"/><rect x="1050" y="94" width="24" height="24" rx="4" fill="white"/><path d="M1056 104H1068M1057 111H1067C1067.55 111 1068 110.552 1068 110V102C1068 101.448 1067.55 101 1067 101H1057C1056.45 101 1056 101.448 1056 102V110C1056 110.552 1056.45 111 1057 111Z" stroke="#151515"/><path d="M1083.53 111L1084.48 108.322H1088.31L1089.26 111H1090.46L1086.99 101.545H1085.8L1082.33 111H1083.53ZM1084.84 107.307L1086.36 103.041H1086.43L1087.95 107.307H1084.84ZM1091.59 113.659H1092.68V109.911H1092.77C1093.01 110.298 1093.47 111.148 1094.84 111.148C1096.61 111.148 1097.85 109.726 1097.85 107.473C1097.85 105.239 1096.61 103.817 1094.82 103.817C1093.43 103.817 1093.01 104.666 1092.77 105.036H1092.64V103.909H1091.59V113.659ZM1092.66 107.455C1092.66 105.866 1093.36 104.795 1094.69 104.795C1096.07 104.795 1096.76 105.959 1096.76 107.455C1096.76 108.969 1096.06 110.169 1094.69 110.169C1093.38 110.169 1092.66 109.061 1092.66 107.455ZM1099.31 113.659H1100.4V109.911H1100.5C1100.74 110.298 1101.2 111.148 1102.56 111.148C1104.34 111.148 1105.57 109.726 1105.57 107.473C1105.57 105.239 1104.34 103.817 1102.55 103.817C1101.16 103.817 1100.74 104.666 1100.5 105.036H1100.37V103.909H1099.31V113.659ZM1100.39 107.455C1100.39 105.866 1101.09 104.795 1102.42 104.795C1103.8 104.795 1104.48 105.959 1104.48 107.455C1104.48 108.969 1103.78 110.169 1102.42 110.169C1101.11 110.169 1100.39 109.061 1100.39 107.455ZM1108.13 101.545H1107.04V111H1108.13V101.545ZM1109.93 111H1111.02V103.909H1109.93V111ZM1110.49 102.727C1110.91 102.727 1111.26 102.395 1111.26 101.989C1111.26 101.582 1110.91 101.25 1110.49 101.25C1110.06 101.25 1109.71 101.582 1109.71 101.989C1109.71 102.395 1110.06 102.727 1110.49 102.727ZM1115.7 111.148C1117.27 111.148 1118.31 110.188 1118.49 108.932H1117.4C1117.2 109.707 1116.55 110.169 1115.7 110.169C1114.41 110.169 1113.58 109.098 1113.58 107.455C1113.58 105.848 1114.43 104.795 1115.7 104.795C1116.66 104.795 1117.23 105.386 1117.4 106.033H1118.49C1118.31 104.703 1117.18 103.817 1115.68 103.817C1113.76 103.817 1112.49 105.331 1112.49 107.491C1112.49 109.615 1113.71 111.148 1115.7 111.148ZM1121.97 111.166C1123.21 111.166 1123.86 110.501 1124.08 110.04H1124.13V111H1125.22V106.328C1125.22 104.075 1123.51 103.817 1122.6 103.817C1121.53 103.817 1120.31 104.186 1119.76 105.479L1120.79 105.848C1121.03 105.331 1121.6 104.777 1122.64 104.777C1123.64 104.777 1124.13 105.308 1124.13 106.217V106.254C1124.13 106.781 1123.6 106.734 1122.31 106.901C1120.99 107.071 1119.56 107.362 1119.56 108.987C1119.56 110.372 1120.63 111.166 1121.97 111.166ZM1122.14 110.188C1121.27 110.188 1120.64 109.8 1120.64 109.043C1120.64 108.212 1121.4 107.953 1122.25 107.842C1122.71 107.787 1123.95 107.658 1124.13 107.436V108.433C1124.13 109.32 1123.43 110.188 1122.14 110.188ZM1130.1 103.909H1128.59V102.21H1127.5V103.909H1126.43V104.832H1127.5V109.264C1127.5 110.501 1128.5 111.092 1129.42 111.092C1129.82 111.092 1130.08 111.018 1130.23 110.963L1130.01 109.984C1129.92 110.003 1129.77 110.04 1129.53 110.04C1129.05 110.04 1128.59 109.892 1128.59 108.969V104.832H1130.1V103.909ZM1131.55 111H1132.64V103.909H1131.55V111ZM1132.1 102.727C1132.52 102.727 1132.88 102.395 1132.88 101.989C1132.88 101.582 1132.52 101.25 1132.1 101.25C1131.67 101.25 1131.32 101.582 1131.32 101.989C1131.32 102.395 1131.67 102.727 1132.1 102.727ZM1137.32 111.148C1139.24 111.148 1140.53 109.689 1140.53 107.491C1140.53 105.276 1139.24 103.817 1137.32 103.817C1135.4 103.817 1134.1 105.276 1134.1 107.491C1134.1 109.689 1135.4 111.148 1137.32 111.148ZM1137.32 110.169C1135.86 110.169 1135.19 108.913 1135.19 107.491C1135.19 106.07 1135.86 104.795 1137.32 104.795C1138.78 104.795 1139.44 106.07 1139.44 107.491C1139.44 108.913 1138.78 110.169 1137.32 110.169ZM1143.09 106.734C1143.09 105.497 1143.85 104.795 1144.9 104.795C1145.91 104.795 1146.52 105.456 1146.52 106.568V111H1147.61V106.494C1147.61 104.685 1146.65 103.817 1145.21 103.817C1144.14 103.817 1143.47 104.297 1143.14 105.017H1143.05V103.909H1142V111H1143.09V106.734Z" fill="#E5E5E5"/><path d="M1188.05 105.74C1188.25 105.856 1188.25 106.144 1188.05 106.26L1184.45 108.338C1184.25 108.454 1184 108.309 1184 108.078L1184 103.922C1184 103.691 1184.25 103.546 1184.45 103.662L1188.05 105.74Z" fill="#808080"/></g><g><rect class="menu2" width="165" height="40" transform="translate(1038 126)" fill="#E5E5E5" fill-opacity="0.1"/><rect x="1050" y="134" width="24" height="24" rx="4" fill="#5C5C5C"/><path d="M1063.15 145.35H1066.5C1067.05 145.35 1067.5 144.902 1067.5 144.35V141M1067.2 144.5C1066.48 142.461 1064.53 141 1062.25 141C1059.35 141 1057 143.351 1057 146.25C1057 149.149 1059.35 151.5 1062.25 151.5C1064.19 151.5 1065.89 150.444 1066.8 148.875" stroke="white" stroke-linecap="round"/><path d="M1082.63 142.561H1085.6V151H1086.75V142.561H1089.72V141.545H1082.63V142.561ZM1092.26 151.166C1093.5 151.166 1094.15 150.501 1094.37 150.04H1094.43V151H1095.51V146.328C1095.51 144.075 1093.8 143.817 1092.89 143.817C1091.82 143.817 1090.6 144.186 1090.05 145.479L1091.08 145.848C1091.32 145.331 1091.89 144.777 1092.93 144.777C1093.93 144.777 1094.43 145.308 1094.43 146.217V146.254C1094.43 146.781 1093.89 146.734 1092.6 146.901C1091.28 147.071 1089.85 147.362 1089.85 148.987C1089.85 150.372 1090.92 151.166 1092.26 151.166ZM1092.43 150.188C1091.56 150.188 1090.94 149.8 1090.94 149.043C1090.94 148.212 1091.69 147.953 1092.54 147.842C1093 147.787 1094.24 147.658 1094.43 147.436V148.433C1094.43 149.32 1093.72 150.188 1092.43 150.188ZM1102.33 145.497C1101.99 144.491 1101.22 143.817 1099.82 143.817C1098.32 143.817 1097.22 144.666 1097.22 145.866C1097.22 146.845 1097.8 147.501 1099.1 147.805L1100.28 148.082C1101 148.249 1101.33 148.59 1101.33 149.08C1101.33 149.689 1100.69 150.188 1099.67 150.188C1098.78 150.188 1098.22 149.804 1098.03 149.043L1096.99 149.301C1097.25 150.506 1098.24 151.148 1099.69 151.148C1101.34 151.148 1102.46 150.248 1102.46 149.024C1102.46 148.036 1101.84 147.413 1100.58 147.104L1099.52 146.845C1098.68 146.637 1098.31 146.356 1098.31 145.811C1098.31 145.202 1098.95 144.759 1099.82 144.759C1100.77 144.759 1101.16 145.285 1101.35 145.774L1102.33 145.497ZM1103.91 151H1104.99V148.346L1105.76 147.639L1108.41 151H1109.8L1106.58 146.938L1109.57 143.909H1108.23L1105.12 147.067H1104.99V141.545H1103.91V151ZM1115.8 145.497C1115.46 144.491 1114.7 143.817 1113.29 143.817C1111.8 143.817 1110.69 144.666 1110.69 145.866C1110.69 146.845 1111.27 147.501 1112.57 147.805L1113.75 148.082C1114.47 148.249 1114.81 148.59 1114.81 149.08C1114.81 149.689 1114.16 150.188 1113.15 150.188C1112.25 150.188 1111.7 149.804 1111.5 149.043L1110.47 149.301C1110.72 150.506 1111.71 151.148 1113.16 151.148C1114.81 151.148 1115.93 150.248 1115.93 149.024C1115.93 148.036 1115.31 147.413 1114.05 147.104L1113 146.845C1112.16 146.637 1111.78 146.356 1111.78 145.811C1111.78 145.202 1112.43 144.759 1113.29 144.759C1114.24 144.759 1114.64 145.285 1114.83 145.774L1115.8 145.497Z" fill="#E5E5E5"/><path d="M1188.05 145.74C1188.25 145.856 1188.25 146.144 1188.05 146.26L1184.45 148.338C1184.25 148.454 1184 148.309 1184 148.078L1184 143.922C1184 143.691 1184.25 143.546 1184.45 143.662L1188.05 145.74Z" fill="#808080"/></g><g><rect class="menu3" width="165" height="40" transform="translate(1038 166)" fill="#E5E5E5" fill-opacity="0.1"/><rect x="1050" y="174" width="24" height="24" rx="4" fill="#131313"/><path d="M1057 182L1061.08 185.398C1061.56 185.798 1061.56 186.535 1061.08 186.935L1057 190.333M1062 190.333H1067.83" stroke="white" stroke-linecap="round"/><path d="M1082.63 182.561H1085.6V191H1086.75V182.561H1089.72V181.545H1082.63V182.561ZM1093.09 191.148C1094.53 191.148 1095.58 190.428 1095.91 189.357L1094.86 189.061C1094.58 189.8 1093.94 190.169 1093.09 190.169C1091.81 190.169 1090.93 189.343 1090.88 187.824H1096.02V187.362C1096.02 184.722 1094.45 183.817 1092.98 183.817C1091.06 183.817 1089.78 185.331 1089.78 187.51C1089.78 189.689 1091.04 191.148 1093.09 191.148ZM1090.88 186.882C1090.95 185.779 1091.73 184.795 1092.98 184.795C1094.16 184.795 1094.92 185.682 1094.92 186.882H1090.88ZM1097.49 191H1098.58V186.513C1098.58 185.553 1099.33 184.851 1100.37 184.851C1100.66 184.851 1100.96 184.906 1101.03 184.925V183.817C1100.91 183.808 1100.62 183.798 1100.46 183.798C1099.61 183.798 1098.87 184.278 1098.61 184.98H1098.54V183.909H1097.49V191ZM1102.13 191H1103.22V186.568C1103.22 185.529 1103.97 184.795 1104.82 184.795C1105.65 184.795 1106.23 185.336 1106.23 186.143V191H1107.34V186.384C1107.34 185.469 1107.91 184.795 1108.9 184.795C1109.68 184.795 1110.35 185.206 1110.35 186.254V191H1111.43V186.254C1111.43 184.588 1110.54 183.817 1109.27 183.817C1108.26 183.817 1107.52 184.283 1107.15 185.017H1107.08C1106.73 184.26 1106.11 183.817 1105.17 183.817C1104.25 183.817 1103.57 184.26 1103.27 185.017H1103.18V183.909H1102.13V191ZM1113.23 191H1114.32V183.909H1113.23V191ZM1113.79 182.727C1114.21 182.727 1114.56 182.395 1114.56 181.989C1114.56 181.582 1114.21 181.25 1113.79 181.25C1113.36 181.25 1113.01 181.582 1113.01 181.989C1113.01 182.395 1113.36 182.727 1113.79 182.727ZM1117.21 186.734C1117.21 185.497 1117.98 184.795 1119.02 184.795C1120.03 184.795 1120.65 185.456 1120.65 186.568V191H1121.74V186.494C1121.74 184.685 1120.77 183.817 1119.33 183.817C1118.26 183.817 1117.6 184.297 1117.27 185.017H1117.17V183.909H1116.12V191H1117.21V186.734ZM1125.62 191.166C1126.86 191.166 1127.5 190.501 1127.72 190.04H1127.78V191H1128.87V186.328C1128.87 184.075 1127.15 183.817 1126.25 183.817C1125.17 183.817 1123.96 184.186 1123.4 185.479L1124.44 185.848C1124.68 185.331 1125.24 184.777 1126.28 184.777C1127.28 184.777 1127.78 185.308 1127.78 186.217V186.254C1127.78 186.781 1127.24 186.734 1125.95 186.901C1124.63 187.071 1123.2 187.362 1123.2 188.987C1123.2 190.372 1124.27 191.166 1125.62 191.166ZM1125.78 190.188C1124.92 190.188 1124.29 189.8 1124.29 189.043C1124.29 188.212 1125.05 187.953 1125.89 187.842C1126.36 187.787 1127.59 187.658 1127.78 187.436V188.433C1127.78 189.32 1127.08 190.188 1125.78 190.188ZM1131.75 181.545H1130.66V191H1131.75V181.545ZM1138.57 185.497C1138.23 184.491 1137.47 183.817 1136.06 183.817C1134.57 183.817 1133.46 184.666 1133.46 185.866C1133.46 186.845 1134.04 187.501 1135.34 187.805L1136.52 188.082C1137.24 188.249 1137.58 188.59 1137.58 189.08C1137.58 189.689 1136.93 190.188 1135.92 190.188C1135.02 190.188 1134.47 189.804 1134.27 189.043L1133.24 189.301C1133.49 190.506 1134.48 191.148 1135.93 191.148C1137.58 191.148 1138.7 190.248 1138.7 189.024C1138.7 188.036 1138.08 187.413 1136.82 187.104L1135.77 186.845C1134.93 186.637 1134.55 186.356 1134.55 185.811C1134.55 185.202 1135.19 184.759 1136.06 184.759C1137.01 184.759 1137.41 185.285 1137.6 185.774L1138.57 185.497Z" fill="#E5E5E5"/><path d="M1188.05 185.74C1188.25 185.856 1188.25 186.144 1188.05 186.26L1184.45 188.338C1184.25 188.454 1184 188.309 1184 188.078L1184 183.922C1184 183.691 1184.25 183.546 1184.45 183.662L1188.05 185.74Z" fill="#808080"/></g></g><g class="menu1" filter="url(#filter3_dd_65_10704)"><rect width="150" height="88" transform="translate(1199 86)" fill="#373737"/><rect x="1211" y="98" width="24" height="24" rx="4" fill="white"/><path d="M1217 108H1229M1218 115H1228C1228.55 115 1229 114.552 1229 114V106C1229 105.448 1228.55 105 1228 105H1218C1217.45 105 1217 105.448 1217 106V114C1217 114.552 1217.45 115 1218 115Z" stroke="#151515"/><path d="M1244.14 115H1245.29V111.547H1247.36C1249.56 111.547 1250.55 110.208 1250.55 108.537C1250.55 106.866 1249.56 105.545 1247.34 105.545H1244.14V115ZM1245.29 110.531V106.561H1247.3C1248.84 106.561 1249.43 107.401 1249.43 108.537C1249.43 109.673 1248.84 110.531 1247.32 110.531H1245.29ZM1252.05 115H1253.14V110.513C1253.14 109.553 1253.9 108.851 1254.93 108.851C1255.23 108.851 1255.53 108.906 1255.6 108.925V107.817C1255.47 107.808 1255.19 107.798 1255.03 107.798C1254.18 107.798 1253.44 108.278 1253.18 108.98H1253.11V107.909H1252.05V115ZM1259.45 115.148C1260.89 115.148 1261.95 114.428 1262.28 113.357L1261.23 113.061C1260.95 113.8 1260.31 114.169 1259.45 114.169C1258.17 114.169 1257.29 113.343 1257.24 111.824H1262.39V111.362C1262.39 108.722 1260.82 107.817 1259.34 107.817C1257.42 107.817 1256.15 109.331 1256.15 111.51C1256.15 113.689 1257.4 115.148 1259.45 115.148ZM1257.24 110.882C1257.32 109.779 1258.1 108.795 1259.34 108.795C1260.52 108.795 1261.28 109.682 1261.28 110.882H1257.24ZM1269.43 107.909H1268.25L1266.29 113.56H1266.22L1264.26 107.909H1263.08L1265.7 115H1266.81L1269.43 107.909ZM1270.68 115H1271.77V107.909H1270.68V115ZM1271.23 106.727C1271.66 106.727 1272.01 106.395 1272.01 105.989C1272.01 105.582 1271.66 105.25 1271.23 105.25C1270.81 105.25 1270.46 105.582 1270.46 105.989C1270.46 106.395 1270.81 106.727 1271.23 106.727ZM1276.54 115.148C1277.98 115.148 1279.03 114.428 1279.37 113.357L1278.31 113.061C1278.04 113.8 1277.39 114.169 1276.54 114.169C1275.26 114.169 1274.38 113.343 1274.33 111.824H1279.48V111.362C1279.48 108.722 1277.91 107.817 1276.43 107.817C1274.51 107.817 1273.23 109.331 1273.23 111.51C1273.23 113.689 1274.49 115.148 1276.54 115.148ZM1274.33 110.882C1274.4 109.779 1275.18 108.795 1276.43 108.795C1277.61 108.795 1278.37 109.682 1278.37 110.882H1274.33ZM1282.55 115H1283.62L1285.17 109.553H1285.28L1286.83 115H1287.9L1290.06 107.909H1288.92L1287.38 113.32H1287.31L1285.81 107.909H1284.65L1283.14 113.338H1283.06L1281.53 107.909H1280.38L1282.55 115Z" fill="#E5E5E5"/><rect x="1211" y="138" width="24" height="24" rx="4" fill="#5C5C5C"/><path d="M1218 146L1222.08 149.398C1222.56 149.798 1222.56 150.535 1222.08 150.935L1218 154.333M1223 154.333H1228.83" stroke="white" stroke-linecap="round"/><path d="M1244.14 155H1249.68V153.984H1245.29V145.545H1244.14V155ZM1254 155.148C1255.92 155.148 1257.21 153.689 1257.21 151.491C1257.21 149.276 1255.92 147.817 1254 147.817C1252.07 147.817 1250.78 149.276 1250.78 151.491C1250.78 153.689 1252.07 155.148 1254 155.148ZM1254 154.169C1252.54 154.169 1251.87 152.913 1251.87 151.491C1251.87 150.07 1252.54 148.795 1254 148.795C1255.45 148.795 1256.12 150.07 1256.12 151.491C1256.12 152.913 1255.45 154.169 1254 154.169ZM1261.54 157.807C1263.24 157.807 1264.6 157.031 1264.6 155.203V147.909H1263.55V149.036H1263.44C1263.2 148.666 1262.76 147.817 1261.37 147.817C1259.58 147.817 1258.34 149.239 1258.34 151.418C1258.34 153.634 1259.64 154.889 1261.35 154.889C1262.74 154.889 1263.18 154.077 1263.42 153.689H1263.51V155.129C1263.51 156.311 1262.68 156.847 1261.54 156.847C1260.25 156.847 1259.8 156.168 1259.51 155.776L1258.64 156.385C1259.08 157.128 1259.96 157.807 1261.54 157.807ZM1261.5 153.911C1260.14 153.911 1259.43 152.876 1259.43 151.399C1259.43 149.959 1260.12 148.795 1261.5 148.795C1262.83 148.795 1263.53 149.866 1263.53 151.399C1263.53 152.969 1262.81 153.911 1261.5 153.911Z" fill="#E5E5E5"/></g><g class="menu2" filter="url(#filter2_dd_65_10704)"><rect width="190" height="208" transform="translate(1199 126)" fill="#373737"/><rect x="1211" y="138" width="24" height="24" rx="4" fill="#5C5C5C"/><path d="M1224.15 149.35H1227.5C1228.05 149.35 1228.5 148.902 1228.5 148.35V145M1228.2 148.5C1227.48 146.461 1225.53 145 1223.25 145C1220.35 145 1218 147.351 1218 150.25C1218 153.149 1220.35 155.5 1223.25 155.5C1225.19 155.5 1226.89 154.444 1227.8 152.875" stroke="white" stroke-linecap="round"/><path d="M1244.14 155H1245.29V150.771H1249.39V149.756H1245.29V146.561H1249.81V145.545H1244.14V155ZM1253.79 155.148C1255.71 155.148 1257.01 153.689 1257.01 151.491C1257.01 149.276 1255.71 147.817 1253.79 147.817C1251.87 147.817 1250.58 149.276 1250.58 151.491C1250.58 153.689 1251.87 155.148 1253.79 155.148ZM1253.79 154.169C1252.33 154.169 1251.67 152.913 1251.67 151.491C1251.67 150.07 1252.33 148.795 1253.79 148.795C1255.25 148.795 1255.92 150.07 1255.92 151.491C1255.92 152.913 1255.25 154.169 1253.79 154.169ZM1258.47 155H1259.56V150.513C1259.56 149.553 1260.32 148.851 1261.35 148.851C1261.64 148.851 1261.94 148.906 1262.02 148.925V147.817C1261.89 147.808 1261.61 147.798 1261.45 147.798C1260.6 147.798 1259.86 148.278 1259.6 148.98H1259.53V147.909H1258.47V155ZM1263.12 155H1264.2V150.568C1264.2 149.529 1264.96 148.795 1265.81 148.795C1266.64 148.795 1267.21 149.336 1267.21 150.143V155H1268.32V150.384C1268.32 149.469 1268.9 148.795 1269.89 148.795C1270.67 148.795 1271.33 149.206 1271.33 150.254V155H1272.42V150.254C1272.42 148.588 1271.53 147.817 1270.26 147.817C1269.25 147.817 1268.5 148.283 1268.14 149.017H1268.06C1267.71 148.26 1267.09 147.817 1266.16 147.817C1265.24 147.817 1264.56 148.26 1264.26 149.017H1264.17V147.909H1263.12V155ZM1276.31 155.166C1277.54 155.166 1278.19 154.501 1278.41 154.04H1278.47V155H1279.56V150.328C1279.56 148.075 1277.84 147.817 1276.93 147.817C1275.86 147.817 1274.64 148.186 1274.09 149.479L1275.12 149.848C1275.36 149.331 1275.93 148.777 1276.97 148.777C1277.97 148.777 1278.47 149.308 1278.47 150.217V150.254C1278.47 150.781 1277.93 150.734 1276.64 150.901C1275.32 151.071 1273.89 151.362 1273.89 152.987C1273.89 154.372 1274.96 155.166 1276.31 155.166ZM1276.47 154.188C1275.6 154.188 1274.98 153.8 1274.98 153.043C1274.98 152.212 1275.73 151.953 1276.58 151.842C1277.04 151.787 1278.28 151.658 1278.47 151.436V152.433C1278.47 153.32 1277.76 154.188 1276.47 154.188ZM1284.43 147.909H1282.92V146.21H1281.83V147.909H1280.76V148.832H1281.83V153.264C1281.83 154.501 1282.83 155.092 1283.75 155.092C1284.16 155.092 1284.41 155.018 1284.56 154.963L1284.34 153.984C1284.25 154.003 1284.1 154.04 1283.86 154.04C1283.38 154.04 1282.92 153.892 1282.92 152.969V148.832H1284.43V147.909ZM1290.94 155H1292.02L1293.57 149.553H1293.68L1295.23 155H1296.3L1298.46 147.909H1297.32L1295.78 153.32H1295.71L1294.21 147.909H1293.05L1291.54 153.338H1291.46L1289.93 147.909H1288.78L1290.94 155ZM1302.35 155.148C1304.27 155.148 1305.56 153.689 1305.56 151.491C1305.56 149.276 1304.27 147.817 1302.35 147.817C1300.42 147.817 1299.13 149.276 1299.13 151.491C1299.13 153.689 1300.42 155.148 1302.35 155.148ZM1302.35 154.169C1300.89 154.169 1300.22 152.913 1300.22 151.491C1300.22 150.07 1300.89 148.795 1302.35 148.795C1303.8 148.795 1304.47 150.07 1304.47 151.491C1304.47 152.913 1303.8 154.169 1302.35 154.169ZM1307.03 155H1308.12V150.513C1308.12 149.553 1308.87 148.851 1309.91 148.851C1310.2 148.851 1310.5 148.906 1310.57 148.925V147.817C1310.45 147.808 1310.16 147.798 1310 147.798C1309.15 147.798 1308.41 148.278 1308.15 148.98H1308.08V147.909H1307.03V155ZM1311.67 155H1312.76V152.346L1313.52 151.639L1316.17 155H1317.56L1314.34 150.938L1317.34 147.909H1315.99L1312.89 151.067H1312.76V145.545H1311.67V155ZM1323.57 149.497C1323.23 148.491 1322.46 147.817 1321.06 147.817C1319.56 147.817 1318.45 148.666 1318.45 149.866C1318.45 150.845 1319.03 151.501 1320.34 151.805L1321.52 152.082C1322.23 152.249 1322.57 152.59 1322.57 153.08C1322.57 153.689 1321.92 154.188 1320.91 154.188C1320.02 154.188 1319.46 153.804 1319.26 153.043L1318.23 153.301C1318.48 154.506 1319.48 155.148 1320.93 155.148C1322.57 155.148 1323.7 154.248 1323.7 153.024C1323.7 152.036 1323.08 151.413 1321.81 151.104L1320.76 150.845C1319.92 150.637 1319.54 150.356 1319.54 149.811C1319.54 149.202 1320.19 148.759 1321.06 148.759C1322.01 148.759 1322.4 149.285 1322.59 149.774L1323.57 149.497ZM1325.14 157.659H1326.23V153.911H1326.32C1326.56 154.298 1327.03 155.148 1328.39 155.148C1330.16 155.148 1331.4 153.726 1331.4 151.473C1331.4 149.239 1330.16 147.817 1328.37 147.817C1326.99 147.817 1326.56 148.666 1326.32 149.036H1326.19V147.909H1325.14V157.659ZM1326.21 151.455C1326.21 149.866 1326.91 148.795 1328.24 148.795C1329.63 148.795 1330.31 149.959 1330.31 151.455C1330.31 152.969 1329.61 154.169 1328.24 154.169C1326.93 154.169 1326.21 153.061 1326.21 151.455ZM1334.96 155.166C1336.19 155.166 1336.84 154.501 1337.06 154.04H1337.12V155H1338.21V150.328C1338.21 148.075 1336.49 147.817 1335.58 147.817C1334.51 147.817 1333.29 148.186 1332.74 149.479L1333.77 149.848C1334.01 149.331 1334.58 148.777 1335.62 148.777C1336.62 148.777 1337.12 149.308 1337.12 150.217V150.254C1337.12 150.781 1336.58 150.734 1335.29 150.901C1333.97 151.071 1332.54 151.362 1332.54 152.987C1332.54 154.372 1333.61 155.166 1334.96 155.166ZM1335.12 154.188C1334.25 154.188 1333.63 153.8 1333.63 153.043C1333.63 152.212 1334.38 151.953 1335.23 151.842C1335.69 151.787 1336.93 151.658 1337.12 151.436V152.433C1337.12 153.32 1336.41 154.188 1335.12 154.188ZM1342.88 155.148C1344.45 155.148 1345.48 154.188 1345.67 152.932H1344.58C1344.38 153.707 1343.73 154.169 1342.88 154.169C1341.59 154.169 1340.76 153.098 1340.76 151.455C1340.76 149.848 1341.61 148.795 1342.88 148.795C1343.84 148.795 1344.41 149.386 1344.58 150.033H1345.67C1345.48 148.703 1344.36 147.817 1342.86 147.817C1340.94 147.817 1339.67 149.331 1339.67 151.491C1339.67 153.615 1340.88 155.148 1342.88 155.148ZM1350.04 155.148C1351.48 155.148 1352.53 154.428 1352.86 153.357L1351.81 153.061C1351.53 153.8 1350.89 154.169 1350.04 154.169C1348.76 154.169 1347.88 153.343 1347.83 151.824H1352.97V151.362C1352.97 148.722 1351.4 147.817 1349.93 147.817C1348.01 147.817 1346.73 149.331 1346.73 151.51C1346.73 153.689 1347.99 155.148 1350.04 155.148ZM1347.83 150.882C1347.9 149.779 1348.68 148.795 1349.93 148.795C1351.11 148.795 1351.87 149.682 1351.87 150.882H1347.83Z" fill="#E5E5E5"/><rect x="1211" y="178" width="24" height="24" rx="4" fill="#5C5C5C"/><path d="M1224.15 189.35H1227.5C1228.05 189.35 1228.5 188.902 1228.5 188.35V185M1228.2 188.5C1227.48 186.461 1225.53 185 1223.25 185C1220.35 185 1218 187.351 1218 190.25C1218 193.149 1220.35 195.5 1223.25 195.5C1225.19 195.5 1226.89 194.444 1227.8 192.875" stroke="white" stroke-linecap="round"/><path d="M1244.14 195H1245.29V190.771H1249.39V189.756H1245.29V186.561H1249.81V185.545H1244.14V195ZM1251.43 195H1252.52V187.909H1251.43V195ZM1251.99 186.727C1252.41 186.727 1252.76 186.395 1252.76 185.989C1252.76 185.582 1252.41 185.25 1251.99 185.25C1251.56 185.25 1251.21 185.582 1251.21 185.989C1251.21 186.395 1251.56 186.727 1251.99 186.727ZM1255.13 187.909H1253.88L1256.13 191.455L1253.88 195H1255.13L1256.83 192.249L1258.53 195H1259.79L1257.5 191.455L1259.79 187.909H1258.53L1256.83 190.808L1255.13 187.909ZM1265.7 185.545H1264.61V195H1265.7V185.545ZM1267.5 195H1268.59V187.909H1267.5V195ZM1268.05 186.727C1268.48 186.727 1268.83 186.395 1268.83 185.989C1268.83 185.582 1268.48 185.25 1268.05 185.25C1267.63 185.25 1267.28 185.582 1267.28 185.989C1267.28 186.395 1267.63 186.727 1268.05 186.727ZM1271.48 190.734C1271.48 189.497 1272.24 188.795 1273.29 188.795C1274.3 188.795 1274.91 189.456 1274.91 190.568V195H1276V190.494C1276 188.685 1275.04 187.817 1273.6 187.817C1272.53 187.817 1271.87 188.297 1271.53 189.017H1271.44V187.909H1270.39V195H1271.48V190.734ZM1280.88 187.909H1279.37V186.21H1278.28V187.909H1277.21V188.832H1278.28V193.264C1278.28 194.501 1279.28 195.092 1280.2 195.092C1280.6 195.092 1280.86 195.018 1281.01 194.963L1280.79 193.984C1280.7 194.003 1280.55 194.04 1280.31 194.04C1279.83 194.04 1279.37 193.892 1279.37 192.969V188.832H1280.88V187.909Z" fill="#E5E5E5"/><rect x="1211" y="218" width="24" height="24" rx="4" fill="#5C5C5C"/><path d="M1224.15 229.35H1227.5C1228.05 229.35 1228.5 228.902 1228.5 228.35V225M1228.2 228.5C1227.48 226.461 1225.53 225 1223.25 225C1220.35 225 1218 227.351 1218 230.25C1218 233.149 1220.35 235.5 1223.25 235.5C1225.19 235.5 1226.89 234.444 1227.8 232.875" stroke="white" stroke-linecap="round"/><path d="M1243.63 226.561H1246.6V235H1247.75V226.561H1250.72V225.545H1243.63V226.561ZM1254.09 235.148C1255.53 235.148 1256.58 234.428 1256.91 233.357L1255.86 233.061C1255.58 233.8 1254.94 234.169 1254.09 234.169C1252.81 234.169 1251.93 233.343 1251.88 231.824H1257.02V231.362C1257.02 228.722 1255.45 227.817 1253.98 227.817C1252.06 227.817 1250.78 229.331 1250.78 231.51C1250.78 233.689 1252.04 235.148 1254.09 235.148ZM1251.88 230.882C1251.95 229.779 1252.73 228.795 1253.98 228.795C1255.16 228.795 1255.92 229.682 1255.92 230.882H1251.88ZM1263.51 229.497C1263.17 228.491 1262.4 227.817 1261 227.817C1259.5 227.817 1258.39 228.666 1258.39 229.866C1258.39 230.845 1258.98 231.501 1260.28 231.805L1261.46 232.082C1262.17 232.249 1262.51 232.59 1262.51 233.08C1262.51 233.689 1261.87 234.188 1260.85 234.188C1259.96 234.188 1259.4 233.804 1259.21 233.043L1258.17 233.301C1258.43 234.506 1259.42 235.148 1260.87 235.148C1262.52 235.148 1263.64 234.248 1263.64 233.024C1263.64 232.036 1263.02 231.413 1261.75 231.104L1260.7 230.845C1259.86 230.637 1259.48 230.356 1259.48 229.811C1259.48 229.202 1260.13 228.759 1261 228.759C1261.95 228.759 1262.34 229.285 1262.53 229.774L1263.51 229.497ZM1268.17 227.909H1266.65V226.21H1265.56V227.909H1264.49V228.832H1265.56V233.264C1265.56 234.501 1266.56 235.092 1267.48 235.092C1267.89 235.092 1268.15 235.018 1268.3 234.963L1268.07 233.984C1267.98 234.003 1267.83 234.04 1267.59 234.04C1267.11 234.04 1266.65 233.892 1266.65 232.969V228.832H1268.17V227.909ZM1275.16 235.166C1276.4 235.166 1277.04 234.501 1277.26 234.04H1277.32V235H1278.41V230.328C1278.41 228.075 1276.69 227.817 1275.79 227.817C1274.72 227.817 1273.5 228.186 1272.94 229.479L1273.98 229.848C1274.22 229.331 1274.78 228.777 1275.82 228.777C1276.83 228.777 1277.32 229.308 1277.32 230.217V230.254C1277.32 230.781 1276.78 230.734 1275.49 230.901C1274.18 231.071 1272.74 231.362 1272.74 232.987C1272.74 234.372 1273.81 235.166 1275.16 235.166ZM1275.32 234.188C1274.46 234.188 1273.83 233.8 1273.83 233.043C1273.83 232.212 1274.59 231.953 1275.44 231.842C1275.9 231.787 1277.13 231.658 1277.32 231.436V232.433C1277.32 233.32 1276.62 234.188 1275.32 234.188ZM1281.29 225.545H1280.2V235H1281.29V225.545ZM1284.18 225.545H1283.09V235H1284.18V225.545Z" fill="#E5E5E5"/><rect x="1211" y="258" width="24" height="24" rx="4" fill="#5C5C5C"/><path d="M1224.15 269.35H1227.5C1228.05 269.35 1228.5 268.902 1228.5 268.35V265M1228.2 268.5C1227.48 266.461 1225.53 265 1223.25 265C1220.35 265 1218 267.351 1218 270.25C1218 273.149 1220.35 275.5 1223.25 275.5C1225.19 275.5 1226.89 274.444 1227.8 272.875" stroke="white" stroke-linecap="round"/><path d="M1243.63 266.561H1246.6V275H1247.75V266.561H1250.72V265.545H1243.63V266.561ZM1254.09 275.148C1255.53 275.148 1256.58 274.428 1256.91 273.357L1255.86 273.061C1255.58 273.8 1254.94 274.169 1254.09 274.169C1252.81 274.169 1251.93 273.343 1251.88 271.824H1257.02V271.362C1257.02 268.722 1255.45 267.817 1253.98 267.817C1252.06 267.817 1250.78 269.331 1250.78 271.51C1250.78 273.689 1252.04 275.148 1254.09 275.148ZM1251.88 270.882C1251.95 269.779 1252.73 268.795 1253.98 268.795C1255.16 268.795 1255.92 269.682 1255.92 270.882H1251.88ZM1263.51 269.497C1263.17 268.491 1262.4 267.817 1261 267.817C1259.5 267.817 1258.39 268.666 1258.39 269.866C1258.39 270.845 1258.98 271.501 1260.28 271.805L1261.46 272.082C1262.17 272.249 1262.51 272.59 1262.51 273.08C1262.51 273.689 1261.87 274.188 1260.85 274.188C1259.96 274.188 1259.4 273.804 1259.21 273.043L1258.17 273.301C1258.43 274.506 1259.42 275.148 1260.87 275.148C1262.52 275.148 1263.64 274.248 1263.64 273.024C1263.64 272.036 1263.02 271.413 1261.75 271.104L1260.7 270.845C1259.86 270.637 1259.48 270.356 1259.48 269.811C1259.48 269.202 1260.13 268.759 1261 268.759C1261.95 268.759 1262.34 269.285 1262.53 269.774L1263.51 269.497ZM1268.17 267.909H1266.65V266.21H1265.56V267.909H1264.49V268.832H1265.56V273.264C1265.56 274.501 1266.56 275.092 1267.48 275.092C1267.89 275.092 1268.15 275.018 1268.3 274.963L1268.07 273.984C1267.98 274.003 1267.83 274.04 1267.59 274.04C1267.11 274.04 1266.65 273.892 1266.65 272.969V268.832H1268.17V267.909ZM1275.16 275.166C1276.4 275.166 1277.04 274.501 1277.26 274.04H1277.32V275H1278.41V270.328C1278.41 268.075 1276.69 267.817 1275.79 267.817C1274.72 267.817 1273.5 268.186 1272.94 269.479L1273.98 269.848C1274.22 269.331 1274.78 268.777 1275.82 268.777C1276.83 268.777 1277.32 269.308 1277.32 270.217V270.254C1277.32 270.781 1276.78 270.734 1275.49 270.901C1274.18 271.071 1272.74 271.362 1272.74 272.987C1272.74 274.372 1273.81 275.166 1275.16 275.166ZM1275.32 274.188C1274.46 274.188 1273.83 273.8 1273.83 273.043C1273.83 272.212 1274.59 271.953 1275.44 271.842C1275.9 271.787 1277.13 271.658 1277.32 271.436V272.433C1277.32 273.32 1276.62 274.188 1275.32 274.188ZM1280.2 277.659H1281.29V273.911H1281.38C1281.62 274.298 1282.09 275.148 1283.45 275.148C1285.22 275.148 1286.46 273.726 1286.46 271.473C1286.46 269.239 1285.22 267.817 1283.43 267.817C1282.05 267.817 1281.62 268.666 1281.38 269.036H1281.25V267.909H1280.2V277.659ZM1281.27 271.455C1281.27 269.866 1281.97 268.795 1283.3 268.795C1284.69 268.795 1285.37 269.959 1285.37 271.455C1285.37 272.969 1284.67 274.169 1283.3 274.169C1281.99 274.169 1281.27 273.061 1281.27 271.455ZM1287.93 277.659H1289.02V273.911H1289.11C1289.35 274.298 1289.81 275.148 1291.18 275.148C1292.95 275.148 1294.19 273.726 1294.19 271.473C1294.19 269.239 1292.95 267.817 1291.16 267.817C1289.78 267.817 1289.35 268.666 1289.11 269.036H1288.98V267.909H1287.93V277.659ZM1289 271.455C1289 269.866 1289.7 268.795 1291.03 268.795C1292.42 268.795 1293.1 269.959 1293.1 271.455C1293.1 272.969 1292.4 274.169 1291.03 274.169C1289.72 274.169 1289 273.061 1289 271.455Z" fill="#E5E5E5"/><rect x="1211" y="298" width="24" height="24" rx="4" fill="#5C5C5C"/><path d="M1224.15 309.35H1227.5C1228.05 309.35 1228.5 308.902 1228.5 308.35V305M1228.2 308.5C1227.48 306.461 1225.53 305 1223.25 305C1220.35 305 1218 307.351 1218 310.25C1218 313.149 1220.35 315.5 1223.25 315.5C1225.19 315.5 1226.89 314.444 1227.8 312.875" stroke="white" stroke-linecap="round"/><path d="M1244.14 315H1245.29V311.307H1247.36C1247.44 311.307 1247.52 311.307 1247.6 311.302L1249.59 315H1250.92L1248.78 311.094C1249.99 310.684 1250.55 309.7 1250.55 308.445C1250.55 306.773 1249.56 305.545 1247.34 305.545H1244.14V315ZM1245.29 310.273V306.561H1247.3C1248.84 306.561 1249.43 307.309 1249.43 308.445C1249.43 309.58 1248.84 310.273 1247.32 310.273H1245.29ZM1255.01 315.148C1256.45 315.148 1257.51 314.428 1257.84 313.357L1256.79 313.061C1256.51 313.8 1255.87 314.169 1255.01 314.169C1253.74 314.169 1252.85 313.343 1252.8 311.824H1257.95V311.362C1257.95 308.722 1256.38 307.817 1254.9 307.817C1252.98 307.817 1251.71 309.331 1251.71 311.51C1251.71 313.689 1252.96 315.148 1255.01 315.148ZM1252.8 310.882C1252.88 309.779 1253.66 308.795 1254.9 308.795C1256.09 308.795 1256.84 309.682 1256.84 310.882H1252.8ZM1260.5 305.545H1259.41V315H1260.5V305.545ZM1265.28 315.148C1266.72 315.148 1267.77 314.428 1268.1 313.357L1267.05 313.061C1266.77 313.8 1266.13 314.169 1265.28 314.169C1264 314.169 1263.12 313.343 1263.06 311.824H1268.21V311.362C1268.21 308.722 1266.64 307.817 1265.17 307.817C1263.24 307.817 1261.97 309.331 1261.97 311.51C1261.97 313.689 1263.23 315.148 1265.28 315.148ZM1263.06 310.882C1263.14 309.779 1263.92 308.795 1265.17 308.795C1266.35 308.795 1267.1 309.682 1267.1 310.882H1263.06ZM1271.76 315.166C1273 315.166 1273.64 314.501 1273.87 314.04H1273.92V315H1275.01V310.328C1275.01 308.075 1273.29 307.817 1272.39 307.817C1271.32 307.817 1270.1 308.186 1269.54 309.479L1270.58 309.848C1270.82 309.331 1271.39 308.777 1272.43 308.777C1273.43 308.777 1273.92 309.308 1273.92 310.217V310.254C1273.92 310.781 1273.39 310.734 1272.09 310.901C1270.78 311.071 1269.34 311.362 1269.34 312.987C1269.34 314.372 1270.41 315.166 1271.76 315.166ZM1271.93 314.188C1271.06 314.188 1270.43 313.8 1270.43 313.043C1270.43 312.212 1271.19 311.953 1272.04 311.842C1272.5 311.787 1273.74 311.658 1273.92 311.436V312.433C1273.92 313.32 1273.22 314.188 1271.93 314.188ZM1281.83 309.497C1281.49 308.491 1280.72 307.817 1279.32 307.817C1277.82 307.817 1276.71 308.666 1276.71 309.866C1276.71 310.845 1277.29 311.501 1278.6 311.805L1279.78 312.082C1280.49 312.249 1280.83 312.59 1280.83 313.08C1280.83 313.689 1280.18 314.188 1279.17 314.188C1278.28 314.188 1277.72 313.804 1277.52 313.043L1276.49 313.301C1276.74 314.506 1277.74 315.148 1279.19 315.148C1280.83 315.148 1281.96 314.248 1281.96 313.024C1281.96 312.036 1281.34 311.413 1280.07 311.104L1279.02 310.845C1278.18 310.637 1277.8 310.356 1277.8 309.811C1277.8 309.202 1278.45 308.759 1279.32 308.759C1280.27 308.759 1280.66 309.285 1280.85 309.774L1281.83 309.497ZM1286.37 315.148C1287.81 315.148 1288.87 314.428 1289.2 313.357L1288.15 313.061C1287.87 313.8 1287.23 314.169 1286.37 314.169C1285.1 314.169 1284.21 313.343 1284.16 311.824H1289.31V311.362C1289.31 308.722 1287.74 307.817 1286.26 307.817C1284.34 307.817 1283.07 309.331 1283.07 311.51C1283.07 313.689 1284.32 315.148 1286.37 315.148ZM1284.16 310.882C1284.24 309.779 1285.02 308.795 1286.26 308.795C1287.45 308.795 1288.2 309.682 1288.2 310.882H1284.16Z" fill="#E5E5E5"/></g><g class="menu3" filter="url(#filter1_dd_65_10704)"><rect width="187" height="48" transform="translate(1199 166)" fill="#373737"/><path d="M1214.77 193.338H1215.8V190.808H1218.33V189.774H1215.8V187.244H1214.77V189.774H1212.24V190.808H1214.77V193.338ZM1231.48 185.545H1230.35V192.987H1230.26L1225.09 185.545H1223.98V195H1225.13V187.577H1225.22L1230.37 195H1231.48V185.545ZM1236.4 195.148C1237.84 195.148 1238.89 194.428 1239.22 193.357L1238.17 193.061C1237.89 193.8 1237.25 194.169 1236.4 194.169C1235.12 194.169 1234.24 193.343 1234.19 191.824H1239.33V191.362C1239.33 188.722 1237.77 187.817 1236.29 187.817C1234.37 187.817 1233.09 189.331 1233.09 191.51C1233.09 193.689 1234.35 195.148 1236.4 195.148ZM1234.19 190.882C1234.26 189.779 1235.04 188.795 1236.29 188.795C1237.47 188.795 1238.23 189.682 1238.23 190.882H1234.19ZM1242.4 195H1243.47L1245.03 189.553H1245.14L1246.69 195H1247.76L1249.92 187.909H1248.77L1247.24 193.32H1247.17L1245.67 187.909H1244.51L1242.99 193.338H1242.92L1241.39 187.909H1240.24L1242.4 195ZM1254.26 186.561H1257.23V195H1258.37V186.561H1261.35V185.545H1254.26V186.561ZM1264.72 195.148C1266.16 195.148 1267.21 194.428 1267.54 193.357L1266.49 193.061C1266.21 193.8 1265.57 194.169 1264.72 194.169C1263.44 194.169 1262.56 193.343 1262.51 191.824H1267.65V191.362C1267.65 188.722 1266.08 187.817 1264.61 187.817C1262.69 187.817 1261.41 189.331 1261.41 191.51C1261.41 193.689 1262.67 195.148 1264.72 195.148ZM1262.51 190.882C1262.58 189.779 1263.36 188.795 1264.61 188.795C1265.79 188.795 1266.54 189.682 1266.54 190.882H1262.51ZM1269.11 195H1270.2V190.513C1270.2 189.553 1270.96 188.851 1272 188.851C1272.29 188.851 1272.59 188.906 1272.66 188.925V187.817C1272.54 187.808 1272.25 187.798 1272.09 187.798C1271.24 187.798 1270.5 188.278 1270.24 188.98H1270.17V187.909H1269.11V195ZM1273.76 195H1274.85V190.568C1274.85 189.529 1275.6 188.795 1276.45 188.795C1277.28 188.795 1277.86 189.336 1277.86 190.143V195H1278.96V190.384C1278.96 189.469 1279.54 188.795 1280.53 188.795C1281.31 188.795 1281.97 189.206 1281.97 190.254V195H1283.06V190.254C1283.06 188.588 1282.17 187.817 1280.9 187.817C1279.89 187.817 1279.14 188.283 1278.78 189.017H1278.71C1278.35 188.26 1277.74 187.817 1276.8 187.817C1275.88 187.817 1275.2 188.26 1274.9 189.017H1274.81V187.909H1273.76V195ZM1284.86 195H1285.95V187.909H1284.86V195ZM1285.41 186.727C1285.84 186.727 1286.19 186.395 1286.19 185.989C1286.19 185.582 1285.84 185.25 1285.41 185.25C1284.99 185.25 1284.64 185.582 1284.64 185.989C1284.64 186.395 1284.99 186.727 1285.41 186.727ZM1288.84 190.734C1288.84 189.497 1289.61 188.795 1290.65 188.795C1291.66 188.795 1292.27 189.456 1292.27 190.568V195H1293.36V190.494C1293.36 188.685 1292.4 187.817 1290.96 187.817C1289.89 187.817 1289.23 188.297 1288.9 189.017H1288.8V187.909H1287.75V195H1288.84V190.734ZM1297.25 195.166C1298.48 195.166 1299.13 194.501 1299.35 194.04H1299.41V195H1300.5V190.328C1300.5 188.075 1298.78 187.817 1297.87 187.817C1296.8 187.817 1295.58 188.186 1295.03 189.479L1296.06 189.848C1296.3 189.331 1296.87 188.777 1297.91 188.777C1298.91 188.777 1299.41 189.308 1299.41 190.217V190.254C1299.41 190.781 1298.87 190.734 1297.58 190.901C1296.26 191.071 1294.83 191.362 1294.83 192.987C1294.83 194.372 1295.9 195.166 1297.25 195.166ZM1297.41 194.188C1296.55 194.188 1295.92 193.8 1295.92 193.043C1295.92 192.212 1296.67 191.953 1297.52 191.842C1297.99 191.787 1299.22 191.658 1299.41 191.436V192.433C1299.41 193.32 1298.71 194.188 1297.41 194.188ZM1303.38 185.545H1302.29V195H1303.38V185.545Z" fill="#E5E5E5"/></g><defs><filter id="filter0_dd_65_10704" x="1021" y="38" width="199" height="194" filterUnits="userSpaceOnUse" color-interpolation-filters="sRGB"><feFlood flood-opacity="0" result="BackgroundImageFix"/><feColorMatrix in="SourceAlpha" type="matrix" values="0 0 0 0 0 0 0 0 0 0 0 0 0 0 0 0 0 0 127 0" result="hardAlpha"/><feOffset dy="5"/><feGaussianBlur stdDeviation="8.5"/><feColorMatrix type="matrix" values="0 0 0 0 0 0 0 0 0 0 0 0 0 0 0 0 0 0 0.2 0"/><feBlend mode="normal" in2="BackgroundImageFix" result="effect1_dropShadow_65_10704"/><feColorMatrix in="SourceAlpha" type="matrix" values="0 0 0 0 0 0 0 0 0 0 0 0 0 0 0 0 0 0 127 0" result="hardAlpha"/><feOffset dy="2"/><feGaussianBlur stdDeviation="3.5"/><feColorMatrix type="matrix" values="0 0 0 0 0 0 0 0 0 0 0 0 0 0 0 0 0 0 0.15 0"/><feBlend mode="normal" in2="effect1_dropShadow_65_10704" result="effect2_dropShadow_65_10704"/><feBlend mode="normal" in="SourceGraphic" in2="effect2_dropShadow_65_10704" result="shape"/></filter><filter id="filter1_dd_65_10704" x="1182" y="154" width="221" height="82" filterUnits="userSpaceOnUse" color-interpolation-filters="sRGB"><feFlood flood-opacity="0" result="BackgroundImageFix"/><feColorMatrix in="SourceAlpha" type="matrix" values="0 0 0 0 0 0 0 0 0 0 0 0 0 0 0 0 0 0 127 0" result="hardAlpha"/><feOffset dy="5"/><feGaussianBlur stdDeviation="8.5"/><feColorMatrix type="matrix" values="0 0 0 0 0 0 0 0 0 0 0 0 0 0 0 0 0 0 0.2 0"/><feBlend mode="normal" in2="BackgroundImageFix" result="effect1_dropShadow_65_10704"/><feColorMatrix in="SourceAlpha" type="matrix" values="0 0 0 0 0 0 0 0 0 0 0 0 0 0 0 0 0 0 127 0" result="hardAlpha"/><feOffset dy="2"/><feGaussianBlur stdDeviation="3.5"/><feColorMatrix type="matrix" values="0 0 0 0 0 0 0 0 0 0 0 0 0 0 0 0 0 0 0.15 0"/><feBlend mode="normal" in2="effect1_dropShadow_65_10704" result="effect2_dropShadow_65_10704"/><feBlend mode="normal" in="SourceGraphic" in2="effect2_dropShadow_65_10704" result="shape"/></filter><filter id="filter2_dd_65_10704" x="1182" y="114" width="224" height="242" filterUnits="userSpaceOnUse" color-interpolation-filters="sRGB"><feFlood flood-opacity="0" result="BackgroundImageFix"/><feColorMatrix in="SourceAlpha" type="matrix" values="0 0 0 0 0 0 0 0 0 0 0 0 0 0 0 0 0 0 127 0" result="hardAlpha"/><feOffset dy="5"/><feGaussianBlur stdDeviation="8.5"/><feColorMatrix type="matrix" values="0 0 0 0 0 0 0 0 0 0 0 0 0 0 0 0 0 0 0.2 0"/><feBlend mode="normal" in2="BackgroundImageFix" result="effect1_dropShadow_65_10704"/><feColorMatrix in="SourceAlpha" type="matrix" values="0 0 0 0 0 0 0 0 0 0 0 0 0 0 0 0 0 0 127 0" result="hardAlpha"/><feOffset dy="2"/><feGaussianBlur stdDeviation="3.5"/><feColorMatrix type="matrix" values="0 0 0 0 0 0 0 0 0 0 0 0 0 0 0 0 0 0 0.15 0"/><feBlend mode="normal" in2="effect1_dropShadow_65_10704" result="effect2_dropShadow_65_10704"/><feBlend mode="normal" in="SourceGraphic" in2="effect2_dropShadow_65_10704" result="shape"/></filter><filter id="filter3_dd_65_10704" x="1182" y="74" width="184" height="122" filterUnits="userSpaceOnUse" color-interpolation-filters="sRGB"><feFlood flood-opacity="0" result="BackgroundImageFix"/><feColorMatrix in="SourceAlpha" type="matrix" values="0 0 0 0 0 0 0 0 0 0 0 0 0 0 0 0 0 0 127 0" result="hardAlpha"/><feOffset dy="5"/><feGaussianBlur stdDeviation="8.5"/><feColorMatrix type="matrix" values="0 0 0 0 0 0 0 0 0 0 0 0 0 0 0 0 0 0 0.2 0"/><feBlend mode="normal" in2="BackgroundImageFix" result="effect1_dropShadow_65_10704"/><feColorMatrix in="SourceAlpha" type="matrix" values="0 0 0 0 0 0 0 0 0 0 0 0 0 0 0 0 0 0 127 0" result="hardAlpha"/><feOffset dy="2"/><feGaussianBlur stdDeviation="3.5"/><feColorMatrix type="matrix" values="0 0 0 0 0 0 0 0 0 0 0 0 0 0 0 0 0 0 0.15 0"/><feBlend mode="normal" in2="effect1_dropShadow_65_10704" result="effect2_dropShadow_65_10704"/><feBlend mode="normal" in="SourceGraphic" in2="effect2_dropShadow_65_10704" result="shape"/></filter></defs><style>@keyframes animation1{0%{opacity:0}69%{opacity:0}70%{opacity:1}79%{opacity:1}80%{opacity:0}100%{opacity:0}}@keyframes animation2{0%{opacity:1}70%{opacity:1}71%{opacity:0}79%{opacity:0}80%{opacity:1}89%{opacity:1}90%{opacity:0}99%{opacity:0}100%{opacity:1}}@keyframes animation3{0%{opacity:0}89%{opacity:0}90%{opacity:1}99%{opacity:1}100%{opacity:0}}.menu3{opacity:0;animation:animation1 6s 1s infinite forwards}.menu2{opacity:1;animation:animation2 6s 1s infinite forwards}.menu1{opacity:0;animation:animation3 6s 1s infinite forwards}</style></svg>